<svg xmlns="http://www.w3.org/2000/svg" xml:space="preserve" id="_x32_" width="64" height="64" fill="#C1C6C8" version="1.1" viewBox="0 0 512 512"><g id="SVGRepo_iconCarrier"><style>.st0{fill:#c1c6c8}</style><path d="M386.685 265.591V122.374h-261.37v143.217h21.482V143.857h218.406v121.734zM121.636 293.521a10.875 10.875 0 0 0 10.882 10.881h246.951c6 0 10.881-4.867 10.881-10.881 0-6.021-4.881-10.888-10.881-10.888H132.518c-6.014 0-10.882 4.867-10.882 10.888zM373.875 312.417l.21-.448h-21.064c-.433 1.105-.895 2.272-1.412 3.594-13.063 7.72-32.07 19.42-52.77 34.916a398.758 398.758 0 0 0-6.853-6.524c-13.315-12.266-25.273-21.497-34.713-26.979l-2.574-1.552-2.616 1.552c-9.454 5.482-21.398 14.713-34.712 26.979-2.266 2.091-4.574 4.23-6.882 6.489-20.657-15.462-39.636-27.14-52.686-34.853a276.67 276.67 0 0 0-1.44-3.622h-21.091c1.79 4.014 15.539 36.503 27.189 83.874.728 2.86 1.441 5.79 2.168 8.714.448 2.056.909 4.112 1.37 6.223.517 2.252.979 4.546 1.496 6.853 5.693 27.146 10.196 57.902 11.441 90.147l19.622-.692c-.14-4.042-.392-7.958-.658-11.881v-.063c-.084-1.265-.223-2.461-.307-3.713 5.608-16.105 13.174-31.258 22.182-45.342l.028.034c10.196 10.308 19.945 21.434 28.826 33.532a254.618 254.618 0 0 0-16.07 26.343h11.343c3.384-6.042 6.923-11.965 10.797-17.651 3.888 5.686 7.427 11.608 10.811 17.651h11.315c-4.853-9.161-10.21-17.972-16.056-26.343 8.882-12.098 18.643-23.224 28.769-33.532l.042-.042c8.992 14.062 16.56 29.203 22.168 45.287-.084 1.231-.224 2.412-.294 3.65-.266 3.986-.532 8.028-.658 12.07l19.608.692c1.315-32.244 5.818-62.881 11.441-90.021v-.063c.518-2.37 1.049-4.664 1.496-6.916.461-2.112.993-4.168 1.441-6.223.657-2.994 1.384-5.854 2.097-8.714a528.99 528.99 0 0 1 7.133-26.581c5.217-17.867 10.322-32.371 14.112-42.399 1.888-5.042 3.469-8.902 4.503-11.518.59-1.307.995-2.299 1.248-2.928zm-155.581 43.985a519.925 519.925 0 0 1 6.014-5.587c11.692-10.784 22.266-19.014 30.392-24.126 8.14 5.112 18.699 13.343 30.35 24.126 1.93 1.769 3.916 3.671 5.971 5.636-6.783 5.293-13.678 10.964-20.559 17.048a404.29 404.29 0 0 0-15.776 14.748 383.809 383.809 0 0 0-15.776-14.748c-6.895-6.09-13.818-11.776-20.615-17.084v-.013zm-52.042-17.461v-.063a953.787 953.787 0 0 0-3.077-8.763c11.454 7.036 25.427 16.126 40.364 27.252-6.629 6.671-13.384 13.944-20.21 21.791-1.244 1.468-2.49 3.034-3.748 4.524a639.52 639.52 0 0 0-13.329-44.741zm29.399 130.874a608.238 608.238 0 0 0-5.93-40.419 512.38 512.38 0 0 0-2.518-12.762c1.776 1.44 3.552 2.84 5.328 4.35 2.756 2.322 5.567 4.699 8.322 7.154a492.98 492.98 0 0 1 11.79 10.853c-6.377 9.747-12.041 20.062-16.992 30.824zm22.517-38.951c-3.497-3.342-6.993-6.609-10.573-9.706-6-5.364-12.056-10.364-18-15.063-1.888-1.532-3.749-2.888-5.623-4.322-.294-1.259-.559-2.574-.853-3.804-.196-.881-.42-1.692-.616-2.56l.267-.342c1.132-1.42 2.321-2.798 3.44-4.168 8.518-10.07 16.951-19.356 25.146-27.574 6.84 5.329 13.805 11.021 20.742 17.161a373.943 373.943 0 0 1 15.72 14.706c-10.489 10.938-20.56 22.833-29.65 35.672zm36.532 40.447c-9.133-12.028-19.077-23.23-29.328-33.475l-.056-.035c8.923-12.811 18.909-24.692 29.37-35.636 10.462 10.937 20.434 22.811 29.343 35.615-10.253 10.301-20.197 21.447-29.329 33.531zm64.923-41.846a609.386 609.386 0 0 0-5.916 40.321c-4.951-10.748-10.602-21.035-16.965-30.769a495.526 495.526 0 0 1 11.818-10.882 294.352 294.352 0 0 1 8.251-7.098c1.777-1.504 3.553-2.916 5.315-4.357-.853 4.197-1.706 8.394-2.503 12.785zm6.601-31.441c-.294 1.203-.546 2.518-.839 3.749-1.874 1.434-3.749 2.832-5.636 4.322-5.931 4.756-12 9.755-18 15.063-3.58 3.105-7.077 6.371-10.574 9.644l-.014.014c-9.077-12.825-19.133-24.706-29.622-35.622 5.188-5.118 10.433-10.049 15.72-14.706A445.755 445.755 0 0 1 298 363.327c8.126 8.231 16.629 17.511 25.132 27.636 1.259 1.469 2.476 3 3.72 4.518-.208.866-.418 1.676-.628 2.543zm16.867-59.146v.063a652.98 652.98 0 0 0-13.3 44.79c-1.259-1.482-2.49-3.007-3.776-4.447-6.756-7.861-13.567-15.176-20.196-21.91 14.923-11.126 28.91-20.21 40.364-27.259a709.78 709.78 0 0 0-3.092 8.763z" class="st0"/><path d="M0 4.22v390.266h139.958a624.342 624.342 0 0 0-10.378-35.804H35.804V40.025h440.392v318.657h-96.447a614.813 614.813 0 0 0-5.12 16.608c-1.874 6.315-3.51 12.763-5.146 19.196H512V4.22H0z" class="st0"/></g></svg>