<?xml version="1.0" encoding="UTF-8"?>
<svg xmlns="http://www.w3.org/2000/svg" xmlns:xlink="http://www.w3.org/1999/xlink" width="192px" height="192px" viewBox="0 0 192 192" version="1.1">
<g id="surface1">
<path style=" stroke:none;fill-rule:nonzero;fill:rgb(0.392157%,86.274511%,41.960785%);fill-opacity:1;" d="M 149.0625 45.5625 C 149.699219 46.246094 149.691406 46.726562 149.664062 47.621094 C 149.585938 48.761719 149.449219 49.894531 149.308594 51.027344 C 149.277344 51.300781 149.246094 51.578125 149.210938 51.851562 C 149.125 52.570312 149.039062 53.289062 148.953125 54.007812 C 148.8125 55.148438 148.675781 56.292969 148.539062 57.433594 C 148.488281 57.84375 148.441406 58.257812 148.390625 58.671875 C 148.191406 60.316406 148.007812 61.964844 147.875 63.617188 C 147.816406 64.296875 147.765625 64.867188 147.375 65.4375 C 146.792969 65.730469 146.3125 65.785156 145.6875 65.625 C 145.011719 65.179688 144.417969 64.65625 143.8125 64.125 C 143.671875 64.023438 143.527344 63.921875 143.382812 63.816406 C 143.277344 63.734375 143.171875 63.648438 143.0625 63.5625 C 143.0625 63.4375 143.0625 63.316406 143.0625 63.1875 C 142.960938 63.144531 142.859375 63.101562 142.753906 63.058594 C 142.175781 62.734375 141.714844 62.304688 141.234375 61.851562 C 141.140625 61.765625 141.042969 61.675781 140.945312 61.585938 C 140.714844 61.371094 140.480469 61.152344 140.25 60.9375 C 139.1875 61.765625 138.347656 62.726562 137.492188 63.761719 C 137.394531 63.882812 137.292969 64.003906 137.191406 64.125 C 137.101562 64.234375 137.015625 64.339844 136.925781 64.453125 C 136.6875 64.6875 136.6875 64.6875 136.3125 64.6875 C 136.265625 64.796875 136.21875 64.902344 136.171875 65.015625 C 135.90625 65.496094 135.601562 65.8125 135.210938 66.195312 C 135.070312 66.335938 134.925781 66.472656 134.78125 66.617188 C 134.632812 66.761719 134.484375 66.90625 134.332031 67.054688 C 134.039062 67.34375 133.746094 67.628906 133.453125 67.917969 C 133.320312 68.042969 133.191406 68.171875 133.058594 68.300781 C 132.734375 68.609375 132.734375 68.609375 132.5625 69 C 132.4375 69 132.316406 69 132.1875 69 C 132.117188 69.164062 132.117188 69.164062 132.042969 69.328125 C 131.785156 69.796875 131.5 70.109375 131.121094 70.484375 C 130.980469 70.628906 130.839844 70.769531 130.695312 70.917969 C 130.539062 71.066406 130.386719 71.21875 130.230469 71.375 C 130.070312 71.535156 129.914062 71.691406 129.75 71.855469 C 129.414062 72.191406 129.078125 72.523438 128.742188 72.859375 C 128.230469 73.367188 127.722656 73.875 127.210938 74.382812 C 126.886719 74.710938 126.558594 75.035156 126.234375 75.359375 C 126.082031 75.511719 125.929688 75.664062 125.773438 75.816406 C 124.878906 76.707031 123.957031 77.554688 123 78.375 C 122.789062 78.5625 122.582031 78.75 122.371094 78.9375 C 118.730469 82.164062 114.765625 84.257812 109.773438 83.960938 C 107.617188 83.695312 105.550781 83.003906 103.5 82.3125 C 102.582031 83.628906 101.671875 84.949219 100.78125 86.285156 C 100.699219 86.40625 100.617188 86.527344 100.535156 86.652344 C 100.117188 87.277344 100.117188 87.277344 99.75 87.9375 C 99.863281 87.945312 99.976562 87.953125 100.09375 87.964844 C 101.261719 88.066406 102.375 88.257812 103.511719 88.535156 C 103.765625 88.597656 103.765625 88.597656 104.027344 88.660156 C 107.613281 89.558594 111.410156 90.832031 113.519531 94.101562 C 114.722656 96.308594 114.84375 98.496094 114.183594 100.894531 C 112.269531 107.195312 107.152344 112.847656 102.9375 117.75 C 102.816406 117.894531 102.695312 118.035156 102.570312 118.183594 C 102.015625 118.828125 101.441406 119.457031 100.851562 120.070312 C 100.734375 120.191406 100.617188 120.3125 100.5 120.4375 C 99.722656 121.085938 98.921875 121.222656 97.9375 121.195312 C 97.027344 121.050781 96.34375 120.578125 95.738281 119.890625 C 95.265625 119.175781 95.164062 118.507812 95.152344 117.65625 C 95.425781 116.363281 96.230469 115.324219 97.03125 114.304688 C 102.398438 107.714844 102.398438 107.714844 104.625 99.9375 C 104.335938 99.015625 103.882812 98.574219 103.070312 98.105469 C 99.085938 96.296875 94.242188 95.667969 90.082031 97.160156 C 88.148438 97.957031 86.65625 99.070312 85.167969 100.515625 C 84.410156 101.25 84.410156 101.25 84 101.25 C 83.929688 101.414062 83.929688 101.414062 83.859375 101.578125 C 83.589844 102.0625 83.289062 102.386719 82.875 102.75 C 82.75 102.75 82.628906 102.75 82.5 102.75 C 82.449219 102.871094 82.398438 102.988281 82.347656 103.113281 C 82.125 103.5 82.125 103.5 81.5625 103.6875 C 81.4375 103.9375 81.3125 104.1875 81.1875 104.4375 C 80.902344 104.742188 80.609375 105.039062 80.308594 105.328125 C 79.742188 105.882812 79.191406 106.433594 78.679688 107.039062 C 78.027344 107.804688 77.316406 108.503906 76.597656 109.207031 C 75.960938 109.835938 75.371094 110.492188 74.785156 111.167969 C 74.066406 111.988281 73.304688 112.769531 72.554688 113.558594 C 71.945312 114.203125 71.34375 114.851562 70.761719 115.523438 C 70.179688 116.195312 69.566406 116.824219 68.929688 117.445312 C 68.222656 118.09375 68.222656 118.09375 67.6875 118.875 C 67.5625 118.875 67.441406 118.875 67.3125 118.875 C 67.261719 118.984375 67.210938 119.097656 67.160156 119.210938 C 66.933594 119.636719 66.699219 119.90625 66.351562 120.238281 C 66.183594 120.40625 66.183594 120.40625 66.007812 120.578125 C 65.890625 120.691406 65.769531 120.808594 65.648438 120.925781 C 64.722656 121.824219 64.722656 121.824219 63.878906 122.800781 C 63.773438 122.929688 63.667969 123.054688 63.5625 123.1875 C 63.4375 123.1875 63.316406 123.1875 63.1875 123.1875 C 63.117188 123.347656 63.117188 123.347656 63.046875 123.511719 C 62.773438 124.007812 62.453125 124.34375 62.054688 124.742188 C 61.828125 124.972656 61.828125 124.972656 61.59375 125.207031 C 61.355469 125.441406 61.355469 125.441406 61.113281 125.683594 C 60.960938 125.839844 60.804688 125.996094 60.644531 126.15625 C 57.660156 129.132812 57.660156 129.132812 56.203125 129.210938 C 55.070312 129.085938 54.304688 128.824219 53.535156 127.925781 C 52.976562 127.144531 52.722656 126.46875 52.789062 125.5 C 53.109375 123.890625 54.160156 122.699219 55.210938 121.488281 C 55.636719 120.996094 56.046875 120.496094 56.449219 119.988281 C 56.976562 119.324219 57.515625 118.664062 58.054688 118.007812 C 58.542969 117.414062 59.015625 116.820312 59.472656 116.203125 C 60.230469 115.179688 61.078125 114.238281 61.933594 113.296875 C 62.679688 112.472656 63.378906 111.621094 64.078125 110.757812 C 64.621094 110.101562 65.195312 109.476562 65.769531 108.847656 C 66.191406 108.367188 66.59375 107.878906 66.996094 107.378906 C 67.824219 106.355469 68.707031 105.398438 69.601562 104.4375 C 70.121094 103.882812 70.621094 103.3125 71.117188 102.738281 C 71.492188 102.3125 71.875 101.894531 72.257812 101.472656 C 72.839844 100.828125 73.398438 100.167969 73.945312 99.492188 C 74.558594 98.734375 75.191406 98.011719 75.855469 97.300781 C 76.59375 96.507812 77.292969 95.691406 77.960938 94.839844 C 78.378906 94.308594 78.804688 93.785156 79.234375 93.265625 C 81.582031 90.398438 83.6875 87.421875 85.722656 84.328125 C 86.015625 83.882812 86.3125 83.4375 86.609375 83 C 87.464844 81.734375 88.28125 80.457031 89.054688 79.144531 C 89.367188 78.609375 89.691406 78.097656 90.046875 77.589844 C 90.441406 77.058594 90.441406 77.058594 90.375 76.3125 C 90.015625 75.992188 89.683594 75.742188 89.285156 75.480469 C 89.175781 75.40625 89.066406 75.332031 88.953125 75.257812 C 86.519531 73.667969 84.078125 73 81.1875 73.3125 C 76.566406 74.4375 72.753906 79.660156 69.527344 82.90625 C 69.351562 83.082031 69.179688 83.257812 69 83.4375 C 68.75 83.695312 68.75 83.695312 68.496094 83.953125 C 67.734375 84.695312 66.875 85.082031 65.8125 85.125 C 64.421875 84.847656 63.648438 84.285156 62.835938 83.121094 C 62.496094 82.117188 62.59375 81.210938 62.964844 80.222656 C 63.695312 78.789062 64.800781 77.550781 65.8125 76.3125 C 65.894531 76.210938 65.976562 76.109375 66.0625 76.003906 C 70 71.191406 74.96875 65.910156 81.515625 65.101562 C 86.734375 64.628906 90.609375 66.019531 95.277344 68.113281 C 105.671875 73.21875 105.671875 73.21875 116.824219 72.984375 C 119.175781 71.972656 121.054688 70.363281 122.929688 68.652344 C 123.324219 68.296875 123.722656 67.949219 124.125 67.605469 C 125.722656 66.300781 125.722656 66.300781 126.9375 64.6875 C 127.0625 64.6875 127.183594 64.6875 127.3125 64.6875 C 127.355469 64.582031 127.398438 64.476562 127.445312 64.367188 C 127.746094 63.832031 128.121094 63.472656 128.566406 63.046875 C 129.242188 62.386719 129.878906 61.714844 130.492188 61 C 130.90625 60.523438 131.335938 60.066406 131.769531 59.605469 C 132.78125 58.53125 133.753906 57.449219 134.625 56.25 C 134.507812 56.191406 134.394531 56.132812 134.273438 56.074219 C 134.015625 55.945312 133.757812 55.816406 133.5 55.6875 C 133.5 55.5625 133.5 55.441406 133.5 55.3125 C 133.394531 55.261719 133.289062 55.214844 133.179688 55.164062 C 132.210938 54.65625 131.242188 54.058594 130.816406 53.027344 C 130.894531 52.339844 131.105469 52.191406 131.625 51.75 C 132.078125 51.515625 132.078125 51.515625 132.59375 51.320312 C 132.789062 51.242188 132.980469 51.167969 133.179688 51.089844 C 133.390625 51.007812 133.601562 50.929688 133.816406 50.847656 C 134.039062 50.761719 134.257812 50.675781 134.484375 50.585938 C 135.070312 50.359375 135.660156 50.132812 136.25 49.90625 C 137.285156 49.507812 138.324219 49.105469 139.359375 48.703125 C 139.585938 48.613281 139.8125 48.527344 140.046875 48.4375 C 141.910156 47.714844 143.757812 46.964844 145.601562 46.203125 C 145.800781 46.121094 145.996094 46.039062 146.199219 45.957031 C 146.375 45.886719 146.546875 45.8125 146.726562 45.738281 C 147.582031 45.410156 148.15625 45.3125 149.0625 45.5625 Z M 149.0625 45.5625 "/>
<path style=" stroke:none;fill-rule:nonzero;fill:rgb(0.392157%,85.882354%,41.960785%);fill-opacity:1;" d="M 100.066406 31.757812 C 100.296875 31.859375 100.53125 31.957031 100.761719 32.058594 C 101.246094 32.265625 101.730469 32.476562 102.210938 32.6875 C 102.90625 32.988281 103.601562 33.285156 104.292969 33.585938 C 107.828125 35.105469 111.34375 36.667969 114.859375 38.234375 C 115.328125 38.445312 115.796875 38.652344 116.265625 38.863281 C 117.070312 39.222656 117.875 39.582031 118.679688 39.941406 C 118.984375 40.078125 119.289062 40.214844 119.59375 40.347656 C 124.238281 42.425781 124.238281 42.425781 126 43.3125 C 125.902344 44.089844 125.5 44.429688 124.945312 44.953125 C 124.351562 45.53125 123.773438 46.105469 123.234375 46.734375 C 123.132812 46.851562 123.027344 46.972656 122.921875 47.09375 C 122.722656 47.324219 122.527344 47.554688 122.335938 47.785156 C 122.050781 48.105469 122.050781 48.105469 121.5 48.5625 C 120.449219 48.527344 119.53125 48.035156 118.59375 47.601562 C 118.441406 47.53125 118.289062 47.464844 118.132812 47.394531 C 117.203125 46.96875 116.289062 46.519531 115.378906 46.058594 C 113.929688 45.328125 112.449219 44.667969 110.964844 44.015625 C 110.675781 43.886719 110.386719 43.761719 110.097656 43.632812 C 109.476562 43.359375 108.859375 43.085938 108.242188 42.8125 C 107.195312 42.351562 106.152344 41.890625 105.109375 41.425781 C 104.394531 41.109375 103.675781 40.792969 102.960938 40.476562 C 102.792969 40.402344 102.621094 40.324219 102.445312 40.25 C 101.648438 39.894531 100.847656 39.542969 100.046875 39.191406 C 99.5 38.953125 98.957031 38.707031 98.414062 38.453125 C 98.296875 38.398438 98.179688 38.34375 98.058594 38.289062 C 97.746094 38.144531 97.441406 38 97.132812 37.855469 C 95.882812 37.484375 94.800781 38.015625 93.664062 38.511719 C 93.515625 38.574219 93.363281 38.640625 93.210938 38.707031 C 92.722656 38.917969 92.234375 39.128906 91.746094 39.339844 C 91.40625 39.488281 91.0625 39.632812 90.722656 39.78125 C 90.042969 40.074219 89.363281 40.367188 88.683594 40.660156 C 87.898438 41 87.113281 41.335938 86.324219 41.667969 C 76.523438 45.832031 66.933594 50.28125 57.75 55.6875 C 57.578125 55.789062 57.402344 55.890625 57.226562 55.996094 C 56.4375 56.460938 55.652344 56.933594 54.875 57.414062 C 54.285156 57.777344 53.695312 58.085938 53.066406 58.375 C 51.792969 59 51.792969 59 50.8125 60 C 50.414062 61.273438 50.503906 62.605469 50.589844 63.921875 C 50.625 64.503906 50.628906 65.082031 50.625 65.664062 C 50.585938 75.464844 52.234375 85.160156 55.125 94.5 C 55.230469 94.84375 55.230469 94.84375 55.339844 95.195312 C 56.875 100.25 56.875 100.25 59.101562 105.015625 C 59.292969 105.476562 59.25 105.664062 59.0625 106.125 C 58.824219 106.472656 58.824219 106.472656 58.523438 106.828125 C 58.414062 106.960938 58.300781 107.09375 58.1875 107.230469 C 58.070312 107.367188 57.953125 107.507812 57.832031 107.648438 C 57.59375 107.933594 57.355469 108.21875 57.113281 108.507812 C 56.890625 108.777344 56.664062 109.042969 56.4375 109.3125 C 56.128906 109.679688 55.828125 110.046875 55.523438 110.414062 C 55.351562 110.621094 55.351562 110.621094 55.171875 110.835938 C 54.886719 111.195312 54.886719 111.195312 54.9375 111.75 C 54.375 111.5625 54.375 111.5625 54.183594 111.195312 C 54.128906 111.039062 54.070312 110.882812 54.015625 110.722656 C 53.773438 110.082031 53.527344 109.453125 53.242188 108.828125 C 53.144531 108.617188 53.144531 108.617188 53.042969 108.398438 C 52.976562 108.253906 52.910156 108.105469 52.839844 107.953125 C 51.558594 105.128906 50.378906 102.28125 49.394531 99.339844 C 49.328125 99.144531 49.265625 98.953125 49.199219 98.753906 C 48.75 97.386719 48.75 97.386719 48.75 96.75 C 48.625 96.6875 48.503906 96.625 48.375 96.5625 C 48.253906 96.171875 48.152344 95.777344 48.058594 95.378906 C 47.992188 95.101562 47.925781 94.824219 47.863281 94.550781 C 47.824219 94.394531 47.789062 94.238281 47.75 94.078125 C 47.613281 93.515625 47.46875 92.957031 47.324219 92.398438 C 44.648438 82.074219 43.515625 71.59375 43.6875 60.9375 C 43.691406 60.726562 43.695312 60.511719 43.699219 60.296875 C 43.710938 59.648438 43.726562 59.003906 43.746094 58.359375 C 43.75 58.160156 43.753906 57.964844 43.757812 57.761719 C 43.824219 55.976562 43.824219 55.976562 44.4375 55.3125 C 44.941406 54.925781 45.476562 54.597656 46.019531 54.269531 C 46.179688 54.171875 46.335938 54.074219 46.5 53.972656 C 47 53.667969 47.5 53.363281 48 53.0625 C 48.296875 52.882812 48.589844 52.703125 48.886719 52.519531 C 54.761719 48.945312 60.816406 45.707031 66.960938 42.621094 C 67.097656 42.550781 67.238281 42.480469 67.378906 42.410156 C 68.910156 41.640625 70.449219 40.90625 72.023438 40.230469 C 72.867188 39.867188 73.699219 39.484375 74.53125 39.09375 C 75.984375 38.40625 77.457031 37.769531 78.9375 37.136719 C 79.144531 37.046875 79.144531 37.046875 79.355469 36.957031 C 83.894531 35.015625 88.464844 33.15625 93.046875 31.324219 C 93.226562 31.253906 93.226562 31.253906 93.410156 31.179688 C 96.246094 30.042969 97.289062 30.550781 100.066406 31.757812 Z M 100.066406 31.757812 "/>
<path style=" stroke:none;fill-rule:nonzero;fill:rgb(0.392157%,85.882354%,41.960785%);fill-opacity:1;" d="M 141.1875 69.75 C 141.71875 70.003906 142.117188 70.230469 142.5 70.6875 C 142.5 70.8125 142.5 70.933594 142.5 71.0625 C 142.601562 71.101562 142.703125 71.140625 142.808594 71.183594 C 143.410156 71.53125 143.851562 72.007812 144.328125 72.503906 C 145.082031 73.277344 145.84375 74.015625 146.679688 74.699219 C 146.785156 74.800781 146.890625 74.898438 147 75 C 147.140625 75.128906 147.28125 75.257812 147.425781 75.390625 C 147.914062 76.210938 147.738281 76.847656 147.585938 77.765625 C 147.558594 77.953125 147.53125 78.140625 147.5 78.332031 C 147.402344 78.972656 147.296875 79.613281 147.1875 80.25 C 147.132812 80.59375 147.132812 80.59375 147.074219 80.945312 C 144.410156 97.171875 138.519531 114.003906 127.179688 126.269531 C 126.769531 126.726562 126.390625 127.199219 126.007812 127.683594 C 125.054688 128.855469 124.007812 129.917969 122.933594 130.980469 C 122.613281 131.296875 122.289062 131.617188 121.96875 131.941406 C 120.90625 133 119.835938 134.03125 118.6875 135 C 118.476562 135.183594 118.269531 135.363281 118.058594 135.546875 C 113.574219 139.433594 108.714844 142.738281 103.6875 145.875 C 103.503906 145.988281 103.324219 146.105469 103.136719 146.222656 C 102.078125 146.875 100.980469 147.425781 99.863281 147.972656 C 98.988281 148.40625 98.136719 148.886719 97.28125 149.367188 C 96.550781 149.722656 96.097656 149.890625 95.296875 149.671875 C 91.578125 148.046875 88.144531 145.835938 84.75 143.625 C 84.539062 143.488281 84.328125 143.355469 84.117188 143.21875 C 79.917969 140.484375 75.914062 137.316406 72.261719 133.886719 C 71.820312 133.472656 71.378906 133.078125 70.898438 132.707031 C 70.765625 132.597656 70.636719 132.488281 70.5 132.375 C 70.5 132.25 70.5 132.128906 70.5 132 C 70.390625 131.953125 70.28125 131.902344 70.167969 131.851562 C 69.714844 131.605469 69.421875 131.339844 69.0625 130.972656 C 68.9375 130.847656 68.8125 130.722656 68.683594 130.59375 C 68.492188 130.394531 68.492188 130.394531 68.296875 130.195312 C 68.167969 130.0625 68.035156 129.929688 67.902344 129.792969 C 67.578125 129.46875 67.257812 129.140625 66.9375 128.8125 C 67.0625 128.503906 67.183594 128.195312 67.3125 127.875 C 67.4375 127.875 67.558594 127.875 67.6875 127.875 C 67.6875 127.75 67.6875 127.628906 67.6875 127.5 C 67.96875 127.222656 67.96875 127.222656 68.355469 126.902344 C 69.019531 126.339844 69.632812 125.75 70.230469 125.117188 C 70.5 124.875 70.5 124.875 70.875 124.875 C 70.875 124.75 70.875 124.628906 70.875 124.5 C 71.25 124.195312 71.25 124.195312 71.625 123.9375 C 72.339844 124.230469 72.800781 124.679688 73.3125 125.25 C 73.3125 125.375 73.3125 125.496094 73.3125 125.625 C 73.476562 125.695312 73.476562 125.695312 73.644531 125.769531 C 74.101562 126.023438 74.398438 126.296875 74.761719 126.675781 C 74.890625 126.808594 75.023438 126.941406 75.15625 127.082031 C 75.363281 127.292969 75.363281 127.292969 75.574219 127.511719 C 76.609375 128.566406 77.636719 129.566406 78.808594 130.472656 C 79.253906 130.828125 79.675781 131.199219 80.101562 131.585938 C 80.972656 132.363281 81.886719 133.074219 82.828125 133.769531 C 82.992188 133.894531 83.160156 134.015625 83.328125 134.144531 C 86.675781 136.621094 90.15625 138.941406 93.785156 140.988281 C 93.917969 141.066406 94.050781 141.140625 94.1875 141.21875 C 94.3125 141.289062 94.4375 141.355469 94.566406 141.425781 C 94.671875 141.484375 94.777344 141.542969 94.886719 141.605469 C 95.574219 141.878906 96.136719 142.023438 96.84375 141.769531 C 97 141.679688 97.152344 141.585938 97.308594 141.496094 C 97.484375 141.394531 97.65625 141.296875 97.835938 141.191406 C 98.019531 141.082031 98.203125 140.972656 98.390625 140.859375 C 98.582031 140.75 98.769531 140.636719 98.96875 140.523438 C 99.542969 140.183594 100.117188 139.84375 100.6875 139.5 C 100.933594 139.355469 100.933594 139.355469 101.183594 139.207031 C 106.246094 136.183594 111.539062 132.738281 115.652344 128.460938 C 116.0625 128.0625 116.0625 128.0625 116.4375 128.0625 C 116.4375 127.9375 116.4375 127.816406 116.4375 127.6875 C 116.5625 127.6875 116.683594 127.6875 116.8125 127.6875 C 116.8125 127.5625 116.8125 127.441406 116.8125 127.3125 C 117.066406 127.066406 117.066406 127.066406 117.433594 126.773438 C 118.410156 125.941406 119.253906 125 120.105469 124.046875 C 120.367188 123.757812 120.632812 123.472656 120.898438 123.191406 C 122.035156 121.980469 123.074219 120.71875 124.066406 119.390625 C 124.320312 119.050781 124.578125 118.71875 124.835938 118.386719 C 127.125 115.429688 129.085938 112.25 130.851562 108.957031 C 131.054688 108.578125 131.261719 108.203125 131.472656 107.828125 C 134.042969 103.203125 135.929688 98.160156 137.34375 93.070312 C 137.441406 92.714844 137.441406 92.714844 137.542969 92.351562 C 137.890625 91.101562 137.890625 91.101562 138 89.8125 C 138.125 89.8125 138.246094 89.8125 138.375 89.8125 C 138.394531 89.617188 138.414062 89.421875 138.4375 89.21875 C 138.578125 88.066406 138.84375 86.9375 139.089844 85.804688 C 140.203125 80.515625 140.917969 75.152344 141.1875 69.75 Z M 141.1875 69.75 "/>
<path style=" stroke:none;fill-rule:nonzero;fill:rgb(0.392157%,85.882354%,41.960785%);fill-opacity:1;" d="M 106.765625 49.015625 C 107.1875 49.289062 107.59375 49.578125 108 49.875 C 108.125 49.957031 108.253906 50.042969 108.382812 50.128906 C 109.027344 50.558594 109.371094 50.867188 109.6875 51.5625 C 109.789062 51.742188 109.890625 51.925781 110 52.109375 C 111.265625 54.4375 111.753906 56.832031 111 59.4375 C 109.964844 62.175781 108.210938 64.015625 105.5625 65.25 C 103.175781 66.152344 101.019531 65.886719 98.703125 64.910156 C 96.386719 63.773438 94.980469 61.738281 94.078125 59.390625 C 93.445312 56.21875 93.96875 53.949219 95.671875 51.234375 C 95.78125 51.09375 95.886719 50.957031 96 50.8125 C 96.125 50.8125 96.246094 50.8125 96.375 50.8125 C 96.375 50.6875 96.375 50.566406 96.375 50.4375 C 99.316406 47.898438 103.28125 46.964844 106.765625 49.015625 Z M 106.765625 49.015625 "/>
<path style=" stroke:none;fill-rule:nonzero;fill:rgb(5.490196%,74.901962%,37.254903%);fill-opacity:1;" d="M 95.277344 68.113281 C 96.410156 68.621094 97.546875 69.117188 98.683594 69.609375 C 98.898438 69.703125 99.109375 69.792969 99.328125 69.886719 C 101.027344 70.613281 102.746094 71.253906 104.488281 71.855469 C 104.671875 71.917969 104.855469 71.984375 105.042969 72.046875 C 105.203125 72.101562 105.363281 72.15625 105.527344 72.214844 C 105.9375 72.375 105.9375 72.375 106.5 72.75 C 105.597656 72.660156 104.902344 72.527344 104.0625 72.1875 C 103.785156 72.136719 103.507812 72.089844 103.230469 72.046875 C 101.929688 71.804688 100.757812 71.234375 99.5625 70.6875 C 99.5625 70.5625 99.5625 70.441406 99.5625 70.3125 C 99.335938 70.242188 99.113281 70.175781 98.882812 70.105469 C 97.761719 69.730469 96.699219 69.234375 95.628906 68.742188 C 90.066406 66.1875 85.039062 64.433594 78.9375 66.1875 C 78.761719 66.261719 78.585938 66.335938 78.402344 66.410156 C 78 66.5625 78 66.5625 77.4375 66.375 C 83.679688 63.542969 89.429688 65.492188 95.277344 68.113281 Z M 95.277344 68.113281 "/>
<path style=" stroke:none;fill-rule:nonzero;fill:rgb(4.705882%,81.960785%,39.607844%);fill-opacity:1;" d="M 64.5 78 C 64.628906 78.320312 64.628906 78.320312 64.6875 78.75 C 64.464844 79.171875 64.464844 79.171875 64.148438 79.605469 C 63.375 80.671875 63.222656 81.570312 63.375 82.875 C 63.757812 83.511719 64.070312 83.777344 64.6875 84.1875 C 64.6875 84.3125 64.6875 84.433594 64.6875 84.5625 C 66.078125 84.652344 66.898438 84.582031 68.0625 83.8125 C 68.1875 83.875 68.308594 83.9375 68.4375 84 C 67.65625 84.757812 66.886719 85.070312 65.8125 85.125 C 64.6875 84.949219 63.902344 84.527344 63.1875 83.625 C 62.59375 82.773438 62.554688 82.109375 62.691406 81.109375 C 62.988281 79.917969 63.699219 78.917969 64.5 78 Z M 64.5 78 "/>
<path style=" stroke:none;fill-rule:nonzero;fill:rgb(5.490196%,77.254903%,38.039216%);fill-opacity:1;" d="M 53.4375 89.4375 C 53.804688 89.984375 53.945312 90.378906 54.125 91.003906 C 54.183594 91.207031 54.242188 91.410156 54.300781 91.621094 C 54.363281 91.839844 54.425781 92.058594 54.492188 92.285156 C 55.4375 95.527344 56.414062 98.761719 57.761719 101.863281 C 57.9375 102.375 57.9375 102.375 57.75 102.9375 C 57.472656 102.101562 57.472656 102.101562 57.1875 101.25 C 57.0625 101.25 56.941406 101.25 56.8125 101.25 C 56.597656 100.726562 56.390625 100.203125 56.179688 99.679688 C 56.121094 99.535156 56.0625 99.390625 56 99.238281 C 55.644531 98.34375 55.410156 97.488281 55.238281 96.539062 C 55.097656 95.875 54.914062 95.222656 54.71875 94.570312 C 54.683594 94.445312 54.644531 94.320312 54.605469 94.191406 C 54.453125 93.667969 54.292969 93.144531 54.136719 92.625 C 54.023438 92.238281 53.90625 91.851562 53.792969 91.464844 C 53.726562 91.238281 53.65625 91.011719 53.585938 90.777344 C 53.4375 90.1875 53.4375 90.1875 53.4375 89.4375 Z M 53.4375 89.4375 "/>
<path style=" stroke:none;fill-rule:nonzero;fill:rgb(6.27451%,77.254903%,38.431373%);fill-opacity:1;" d="M 57.375 118.875 C 57.4375 119 57.5 119.121094 57.5625 119.25 C 57.082031 120.214844 56.484375 121.007812 55.78125 121.816406 C 55.691406 121.921875 55.605469 122.023438 55.511719 122.132812 C 55.136719 122.566406 54.757812 122.992188 54.34375 123.390625 C 53.621094 124.144531 53.355469 124.753906 53.355469 125.800781 C 53.378906 126.8125 53.527344 127.304688 54.1875 128.0625 C 54.3125 128.25 54.433594 128.433594 54.5625 128.625 C 53.652344 128.238281 53.265625 127.640625 52.875 126.75 C 52.617188 125.613281 52.9375 124.6875 53.484375 123.6875 C 54.132812 122.699219 54.917969 121.828125 55.6875 120.9375 C 56.097656 120.433594 56.503906 119.921875 56.90625 119.410156 C 57.1875 119.0625 57.1875 119.0625 57.375 118.875 Z M 57.375 118.875 "/>
<path style=" stroke:none;fill-rule:nonzero;fill:rgb(5.490196%,77.64706%,38.039216%);fill-opacity:1;" d="M 110.625 36.5625 C 111.546875 36.6875 112.324219 37.0625 113.164062 37.445312 C 113.320312 37.519531 113.476562 37.589844 113.636719 37.660156 C 114.136719 37.886719 114.636719 38.117188 115.136719 38.34375 C 115.460938 38.492188 115.789062 38.640625 116.113281 38.785156 C 116.761719 39.082031 117.414062 39.375 118.066406 39.671875 C 119.644531 40.390625 121.230469 41.101562 122.8125 41.8125 C 122.25 42 122.25 42 121.808594 41.832031 C 121.640625 41.75 121.472656 41.664062 121.300781 41.578125 C 120.617188 41.25 119.96875 40.980469 119.238281 40.78125 C 118.238281 40.503906 117.351562 40.054688 116.4375 39.5625 C 116.4375 39.4375 116.4375 39.316406 116.4375 39.1875 C 116.085938 39.078125 116.085938 39.078125 115.730469 38.96875 C 114.644531 38.605469 113.617188 38.132812 112.582031 37.652344 C 112.394531 37.566406 112.203125 37.480469 112.007812 37.390625 C 111.546875 37.175781 111.085938 36.964844 110.625 36.75 C 110.625 36.6875 110.625 36.625 110.625 36.5625 Z M 110.625 36.5625 "/>
<path style=" stroke:none;fill-rule:nonzero;fill:rgb(6.666667%,74.901962%,37.64706%);fill-opacity:1;" d="M 141.1875 69.75 C 141.433594 69.875 141.683594 69.996094 141.9375 70.125 C 141.875 70.25 141.8125 70.371094 141.75 70.5 C 141.625 70.4375 141.503906 70.375 141.375 70.3125 C 141.382812 70.484375 141.390625 70.65625 141.402344 70.832031 C 141.527344 74.644531 140.894531 78.53125 140.226562 82.277344 C 140.195312 82.445312 140.167969 82.609375 140.136719 82.78125 C 140 83.503906 139.851562 84.097656 139.5 84.75 C 139.617188 83.375 139.816406 82.023438 140.039062 80.660156 C 140.613281 77.050781 141.003906 73.402344 141.1875 69.75 Z M 141.1875 69.75 "/>
<path style=" stroke:none;fill-rule:nonzero;fill:rgb(5.490196%,79.215688%,38.82353%);fill-opacity:1;" d="M 96.5625 115.5 C 96.5625 116.0625 96.5625 116.0625 96.1875 116.625 C 95.910156 117.59375 95.90625 118.597656 96.105469 119.578125 C 96.5 120.195312 97.015625 120.496094 97.6875 120.75 C 98.6875 120.871094 99.253906 120.664062 100.125 120.1875 C 100.3125 120.1875 100.496094 120.1875 100.6875 120.1875 C 99.773438 120.953125 99.128906 121.207031 97.953125 121.1875 C 97.035156 121.058594 96.347656 120.582031 95.738281 119.890625 C 95.175781 119.039062 95.097656 118.1875 95.25 117.1875 C 95.542969 116.394531 95.84375 115.945312 96.5625 115.5 Z M 96.5625 115.5 "/>
<path style=" stroke:none;fill-rule:nonzero;fill:rgb(3.137255%,81.960785%,39.607844%);fill-opacity:1;" d="M 129 62.625 C 129 63.1875 129 63.1875 128.734375 63.488281 C 128.5 63.699219 128.265625 63.910156 128.03125 64.121094 C 127.660156 64.492188 127.660156 64.492188 127.453125 65.011719 C 127 65.859375 126.367188 66.441406 125.683594 67.101562 C 125.550781 67.230469 125.421875 67.359375 125.285156 67.492188 C 124.960938 67.808594 124.636719 68.125 124.3125 68.4375 C 124.125 68.3125 123.941406 68.191406 123.75 68.0625 C 124.238281 67.570312 124.730469 67.082031 125.222656 66.59375 C 125.40625 66.417969 125.585938 66.238281 125.765625 66.058594 C 125.90625 65.921875 125.90625 65.921875 126.046875 65.78125 C 126.554688 65.285156 126.554688 65.285156 126.9375 64.6875 C 127.0625 64.6875 127.183594 64.6875 127.3125 64.6875 C 127.359375 64.578125 127.410156 64.46875 127.457031 64.355469 C 127.710938 63.898438 127.992188 63.597656 128.367188 63.234375 C 128.484375 63.121094 128.605469 63.003906 128.726562 62.886719 C 128.863281 62.757812 128.863281 62.757812 129 62.625 Z M 129 62.625 "/>
<path style=" stroke:none;fill-rule:nonzero;fill:rgb(5.098039%,79.607844%,38.82353%);fill-opacity:1;" d="M 66.375 50.4375 C 66.5 50.5 66.621094 50.5625 66.75 50.625 C 66.640625 50.683594 66.527344 50.746094 66.414062 50.808594 C 65.890625 51.089844 65.371094 51.375 64.851562 51.65625 C 64.664062 51.757812 64.476562 51.859375 64.285156 51.964844 C 63.445312 52.421875 62.605469 52.882812 61.78125 53.363281 C 61.660156 53.4375 61.539062 53.507812 61.414062 53.578125 C 61.097656 53.765625 60.78125 53.953125 60.464844 54.144531 C 60.234375 54.257812 60.234375 54.257812 60 54.375 C 59.875 54.3125 59.753906 54.25 59.625 54.1875 C 59.859375 54.054688 59.859375 54.054688 60.097656 53.921875 C 60.300781 53.804688 60.503906 53.6875 60.714844 53.566406 C 61.019531 53.394531 61.019531 53.394531 61.328125 53.21875 C 61.78125 52.933594 62.074219 52.691406 62.4375 52.3125 C 63.453125 51.609375 64.472656 51.074219 65.660156 50.726562 C 66.015625 50.632812 66.015625 50.632812 66.375 50.4375 Z M 66.375 50.4375 "/>
<path style=" stroke:none;fill-rule:nonzero;fill:rgb(3.921569%,81.568629%,39.215687%);fill-opacity:1;" d="M 99.5625 70.5 C 100.785156 70.398438 101.695312 70.757812 102.820312 71.214844 C 103.15625 71.347656 103.496094 71.484375 103.832031 71.617188 C 103.996094 71.679688 104.15625 71.746094 104.324219 71.8125 C 105.042969 72.089844 105.769531 72.328125 106.5 72.5625 C 105.878906 72.738281 105.582031 72.738281 104.976562 72.503906 C 104.375 72.285156 103.8125 72.136719 103.183594 72.035156 C 101.898438 71.800781 100.742188 71.226562 99.5625 70.6875 C 99.5625 70.625 99.5625 70.5625 99.5625 70.5 Z M 99.5625 70.5 "/>
<path style=" stroke:none;fill-rule:nonzero;fill:rgb(3.137255%,84.705883%,40.784314%);fill-opacity:1;" d="M 92.8125 140.625 C 93.460938 140.8125 94.019531 141.035156 94.59375 141.386719 C 95.203125 141.738281 95.652344 141.953125 96.375 141.9375 C 96.824219 141.714844 97.242188 141.46875 97.660156 141.195312 C 98.0625 141 98.0625 141 98.488281 141.0625 C 98.59375 141.105469 98.703125 141.144531 98.8125 141.1875 C 96.699219 142.59375 96.699219 142.59375 95.722656 142.414062 C 94.898438 142.191406 94.335938 142.011719 93.75 141.375 C 93.4375 141.1875 93.125 141 92.8125 140.8125 C 92.8125 140.75 92.8125 140.6875 92.8125 140.625 Z M 92.8125 140.625 "/>
<path style=" stroke:none;fill-rule:nonzero;fill:rgb(7.450981%,72.941178%,35.294119%);fill-opacity:1;" d="M 63 123.1875 C 63 123.75 63 123.75 62.683594 124.136719 C 62.535156 124.28125 62.390625 124.429688 62.238281 124.578125 C 62.078125 124.742188 61.914062 124.902344 61.75 125.070312 C 61.578125 125.238281 61.40625 125.40625 61.230469 125.578125 C 61.066406 125.742188 60.902344 125.910156 60.730469 126.078125 C 59.730469 127.074219 58.699219 127.976562 57.5625 128.8125 C 57.4375 128.75 57.316406 128.6875 57.1875 128.625 C 57.5 128.3125 57.8125 128 58.125 127.6875 C 58.21875 127.585938 58.3125 127.488281 58.40625 127.382812 C 58.6875 127.125 58.6875 127.125 59.121094 126.878906 C 59.640625 126.550781 60.023438 126.207031 60.453125 125.769531 C 60.605469 125.617188 60.753906 125.46875 60.90625 125.3125 C 61.058594 125.15625 61.214844 125 61.371094 124.839844 C 61.605469 124.601562 61.605469 124.601562 61.847656 124.359375 C 62.230469 123.96875 62.617188 123.578125 63 123.1875 Z M 63 123.1875 "/>
<path style=" stroke:none;fill-rule:nonzero;fill:rgb(4.705882%,80.784315%,38.82353%);fill-opacity:1;" d="M 68.625 105.5625 C 68.625 106.78125 67.382812 107.921875 66.5625 108.75 C 66.078125 109.148438 65.582031 109.519531 65.0625 109.875 C 65.347656 109.21875 65.738281 108.757812 66.222656 108.234375 C 66.890625 107.507812 67.542969 106.773438 68.191406 106.03125 C 68.332031 105.871094 68.476562 105.710938 68.625 105.5625 Z M 68.625 105.5625 "/>
<path style=" stroke:none;fill-rule:nonzero;fill:rgb(4.705882%,81.568629%,39.215687%);fill-opacity:1;" d="M 92.8125 147.9375 C 93.511719 148.160156 94.1875 148.414062 94.863281 148.699219 C 95.628906 149.011719 96.304688 149.179688 97.125 149.25 C 96.660156 149.714844 96.460938 149.765625 95.8125 149.8125 C 95.335938 149.664062 94.917969 149.511719 94.464844 149.308594 C 94.347656 149.261719 94.230469 149.210938 94.109375 149.164062 C 93.578125 148.929688 93.238281 148.765625 92.921875 148.273438 C 92.882812 148.164062 92.847656 148.050781 92.8125 147.9375 Z M 92.8125 147.9375 "/>
<path style=" stroke:none;fill-rule:nonzero;fill:rgb(5.490196%,77.64706%,38.039216%);fill-opacity:1;" d="M 110.25 43.5 C 111.027344 43.617188 111.644531 43.882812 112.347656 44.226562 C 113.273438 44.667969 114.160156 45 115.15625 45.238281 C 115.269531 45.28125 115.382812 45.328125 115.5 45.375 C 115.5625 45.5625 115.625 45.746094 115.6875 45.9375 C 116.0625 46.164062 116.0625 46.164062 116.4375 46.3125 C 115.640625 46.191406 114.988281 45.917969 114.261719 45.574219 C 114.144531 45.519531 114.03125 45.464844 113.910156 45.410156 C 113.546875 45.238281 113.179688 45.066406 112.816406 44.894531 C 112.566406 44.777344 112.320312 44.660156 112.070312 44.542969 C 111.464844 44.261719 110.855469 43.972656 110.25 43.6875 C 110.25 43.625 110.25 43.5625 110.25 43.5 Z M 110.25 43.5 "/>
<path style=" stroke:none;fill-rule:nonzero;fill:rgb(5.490196%,78.431374%,38.431373%);fill-opacity:1;" d="M 71.0625 70.5 C 71.1875 70.5625 71.308594 70.625 71.4375 70.6875 C 71.296875 70.824219 71.152344 70.960938 71.007812 71.097656 C 70.816406 71.28125 70.628906 71.464844 70.441406 71.648438 C 70.347656 71.738281 70.253906 71.828125 70.15625 71.917969 C 69.683594 72.382812 69.378906 72.738281 69.082031 73.34375 C 68.773438 73.949219 68.507812 74.15625 67.933594 74.507812 C 67.707031 74.648438 67.707031 74.648438 67.472656 74.792969 C 67.359375 74.863281 67.242188 74.929688 67.125 75 C 67.375 74.4375 67.648438 74.0625 68.097656 73.640625 C 68.707031 73.050781 69.261719 72.429688 69.816406 71.789062 C 70.214844 71.335938 70.632812 70.917969 71.0625 70.5 Z M 71.0625 70.5 "/>
<path style=" stroke:none;fill-rule:nonzero;fill:rgb(4.705882%,80.784315%,39.215687%);fill-opacity:1;" d="M 75 136.125 C 75.148438 136.1875 75.292969 136.25 75.445312 136.3125 C 75.90625 136.523438 75.90625 136.523438 76.3125 136.5 C 76.3125 136.625 76.3125 136.746094 76.3125 136.875 C 76.421875 136.925781 76.53125 136.976562 76.644531 137.027344 C 77.058594 137.25 77.386719 137.484375 77.742188 137.789062 C 77.910156 137.925781 77.910156 137.925781 78.078125 138.070312 C 78.398438 138.398438 78.566406 138.707031 78.75 139.125 C 77.96875 138.757812 77.339844 138.265625 76.664062 137.730469 C 76.546875 137.636719 76.425781 137.546875 76.304688 137.453125 C 76.132812 137.316406 76.132812 137.316406 75.960938 137.179688 C 75.855469 137.097656 75.753906 137.019531 75.648438 136.933594 C 75.375 136.6875 75.375 136.6875 75 136.125 Z M 75 136.125 "/>
<path style=" stroke:none;fill-rule:nonzero;fill:rgb(4.705882%,78.431374%,38.82353%);fill-opacity:1;" d="M 77.4375 66.75 C 77.3125 66.808594 77.1875 66.863281 77.058594 66.921875 C 76.070312 67.390625 75.390625 67.835938 74.625 68.625 C 73.945312 69.042969 73.371094 69.375 72.5625 69.375 C 73.527344 68.558594 74.539062 67.855469 75.632812 67.21875 C 75.746094 67.152344 75.859375 67.082031 75.976562 67.011719 C 76.808594 66.539062 76.808594 66.539062 77.4375 66.75 Z M 77.4375 66.75 "/>
<path style=" stroke:none;fill-rule:nonzero;fill:rgb(5.490196%,78.039217%,38.039216%);fill-opacity:1;" d="M 130.3125 110.0625 C 130.5 110.4375 130.5 110.4375 130.378906 110.871094 C 130.316406 111.039062 130.25 111.203125 130.183594 111.375 C 130.121094 111.542969 130.058594 111.707031 129.992188 111.878906 C 129.714844 112.378906 129.511719 112.464844 129 112.6875 C 128.871094 112.996094 128.746094 113.308594 128.625 113.625 C 128.226562 114.058594 128.226562 114.058594 127.875 114.375 C 128.179688 113.519531 128.621094 112.777344 129.09375 112.007812 C 129.167969 111.882812 129.246094 111.757812 129.324219 111.628906 C 129.644531 111.097656 129.96875 110.578125 130.3125 110.0625 Z M 130.3125 110.0625 "/>
<path style=" stroke:none;fill-rule:nonzero;fill:rgb(4.313726%,82.352942%,40.000001%);fill-opacity:1;" d="M 124.6875 118.6875 C 124.75 118.8125 124.8125 118.933594 124.875 119.0625 C 124.417969 119.976562 123.894531 120.757812 123.1875 121.5 C 123 121.5 122.816406 121.5 122.625 121.5 C 122.917969 120.84375 123.308594 120.332031 123.761719 119.777344 C 123.894531 119.613281 124.027344 119.445312 124.167969 119.277344 C 124.335938 119.074219 124.503906 118.871094 124.6875 118.6875 Z M 124.6875 118.6875 "/>
<path style=" stroke:none;fill-rule:nonzero;fill:rgb(3.137255%,83.92157%,40.784314%);fill-opacity:1;" d="M 133.3125 57.9375 C 133.4375 58.125 133.558594 58.308594 133.6875 58.5 C 133.445312 58.75 133.203125 59 132.960938 59.25 C 132.824219 59.390625 132.691406 59.527344 132.550781 59.671875 C 132.1875 60 132.1875 60 131.8125 60 C 131.917969 59.320312 132.171875 59.015625 132.667969 58.546875 C 132.789062 58.433594 132.910156 58.316406 133.03125 58.199219 C 133.125 58.113281 133.21875 58.027344 133.3125 57.9375 Z M 133.3125 57.9375 "/>
<path style=" stroke:none;fill-rule:nonzero;fill:rgb(1.568628%,90.980393%,42.352942%);fill-opacity:1;" d="M 141.375 70.3125 C 141.5625 70.375 141.746094 70.4375 141.9375 70.5 C 141.9375 70.625 141.9375 70.746094 141.9375 70.875 C 142.0625 70.9375 142.183594 71 142.3125 71.0625 C 142.222656 71.183594 142.132812 71.300781 142.042969 71.425781 C 141.660156 72.171875 141.613281 72.859375 141.5625 73.6875 C 141.5 73.6875 141.4375 73.6875 141.375 73.6875 C 141.375 72.574219 141.375 71.460938 141.375 70.3125 Z M 141.1875 73.6875 C 141.25 73.6875 141.3125 73.6875 141.375 73.6875 C 141.375 74.121094 141.375 74.554688 141.375 75 C 141.3125 75 141.25 75 141.1875 75 C 141.1875 74.566406 141.1875 74.132812 141.1875 73.6875 Z M 141.1875 73.6875 "/>
<path style=" stroke:none;fill-rule:nonzero;fill:rgb(4.313726%,82.352942%,39.215687%);fill-opacity:1;" d="M 79.125 139.125 C 80.101562 139.441406 80.914062 139.980469 81.445312 140.871094 C 81.484375 140.976562 81.523438 141.078125 81.5625 141.1875 C 80.585938 140.871094 79.773438 140.332031 79.242188 139.441406 C 79.203125 139.335938 79.164062 139.234375 79.125 139.125 Z M 79.125 139.125 "/>
<path style=" stroke:none;fill-rule:nonzero;fill:rgb(4.705882%,78.039217%,37.64706%);fill-opacity:1;" d="M 83.8125 101.25 C 83.8125 101.8125 83.8125 101.8125 83.367188 102.316406 C 82.875 102.75 82.875 102.75 82.5 102.75 C 82.375 102.996094 82.253906 103.246094 82.125 103.5 C 81.9375 103.5 81.753906 103.5 81.5625 103.5 C 81.648438 103.390625 81.734375 103.285156 81.820312 103.171875 C 82.132812 102.773438 82.132812 102.773438 82.277344 102.363281 C 82.605469 101.828125 83.0625 101.6875 83.625 101.4375 C 83.6875 101.375 83.75 101.3125 83.8125 101.25 Z M 83.8125 101.25 "/>
<path style=" stroke:none;fill-rule:nonzero;fill:rgb(5.490196%,78.039217%,38.039216%);fill-opacity:1;" d="M 92.8125 140.625 C 93.59375 140.851562 94.230469 141.160156 94.921875 141.570312 C 95.386719 141.824219 95.871094 141.976562 96.375 142.125 C 95.621094 142.425781 95.050781 142.207031 94.3125 141.9375 C 94.007812 141.667969 94.007812 141.667969 93.75 141.375 C 93.4375 141.1875 93.125 141 92.8125 140.8125 C 92.8125 140.75 92.8125 140.6875 92.8125 140.625 Z M 92.8125 140.625 "/>
<path style=" stroke:none;fill-rule:nonzero;fill:rgb(6.666667%,75.686276%,36.078432%);fill-opacity:1;" d="M 138.75 107.625 C 138.9375 108.1875 138.9375 108.1875 138.820312 108.527344 C 138.757812 108.648438 138.695312 108.773438 138.628906 108.898438 C 138.558594 109.03125 138.492188 109.164062 138.421875 109.304688 C 138.347656 109.441406 138.273438 109.582031 138.199219 109.722656 C 138.089844 109.933594 138.089844 109.933594 137.980469 110.148438 C 137.800781 110.496094 137.621094 110.839844 137.4375 111.1875 C 137.199219 110.476562 137.363281 110.1875 137.625 109.5 C 137.6875 109.375 137.75 109.253906 137.8125 109.125 C 137.9375 109.125 138.058594 109.125 138.1875 109.125 C 138.246094 108.945312 138.304688 108.769531 138.363281 108.585938 C 138.5625 108 138.5625 108 138.75 107.625 Z M 138.75 107.625 "/>
<path style=" stroke:none;fill-rule:nonzero;fill:rgb(4.313726%,80.392158%,38.82353%);fill-opacity:1;" d="M 98.8125 111.9375 C 98.925781 112.28125 98.925781 112.28125 99 112.6875 C 98.589844 113.328125 98.210938 113.71875 97.5 114 C 97.832031 113.242188 98.324219 112.601562 98.8125 111.9375 Z M 98.8125 111.9375 "/>
<path style=" stroke:none;fill-rule:nonzero;fill:rgb(5.882353%,75.686276%,37.254903%);fill-opacity:1;" d="M 109.875 141.375 C 110 141.4375 110.121094 141.5 110.25 141.5625 C 109.230469 142.304688 109.230469 142.304688 108.1875 143.0625 C 108.0625 143 107.941406 142.9375 107.8125 142.875 C 108.441406 142.1875 109.003906 141.722656 109.875 141.375 Z M 109.875 141.375 "/>
<path style=" stroke:none;fill-rule:nonzero;fill:rgb(4.705882%,79.607844%,38.039216%);fill-opacity:1;" d="M 84.75 85.875 C 84.8125 86 84.875 86.121094 84.9375 86.25 C 84.777344 86.640625 84.777344 86.640625 84.527344 87.09375 C 84.449219 87.242188 84.367188 87.390625 84.285156 87.546875 C 83.972656 87.972656 83.734375 88.121094 83.25 88.3125 C 83.546875 87.359375 84.140625 86.648438 84.75 85.875 Z M 84.75 85.875 "/>
<path style=" stroke:none;fill-rule:nonzero;fill:rgb(3.921569%,81.960785%,39.607844%);fill-opacity:1;" d="M 48 53.0625 C 48.125 53.125 48.246094 53.1875 48.375 53.25 C 47.953125 53.6875 47.574219 54.035156 47.0625 54.375 C 46.816406 54.3125 46.566406 54.25 46.3125 54.1875 C 46.871094 53.816406 47.425781 53.445312 48 53.0625 Z M 48 53.0625 "/>
<path style=" stroke:none;fill-rule:nonzero;fill:rgb(5.490196%,77.64706%,37.64706%);fill-opacity:1;" d="M 97.5 49.5 C 97.625 49.5625 97.746094 49.625 97.875 49.6875 C 97.703125 49.90625 97.523438 50.125 97.347656 50.34375 C 97.199219 50.527344 97.199219 50.527344 97.050781 50.710938 C 96.75 51 96.75 51 96.1875 51 C 96.0625 51.246094 95.941406 51.496094 95.8125 51.75 C 95.8125 51.1875 95.8125 51.1875 96 50.8125 C 96.125 50.8125 96.246094 50.8125 96.375 50.8125 C 96.375 50.6875 96.375 50.566406 96.375 50.4375 C 96.742188 50.117188 97.117188 49.804688 97.5 49.5 Z M 97.5 49.5 "/>
<path style=" stroke:none;fill-rule:nonzero;fill:rgb(5.098039%,79.607844%,38.431373%);fill-opacity:1;" d="M 70.875 48.5625 C 70.507812 48.753906 70.140625 48.945312 69.773438 49.136719 C 69.570312 49.242188 69.363281 49.351562 69.152344 49.460938 C 68.980469 49.535156 68.804688 49.609375 68.625 49.6875 C 68.5 49.625 68.378906 49.5625 68.25 49.5 C 68.679688 49.007812 69.050781 48.808594 69.667969 48.609375 C 69.816406 48.558594 69.960938 48.511719 70.113281 48.460938 C 70.5 48.375 70.5 48.375 70.875 48.5625 Z M 70.875 48.5625 "/>
<path style=" stroke:none;fill-rule:nonzero;fill:rgb(5.098039%,80.000001%,38.039216%);fill-opacity:1;" d="M 101.25 147.1875 C 100.980469 147.351562 100.710938 147.507812 100.441406 147.667969 C 100.214844 147.800781 100.214844 147.800781 99.988281 147.9375 C 99.5625 148.125 99.5625 148.125 99 147.9375 C 99.617188 147.414062 100.453125 146.789062 101.25 147.1875 Z M 101.25 147.1875 "/>
<path style=" stroke:none;fill-rule:nonzero;fill:rgb(3.529412%,83.529413%,39.607844%);fill-opacity:1;" d="M 87.9375 81 C 88.0625 81.0625 88.183594 81.125 88.3125 81.1875 C 88.101562 81.746094 87.894531 82.1875 87.5625 82.6875 C 87.4375 82.6875 87.316406 82.6875 87.1875 82.6875 C 87.308594 82.035156 87.582031 81.558594 87.9375 81 Z M 87.9375 81 "/>
<path style=" stroke:none;fill-rule:nonzero;fill:rgb(4.705882%,78.431374%,38.039216%);fill-opacity:1;" d="M 107.25 142.875 C 107.4375 142.9375 107.621094 143 107.8125 143.0625 C 107.296875 143.613281 106.804688 144.035156 106.125 144.375 C 106 144.3125 105.878906 144.25 105.75 144.1875 C 106.175781 143.546875 106.199219 143.605469 106.875 143.4375 C 107 143.25 107.121094 143.066406 107.25 142.875 Z M 107.25 142.875 "/>
<path style=" stroke:none;fill-rule:nonzero;fill:rgb(5.098039%,81.176472%,39.607844%);fill-opacity:1;" d="M 84.9375 135.5625 C 85.675781 135.808594 86.105469 136.109375 86.625 136.6875 C 85.207031 136.339844 85.207031 136.339844 84.75 135.75 C 84.8125 135.6875 84.875 135.625 84.9375 135.5625 Z M 84.9375 135.5625 "/>
<path style=" stroke:none;fill-rule:nonzero;fill:rgb(3.137255%,83.92157%,40.000001%);fill-opacity:1;" d="M 60.5625 115.3125 C 60.75 115.375 60.933594 115.4375 61.125 115.5 C 59.945312 116.519531 59.945312 116.519531 59.25 116.8125 C 59.390625 116.449219 59.390625 116.449219 59.625 116.0625 C 59.875 115.996094 60.125 115.933594 60.375 115.875 C 60.4375 115.6875 60.5 115.503906 60.5625 115.3125 Z M 60.5625 115.3125 "/>
<path style=" stroke:none;fill-rule:nonzero;fill:rgb(5.490196%,80.392158%,38.431373%);fill-opacity:1;" d="M 58.6875 127.125 C 58.8125 127.1875 58.933594 127.25 59.0625 127.3125 C 58.894531 127.527344 58.71875 127.742188 58.546875 127.957031 C 58.449219 128.078125 58.355469 128.195312 58.257812 128.320312 C 57.902344 128.660156 57.667969 128.738281 57.1875 128.8125 C 57.367188 128.601562 57.546875 128.390625 57.726562 128.179688 C 57.828125 128.0625 57.925781 127.945312 58.03125 127.824219 C 58.238281 127.582031 58.460938 127.351562 58.6875 127.125 Z M 58.6875 127.125 "/>
<path style=" stroke:none;fill-rule:nonzero;fill:rgb(4.313726%,78.823531%,38.431373%);fill-opacity:1;" d="M 126.9375 115.5 C 127.125 115.875 127.125 115.875 127.007812 116.332031 C 126.699219 116.910156 126.390625 117.085938 125.8125 117.375 C 126.121094 116.703125 126.523438 116.109375 126.9375 115.5 Z M 126.9375 115.5 "/>
<path style=" stroke:none;fill-rule:nonzero;fill:rgb(5.490196%,80.000001%,38.431373%);fill-opacity:1;" d="M 109.6875 108 C 109.8125 108 109.933594 108 110.0625 108 C 109.949219 108.75 109.554688 109.265625 109.125 109.875 C 109.125 109.148438 109.390625 108.65625 109.6875 108 Z M 109.6875 108 "/>
<path style=" stroke:none;fill-rule:nonzero;fill:rgb(5.098039%,78.431374%,37.64706%);fill-opacity:1;" d="M 132.75 105.375 C 132.933594 105.875 132.941406 106.105469 132.796875 106.628906 C 132.5625 107.0625 132.5625 107.0625 132 107.25 C 132.207031 106.597656 132.425781 105.980469 132.75 105.375 Z M 132.75 105.375 "/>
<path style=" stroke:none;fill-rule:nonzero;fill:rgb(5.490196%,76.862746%,36.862746%);fill-opacity:1;" d="M 102.515625 146.015625 C 102.65625 146.03125 102.792969 146.046875 102.9375 146.0625 C 102.574219 146.441406 102.257812 146.703125 101.8125 147 C 101.625 146.9375 101.441406 146.875 101.25 146.8125 C 101.875 146.074219 101.875 146.074219 102.515625 146.015625 Z M 102.515625 146.015625 "/>
<path style=" stroke:none;fill-rule:nonzero;fill:rgb(4.705882%,79.215688%,38.431373%);fill-opacity:1;" d="M 89.4375 138.5625 C 90.070312 138.785156 90.496094 138.988281 90.9375 139.5 C 90.503906 139.4375 90.070312 139.375 89.625 139.3125 C 89.5625 139.066406 89.5 138.816406 89.4375 138.5625 Z M 89.4375 138.5625 "/>
<path style=" stroke:none;fill-rule:nonzero;fill:rgb(5.490196%,80.392158%,38.431373%);fill-opacity:1;" d="M 137.0625 111.1875 C 137.125 111.3125 137.1875 111.433594 137.25 111.5625 C 137.105469 111.886719 137.105469 111.886719 136.886719 112.242188 C 136.757812 112.449219 136.632812 112.660156 136.5 112.875 C 136.375 112.8125 136.253906 112.75 136.125 112.6875 C 136.25 112.378906 136.371094 112.070312 136.5 111.75 C 136.625 111.75 136.746094 111.75 136.875 111.75 C 136.9375 111.5625 137 111.378906 137.0625 111.1875 Z M 137.0625 111.1875 "/>
<path style=" stroke:none;fill-rule:nonzero;fill:rgb(8.235294%,79.215688%,41.960785%);fill-opacity:1;" d="M 98.25 121.3125 C 98.625 121.5 98.625 121.5 98.625 121.5 Z M 98.25 121.3125 "/>
<path style=" stroke:none;fill-rule:nonzero;fill:rgb(5.098039%,83.529413%,43.529412%);fill-opacity:1;" d="M 100.125 87.5625 C 100.5 87.75 100.5 87.75 100.5 87.75 Z M 100.125 87.5625 "/>
<path style=" stroke:none;fill-rule:nonzero;fill:rgb(6.666667%,82.352942%,44.705883%);fill-opacity:1;" d="M 81.9375 73.3125 C 82.3125 73.5 82.3125 73.5 82.3125 73.5 Z M 81.9375 73.3125 "/>
<path style=" stroke:none;fill-rule:nonzero;fill:rgb(6.27451%,82.352942%,43.529412%);fill-opacity:1;" d="M 74.4375 67.5 C 74.8125 67.6875 74.8125 67.6875 74.8125 67.6875 Z M 74.4375 67.5 "/>
<path style=" stroke:none;fill-rule:nonzero;fill:rgb(6.666667%,83.529413%,43.529412%);fill-opacity:1;" d="M 133.5 56.4375 C 133.875 56.625 133.875 56.625 133.875 56.625 Z M 133.5 56.4375 "/>
<path style=" stroke:none;fill-rule:nonzero;fill:rgb(6.666667%,81.176472%,42.745098%);fill-opacity:1;" d="M 63.75 52.3125 C 64.125 52.5 64.125 52.5 64.125 52.5 Z M 63.75 52.3125 "/>
<path style=" stroke:none;fill-rule:nonzero;fill:rgb(6.27451%,82.352942%,42.352942%);fill-opacity:1;" d="M 95.4375 51 C 95.8125 51.1875 95.8125 51.1875 95.8125 51.1875 Z M 95.4375 51 "/>
<path style=" stroke:none;fill-rule:nonzero;fill:rgb(8.627451%,78.039217%,42.745098%);fill-opacity:1;" d="M 91.6875 31.5 C 92.0625 31.6875 92.0625 31.6875 92.0625 31.6875 Z M 91.6875 31.5 "/>
</g>
</svg>
