<svg width="30" height="30" viewBox="0 0 30 30" fill="none" xmlns="http://www.w3.org/2000/svg">
<path fill-rule="evenodd" clip-rule="evenodd" d="M20.4192 4.78935C21.7058 3.52185 22.5731 1.75649 22.3357 0C20.4817 0.0600006 18.2386 1.00673 16.9092 2.27273C15.7154 3.39622 14.6732 5.19139 14.9534 6.91339C17.0216 7.04388 19.1326 6.05833 20.4192 4.78935ZM25.057 15.9376C25.1088 20.4781 29.9465 21.9885 30 22.008C29.9607 22.1145 29.2273 24.1602 27.4518 26.2751C25.9154 28.1021 24.3218 29.9217 21.8111 29.9607C19.345 29.9982 18.5509 28.7698 15.7296 28.7698C12.9102 28.7698 12.0287 29.9216 9.69459 29.9981C7.27128 30.0716 5.42436 28.0214 3.87723 26.2004C0.711591 22.4759 -1.70636 15.6753 1.54137 11.0853C3.15453 8.80682 6.03643 7.36175 9.16638 7.32575C11.5451 7.28825 13.7917 8.62947 15.2461 8.62947C16.7004 8.62947 19.4306 7.01697 22.3 7.25397C23.501 7.29447 26.8736 7.64835 29.0382 10.2298C28.8633 10.3183 25.0142 12.1427 25.057 15.9376Z" fill="black"/>
</svg>
