<svg width="25" height="25" viewBox="0 0 25 25" fill="none" xmlns="http://www.w3.org/2000/svg">
<path fill-rule="evenodd" clip-rule="evenodd" d="M3.99372 14.675L2.31168 16.3594C1.85465 16.8172 1.85465 17.5594 2.31247 18.0164C2.77028 18.4735 3.51247 18.4735 3.9695 18.0157L6.05231 15.9313C7.53512 16.6992 9.32575 17.3422 11.3437 17.5258V20.3125C11.3437 20.9594 11.8687 21.4844 12.5156 21.4844C13.1625 21.4844 13.6875 20.9594 13.6875 20.3125V17.5227C15.3648 17.3657 16.8836 16.893 18.1984 16.2953L20.6976 18.7969C21.1547 19.2547 21.8968 19.2547 22.3547 18.7977C22.8125 18.3407 22.8125 17.5985 22.3554 17.1407L20.3406 15.1242C22.364 13.8235 23.5367 12.4922 23.5367 12.4922C23.9632 12.0063 23.9156 11.2657 23.4297 10.8383C22.9437 10.4117 22.2031 10.4594 21.7757 10.9453C21.7757 10.9453 18.0148 15.2344 12.5 15.2344C6.98512 15.2344 3.22418 10.9453 3.22418 10.9453C2.79684 10.4594 2.05622 10.4117 1.57028 10.8383C1.08434 11.2657 1.03668 12.0063 1.46325 12.4922C1.46325 12.4922 2.38122 13.5344 3.99372 14.675Z" fill="#01DB6B" stroke="#01DB6B" stroke-width="2" stroke-miterlimit="2" stroke-linejoin="round"/>
</svg>
