<svg width="37" height="40" viewBox="0 0 37 40" fill="none" xmlns="http://www.w3.org/2000/svg">
<path d="M14.5493 10.8555C14.6202 10.8555 14.6202 10.8555 14.6912 10.8555C14.7408 10.8555 14.794 10.8555 14.8472 10.8555C14.9004 10.8555 14.9537 10.8555 15.0104 10.8555C15.1594 10.8555 15.3119 10.8555 15.4609 10.8555C15.624 10.8555 15.7872 10.8516 15.9503 10.8516C16.2696 10.8516 16.5888 10.8516 16.908 10.8516C17.1669 10.8516 17.4259 10.8516 17.6848 10.8516C18.419 10.8516 19.1532 10.8516 19.8874 10.8516C19.9264 10.8516 19.9655 10.8516 20.008 10.8516C20.0648 10.8516 20.0648 10.8516 20.1251 10.8516C20.7706 10.8516 21.4126 10.8516 22.0546 10.8516C22.7143 10.8516 23.374 10.8516 24.0338 10.8516C24.4027 10.8516 24.7751 10.8516 25.144 10.8516C25.4596 10.8477 25.7753 10.8477 26.091 10.8516C26.2506 10.8516 26.4138 10.8516 26.5734 10.8477C26.7188 10.8477 26.8678 10.8477 27.0167 10.8516C27.0699 10.8516 27.1231 10.8516 27.1763 10.8477C27.2473 10.8477 27.3182 10.8477 27.3927 10.8516C27.4317 10.8516 27.4743 10.8516 27.5133 10.8516C27.68 10.8633 27.8254 10.8906 27.9531 11.0078C28.1163 11.2422 28.2227 11.4609 28.1908 11.7617C28.1198 12.0391 27.9638 12.2813 27.8254 12.5195C27.7651 12.6328 27.7013 12.7422 27.641 12.8516C27.4175 13.2578 27.1905 13.6602 26.9635 14.0625C26.7188 14.4961 26.4776 14.9297 26.2364 15.3672C25.981 15.8359 25.7186 16.3008 25.4561 16.7656C25.1546 17.293 24.8567 17.8281 24.5587 18.3633C24.2147 18.9883 23.8635 19.6133 23.5124 20.2344C23.3847 20.4648 23.2534 20.6953 23.1258 20.9297C22.9165 21.3047 22.7037 21.6836 22.4873 22.0586C22.4554 22.1094 22.427 22.1641 22.3951 22.2148C22.3632 22.2773 22.3277 22.3359 22.2922 22.3906C22.1433 22.6367 22.1007 22.8164 22.1078 23.1094C22.1078 23.1484 22.1078 23.1875 22.1078 23.2266C22.1078 23.3555 22.1078 23.4844 22.1078 23.6094C22.1078 23.6992 22.1078 23.7891 22.1078 23.8789C22.1078 24.1172 22.1078 24.3516 22.1113 24.5859C22.1113 24.9648 22.1113 25.3398 22.1113 25.7188C22.1113 25.8516 22.1113 25.9805 22.1149 26.1133C22.1149 26.1953 22.1149 26.2734 22.1149 26.3555C22.1149 26.4102 22.1149 26.4102 22.1149 26.4648C22.1149 26.6992 22.0759 26.875 21.9553 27.0703C21.8382 27.1914 21.707 27.2773 21.5722 27.3672C21.5509 27.3828 21.5332 27.3945 21.5119 27.4062C21.4481 27.4492 21.3842 27.4922 21.3204 27.5352C21.2778 27.5625 21.2317 27.5938 21.1891 27.6211C21.1217 27.668 21.0544 27.7109 20.987 27.7578C20.838 27.8555 20.689 27.9531 20.5401 28.0547C20.5046 28.0781 20.4656 28.1055 20.4301 28.1289C20.3592 28.1797 20.2882 28.2266 20.2173 28.2734C20.1854 28.293 20.157 28.3164 20.1215 28.3359C20.0967 28.3555 20.0683 28.375 20.0399 28.3945C19.969 28.4375 19.969 28.4375 19.8626 28.4766C19.852 28.5039 19.8378 28.5273 19.8271 28.5547C19.7526 28.6055 19.6817 28.6523 19.6072 28.6953C19.5611 28.7227 19.515 28.7539 19.4689 28.7812C19.4476 28.793 19.4228 28.8086 19.3979 28.8242C19.2135 28.9414 19.0326 29.0664 18.8482 29.1875C18.8056 29.2148 18.763 29.2461 18.7205 29.2734C18.4899 29.4297 18.2594 29.582 18.0324 29.7383C17.9153 29.8203 17.7947 29.9023 17.6777 29.9805C17.6209 30.0195 17.5642 30.0586 17.5074 30.0977C17.4259 30.1523 17.3443 30.207 17.2662 30.2656C17.2414 30.2812 17.2166 30.2969 17.1953 30.3125C16.9967 30.4453 16.8051 30.4883 16.5781 30.457C16.3795 30.3828 16.2341 30.2852 16.1383 30.0781C16.0532 29.7578 16.0567 29.4453 16.0603 29.1172C16.0603 29.0547 16.0603 28.9922 16.0603 28.9336C16.0603 28.7656 16.0603 28.6016 16.0603 28.4375C16.0603 28.2617 16.0603 28.0898 16.0603 27.918C16.0603 27.5898 16.0603 27.2617 16.0638 26.9336C16.0638 26.5625 16.0638 26.1875 16.0638 25.8164C16.0638 25.0508 16.0674 24.2812 16.0674 23.5156C16.0213 23.5156 15.9752 23.5156 15.9255 23.5156C15.9149 23.543 15.9007 23.5664 15.89 23.5938C15.89 23.5664 15.89 23.543 15.89 23.5156C15.8546 23.5195 15.8156 23.5195 15.7801 23.5234C14.45 23.6211 14.45 23.6211 14.1343 23.4492C13.9889 23.3047 13.8541 23.1445 13.8222 22.9258C13.8151 22.6719 13.8647 22.4688 14.0279 22.2812C14.1946 22.1211 14.3188 22.1055 14.5387 22.1055C14.5706 22.1055 14.5706 22.1055 14.6096 22.1055C14.6841 22.1055 14.7586 22.1055 14.8331 22.1055C14.8827 22.1055 14.9359 22.1055 14.9856 22.1094C15.1097 22.1094 15.2339 22.1094 15.358 22.1094C15.3686 22.082 15.3828 22.0586 15.3935 22.0312C15.3935 22.0586 15.3935 22.082 15.3935 22.1094C15.4644 22.0977 15.5353 22.082 15.6063 22.0703C15.4148 21.75 15.2197 21.4336 15.021 21.1211C14.9927 21.0781 14.9927 21.0781 14.9643 21.0352C14.9501 21.0078 14.9324 20.9805 14.9146 20.9531C14.8969 20.9297 14.8827 20.9062 14.8685 20.8789C14.8224 20.8164 14.8224 20.8164 14.755 20.7422C14.7231 20.6914 14.6912 20.6406 14.6628 20.5859C14.6451 20.5586 14.6309 20.5312 14.6131 20.5039C14.5777 20.4297 14.5777 20.4297 14.5777 20.3516C14.5529 20.3398 14.5316 20.3242 14.5067 20.3125C14.5209 19.8477 14.5209 19.8477 14.6841 19.6484C14.7479 19.5937 14.8118 19.543 14.8792 19.4961C14.9395 19.457 14.9395 19.457 14.9678 19.375C14.9927 19.3867 15.014 19.4023 15.0388 19.4141C15.0884 19.418 15.1381 19.4219 15.1913 19.4258C15.4183 19.4531 15.5424 19.5625 15.6843 19.7578C15.8652 20.0273 16.0355 20.3086 16.2093 20.5859C16.2837 20.707 16.3618 20.832 16.4363 20.9531C16.4575 20.9844 16.4753 21.0156 16.4966 21.0469C16.5923 21.2031 16.6881 21.3594 16.7874 21.5117C16.8087 21.5391 16.8264 21.5703 16.8442 21.5977C16.8796 21.6523 16.9151 21.707 16.9541 21.7617C17.1598 22.082 17.3124 22.3477 17.3159 22.75C17.3159 22.8008 17.3159 22.8516 17.3159 22.9023C17.3159 22.9609 17.3159 23.0156 17.3159 23.0742C17.3159 23.1328 17.3159 23.1914 17.3159 23.2539C17.3195 23.4141 17.3194 23.5781 17.3194 23.7383C17.3194 23.9062 17.323 24.0781 17.323 24.2461C17.323 24.5664 17.3265 24.8867 17.3265 25.207C17.3301 25.5742 17.3301 25.9375 17.3336 26.3008C17.3372 27.0547 17.3407 27.8047 17.3443 28.5547C17.4897 28.5039 17.6103 28.4492 17.738 28.3555C17.7912 28.3203 17.7912 28.3203 17.8408 28.2852C17.8799 28.2578 17.9153 28.2344 17.9508 28.207C18.0288 28.1562 18.1033 28.1016 18.1814 28.0469C18.2204 28.0234 18.2558 27.9961 18.2984 27.9688C18.4864 27.8359 18.6779 27.7109 18.8695 27.5859C19.0645 27.457 19.2596 27.3242 19.4547 27.1914C19.5824 27.1094 19.7065 27.0234 19.8307 26.9414C19.8768 26.9102 19.9193 26.8828 19.9619 26.8555C20.0258 26.8125 20.0896 26.7695 20.1534 26.7266C20.5791 26.4961 20.5791 26.4961 20.8522 26.1211C20.8557 26.0703 20.8557 26.0703 20.8557 26.0156C20.8309 26.0039 20.8096 25.9883 20.7848 25.9766C20.8096 25.9766 20.8309 25.9766 20.8557 25.9766C20.8557 25.9297 20.8522 25.8828 20.8522 25.8359C20.8309 24.9961 20.8132 24.1562 20.8238 23.3203C20.8274 23.2461 20.8274 23.1758 20.8274 23.1055C20.8344 22.3867 20.8344 22.3867 20.9976 22.0703C21.0189 22.0234 21.0189 22.0234 21.0437 21.9805C21.0969 21.8828 21.1501 21.7891 21.2033 21.6953C21.2246 21.6602 21.2423 21.625 21.2636 21.5898C21.3062 21.5117 21.3488 21.4375 21.3913 21.3633C21.5013 21.1758 21.6112 20.9844 21.7176 20.793C21.7389 20.7539 21.7637 20.7148 21.785 20.6758C21.9482 20.3867 22.1113 20.0937 22.2745 19.8047C22.4625 19.4687 22.6505 19.1289 22.842 18.793C22.8633 18.7578 22.8846 18.7187 22.9059 18.6836C23.0158 18.4883 23.1258 18.3008 23.2393 18.1133C23.2641 18.0703 23.2889 18.0273 23.3173 17.9844C23.335 17.9531 23.3528 17.9219 23.374 17.8906C23.3279 17.8906 23.2818 17.8906 23.2322 17.8906C22.122 17.8906 21.0118 17.8867 19.9016 17.8828C19.7633 17.8828 19.6285 17.8828 19.4902 17.8828C19.4653 17.8828 19.437 17.8828 19.4086 17.8828C18.9688 17.8828 18.5289 17.8789 18.0856 17.8789C17.6351 17.8789 17.1847 17.8789 16.7307 17.875C16.4505 17.875 16.1738 17.875 15.8936 17.875C15.6808 17.875 15.468 17.875 15.2516 17.875C15.1629 17.875 15.0778 17.8711 14.9891 17.875C14.8685 17.875 14.7515 17.8711 14.6309 17.8711C14.5954 17.8711 14.5599 17.8711 14.5245 17.8711C14.3223 17.8711 14.2053 17.8438 14.0456 17.6953C13.8754 17.4922 13.8151 17.3164 13.8222 17.043C13.847 16.8398 13.9286 16.6914 14.0598 16.5469C14.2088 16.4453 14.3294 16.3945 14.5067 16.3984C14.5387 16.3945 14.5741 16.3945 14.6096 16.3945C14.6486 16.3945 14.6876 16.3984 14.7266 16.3984C14.7869 16.3984 14.7869 16.3984 14.8472 16.3984C14.982 16.3984 15.1204 16.3984 15.2551 16.3984C15.3509 16.3984 15.4502 16.3984 15.546 16.3984C15.7553 16.3984 15.9645 16.3984 16.1738 16.3984C16.4753 16.3984 16.7803 16.3984 17.0818 16.3984C17.5748 16.3984 18.0643 16.3984 18.5573 16.3984C19.0326 16.4023 19.5114 16.4023 19.9867 16.4023C20.0151 16.4023 20.047 16.4023 20.0754 16.4023C20.2244 16.4023 20.3698 16.4023 20.5188 16.4023C21.7425 16.4023 22.9661 16.4062 24.1898 16.4062C24.2005 16.375 24.2111 16.3438 24.2218 16.3125C24.2608 16.2148 24.3033 16.1289 24.3565 16.0391C24.3743 16.0078 24.3956 15.9727 24.4133 15.9414C24.4346 15.9063 24.4559 15.8672 24.4771 15.832C24.6687 15.5039 24.8567 15.1758 25.0446 14.8398C25.0659 14.7969 25.0908 14.7539 25.1156 14.7109C25.1617 14.625 25.2114 14.543 25.2575 14.457C25.3568 14.2773 25.4596 14.0937 25.5625 13.9141C25.5909 13.8633 25.5909 13.8633 25.6192 13.8125C25.715 13.6406 25.8143 13.4687 25.9101 13.293C25.9314 13.2578 25.9527 13.2227 25.9739 13.1836C26.013 13.1133 26.052 13.0469 26.091 12.9766C26.1087 12.9453 26.1265 12.9141 26.1442 12.8789C26.1619 12.8516 26.1761 12.8242 26.1903 12.7969C26.2435 12.7031 26.2896 12.6094 26.3393 12.5117C26.3535 12.4805 26.3712 12.4492 26.3889 12.418C26.3996 12.3945 26.4102 12.3672 26.4244 12.3438C26.3996 12.3438 26.3747 12.3438 26.3464 12.3438C24.8318 12.3438 23.3173 12.3398 21.8028 12.3398C21.6219 12.3398 21.4374 12.3398 21.2565 12.3359C21.2211 12.3359 21.1856 12.3359 21.1466 12.3359C20.5613 12.3359 19.9761 12.3359 19.3873 12.3359C18.7879 12.3359 18.1849 12.3359 17.5855 12.332C17.213 12.332 16.8406 12.332 16.4717 12.332C16.2164 12.332 15.961 12.332 15.7056 12.332C15.5602 12.332 15.4148 12.332 15.2658 12.332C15.131 12.332 14.9962 12.332 14.8614 12.3281C14.7905 12.3281 14.7196 12.332 14.6486 12.332C14.3932 12.3281 14.2017 12.3047 14.0102 12.1094C13.8612 11.8984 13.8045 11.7148 13.8328 11.4453C13.9002 11.1758 14.0066 11.0391 14.223 10.8984C14.34 10.8555 14.4252 10.8555 14.5493 10.8555Z" fill="#8A8A8A"/>
<path d="M12.0309 21.5586C12.421 21.961 12.6764 22.5235 12.7048 23.1094C12.7119 23.8477 12.531 24.4961 12.0592 25.0391C11.6088 25.5117 11.0413 25.7617 10.4241 25.7578C9.84597 25.7383 9.32103 25.4805 8.90249 25.0391C8.90249 25.0117 8.90249 24.9883 8.90249 24.961C8.87766 24.961 8.85638 24.961 8.83155 24.961C8.77125 24.875 8.77125 24.875 8.70386 24.7656C8.67903 24.7305 8.65775 24.6914 8.63647 24.6563C8.61873 24.6289 8.601 24.5977 8.58326 24.5703C8.5478 24.5899 8.5478 24.5899 8.51233 24.6094C8.50878 24.5742 8.50523 24.5352 8.50523 24.4961C8.4875 24.375 8.45558 24.2774 8.40947 24.168C8.22503 23.6836 8.24986 23.1602 8.33498 22.6563C8.34562 22.5781 8.35981 22.5 8.37045 22.4219C8.39528 22.4219 8.41656 22.4219 8.44139 22.4219C8.45203 22.3867 8.45912 22.3555 8.46976 22.3203C8.66839 21.7149 9.13304 21.3125 9.64379 21.0391C10.4986 20.6641 11.3534 20.9141 12.0309 21.5586ZM9.56222 22.3867C9.28201 22.7578 9.22171 23.1133 9.25718 23.5938C9.33521 23.9649 9.54093 24.2656 9.82114 24.4844C10.1191 24.6797 10.4667 24.7344 10.8072 24.6445C11.1477 24.5274 11.435 24.2813 11.6088 23.9336C11.7613 23.5703 11.7932 23.1914 11.6691 22.8125C11.5024 22.4649 11.2647 22.168 10.9242 22.0313C10.4277 21.8672 9.924 21.961 9.56222 22.3867Z" fill="#8A8A8A"/>
<path d="M11.9813 15.8438C12.4069 16.3008 12.6623 16.8359 12.7049 17.4922C12.7155 18.1875 12.5062 18.8398 12.0664 19.3438C11.7898 19.6328 11.4954 19.8242 11.1371 19.9609C11.1123 19.9687 11.0875 19.9805 11.0626 19.9922C10.5164 20.1602 9.88152 20.043 9.3956 19.7539C8.90967 19.4336 8.61173 18.9883 8.37054 18.4375C8.35989 18.4102 8.34571 18.3867 8.33507 18.3594C8.21092 17.6055 8.26413 16.9063 8.65074 16.2539C8.71813 16.1563 8.78907 16.0664 8.8671 15.9766C8.89193 15.9453 8.91676 15.918 8.94514 15.8867C9.78576 14.9687 11.0981 15.0117 11.9813 15.8438ZM9.51264 16.7578C9.25727 17.1094 9.21825 17.4414 9.25727 17.8906C9.28919 18.0312 9.3353 18.1523 9.39914 18.2812C9.42042 18.3203 9.43816 18.3633 9.45944 18.4023C9.61905 18.6211 9.79285 18.8125 10.0376 18.9062C10.0908 18.9297 10.0908 18.9297 10.1475 18.9492C10.481 19.0508 10.8144 19 11.1123 18.8164C11.4209 18.6055 11.6089 18.3555 11.7046 17.9688C11.7685 17.582 11.7508 17.2422 11.545 16.9141C11.3287 16.6016 11.0875 16.4141 10.747 16.2891C10.2362 16.2539 9.87088 16.3281 9.51264 16.7578Z" fill="#8A8A8A"/>
<path d="M11.8854 10.0234C12.2897 10.3984 12.648 10.9727 12.6976 11.5625C12.7402 12.3555 12.5948 12.9961 12.1124 13.6094C11.7293 14.043 11.2363 14.3242 10.683 14.3477C10.0197 14.3555 9.4309 14.1992 8.93788 13.6719C8.50161 13.1172 8.27106 12.5117 8.28879 11.7734C8.33845 11.1172 8.63994 10.5352 9.07266 10.0899C9.88846 9.34376 11.0341 9.32814 11.8854 10.0234ZM9.5515 11.0508C9.33514 11.3516 9.25001 11.6484 9.2571 12.0313C9.30676 12.4609 9.47701 12.7891 9.78205 13.0664C10.0658 13.2813 10.3708 13.3438 10.7078 13.2969C10.9135 13.2539 11.0731 13.1758 11.2434 13.0469C11.2647 13.0313 11.2895 13.0156 11.3108 13C11.5378 12.8125 11.6903 12.4922 11.7399 12.1875C11.7683 11.7813 11.7187 11.4609 11.4917 11.1328C11.4668 11.0938 11.442 11.0547 11.4172 11.0156C11.2044 10.7422 10.9029 10.6094 10.5837 10.5781C10.1829 10.5547 9.82106 10.7188 9.5515 11.0508Z" fill="#8A8A8A"/>
<path d="M14.1167 17.6562C14.1628 17.6562 14.2089 17.6562 14.2586 17.6562C14.2586 17.6836 14.2586 17.707 14.2586 17.7344C17.2912 17.7461 20.3203 17.7617 23.4451 17.7734C23.4451 17.7852 23.4451 17.8008 23.4451 17.8125C22.2817 17.8164 21.1183 17.8164 19.9585 17.8203C19.8201 17.8203 19.6818 17.8203 19.5435 17.8203C19.5045 17.8203 19.5045 17.8203 19.4619 17.8203C19.0185 17.8203 18.5787 17.8203 18.1354 17.8203C17.6814 17.8242 17.2273 17.8242 16.7733 17.8242C16.4931 17.8242 16.2129 17.8242 15.9327 17.8242C15.7164 17.8242 15.5035 17.8242 15.2872 17.8242C15.1985 17.8242 15.1098 17.8242 15.0247 17.8281C14.9041 17.8281 14.7835 17.8281 14.6629 17.8281C14.6097 17.8281 14.6097 17.8281 14.5565 17.8281C14.3827 17.8281 14.2586 17.8242 14.1167 17.6953C14.1167 17.6836 14.1167 17.668 14.1167 17.6562Z" fill="#616262"/>
<path d="M22.0614 22.6172C22.072 22.6172 22.0862 22.6172 22.0968 22.6172C22.0968 23.9844 22.0968 25.3516 22.0968 26.7578C22.072 26.7578 22.0508 26.7578 22.0261 26.7578C22.0084 26.7969 22.0084 26.7969 21.9907 26.8359C21.9943 26.293 21.9978 25.7461 22.0013 25.2031C22.0049 24.9492 22.0049 24.6992 22.0084 24.4453C22.0084 24.2031 22.0119 23.957 22.0155 23.7148C22.0155 23.6211 22.0155 23.5273 22.0155 23.4336C22.0155 23.3047 22.019 23.1758 22.019 23.043C22.019 23.0039 22.019 22.9648 22.019 22.9258C22.019 22.8906 22.019 22.8555 22.019 22.8203C22.019 22.7891 22.0225 22.7578 22.0225 22.7266C22.0261 22.6563 22.0261 22.6562 22.0614 22.6172Z" fill="#959594"/>
<path d="M14.0458 11.0156C14.0706 11.0273 14.0919 11.043 14.1167 11.0547C14.0919 11.0977 14.0706 11.1406 14.0458 11.1836C13.9465 11.4062 13.9358 11.6445 13.9961 11.8828C14.0387 11.9922 14.0919 12.0859 14.1522 12.1875C14.0032 12.1289 13.9465 12.0234 13.8684 11.875C13.7869 11.6094 13.833 11.4141 13.9358 11.168C13.9748 11.0937 13.9748 11.0938 14.0458 11.0156Z" fill="#8B8B8B"/>
<path d="M14.1165 22.1875C14.1414 22.1992 14.1627 22.2148 14.1875 22.2266C14.1307 22.4844 14.1307 22.4844 14.0633 22.5547C13.9924 22.6406 13.9924 22.7031 13.9853 22.8203C13.9818 22.8555 13.9818 22.8906 13.9782 22.9258C13.9782 22.9531 13.9747 22.9805 13.9747 23.0078C13.964 23.0078 13.9498 23.0078 13.9392 23.0078C13.9286 22.9063 13.9144 22.8008 13.9037 22.6953C13.9037 22.8242 13.9037 22.9531 13.9037 23.0859C13.8186 22.9922 13.8222 22.9727 13.8186 22.8477C13.8257 22.6016 13.9073 22.4258 14.0527 22.2461C14.074 22.2266 14.0953 22.207 14.1165 22.1875Z" fill="#9C9D9D"/>
<path d="M14.1167 17.6562C14.1628 17.6562 14.2089 17.6562 14.2586 17.6562C14.2586 17.6836 14.2586 17.707 14.2586 17.7344C14.7977 17.7461 15.3368 17.7617 15.8902 17.7734C15.8902 17.7852 15.8902 17.8008 15.8902 17.8125C15.6667 17.8164 15.4432 17.8164 15.2162 17.8203C15.1418 17.8203 15.0673 17.8203 14.9892 17.8203C14.8793 17.8242 14.7693 17.8242 14.6594 17.8242C14.6097 17.8242 14.6097 17.8242 14.5565 17.8242C14.3827 17.8242 14.2586 17.8242 14.1167 17.6953C14.1167 17.6836 14.1167 17.668 14.1167 17.6562Z" fill="#676766"/>
<path d="M10.0022 13.2422C10.0341 13.2461 10.0625 13.25 10.0944 13.2539C10.3782 13.2773 10.6442 13.2773 10.9244 13.2422C10.708 13.4023 10.4775 13.4102 10.2257 13.3789C10.1405 13.3594 10.0767 13.3281 10.0022 13.2812C10.0022 13.2695 10.0022 13.2539 10.0022 13.2422Z" fill="#9B9A9A"/>
<path d="M22.5582 19.2969C22.5831 19.3359 22.6043 19.375 22.6292 19.4141C22.6114 19.4453 22.5973 19.4727 22.5795 19.5039C22.5192 19.6094 22.5192 19.6094 22.4873 19.7266C22.4625 19.7266 22.4412 19.7266 22.4164 19.7266C22.3915 19.8164 22.3703 19.9062 22.3454 20C22.31 20 22.2745 20 22.239 20C22.239 19.875 22.2532 19.8437 22.31 19.7422C22.3312 19.7031 22.3312 19.7031 22.3525 19.6641C22.3738 19.625 22.3738 19.625 22.3986 19.582C22.4128 19.5547 22.4305 19.5273 22.4447 19.5C22.4838 19.4336 22.5192 19.3633 22.5582 19.2969Z" fill="#90908F"/>
<path d="M9.61208 10.8594C9.64755 10.8711 9.68302 10.8867 9.71849 10.8984C9.69366 10.9258 9.69366 10.9258 9.66883 10.9531C9.50922 11.1445 9.4099 11.3203 9.32832 11.5625C9.31768 11.5625 9.3035 11.5625 9.29285 11.5625C9.26093 11.3438 9.33896 11.2266 9.44892 11.0586C9.49858 10.9844 9.55178 10.9219 9.61208 10.8594Z" fill="#929292"/>
<path d="M17.699 29.9609C17.6068 30.0273 17.5146 30.0938 17.4188 30.1602C17.394 30.1758 17.3656 30.1953 17.3408 30.2148C17.3124 30.2344 17.2875 30.25 17.2627 30.2695C17.2379 30.2852 17.2166 30.3047 17.1918 30.3203C17.1634 30.3359 17.1634 30.3359 17.1315 30.3516C17.1067 30.3399 17.0854 30.3242 17.0605 30.3125C17.1599 30.1992 17.2592 30.1094 17.3798 30.0273C17.4259 29.9961 17.4259 29.9961 17.472 29.9648C17.5713 29.9141 17.5997 29.9258 17.699 29.9609Z" fill="#929191"/>
<path d="M21.3169 27.3438C21.3878 27.3438 21.4587 27.3438 21.5297 27.3438C21.4304 27.4609 21.331 27.5469 21.2069 27.6289C21.175 27.6484 21.1431 27.6719 21.1111 27.6914C21.0863 27.707 21.0615 27.7188 21.0331 27.7344C21.0083 27.7227 20.987 27.707 20.9622 27.6953C21.0686 27.5664 21.1856 27.4766 21.3169 27.3828C21.3169 27.3711 21.3169 27.3555 21.3169 27.3438Z" fill="#929291"/>
<path d="M12.5916 17.1875C12.6835 17.2891 12.6976 17.3555 12.7011 17.4961C12.7011 17.5391 12.7011 17.582 12.7011 17.625C12.7011 17.668 12.6976 17.7109 12.6976 17.7539C12.6976 17.7852 12.6976 17.8164 12.6976 17.8516C12.687 17.8008 12.6729 17.75 12.6623 17.6953C12.6375 17.6953 12.6163 17.6953 12.5916 17.6953C12.5916 17.5273 12.5916 17.3594 12.5916 17.1875Z" fill="#949494"/>
<path d="M10.6052 21.9141C10.6052 21.9258 10.6052 21.9414 10.6052 21.9531C10.5662 21.9609 10.5272 21.9687 10.4882 21.9766C10.435 21.9883 10.3853 22 10.3321 22.0078C10.3073 22.0156 10.2824 22.0195 10.2541 22.0234C10.1228 22.0508 9.99159 22.0781 9.86035 22.1094C9.87099 22.0703 9.88518 22.0312 9.89582 21.9922C10.137 21.9375 10.3605 21.9062 10.6052 21.9141Z" fill="#9F9F9F"/>
<path d="M18.231 28.0078C18.2558 28.0195 18.2771 28.0352 18.3019 28.0469C18.2558 28.0977 18.2062 28.1523 18.16 28.2031C18.1388 28.2344 18.1139 28.2617 18.0927 28.293C18.0182 28.3594 18.0182 28.3594 17.9189 28.3516C17.894 28.3398 17.8692 28.332 17.8408 28.3203C17.9189 28.2305 17.9969 28.1602 18.0927 28.0938C18.1281 28.0703 18.1281 28.0703 18.1671 28.043C18.1884 28.0312 18.2097 28.0195 18.231 28.0078Z" fill="#949494"/>
<path d="M11.7398 11.7188C11.7505 11.7188 11.7646 11.7188 11.7752 11.7188C11.7823 11.8047 11.7893 11.8906 11.7964 11.9766C11.8 12.0273 11.807 12.0742 11.8106 12.125C11.8106 12.2695 11.7964 12.3672 11.7398 12.5C11.7045 12.5117 11.6691 12.5273 11.6338 12.5391C11.6444 12.4922 11.655 12.4414 11.6656 12.3906C11.7116 12.168 11.7257 11.9453 11.7398 11.7188Z" fill="#A09F9F"/>
<path d="M26.4946 14.7656C26.4946 14.9102 26.4557 14.9648 26.3885 15.0859C26.3673 15.1211 26.3496 15.1563 26.3284 15.1914C26.3143 15.2188 26.2966 15.2461 26.2825 15.2734C26.2436 15.1445 26.2471 15.1133 26.2895 14.9766C26.3496 14.8477 26.3708 14.8086 26.4946 14.7656Z" fill="#929191"/>
<path d="M20.9623 27.7735C20.8985 27.8203 20.8346 27.8672 20.7708 27.9141C20.7176 27.9532 20.7176 27.9532 20.6644 27.9922C20.6325 28.0078 20.6041 28.0274 20.5722 28.0469C20.5473 28.0352 20.526 28.0196 20.5012 28.0078C20.7566 27.7071 20.7566 27.7071 20.9623 27.7735Z" fill="#969595"/>
<path d="M10.9245 16.25C10.9351 16.2891 10.9493 16.3281 10.9599 16.3672C10.7152 16.3399 10.4669 16.3164 10.2151 16.2891C10.2151 16.2774 10.2151 16.2617 10.2151 16.25C10.3002 16.2422 10.3853 16.2344 10.4705 16.2266C10.5059 16.2266 10.5059 16.2266 10.5414 16.2227C10.6762 16.211 10.7932 16.211 10.9245 16.25Z" fill="#ABABAB"/>
<path d="M18.4439 29.4531C18.2843 29.5703 18.2843 29.5703 18.1246 29.6875C18.0998 29.6758 18.0785 29.6602 18.0537 29.6484C18.1388 29.4648 18.1388 29.4648 18.2275 29.418C18.302 29.4141 18.302 29.4141 18.4439 29.4531Z" fill="#949393"/>
<path d="M9.47017 21.1328C9.495 21.1445 9.51628 21.1602 9.54111 21.1719C9.36022 21.3789 9.36022 21.3789 9.25736 21.4453C9.21125 21.4336 9.16514 21.418 9.11548 21.4062C9.23253 21.3164 9.34958 21.2266 9.47017 21.1328Z" fill="#939393"/>
<path d="M25.182 17.1094C25.182 17.2422 25.1572 17.2812 25.0936 17.3906C25.0759 17.418 25.0618 17.4453 25.0441 17.4766C25.03 17.4961 25.0194 17.5156 25.0052 17.5391C24.9699 17.5273 24.9345 17.5117 24.8992 17.5C24.9345 17.3789 24.9593 17.3516 25.0406 17.2656C25.0795 17.2227 25.0795 17.2227 25.1184 17.1797C25.1396 17.1562 25.1608 17.1328 25.182 17.1094Z" fill="#919090"/>
<path d="M19.5789 27.1094C19.6037 27.1211 19.625 27.1367 19.6499 27.1484C19.6321 27.2227 19.6321 27.2227 19.5789 27.3047C19.4832 27.332 19.3945 27.3359 19.2952 27.3438C19.3838 27.2422 19.4583 27.1602 19.5789 27.1094Z" fill="#969696"/>
<path d="M14.5422 19.8828C14.5528 19.8828 14.5669 19.8828 14.5775 19.8828C14.5775 20.0117 14.5775 20.1406 14.5775 20.2734C14.6023 20.2734 14.6235 20.2734 14.6483 20.2734C14.6589 20.3633 14.673 20.4531 14.6836 20.5469C14.6306 20.4922 14.6306 20.4922 14.5775 20.4297C14.5775 20.4023 14.5775 20.3789 14.5775 20.3516C14.5528 20.3398 14.5316 20.3242 14.5068 20.3125C14.5174 20.1719 14.5316 20.0273 14.5422 19.8828Z" fill="#A3A3A2"/>
<path d="M11.3146 25.5469C11.1586 25.6406 11.0309 25.6836 10.8535 25.7031C10.8783 25.6914 10.8996 25.6758 10.9245 25.6641C10.9245 25.6367 10.9245 25.6133 10.9245 25.5859C11.1869 25.4922 11.1869 25.4922 11.3146 25.5469Z" fill="#939292"/>
<path d="M20.2173 26.6797C20.2422 26.6914 20.2635 26.707 20.2883 26.7188C20.2706 26.793 20.2706 26.793 20.2173 26.875C20.1216 26.9023 20.0329 26.9063 19.9336 26.9141C20.0187 26.8125 20.1074 26.7422 20.2173 26.6797Z" fill="#969696"/>
<path d="M23.0896 20.8594C23.0896 20.9922 23.0648 21.0312 23.0012 21.1406C22.9835 21.168 22.9694 21.1953 22.9517 21.2266C22.9375 21.2461 22.9269 21.2656 22.9128 21.2891C22.8916 21.2188 22.8916 21.2188 22.8774 21.1328C22.9906 20.9141 22.9906 20.9141 23.0896 20.8594Z" fill="#949494"/>
<path d="M25.5371 13.9844C25.5371 14.1172 25.5053 14.2109 25.4664 14.3359C25.4558 14.375 25.4416 14.4141 25.431 14.4531C25.3957 14.4414 25.3603 14.4258 25.325 14.4141C25.378 14.2539 25.4487 14.125 25.5371 13.9844Z" fill="#9B9B9B"/>
<path d="M14.1167 17.6562C14.1628 17.6562 14.2089 17.6562 14.2586 17.6562C14.2586 17.6836 14.2586 17.707 14.2586 17.7344C14.5033 17.7539 14.5033 17.7539 14.7551 17.7734C14.7551 17.7852 14.7551 17.8008 14.7551 17.8125C14.6807 17.8164 14.6097 17.8164 14.5352 17.8203C14.4749 17.8203 14.4749 17.8203 14.4111 17.8242C14.2834 17.8125 14.2196 17.7813 14.1167 17.6953C14.1167 17.6836 14.1167 17.668 14.1167 17.6562Z" fill="#717271"/>
<path d="M25.8567 15.7422C25.892 15.7539 25.9274 15.7695 25.9627 15.7812C25.9168 15.9219 25.8567 16.0469 25.786 16.1719C25.7506 16.0859 25.7471 16.0312 25.7718 15.9453C25.8001 15.875 25.8284 15.8086 25.8567 15.7422Z" fill="#939292"/>
<path d="M9.22192 15.625C9.26803 15.6367 9.31414 15.6523 9.3638 15.6641C9.25739 15.7656 9.15453 15.8711 9.04457 15.9766C9.01974 15.9648 8.99846 15.9492 8.97363 15.9375C9.05521 15.8359 9.13679 15.7305 9.22192 15.625Z" fill="#7F7F7F"/>
<path d="M11.1372 15.3516C11.2826 15.375 11.3961 15.4297 11.5274 15.5078C11.5167 15.5469 11.5025 15.5859 11.4919 15.625C11.421 15.5977 11.35 15.5742 11.2791 15.5469C11.2791 15.5078 11.2791 15.4688 11.2791 15.4297C11.233 15.4023 11.1869 15.3789 11.1372 15.3516Z" fill="#9B9B9A"/>
<path d="M9.32814 12.3828C9.45541 12.5938 9.45541 12.5938 9.50491 12.6953C9.4943 12.7227 9.48016 12.7461 9.46956 12.7734C9.4342 12.7734 9.39885 12.7734 9.3635 12.7734C9.35289 12.7227 9.33875 12.668 9.32814 12.6172C9.32107 12.5898 9.314 12.5625 9.30693 12.5352C9.29279 12.4609 9.29279 12.4609 9.32814 12.3828Z" fill="#939493"/>
<path d="M9.93129 18.7891C9.94193 18.8164 9.95612 18.8398 9.96676 18.8672C10.0412 18.8945 10.0412 18.8945 10.1299 18.9102C10.1725 18.9219 10.1725 18.9219 10.2186 18.9297C10.2399 18.9375 10.2612 18.9414 10.286 18.9453C10.2399 19.0039 10.2399 19.0039 10.1796 19.0625C10.1441 19.0625 10.1086 19.0625 10.0732 19.0625C10.0732 19.0352 10.0732 19.0117 10.0732 18.9844C10.0483 18.9844 10.0271 18.9844 10.0022 18.9844C10.0022 18.957 10.0022 18.9336 10.0022 18.9062C9.95612 18.8789 9.91001 18.8555 9.86035 18.8281C9.88518 18.8164 9.90646 18.8008 9.93129 18.7891Z" fill="#A7A6A6"/>
<path d="M13.8684 11.7578C13.9038 11.7695 13.9391 11.7852 13.9745 11.7969C14.0134 11.8867 14.0487 11.9766 14.0805 12.0703C14.1159 12.1289 14.1159 12.1289 14.1512 12.1875C14.0028 12.1289 13.9462 12.0234 13.8684 11.875C13.8684 11.8359 13.8684 11.7969 13.8684 11.7578Z" fill="#A4A4A3"/>
<path d="M8.33505 23.75C8.40576 23.8984 8.40576 23.8984 8.40576 23.9844C8.43051 23.9844 8.45172 23.9844 8.47647 23.9844C8.48707 24.0625 8.50121 24.1406 8.51182 24.2188C8.47647 24.207 8.44111 24.1914 8.40576 24.1797C8.34919 24.0312 8.32798 23.9102 8.33505 23.75Z" fill="#949494"/>
<path d="M8.79562 10.5078C8.79562 10.6406 8.77794 10.668 8.70723 10.7695C8.68956 10.793 8.67542 10.8164 8.65774 10.8438C8.6436 10.8594 8.63299 10.8789 8.61885 10.8984C8.59764 10.8281 8.59764 10.8281 8.5835 10.7422C8.66834 10.6367 8.66834 10.6367 8.76026 10.5469C8.77087 10.5352 8.78501 10.5195 8.79562 10.5078Z" fill="#828383"/>
<path d="M17.7692 28.3203C17.794 28.332 17.8152 28.3477 17.84 28.3594C17.84 28.3984 17.84 28.4375 17.84 28.4766C17.748 28.4883 17.6526 28.5039 17.5571 28.5156C17.6243 28.4375 17.6844 28.3828 17.7692 28.3203Z" fill="#949495"/>
<path d="M9.65118 25.4258C9.69019 25.4375 9.69019 25.4375 9.72921 25.4492C9.75049 25.457 9.76822 25.4609 9.78951 25.4688C9.75404 25.5274 9.75404 25.5274 9.71857 25.5859C9.51285 25.5156 9.51285 25.5156 9.43481 25.4297C9.52349 25.3789 9.55541 25.3984 9.65118 25.4258Z" fill="#959594"/>
<path d="M28.02 12.0312C28.02 12.1953 27.9564 12.2812 27.8786 12.4219C27.8539 12.3555 27.8539 12.3555 27.8433 12.2656C27.9246 12.0859 27.9246 12.0859 28.02 12.0312Z" fill="#929191"/>
<path d="M9.64746 9.6875C9.68292 9.69922 9.71839 9.71484 9.75386 9.72656C9.67938 9.83594 9.64391 9.84375 9.51622 9.87109C9.4772 9.875 9.43819 9.87891 9.39917 9.88281C9.56942 9.73047 9.56942 9.73047 9.64746 9.6875Z" fill="#989897"/>
<path d="M8.51245 24.375C8.57962 24.3984 8.57962 24.3984 8.65386 24.4531C8.68215 24.5742 8.68215 24.5742 8.68922 24.6875C8.65386 24.6484 8.61851 24.6094 8.58316 24.5703C8.5478 24.5898 8.5478 24.5898 8.51245 24.6094C8.51245 24.5312 8.51245 24.4531 8.51245 24.375Z" fill="#9E9E9C"/>
<path d="M12.0593 15.9766C12.1654 16.0859 12.2502 16.1797 12.3068 16.3281C12.1831 16.2617 12.1371 16.2305 12.0841 16.0859C12.077 16.0508 12.0664 16.0156 12.0593 15.9766Z" fill="#999A99"/>
<path d="M25.0052 14.9219C25.0406 14.9336 25.0759 14.9492 25.1113 14.9609C25.0689 15.1055 25.0088 15.1445 24.8992 15.2344C24.8992 15.0938 24.9381 15.0352 25.0052 14.9219Z" fill="#949494"/>
<path d="M11.4564 14.1016C11.2294 14.2695 11.2294 14.2695 11.0911 14.2422C11.0698 14.2344 11.052 14.2266 11.0308 14.2188C11.0662 14.2188 11.1017 14.2188 11.1372 14.2188C11.1372 14.1914 11.1372 14.168 11.1372 14.1406C11.2507 14.0977 11.3393 14.0977 11.4564 14.1016Z" fill="#9D9C9C"/>
<path d="M11.4209 11.0156C11.5234 11.0781 11.5234 11.0781 11.633 11.1719C11.6648 11.3203 11.6648 11.3203 11.6684 11.4453C11.6472 11.4141 11.6472 11.4141 11.6259 11.3789C11.58 11.3125 11.534 11.25 11.4845 11.1875C11.4209 11.0938 11.4209 11.0938 11.4209 11.0156Z" fill="#AAA9AA"/>
<path d="M12.5201 18.2422C12.5307 18.2422 12.5449 18.2422 12.5555 18.2422C12.559 18.5078 12.559 18.5078 12.5201 18.5938C12.4954 18.5938 12.4742 18.5938 12.4494 18.5938C12.4388 18.6211 12.4247 18.6445 12.4141 18.6719C12.4388 18.5234 12.4742 18.3828 12.5201 18.2422Z" fill="#808180"/>
<path d="M26.7079 14.2188C26.7433 14.2305 26.7786 14.2461 26.814 14.2578C26.7715 14.3906 26.7327 14.4766 26.6372 14.5703C26.669 14.2617 26.669 14.2617 26.7079 14.2188Z" fill="#9B9A9A"/>
<path d="M9.32837 13.9453C9.52345 13.9688 9.52345 13.9688 9.60858 14.0469C9.62631 14.0742 9.62631 14.0742 9.64759 14.1016C9.61212 14.1211 9.61212 14.1211 9.57665 14.1406C9.48798 14.0977 9.40995 14.0391 9.32837 13.9844C9.32837 13.9727 9.32837 13.957 9.32837 13.9453Z" fill="#989897"/>
<path d="M8.54785 10.8203C8.5726 10.8477 8.59381 10.8711 8.61856 10.8984C8.60088 11.1133 8.60088 11.1133 8.5125 11.2109C8.47008 11 8.47007 11 8.50896 10.8828C8.53018 10.8516 8.53018 10.8516 8.54785 10.8203Z" fill="#939494"/>
<path d="M11.7394 25.3125C11.6687 25.3633 11.598 25.4141 11.5272 25.4687C11.5025 25.457 11.4813 25.4414 11.4565 25.4297C11.4565 25.3906 11.4565 25.3516 11.4565 25.3125C11.5661 25.2734 11.6298 25.2734 11.7394 25.3125Z" fill="#999998"/>
<path d="M22.877 18.75C22.9053 18.8164 22.9053 18.8164 22.9124 18.9062C22.8275 19.0156 22.8275 19.0156 22.7356 19.1016C22.7356 18.9453 22.7957 18.875 22.877 18.75Z" fill="#9C9C9B"/>
<path d="M12.5555 12.6172C12.5802 12.6797 12.5802 12.6797 12.5908 12.7734C12.5413 12.8984 12.5413 12.8984 12.4848 13.0078C12.46 12.9687 12.4388 12.9297 12.4141 12.8906C12.4388 12.8398 12.46 12.7891 12.4848 12.7344C12.5095 12.7344 12.5307 12.7344 12.5555 12.7344C12.5555 12.6953 12.5555 12.6562 12.5555 12.6172Z" fill="#9E9E9E"/>
<path d="M14.0452 11.0156C14.07 11.0273 14.0912 11.043 14.1159 11.0547C14.0664 11.1523 14.0664 11.1523 14.0099 11.25C13.9851 11.25 13.9639 11.25 13.9392 11.25C13.9286 11.2773 13.9144 11.3008 13.9038 11.3281C13.925 11.1953 13.9674 11.1172 14.0452 11.0156Z" fill="#9E9F9E"/>
<path d="M19.6495 28.5156C19.7272 28.5234 19.7272 28.5234 19.7909 28.5547C19.7202 28.6055 19.6495 28.6562 19.5788 28.7109C19.554 28.6992 19.5328 28.6836 19.5081 28.6719C19.5717 28.5898 19.5717 28.5898 19.6495 28.5156Z" fill="#9A9998"/>
<path d="M9.93128 15.3516C9.90645 15.3516 9.88517 15.3516 9.86034 15.3516C9.86034 15.3789 9.86034 15.4024 9.86034 15.4297C9.7965 15.4531 9.7965 15.4531 9.71847 15.4688C9.683 15.4414 9.64753 15.418 9.61206 15.3906C9.73266 15.3281 9.80359 15.3008 9.93128 15.3516Z" fill="#A1A1A1"/>
<path d="M17.3442 28.4375C17.3902 28.4492 17.4362 28.4648 17.4857 28.4766C17.4503 28.5039 17.4149 28.5273 17.3796 28.5547C17.369 28.5156 17.3548 28.4766 17.3442 28.4375Z" fill="#9F9D9E"/>
<path d="M11.3501 11.1328C11.3855 11.1445 11.4208 11.1602 11.4562 11.1719C11.4208 11.1836 11.3855 11.1992 11.3501 11.2109C11.3501 11.1836 11.3501 11.1602 11.3501 11.1328Z" fill="#A1A0A0"/>
<path d="M8.22876 17.8516C8.26411 18.0078 8.26411 18.0078 8.26411 18.0078L8.22876 17.8516Z" fill="#9E9D9C"/>
<path d="M8.54746 24.6094C8.55796 24.6367 8.57196 24.6602 8.58246 24.6875C8.55796 24.6758 8.53696 24.6602 8.51245 24.6484C8.52295 24.6367 8.53695 24.6211 8.54746 24.6094Z" fill="#9B9A9A"/>
<path d="M10.8535 22.0703C10.878 22.0703 10.899 22.0703 10.9235 22.0703C10.913 22.0977 10.899 22.1211 10.8885 22.1484C10.878 22.1211 10.864 22.0977 10.8535 22.0703Z" fill="#9F9D9E"/>
<path d="M18.1602 27.8906C18.2302 27.9297 18.2302 27.9297 18.2302 27.9297L18.1602 27.8906Z" fill="#A19FA0"/>
<path d="M18.373 27.8125C18.4431 27.8516 18.4431 27.8516 18.4431 27.8516L18.373 27.8125Z" fill="#A0A0A1"/>
<path d="M9.43481 25.5078C9.50483 25.5469 9.50483 25.5469 9.50483 25.5469L9.43481 25.5078Z" fill="#999899"/>
<path d="M14.897 22.0312C14.967 22.0703 14.967 22.0703 14.967 22.0703L14.897 22.0312Z" fill="#A1A1A0"/>
<path d="M10.96 18.7891C11.03 18.8281 11.03 18.8281 11.03 18.8281L10.96 18.7891Z" fill="#9C9C9C"/>
<path d="M8.83179 13.5938C8.9018 13.6328 8.9018 13.6328 8.9018 13.6328L8.83179 13.5938Z" fill="#9C9B9C"/>
<path d="M14.3293 12.3438C14.3994 12.3828 14.3994 12.3828 14.3994 12.3828L14.3293 12.3438Z" fill="#A2A1A1"/>
</svg>
