<svg width="40" height="40" viewBox="0 0 40 40" fill="none" xmlns="http://www.w3.org/2000/svg">
<path d="M12.0666 3.33334H8.89992C5.24992 3.33334 3.33325 5.25001 3.33325 8.88334V12.05C3.33325 15.6833 5.24992 17.6 8.88325 17.6H12.0499C15.6833 17.6 17.5999 15.6833 17.5999 12.05V8.88334C17.6166 5.25001 15.6999 3.33334 12.0666 3.33334Z" fill="#CCF02C" stroke="#CCF02C" stroke-width="2.66667"/>
<path opacity="0.4" d="M31.1158 3.33334H27.9492C24.3158 3.33334 22.3992 5.25001 22.3992 8.88334V12.05C22.3992 15.6833 24.3158 17.6 27.9492 17.6H31.1158C34.7492 17.6 36.6658 15.6833 36.6658 12.05V8.88334C36.6658 5.25001 34.7492 3.33334 31.1158 3.33334Z" fill="#CCF02C" stroke="#CCF02C" stroke-width="2.66667"/>
<path d="M31.1158 22.3837H27.9492C24.3158 22.3837 22.3992 24.3003 22.3992 27.9337V31.1003C22.3992 34.7337 24.3158 36.6503 27.9492 36.6503H31.1158C34.7492 36.6503 36.6658 34.7337 36.6658 31.1003V27.9337C36.6658 24.3003 34.7492 22.3837 31.1158 22.3837Z" fill="#CCF02C" stroke="#CCF02C" stroke-width="2.66667"/>
<path opacity="0.4" d="M12.0666 22.3837H8.89992C5.24992 22.3837 3.33325 24.3003 3.33325 27.9337V31.1003C3.33325 34.7503 5.24992 36.667 8.88325 36.667H12.0499C15.6833 36.667 17.5999 34.7503 17.5999 31.117V27.9503C17.6166 24.3003 15.6999 22.3837 12.0666 22.3837Z" fill="#CCF02C" stroke="#CCF02C" stroke-width="2.66667"/>
</svg>
