<svg width="60" height="43" viewBox="0 0 60 43" fill="none" xmlns="http://www.w3.org/2000/svg">
<mask id="mask0_392_722" style="mask-type:luminance" maskUnits="userSpaceOnUse" x="4" y="1" width="51" height="6">
<path d="M4.80005 1.75317H54.4001V6.06873H4.80005V1.75317Z" fill="white"/>
</mask>
<g mask="url(#mask0_392_722)">
<path d="M7.95619 5.22626C6.79994 5.22626 5.74994 4.66619 5.49994 3.89339C5.18119 3.05112 5.89994 2.13938 7.09369 1.85718C7.10619 1.85718 7.11869 1.85283 7.13119 1.85283C7.63744 1.75298 8.14994 1.75732 8.59994 1.76166C8.74369 1.76166 8.88744 1.76166 9.03119 1.76166C15.4187 1.766 21.7874 1.76166 28.1562 1.76166C35.7437 1.76166 43.5874 1.75732 51.2999 1.77034C51.9874 1.75298 52.6624 1.96137 53.1437 2.34344C53.6374 2.7255 53.8624 3.22044 53.7624 3.70236C53.6937 4.13217 53.3812 4.5316 52.8687 4.81815C52.3499 5.11338 51.6937 5.25665 51.0499 5.21758C44.9249 5.21758 38.7999 5.21758 32.6687 5.21758C24.4999 5.21758 16.3249 5.21758 8.15619 5.21758C8.08744 5.22192 8.02494 5.22626 7.95619 5.22626ZM7.51244 2.75589C6.99994 2.88179 6.67494 3.30293 6.81244 3.65894C6.81244 3.66762 6.81869 3.67631 6.81869 3.68065C6.93119 4.041 7.49994 4.31452 8.06244 4.27979C8.08119 4.27979 8.10619 4.27545 8.12494 4.27545C16.3062 4.27545 24.4874 4.27545 32.6687 4.27545C38.8062 4.27545 44.9437 4.27545 51.0812 4.27545C51.1062 4.27545 51.1249 4.27545 51.1499 4.27979C51.4499 4.3015 51.7624 4.23203 52.0124 4.08876C52.2437 3.95851 52.3874 3.78485 52.4124 3.59816C52.4124 3.58947 52.4124 3.58079 52.4187 3.57211C52.4624 3.36805 52.3562 3.14229 52.1312 2.96863C51.9124 2.7993 51.6187 2.70379 51.3312 2.71247C51.3249 2.71247 51.3187 2.71247 51.3062 2.71247C43.5937 2.70379 35.7437 2.70379 28.1562 2.70379C21.7874 2.70813 15.4187 2.70813 9.04369 2.70379C8.90619 2.70379 8.74369 2.70379 8.58744 2.70379C8.19994 2.69945 7.83119 2.6951 7.51244 2.75589Z" fill="#01DB6B"/>
</g>
<path d="M5.51885 20.2875C5.09385 20.2875 4.6626 20.2658 4.2376 20.2224C2.31885 19.9792 0.718848 18.9416 0.0438477 17.5176C0.0188477 17.4698 0.00634766 17.4177 0.00634766 17.3699V16.4539C0.00634766 16.3844 0.0313476 16.3149 0.0750977 16.2542C1.2501 14.5175 2.3876 12.7244 3.4876 10.9921C4.56885 9.28588 5.6876 7.51885 6.8501 5.80392C6.9626 5.63894 7.2001 5.5304 7.4626 5.5304C9.51885 5.5304 11.5751 5.5304 13.6313 5.5304H16.7126C16.9188 5.5304 17.1126 5.59552 17.2438 5.70406C17.3688 5.81694 17.4188 5.96021 17.3751 6.09915C16.7876 8.0355 16.1501 9.9979 15.5438 11.8995C15.0001 13.571 14.4438 15.3033 13.9126 17.0096C13.9126 17.0226 13.9063 17.0356 13.9001 17.0487C13.8813 17.0921 13.8626 17.1355 13.8501 17.1833C13.7751 17.4047 13.6626 17.739 13.2126 17.9517C12.8001 18.1731 12.3751 18.3815 11.9626 18.5813C11.6751 18.7202 11.3938 18.8591 11.1126 18.998C9.46885 19.836 7.48135 20.2875 5.51885 20.2875Z" fill="#01DB6B"/>
<path d="M21.5562 20.3049C20.5187 20.3049 19.4812 20.1746 18.525 19.9141C17.4812 19.6276 16.7312 19.1196 16.0062 18.6247C15.5437 18.3078 15.1 18.0082 14.6062 17.7781C14.375 17.6739 14.2625 17.4828 14.3125 17.2918C14.9437 15.1297 15.6562 12.9372 16.3437 10.8228C16.8625 9.21643 17.4062 7.55794 17.9 5.9255C17.9687 5.70842 18.2375 5.55646 18.5562 5.55212C20.9125 5.52173 23.3062 5.52607 25.625 5.53041C26.65 5.53476 27.675 5.5391 28.6937 5.53475C28.875 5.53475 29.05 5.58685 29.175 5.67369C29.3 5.76486 29.375 5.88208 29.375 6.00799C29.3687 7.35823 29.375 8.73018 29.3812 10.0544C29.3937 12.4683 29.4062 14.9691 29.3437 17.4264C29.3375 17.6001 29.1937 17.7607 28.9687 17.8389C28.3812 18.0429 27.875 18.3555 27.3437 18.6855C26.7312 19.0632 26.1 19.4539 25.2937 19.7144C24.1312 20.1052 22.8437 20.3049 21.5562 20.3049Z" fill="#01DB6B"/>
<path d="M37.675 20.3049C36.525 20.3049 35.35 20.1442 34.2438 19.8273C33.3063 19.5668 32.5813 19.124 31.8875 18.6942C31.3438 18.3598 30.8375 18.0429 30.2438 17.8302C30.025 17.752 29.8813 17.5914 29.8813 17.4177C29.8125 14.7911 29.825 12.1166 29.8313 9.53337C29.8375 8.3568 29.8375 7.18456 29.8375 6.00799C29.8375 5.88208 29.9063 5.76486 30.0313 5.67369C30.1625 5.58685 30.3313 5.53475 30.5125 5.53475C31.575 5.5391 32.6375 5.53476 33.7 5.53041C35.9813 5.52607 38.3313 5.52173 40.6563 5.55212C40.9688 5.55646 41.2375 5.71276 41.3063 5.9255C41.8188 7.60136 42.3688 9.30761 42.9 10.9531C43.5688 13.0284 44.2563 15.1731 44.8875 17.2918C44.9438 17.4785 44.825 17.6739 44.5938 17.7781C44.1 17.9995 43.675 18.2947 43.225 18.6073C42.5813 19.0545 41.9125 19.5191 41 19.8056C39.9938 20.1356 38.85 20.3049 37.675 20.3049Z" fill="#01DB6B"/>
<path d="M53.7438 20.2918C53.1563 20.2918 52.5313 20.2441 51.8625 20.1529C49.4875 19.862 47.5438 18.7766 45.825 17.8215L45.7375 17.7694C45.6188 17.7043 45.5375 17.6131 45.5063 17.5132C44.7063 15.2035 43.9625 12.8417 43.2375 10.5623C42.775 9.10354 42.3 7.597 41.8125 6.12086C41.7688 5.98193 41.8125 5.83865 41.9438 5.72577C42.0688 5.61289 42.2625 5.54777 42.4625 5.54343C44.6875 5.52172 46.9438 5.52606 49.125 5.5304C49.9938 5.53474 50.8688 5.53474 51.7438 5.53474C52.0063 5.53474 52.2438 5.63894 52.3563 5.80826C53.4875 7.48412 54.575 9.20774 55.6313 10.8749C56.7625 12.6506 57.925 14.4828 59.1313 16.2672C59.175 16.328 59.1938 16.3974 59.1938 16.4669V17.383C59.1938 17.4438 59.1813 17.5045 59.1438 17.561C58.7188 18.2904 58.0625 19.1978 56.7875 19.7144C55.95 20.1008 54.9313 20.2918 53.7438 20.2918Z" fill="#01DB6B"/>
<mask id="mask1_392_722" style="mask-type:luminance" maskUnits="userSpaceOnUse" x="0" y="17" width="60" height="24">
<path d="M0 17.1832H59.2V40.4151H0V17.1832Z" fill="white"/>
</mask>
<g mask="url(#mask1_392_722)">
<path d="M1.87495 40.4021C1.3062 40.4021 0.749951 40.2501 0.249951 39.9592C0.0999512 39.8724 0.0124512 39.7378 0.0124512 39.5989V38.9737C0.0124512 38.8261 0.106201 38.6871 0.274951 38.6003C1.1687 38.1227 2.2062 38.1575 3.1187 38.1922C3.28745 38.2009 3.4562 38.2052 3.6187 38.2096C3.6312 35.5221 3.62495 32.7956 3.62495 30.1559C3.6187 27.1776 3.6187 24.095 3.63745 21.0602C3.63745 20.93 3.71245 20.8084 3.84995 20.7172C3.98745 20.6304 4.1687 20.5827 4.3562 20.5913C6.7062 20.6999 8.96245 20.3352 10.7062 19.5711C10.7125 19.5711 10.7187 19.5667 10.725 19.5624C11.125 19.3974 11.5062 19.202 11.9062 18.9893C12.525 18.6637 13.175 18.325 13.95 18.0949C14.1875 18.0298 14.4562 18.0558 14.65 18.1731C15.0187 18.3901 15.3562 18.6246 15.6875 18.8504C16.275 19.2541 16.8312 19.6362 17.5 19.901C19.1312 20.587 21.3062 20.7824 23.6437 20.4567C25.0812 20.257 26.5 19.697 27.7562 18.8417C27.7687 18.833 27.7875 18.8243 27.8 18.8156C27.8687 18.7722 27.9437 18.7288 28.0187 18.681C28.4937 18.3858 29.475 17.7693 30.5187 18.3077C30.9125 18.5161 31.2812 18.7375 31.6375 18.9546C32.3624 19.3974 33.05 19.8142 33.875 20.0573C36.35 20.8214 39.2437 20.8041 41.4312 20.0096C42.2437 19.7274 42.8875 19.2845 43.575 18.8156C43.8875 18.6029 44.2125 18.3815 44.55 18.1731C44.7437 18.0558 45.0187 18.0255 45.2562 18.0949C45.9875 18.3077 46.5937 18.6246 47.175 18.9328C47.3562 19.024 47.5375 19.1195 47.7187 19.2107C49.6624 20.2353 52.1875 20.7216 54.85 20.5957C55.0375 20.5827 55.2187 20.6304 55.3562 20.7172C55.4937 20.8084 55.575 20.93 55.575 21.0602C55.5937 24.0342 55.5875 27.0603 55.5875 29.9822C55.5812 32.6784 55.5812 35.4657 55.5937 38.2096C55.7625 38.2052 55.9375 38.2009 56.1187 38.1922C57.0437 38.1575 58.0875 38.114 58.9625 38.635C59.1125 38.7219 59.2 38.8521 59.2 38.9911V39.6206C59.2 39.7899 59.0687 39.9462 58.8562 40.0287C58.8062 40.0504 58.75 40.0721 58.6937 40.0982C58.375 40.2327 57.9437 40.4151 57.3812 40.3934H56.3312C54.0875 40.3977 51.7687 40.3977 49.4875 40.389C49.1187 40.3847 48.825 40.1807 48.8125 39.9245C48.7937 39.2385 48.8 38.5439 48.8125 37.8753C48.8187 37.1068 48.825 36.3123 48.7937 35.5395C48.7937 35.5221 48.7937 35.5047 48.7937 35.4874C48.7999 35.457 48.7937 35.444 48.7625 35.4266C48.7062 35.3875 48.5812 35.3571 48.4562 35.3658C48.425 35.3702 48.3937 35.3658 48.3687 35.3702C45.8937 35.3658 43.4187 35.3702 40.9437 35.3702C38.2125 35.3702 35.4812 35.3702 32.75 35.3658C32.7437 35.3658 32.7312 35.3658 32.725 35.3658C32.3687 35.3528 32.1875 35.3962 32.1312 35.4179C32.0687 36.2558 32.0812 37.1068 32.0937 37.936C32.1 38.5873 32.1124 39.2602 32.0812 39.9288C32.0687 40.1807 31.7812 40.3804 31.4187 40.389C30.3624 40.4021 29.2437 40.4021 27.8 40.389C27.4312 40.3847 27.1312 40.1763 27.1312 39.9202C27.1125 35.9867 27.1187 31.988 27.1187 28.1197C27.125 26.5046 27.125 24.8852 27.125 23.2658V23.231C27.1187 23.1268 27.1125 22.9184 27.0625 22.8446C26.6937 22.7925 26.2875 22.7969 25.8625 22.8012C25.675 22.8056 25.4875 22.8056 25.3 22.8056C21.0812 22.8099 16.7812 22.8056 12.625 22.8056H11.0375C10.8812 22.8056 10.5687 22.8099 10.4625 22.849C10.375 23.1659 10.3875 23.5002 10.4 23.8562C10.4 24.0299 10.4062 24.2079 10.4 24.3859C10.4 25.8881 10.4062 27.399 10.4062 28.9098C10.4062 32.5177 10.4125 36.2472 10.3937 39.9202C10.3937 40.1763 10.0937 40.3847 9.72495 40.389C8.27495 40.3977 6.79995 40.3977 5.3812 40.3934C4.27495 40.3934 3.1687 40.3934 2.06245 40.3977C1.99995 40.3977 1.93745 40.4021 1.87495 40.4021ZM1.36245 39.3557C1.5312 39.4252 1.73745 39.473 1.96245 39.4556C1.9812 39.4556 1.99995 39.4556 2.02495 39.4556C3.1437 39.4513 4.26245 39.4513 5.3812 39.4513C6.5812 39.4513 7.81245 39.4556 9.03745 39.4469C9.04995 35.9302 9.04995 32.3614 9.0437 28.9098C9.0437 27.399 9.0437 25.8881 9.0437 24.3772C9.04995 24.2079 9.0437 24.0429 9.03745 23.8736C9.02495 23.4655 9.01245 23.0443 9.1437 22.6102C9.14995 22.5928 9.1562 22.5798 9.1562 22.5668C9.46245 21.8808 10.5062 21.8678 11.0062 21.8591H11.05L12.6187 21.8634C16.7812 21.8634 21.075 21.8678 25.3062 21.8591C25.4937 21.8634 25.6625 21.8591 25.8375 21.8591C26.3437 21.8547 26.8687 21.8461 27.4125 21.9329C27.4312 21.9329 27.45 21.9372 27.4687 21.9416C28.4375 22.15 28.4625 22.8663 28.475 23.2093V23.2527C28.475 24.8852 28.475 26.5046 28.475 28.1197C28.4687 31.8361 28.4687 35.6697 28.4812 39.4513C29.325 39.4556 30.0562 39.4599 30.7375 39.4513C30.7437 38.9476 30.7375 38.4397 30.7312 37.9447C30.7187 37.0981 30.7062 36.2254 30.775 35.3615C30.8 35.127 31.0062 34.3716 32.7625 34.4237C35.4875 34.428 38.2125 34.428 40.9375 34.428C43.4 34.4237 45.8687 34.4237 48.3312 34.428C48.8375 34.3933 49.35 34.5105 49.7 34.745C50.0125 34.9577 50.1687 35.2356 50.1437 35.5351C50.1749 36.321 50.1687 37.1111 50.1625 37.8796C50.1562 38.3963 50.15 38.9216 50.1562 39.4469C52.2125 39.4556 54.3 39.4556 56.3187 39.4513H57.4C57.4187 39.4469 57.4375 39.4513 57.4562 39.4513C57.5562 39.4556 57.6937 39.4122 57.8375 39.3514V39.2385C57.4 39.0866 56.8312 39.1083 56.1875 39.1343C55.7437 39.1517 55.2812 39.1691 54.825 39.1256C54.4875 39.0953 54.2375 38.8955 54.2375 38.6611C54.2187 35.7696 54.225 32.826 54.225 29.9822C54.225 27.221 54.2312 24.3685 54.2187 21.5552C51.4937 21.5812 48.9187 21.0298 46.9125 19.9705C46.7312 19.8793 46.5437 19.7838 46.3562 19.6839C45.9375 19.4625 45.5375 19.2541 45.1062 19.0935C44.9125 19.2194 44.7187 19.3496 44.5187 19.4886C43.7937 19.9879 43.0375 20.5045 42.0437 20.8475C39.5062 21.7679 36.1625 21.7983 33.325 20.9213C32.3125 20.6217 31.5124 20.1355 30.7375 19.6622C30.3875 19.4495 30.05 19.2454 29.7 19.0588C29.5875 19.0023 29.4062 19.0761 28.925 19.38C28.8437 19.4321 28.7624 19.4799 28.6875 19.5276C27.2437 20.5045 25.5937 21.1471 23.9 21.3815C21.2312 21.7505 18.7187 21.5161 16.8125 20.7129C16.0062 20.396 15.3562 19.9488 14.7312 19.519C14.5125 19.3713 14.3062 19.2281 14.0937 19.0891C13.625 19.2671 13.1812 19.4973 12.7187 19.7404C12.3062 19.9575 11.8812 20.1789 11.4187 20.3699C9.58745 21.1731 7.3812 21.5725 4.98745 21.5508C4.9687 24.425 4.97495 27.3338 4.97495 30.1559C4.9812 32.9432 4.9812 35.826 4.9687 38.6654C4.9687 38.9042 4.7062 39.1039 4.3687 39.13C3.9187 39.1647 3.47495 39.1517 3.0437 39.1343C2.3937 39.1083 1.82495 39.0909 1.36245 39.2342V39.3557ZM50.325 34.1198C50.2625 34.1198 50.2 34.1154 50.1375 34.1111C47.5625 34.1111 44.9875 34.1111 42.4125 34.1111C38.525 34.1111 34.6437 34.1111 30.7562 34.1111C30.25 34.1458 29.7437 34.0286 29.3875 33.7942C29.0687 33.5858 28.9125 33.3036 28.9375 33.004C28.9187 31.2543 28.925 29.4829 28.925 27.768C28.9312 26.2919 28.9312 24.768 28.9187 23.2701C28.9125 23.014 28.875 22.2021 29.8937 21.9459C29.9187 21.9372 29.9437 21.9329 29.975 21.9286C30.4937 21.8461 30.9937 21.8504 31.4812 21.8591C31.6875 21.8634 31.8812 21.8678 32.0687 21.8634H34.6937C39.7812 21.8634 44.8624 21.8678 49.9437 21.8591C49.9562 21.8591 49.9687 21.8591 49.9812 21.8591C50.0437 21.8634 50.1 21.8634 50.1625 21.8634C50.5312 21.8678 51.0875 21.8765 51.5125 22.176C51.9437 22.4713 51.9562 22.8577 51.9687 23.1138C51.9687 23.1572 51.9687 23.1963 51.9687 23.2397C51.975 23.2484 51.975 23.2571 51.975 23.2701C51.9625 24.768 51.9687 26.2919 51.9687 27.768C51.9687 29.4829 51.975 31.2543 51.9562 33.004C51.9812 33.3079 51.8187 33.5901 51.4937 33.8028C51.1812 34.0069 50.7562 34.1198 50.325 34.1198ZM47.2062 33.169C48.2 33.169 49.1875 33.169 50.175 33.169C50.2062 33.169 50.2375 33.1733 50.2687 33.1733C50.375 33.1863 50.5 33.1603 50.5687 33.1169C50.6062 33.0908 50.6062 33.0734 50.6062 33.0561C50.6 33.0431 50.6 33.03 50.6 33.0127C50.6187 31.2673 50.6125 29.4873 50.6125 27.768C50.6125 26.2962 50.6062 24.7766 50.6187 23.2788C50.6124 23.231 50.6125 23.1833 50.6125 23.1355C50.6062 23.053 50.6062 22.8837 50.5687 22.8533C50.5625 22.849 50.55 22.8446 50.55 22.8403C50.5062 22.8099 50.2562 22.8099 50.1312 22.8056C50.0625 22.8056 49.9937 22.8056 49.9312 22.8012C44.85 22.8056 39.775 22.8056 34.6937 22.8056H32.0875C31.8875 22.8099 31.6625 22.8056 31.45 22.8012C31.0562 22.7969 30.6812 22.7882 30.3437 22.8359C30.325 22.8577 30.2625 22.9401 30.275 23.2527C30.2875 24.768 30.2875 26.2919 30.2812 27.768C30.2812 29.4873 30.275 31.2673 30.2937 33.0127C30.2937 33.03 30.2937 33.0431 30.2875 33.0561C30.2875 33.0778 30.2937 33.0908 30.325 33.1125C30.3812 33.1516 30.5062 33.182 30.6312 33.1733C30.6625 33.169 30.6875 33.1603 30.7187 33.169C34.6187 33.169 38.5125 33.169 42.4125 33.169C44.0125 33.169 45.6062 33.169 47.2062 33.169Z" fill="#01DB6B"/>
</g>
<mask id="mask2_392_722" style="mask-type:luminance" maskUnits="userSpaceOnUse" x="9" y="22" width="19" height="19">
<path d="M9.6001 22.7405H27.2001V40.4151H9.6001V22.7405Z" fill="white"/>
</mask>
<g mask="url(#mask2_392_722)">
<path d="M19.3064 40.3934C16.9251 40.3934 14.3626 40.3934 11.5376 40.389C11.1626 40.389 10.8626 40.1806 10.8626 39.9201C10.8501 34.9273 10.8501 29.5871 10.8626 23.5957C10.8626 23.3352 11.1626 23.1268 11.5376 23.1225C16.3314 23.1138 21.1939 23.1138 25.9876 23.1225C26.3626 23.1268 26.6626 23.3352 26.6626 23.5957C26.6689 29.9605 26.6689 35.1487 26.6626 39.9201C26.6626 40.1806 26.3626 40.389 25.9876 40.389C23.8814 40.3934 21.6814 40.3934 19.3064 40.3934ZM12.2126 39.4469C17.2626 39.4512 21.4564 39.4512 25.3064 39.4469C25.3126 34.923 25.3126 30.0083 25.3064 24.0646C20.9626 24.0559 16.5626 24.0559 12.2126 24.0646C12.2064 29.6783 12.2064 34.7232 12.2126 39.4469Z" fill="#01DB6B"/>
</g>
<path d="M40.9375 32.8564C37.6875 32.8564 34.5 32.8564 31.4187 32.8521C31.0437 32.8521 30.7437 32.6437 30.7437 32.3832C30.725 29.3788 30.7312 26.3917 30.7375 23.5914C30.7375 23.3353 31.0437 23.1225 31.4125 23.1225C38.4812 23.1182 44.2187 23.1182 49.4812 23.1225C49.85 23.1225 50.1562 23.3309 50.1562 23.5914C50.1687 26.509 50.1687 29.4656 50.1562 32.3832C50.1562 32.6393 49.85 32.8521 49.4812 32.8521C46.6125 32.8564 43.7562 32.8564 40.9375 32.8564Z" fill="#01DB6B"/>
<mask id="mask3_392_722" style="mask-type:luminance" maskUnits="userSpaceOnUse" x="32" y="34" width="18" height="7">
<path d="M32 34.9664H49.6V40.4151H32V34.9664Z" fill="white"/>
</mask>
<g mask="url(#mask3_392_722)">
<path d="M40.1187 40.3935C37.725 40.3935 35.4375 40.3935 33.225 40.3891C32.85 40.3891 32.55 40.1807 32.55 39.9202C32.5312 38.6699 32.5312 37.4065 32.55 36.1561C32.55 35.8956 32.85 35.6872 33.225 35.6872C38.5187 35.6785 43.2437 35.6785 47.6687 35.6872C48.0437 35.6872 48.3437 35.8956 48.35 36.1517C48.3625 37.4108 48.3562 38.6872 48.35 39.9202C48.3437 40.1807 48.0437 40.3891 47.6687 40.3891C45.025 40.3935 42.5187 40.3935 40.1187 40.3935ZM33.9 39.447C37.9375 39.4557 42.2375 39.4557 46.9937 39.447C47 38.5179 47.0062 37.5671 47 36.6293C42.9562 36.6206 38.6562 36.6206 33.9 36.6293C33.8875 37.5671 33.8875 38.5092 33.9 39.447Z" fill="#01DB6B"/>
</g>
</svg>
