<svg width="25" height="25" viewBox="0 0 25 25" fill="none" xmlns="http://www.w3.org/2000/svg">
<path fill-rule="evenodd" clip-rule="evenodd" d="M3.3037 5.38707C2.08331 6.60747 2.08331 8.57165 2.08331 12.5C2.08331 16.4284 2.08331 18.3926 3.3037 19.6129C4.52409 20.8334 6.48827 20.8334 10.4166 20.8334H14.5833C18.5116 20.8334 20.4759 20.8334 21.6962 19.6129C22.9166 18.3926 22.9166 16.4284 22.9166 12.5C22.9166 8.57165 22.9166 6.60747 21.6962 5.38707C20.4759 4.16669 18.5116 4.16669 14.5833 4.16669H10.4166C6.48827 4.16669 4.52409 4.16669 3.3037 5.38707ZM13.2814 10.4167C13.2814 9.98522 12.9316 9.63544 12.5002 9.63544C12.0687 9.63544 11.7189 9.98522 11.7189 10.4167V11.1471L11.0862 10.7818C10.7126 10.5661 10.2348 10.6941 10.019 11.0677C9.8033 11.4414 9.93132 11.9192 10.305 12.1349L10.9372 12.4999L10.3048 12.8651C9.93108 13.0809 9.80305 13.5587 10.0188 13.9323C10.2345 14.306 10.7124 14.434 11.086 14.2183L11.7189 13.8528V14.5834C11.7189 15.0148 12.0687 15.3646 12.5002 15.3646C12.9316 15.3646 13.2814 15.0148 13.2814 14.5834V13.8535L13.9134 14.2183C14.2871 14.434 14.7649 14.306 14.9806 13.9323C15.1963 13.5587 15.0683 13.0809 14.6947 12.8651L14.0622 12.4999L14.6945 12.1349C15.0681 11.9192 15.1961 11.4414 14.9804 11.0677C14.7647 10.6941 14.2869 10.5661 13.9132 10.7818L13.2814 11.1465V10.4167ZM7.01317 9.63544C7.44464 9.63544 7.79442 9.98522 7.79442 10.4167V11.1465L8.42613 10.7818C8.79979 10.5661 9.27759 10.6941 9.49333 11.0677C9.70907 11.4414 9.58104 11.9192 9.20738 12.1349L8.57516 12.4999L9.20763 12.8651C9.58129 13.0809 9.70931 13.5587 9.49358 13.9323C9.27784 14.306 8.80004 14.434 8.42638 14.2183L7.79442 13.8535V14.5834C7.79442 15.0148 7.44464 15.3646 7.01317 15.3646C6.58169 15.3646 6.23192 15.0148 6.23192 14.5834V13.8528L5.59894 14.2183C5.22527 14.434 4.74747 14.306 4.53173 13.9323C4.31599 13.5587 4.44402 13.0809 4.81769 12.8651L5.45016 12.4999L4.81793 12.1349C4.44427 11.9192 4.31624 11.4414 4.53198 11.0677C4.74771 10.6941 5.22552 10.5661 5.59918 10.7818L6.23192 11.1471V10.4167C6.23192 9.98522 6.58169 9.63544 7.01317 9.63544ZM18.7688 10.4167C18.7688 9.98522 18.419 9.63544 17.9876 9.63544C17.5561 9.63544 17.2063 9.98522 17.2063 10.4167V11.1471L16.5735 10.7818C16.1999 10.5661 15.7221 10.6941 15.5063 11.0677C15.2906 11.4414 15.4186 11.9192 15.7923 12.1349L16.4246 12.4999L15.7921 12.8651C15.4184 13.0809 15.2904 13.5587 15.5061 13.9323C15.7219 14.306 16.1997 14.434 16.5733 14.2183L17.2063 13.8528V14.5834C17.2063 15.0148 17.5561 15.3646 17.9876 15.3646C18.419 15.3646 18.7688 15.0148 18.7688 14.5834V13.8535L19.4007 14.2183C19.7745 14.434 20.2523 14.306 20.468 13.9323C20.6837 13.5587 20.5557 13.0809 20.182 12.8651L19.5496 12.4999L20.1818 12.1349C20.5554 11.9192 20.6834 11.4414 20.4677 11.0677C20.252 10.6941 19.7741 10.5661 19.4005 10.7818L18.7688 11.1465V10.4167Z" fill="#C1C6C8"/>
</svg>
