<svg width="25" height="25" viewBox="0 0 25 25" fill="none" xmlns="http://www.w3.org/2000/svg">
<g clip-path="url(#clip0_35_132)">
<path d="M12.4999 0.000244141C5.596 0.000732422 0.000488281 5.59605 0 12.5001C0.000488281 19.4047 5.59814 24.9673 12.4964 25H12.5127L12.5272 24.9996C13.8516 25.0015 14.9445 24.5833 15.6991 23.8964C16.4544 23.2123 16.8577 22.2727 16.8567 21.3214C16.8577 20.8747 16.7633 20.4275 16.5872 20.0019C16.8843 19.8327 17.0824 19.679 17.139 19.6384C17.3417 19.494 17.9202 18.7221 17.5146 18.0861C17.1072 17.4507 15.6571 16.0022 15.2611 15.7569C14.8663 15.5121 14.2065 15.7509 13.8888 16.2172C13.5701 16.6835 13.3188 16.5438 13.3188 16.5438C13.3188 16.5438 12.4146 15.8135 11.1643 13.2908C9.91392 10.7667 9.88188 9.60654 9.88188 9.60654C9.88188 9.60654 9.92256 9.32104 10.4868 9.34956C11.0498 9.37988 11.639 8.99956 11.6838 8.53608C11.7292 8.07397 11.4544 6.04141 11.1956 5.33306C10.936 4.62427 9.97183 4.61772 9.73423 4.69155C9.49546 4.76489 7.04707 5.36108 6.85269 7.92446C6.65903 10.4882 7.31973 12.8161 8.26592 14.7267C9.21255 16.6368 10.6647 18.5726 12.8216 19.9711C13.6951 20.5374 14.5334 20.6107 15.2382 20.4921C15.3595 20.7626 15.4198 21.0434 15.4211 21.3214C15.4198 21.8728 15.1955 22.4129 14.7343 22.8334C14.272 23.2516 13.559 23.5624 12.5273 23.5643L12.5021 23.5647C6.38657 23.5333 1.43491 18.6081 1.4354 12.5001C1.43589 9.44248 2.67266 6.68052 4.67598 4.67607C6.68052 2.673 9.44219 1.43613 12.4999 1.43564C15.5576 1.43613 18.3193 2.67295 20.3237 4.67607C22.3273 6.68057 23.5637 9.44199 23.5646 12.5001C23.5641 14.3883 23.0926 16.1606 22.261 17.7142C21.7956 18.5852 21.2162 19.3856 20.5434 20.0976C20.2714 20.3859 20.2845 20.8401 20.5724 21.1121C20.8602 21.3844 21.3148 21.3718 21.5872 21.0835C22.346 20.2798 23.0001 19.3757 23.5263 18.3912C24.4664 16.6367 25 14.6285 25 12.5001C24.999 5.59605 19.4038 0.000732422 12.4999 0.000244141Z" fill="#C1C6C8"/>
</g>
<defs>
<clipPath id="clip0_35_132">
<rect width="25" height="25" fill="white"/>
</clipPath>
</defs>
</svg>
