<svg width="40" height="40" viewBox="0 0 40 40" fill="none" xmlns="http://www.w3.org/2000/svg">
<path d="M22.289 11.7539C22.3164 11.7813 22.3476 11.8086 22.375 11.8359C22.4375 11.8906 22.4961 11.9414 22.5625 11.9922C22.6484 12.0625 22.7148 12.1289 22.7851 12.2148C22.8554 12.2969 22.9258 12.3789 23 12.457C23.6445 13.1484 24.1172 14.0039 24.4531 14.8828C24.4804 14.9531 24.4804 14.9531 24.5078 15.0234C25.1367 16.7539 25.0312 18.8438 24.2617 20.5039C24 21.0625 23.6914 21.582 23.3203 22.0703C23.4844 22.2695 23.6601 22.4531 23.8398 22.6367C23.8672 22.6641 23.8945 22.6875 23.9219 22.7188C23.9804 22.7734 24.0351 22.8281 24.0898 22.8867C24.1758 22.9727 24.2617 23.0547 24.3476 23.1406C24.4023 23.1953 24.457 23.2539 24.5117 23.3086C24.5508 23.3438 24.5508 23.3438 24.5898 23.3828C24.7304 23.5234 24.875 23.6563 25.0273 23.7813C25.0469 23.7969 25.0625 23.8125 25.0781 23.8281C25.0781 23.8555 25.0781 23.8789 25.0781 23.9063C25.1015 23.918 25.125 23.9258 25.1484 23.9375C25.2422 23.9883 25.3047 24.0469 25.3828 24.1211C25.4062 24.1445 25.4297 24.168 25.4531 24.1914C25.5078 24.2578 25.5078 24.2578 25.5078 24.3359C25.5312 24.3477 25.5547 24.3555 25.5781 24.3672C25.6679 24.418 25.7304 24.4688 25.8008 24.543C25.8281 24.5703 25.8554 24.5977 25.8828 24.625C25.9101 24.6523 25.9375 24.6797 25.9687 24.7109C26.0117 24.7539 26.0117 24.7539 26.0547 24.8008C26.1523 24.8945 26.2461 24.9922 26.3359 25.0859C26.4297 25.1797 26.5234 25.2734 26.6172 25.3672C26.6758 25.4258 26.7344 25.4844 26.7929 25.543C26.9179 25.6719 27.0429 25.793 27.1797 25.9102C27.375 26.0781 27.5547 26.2617 27.7344 26.4453C27.8008 26.5078 27.8633 26.5742 27.9297 26.6367C28.0898 26.8008 28.25 26.9609 28.4101 27.1211C28.5429 27.2578 28.6797 27.3945 28.8164 27.5273C28.8789 27.5938 28.9414 27.6563 29.0039 27.7188C29.1914 27.9102 29.3828 28.0938 29.5859 28.2656C29.6758 28.3438 29.7461 28.4297 29.8203 28.5195C29.8437 28.5508 29.8711 28.582 29.8945 28.6172C30.0625 28.8594 30.0664 29.0898 30.039 29.375C29.9687 29.6758 29.7773 29.8672 29.5312 30.0391C29.3125 30.1602 29.1054 30.1914 28.8594 30.1367C28.6445 30.0703 28.4883 29.9531 28.3242 29.7969C28.3047 29.7773 28.2812 29.7539 28.2578 29.7344C27.9804 29.4727 27.7109 29.1992 27.4414 28.9297C27.3828 28.8711 27.3242 28.8125 27.2656 28.7539C27.1054 28.5938 26.9453 28.4336 26.789 28.2773C26.6211 28.1094 26.457 27.9453 26.289 27.7773C25.9765 27.4648 25.664 27.1484 25.3476 26.8359C24.9922 26.4766 24.6328 26.1211 24.2773 25.7617C23.539 25.0273 22.8047 24.2891 22.0703 23.5547C21.8945 23.6211 21.7617 23.7148 21.6133 23.8281C21.1679 24.1641 20.6719 24.4375 20.1562 24.6484C20.1094 24.668 20.0664 24.6875 20.0156 24.707C19.7344 24.8164 19.4453 24.9102 19.1484 24.9922C19.1211 24.9961 19.0937 25.0039 19.0625 25.0156C18.625 25.125 18.1836 25.1758 17.7304 25.2031C17.707 25.2031 17.6797 25.207 17.6523 25.207C17.2187 25.2344 16.7969 25.2461 16.3672 25.1953C16.3242 25.1914 16.3242 25.1914 16.2773 25.1836C14.25 24.9414 12.3789 23.8828 11.1094 22.2773C10.7422 21.7813 10.4101 21.2656 10.1562 20.7031C10.1367 20.6563 10.1133 20.6094 10.0937 20.5625C9.72654 19.7383 9.49217 18.8398 9.48436 17.9297C9.48436 17.8984 9.48045 17.8672 9.48045 17.832C9.47654 17.1133 9.47654 16.4063 9.64842 15.7031C9.66014 15.6641 9.66795 15.6211 9.67967 15.582C9.90232 14.7148 10.2695 13.8984 10.7812 13.1641C10.8125 13.1211 10.8125 13.1211 10.8398 13.0781C11.5117 12.1289 12.3594 11.3711 13.3594 10.7813C13.3828 10.7656 13.4062 10.7539 13.4297 10.7383C16.2422 9.09766 19.9062 9.60938 22.289 11.7539ZM13.164 13.2422C13.1328 13.2695 13.1015 13.3008 13.0664 13.332C12.0078 14.3438 11.4453 15.7813 11.3672 17.2266C11.3672 17.2539 11.3633 17.2813 11.3633 17.3125C11.2929 18.832 11.8554 20.25 12.8125 21.4063C12.8359 21.4375 12.8359 21.4375 12.8633 21.4688C12.9531 21.582 13.0469 21.6797 13.1562 21.7734C13.2383 21.8438 13.3203 21.9141 13.3984 21.9883C14.5117 23.0313 16.0508 23.4023 17.539 23.3633C19.0273 23.3008 20.4492 22.5469 21.4531 21.4688C22.4883 20.332 23.0625 18.8047 23.0078 17.2656C22.9258 16.0938 22.5664 15.0156 21.875 14.0625C21.8554 14.0352 21.8359 14.0078 21.8164 13.9766C21.7734 13.9141 21.7265 13.8516 21.6797 13.7891C21.6523 13.7891 21.6289 13.7891 21.6015 13.7891C21.5898 13.7656 21.5781 13.7422 21.5703 13.7188C21.4336 13.4609 21.1992 13.2695 20.9765 13.0859C20.9453 13.0586 20.9101 13.0313 20.875 13C20.6367 12.7969 20.3906 12.6211 20.1172 12.4609C20.0742 12.4375 20.0351 12.4102 19.9922 12.3867C17.8242 11.1172 14.9531 11.5508 13.164 13.2422Z" fill="#818283"/>
<path d="M23.2812 21.9922C23.293 22.0156 23.3008 22.0391 23.3125 22.0625C23.3633 22.1562 23.4219 22.2188 23.4961 22.2969C23.5273 22.3242 23.5547 22.3516 23.582 22.3789C23.6133 22.4102 23.6445 22.4414 23.6758 22.4727C23.707 22.5039 23.7383 22.5352 23.7695 22.5664C23.8672 22.6641 23.9688 22.7617 24.0664 22.8594C24.1367 22.9297 24.2031 22.9961 24.2695 23.0625C24.4336 23.2266 24.6016 23.3906 24.7656 23.5547C24.6484 23.5547 24.6484 23.5547 24.5547 23.4766C24.5195 23.4375 24.4844 23.4023 24.4492 23.3633C24.4297 23.3438 24.4102 23.3242 24.3906 23.3047C24.3281 23.2422 24.2656 23.1797 24.2031 23.1172C24.1641 23.0742 24.1211 23.0352 24.082 22.9922C24.0039 22.9141 23.9297 22.8398 23.8516 22.7617C23.6602 22.5625 23.6602 22.5625 23.4531 22.3789C23.3633 22.3086 23.2969 22.25 23.2422 22.1484C23.2539 22.0625 23.2539 22.0625 23.2812 21.9922Z" fill="#60615F"/>
<path d="M12.6172 11.3281C12.6445 11.3398 12.668 11.3555 12.6953 11.3672C12.6445 11.4141 12.5898 11.4609 12.5391 11.5078C12.4961 11.5469 12.4961 11.5469 12.4531 11.5859C12.3906 11.6367 12.332 11.6875 12.2734 11.7383C12.0664 11.918 11.8711 12.1094 11.6797 12.3008C11.6484 12.332 11.6211 12.3633 11.5898 12.3945C11.5156 12.4688 11.4414 12.543 11.3672 12.6172C11.3672 12.4805 11.3828 12.4688 11.4687 12.375C11.4922 12.3516 11.5117 12.3281 11.5352 12.3047C11.5586 12.2773 11.5859 12.2539 11.6094 12.2266C11.6328 12.1992 11.6562 12.1758 11.6836 12.1484C11.9141 11.9063 12.1602 11.6914 12.4219 11.4844C12.4766 11.4414 12.4766 11.4414 12.5352 11.3945C12.5742 11.3633 12.5742 11.3633 12.6172 11.3281Z" fill="#909092"/>
<path d="M16.2891 25.0781C16.7344 25.0703 17.1758 25.0898 17.6172 25.1172C17.6172 25.1289 17.6172 25.1445 17.6172 25.1562C17.4414 25.1641 17.2656 25.1719 17.0859 25.1797C17.0273 25.1836 16.9688 25.1836 16.9063 25.1875C16.8203 25.1914 16.7344 25.1953 16.6484 25.1992C16.6094 25.1992 16.6094 25.1992 16.5664 25.2031C16.4922 25.2031 16.4922 25.2031 16.3672 25.1953C16.3398 25.1562 16.3164 25.1172 16.2891 25.0781Z" fill="#939393"/>
<path d="M17.0313 9.76562C17.0547 9.76953 17.0781 9.77734 17.1055 9.78125C17.2734 9.8125 17.4453 9.82812 17.6172 9.84375C17.6172 9.85547 17.6172 9.87109 17.6172 9.88281C17.1797 9.89453 16.7422 9.91016 16.2891 9.92188C16.2891 9.91016 16.2891 9.89453 16.2891 9.88281C16.5352 9.85547 16.7773 9.83203 17.0313 9.80469C17.0313 9.79297 17.0313 9.77734 17.0313 9.76562Z" fill="#8F8F8F"/>
<path d="M29.4141 28.1641C29.5586 28.2422 29.6641 28.3281 29.7734 28.4531C29.8125 28.5 29.8125 28.5 29.8516 28.543C29.918 28.625 29.9648 28.6914 30 28.7891C29.9844 28.875 29.9844 28.875 29.9609 28.9453C29.9531 28.9258 29.9414 28.9063 29.9336 28.8828C29.8242 28.6641 29.7148 28.4883 29.5234 28.332C29.4844 28.3008 29.4492 28.2734 29.4141 28.2422C29.4141 28.2148 29.4141 28.1914 29.4141 28.1641Z" fill="#5C5D5C"/>
<path d="M11.367 17.8906C11.3787 17.8906 11.3943 17.8906 11.4059 17.8906C11.4176 18.1211 11.4332 18.3555 11.4449 18.5938C11.4332 18.5547 11.4176 18.5156 11.4059 18.4766C11.3787 18.4766 11.3553 18.4766 11.3281 18.4766C11.3203 18.0625 11.3203 18.0625 11.367 17.8906Z" fill="#666868"/>
<path d="M19.4141 22.8125C19.4912 22.8516 19.4912 22.8516 19.4912 22.8516L19.4141 22.8125Z" fill="#90908F"/>
<path d="M18.3594 9.80469C18.4365 9.84375 18.4365 9.84375 18.4365 9.84375L18.3594 9.80469Z" fill="#8D8F8E"/>
</svg>
