<?xml version="1.0" encoding="UTF-8"?>
<svg version="1.1" xmlns="http://www.w3.org/2000/svg" width="1024" height="1024">
<path d="M0 0 C46.91971744 1.04010641 88.09079765 13.74689694 121.38671875 48.4050293 C149.00660001 78.18642347 161.35276272 116.6067306 160.38671875 156.8203125 C158.78637805 194.43084316 143.60394751 229.10903754 118.14453125 256.6640625 C115.47723918 259.56941889 112.93949124 262.57592774 110.41015625 265.6015625 C109 267 109 267 107 267 C106.7525 267.61875 106.505 268.2375 106.25 268.875 C104.79371361 271.35068687 103.62187494 271.95125002 101 273 C101 273.66 101 274.32 101 275 C100.34 275 99.68 275 99 275 C98.74927734 275.57524414 98.49855469 276.15048828 98.24023438 276.74316406 C96.83271173 279.30441196 95.21829975 281.04057392 93.15625 283.109375 C92.40472656 283.86347656 91.65320313 284.61757813 90.87890625 285.39453125 C90.09386719 286.17183594 89.30882812 286.94914062 88.5 287.75 C87.32244141 288.93916016 87.32244141 288.93916016 86.12109375 290.15234375 C85.36957031 290.90128906 84.61804688 291.65023438 83.84375 292.421875 C83.15474609 293.10862305 82.46574219 293.79537109 81.75585938 294.50292969 C80 296 80 296 78 296 C78 296.66 78 297.32 78 298 C76.37924921 299.71135105 74.70209516 301.36953147 73 303 C71.11803263 304.90543728 69.23754012 306.81224619 67.35864258 308.72070312 C61.8540082 314.30711437 56.33660102 319.88072855 50.81183338 325.44722748 C47.47874793 328.80640124 44.15049951 332.17009329 40.83276367 335.54443359 C37.60908869 338.82272613 34.37308962 342.08838812 31.12845421 345.34593201 C29.90136751 346.5821909 28.67865696 347.82281084 27.46064186 349.06800842 C12.4512476 364.3990563 12.4512476 364.3990563 3.57698059 365.22570801 C-2.49344818 365.11729899 -7.55292285 361.96347066 -12 358 C-12 357.34 -12 356.68 -12 356 C-12.66 356 -13.32 356 -14 356 C-14 355.34 -14 354.68 -14 354 C-14.5775 353.7525 -15.155 353.505 -15.75 353.25 C-18.32939979 351.81700012 -20.06121592 350.21575324 -22 348 C-22 347.34 -22 346.68 -22 346 C-22.61875 345.7525 -23.2375 345.505 -23.875 345.25 C-26.40358627 343.76259631 -26.71839004 342.56321991 -28 340 C-28.56902039 339.73501709 -29.13804077 339.47003418 -29.7243042 339.19702148 C-32.78914688 337.58490683 -34.99709206 335.28161949 -37.41113281 332.84765625 C-37.93840973 332.32388397 -38.46568665 331.80011169 -39.00894165 331.26046753 C-40.74539193 329.5327998 -42.47444812 327.7979431 -44.203125 326.0625 C-45.40780883 324.85916341 -46.61278942 323.65612385 -47.8180542 322.45336914 C-50.33965159 319.93471796 -52.85760139 317.41249015 -55.37304688 314.88769531 C-58.60351684 311.64580665 -61.84291452 308.41301113 -65.08507156 305.18281555 C-67.5730109 302.70208746 -70.05618646 300.21663514 -72.53792572 297.72970581 C-73.73101583 296.53527843 -74.92560193 295.34234349 -76.12168121 294.15090942 C-77.78814615 292.48950026 -79.44810393 290.82185609 -81.10644531 289.15234375 C-81.60510101 288.65773651 -82.10375671 288.16312927 -82.61752319 287.65353394 C-86 284.22853222 -86 284.22853222 -86 282 C-86.58030252 281.74473699 -87.16060503 281.48947397 -87.75849247 281.22647572 C-90.2333706 279.87230765 -91.87349836 278.37262632 -93.86412048 276.37638855 C-94.61966721 275.62359116 -95.37521393 274.87079376 -96.15365601 274.09518433 C-96.97298615 273.26866364 -97.79231628 272.44214294 -98.63647461 271.59057617 C-99.5068486 270.72049423 -100.3772226 269.85041229 -101.27397156 268.95396423 C-103.65780791 266.56897351 -106.03711846 264.17963028 -108.41453624 261.78825164 C-110.90701013 259.2832545 -113.4051686 256.78393951 -115.90272522 254.28401184 C-120.63576927 249.54475061 -125.36369501 244.80041721 -130.08980042 240.05423766 C-135.45040401 234.67135138 -140.81661902 229.29407447 -146.18334949 223.91729772 C-155.36356528 214.7197072 -164.53955399 205.51792124 -173.71081543 196.31140137 C-175.80691834 194.2073097 -177.90335738 192.10355385 -180 190 C-180.78588595 189.21097007 -180.78588595 189.21097007 -181.58764839 188.40600014 C-183.30731683 186.6819338 -185.03008168 184.97199292 -186.8125 183.3125 C-188 182 -188 182 -188 180 C-188.9590625 179.5978125 -188.9590625 179.5978125 -189.9375 179.1875 C-192 178 -192 178 -193 175 C-193.99 174.67 -194.98 174.34 -196 174 C-199.13674356 169.38714183 -200.90005843 165.69666945 -201 160 C-198.12149055 145.84732854 -180.27342865 133.08717126 -170.47192383 123.28662109 C-167.90614229 120.7186151 -165.3485144 118.14265823 -162.79101562 115.56640625 C-161.16194602 113.93440888 -159.53240648 112.30288043 -157.90234375 110.671875 C-157.13784409 109.90018982 -156.37334442 109.12850464 -155.5856781 108.33343506 C-154.88056595 107.63139954 -154.1754538 106.92936401 -153.44897461 106.20605469 C-152.82929306 105.58494812 -152.20961151 104.96384155 -151.57115173 104.32391357 C-150 103 -150 103 -148 103 C-147.505 101.515 -147.505 101.515 -147 100 C-146.34 100 -145.68 100 -145 100 C-144.777108 99.45244553 -144.554216 98.90489105 -144.3245697 98.34074402 C-142.59512229 95.28451097 -140.27921955 93.00037887 -137.80688477 90.5480957 C-137.27806198 90.01576828 -136.7492392 89.48344086 -136.20439148 88.9349823 C-134.45505929 87.17685234 -132.69851496 85.42613675 -130.94140625 83.67578125 C-129.71479052 82.44781692 -128.4884717 81.21955594 -127.26243591 79.99101257 C-124.68739543 77.4130223 -122.10877149 74.83868479 -119.52758789 72.2668457 C-116.24628429 68.99685242 -112.97392974 65.71807551 -109.70430088 62.43641376 C-107.16920608 59.8940243 -104.62928291 57.3565011 -102.08796501 54.82033348 C-100.88144733 53.61513577 -99.67637391 52.40849018 -98.47287178 51.20028114 C-91.29629117 44.00182861 -84.02112313 37.26428656 -76 31 C-75.12867935 30.30953079 -74.2573587 29.61906158 -73.3596344 28.90766907 C-52.88783368 12.89928512 -25.94259747 2.81070617 0 2 C0 1.34 0 0.68 0 0 Z " fill="#28BE52" transform="translate(592,232)"/>
<path d="M0 0 C4.05631101 2.82635574 7.38679089 6.2687948 10.86653137 9.76734924 C11.66705429 10.56436752 12.46757721 11.3613858 13.2923584 12.18255615 C15.93240118 14.81380818 18.56507544 17.4522942 21.19734192 20.09132385 C23.02836325 21.92099818 24.85968141 23.7503755 26.69128418 25.57946777 C30.52509871 29.41033497 34.35536833 33.2446965 38.18293762 37.08180237 C42.61166219 41.52143353 47.04757726 45.95378239 51.48725063 50.38246256 C55.75848735 54.64354535 60.02409764 58.91020951 64.28732872 63.17930412 C66.10283077 64.99614422 67.91983034 66.81148913 69.7383213 68.6253376 C72.27159304 71.15355819 74.79841182 73.68805241 77.32356262 76.22438049 C78.08246796 76.97923737 78.84137329 77.73409424 79.62327576 78.51182556 C80.30601059 79.20020004 80.98874542 79.88857452 81.69216919 80.59780884 C82.29037129 81.19676499 82.8885734 81.79572115 83.50490284 82.41282749 C84.77156067 83.9311676 84.77156067 83.9311676 84.77156067 85.9311676 C85.63781067 86.30821838 85.63781067 86.30821838 86.52156067 86.69288635 C91.52220216 89.4449755 95.43951921 94.25660119 98.95906067 98.6811676 C100.98960217 101.20183982 103.22388114 102.9427348 105.77156067 104.9311676 C110.6067255 109.43666211 110.6067255 109.43666211 111.77156067 112.9311676 C112.76156067 113.2611676 113.75156067 113.5911676 114.77156067 113.9311676 C116.41999817 115.63819885 116.41999817 115.63819885 118.14656067 117.7436676 C120.12059074 120.07698766 121.87728914 122.01575038 124.27156067 123.9311676 C126.55233135 125.75578415 128.2059497 127.52639438 130.08406067 129.7436676 C133.1105329 133.29762954 136.37944355 136.27155885 139.93562317 139.2827301 C142.50529237 141.58996501 144.56280919 144.28066583 146.77156067 146.9311676 C148.04609703 148.07553854 149.33933603 149.1992839 150.64656067 150.3061676 C154.08815642 153.2395651 156.99481438 156.37519086 159.91609192 159.81788635 C163.33678728 163.71387833 167.07807048 167.29640782 170.77156067 170.9311676 C172.43956764 172.59649289 174.10615998 174.26323591 175.77156067 175.9311676 C176.66874817 176.8283551 177.56593567 177.7255426 178.49031067 178.6499176 C181.25072734 181.41033427 184.011144 184.17075094 186.77156067 186.9311676 C187.66101379 187.79226135 188.55046692 188.6533551 189.46687317 189.5405426 C193.03242676 193.23904904 195.40668612 196.95400283 196.04109192 202.13038635 C195.68248617 211.91520037 186.92812263 219.07432276 180.40608215 225.57130432 C179.70578384 226.27671356 179.00548553 226.9821228 178.28396606 227.70890808 C175.99195572 230.01469528 173.6927183 232.31310339 171.39265442 234.6108551 C169.77688248 236.23052175 168.16133157 237.85040891 166.54598999 239.47050476 C163.166158 242.85777441 159.78250928 246.24117514 156.39631653 249.62208557 C152.09019629 253.92242824 147.79551557 258.23399402 143.50392056 262.54882622 C140.17086276 265.89673065 136.83078071 269.2375601 133.48874092 272.57649612 C131.90421819 274.16152704 130.3220105 275.74887622 128.74232292 277.33872604 C98.52205264 307.72944059 64.64748973 328.09192979 20.77156067 329.1186676 C-13.36497071 328.67597483 -45.22047838 317.8216627 -72.22843933 296.9311676 C-72.77886902 296.50706604 -73.32929871 296.08296448 -73.89640808 295.64601135 C-80.48811496 290.52608701 -80.48811496 290.52608701 -83.22843933 287.9311676 C-83.22843933 287.2711676 -83.22843933 286.6111676 -83.22843933 285.9311676 C-84.21843933 285.6011676 -85.20843933 285.2711676 -86.22843933 284.9311676 C-86.22843933 284.2711676 -86.22843933 283.6111676 -86.22843933 282.9311676 C-86.88843933 282.9311676 -87.54843933 282.9311676 -88.22843933 282.9311676 C-89.66656606 281.36175959 -91.02873983 279.72242725 -92.35343933 278.0561676 C-93.16039246 277.04296448 -93.96734558 276.02976135 -94.79875183 274.9858551 C-95.60054871 273.97780823 -96.40234558 272.96976135 -97.22843933 271.9311676 C-97.90648621 271.12937073 -98.58453308 270.32757385 -99.28312683 269.5014801 C-117.82759623 247.38217323 -130.14702153 216.99550517 -130.46672058 188.1108551 C-130.48141136 187.01203003 -130.48141136 187.01203003 -130.49639893 185.89100647 C-130.66638214 169.87810109 -130.63137204 154.46206036 -126.22843933 138.9311676 C-125.90697937 137.77028625 -125.90697937 137.77028625 -125.57902527 136.58595276 C-117.34194036 107.68421598 -99.63709622 81.76121214 -78.22843933 60.9311676 C-74.74764737 57.46374489 -71.29237876 53.9721812 -67.84660339 50.46998596 C-62.62929898 45.17099472 -57.39929848 39.88472653 -52.16191483 34.60558224 C-49.00256071 31.42012189 -45.84806068 28.23014275 -42.70402527 25.02955627 C-39.64890991 21.91987207 -36.58152205 18.82278307 -33.50547028 15.73381233 C-32.34175469 14.56091665 -31.18241979 13.3836564 -30.02776337 12.20184135 C-12.31791074 -5.90807292 -12.31791074 -5.90807292 0 0 Z " fill="#25B753" transform="translate(372.2284393310547,422.06883239746094)"/>
<path d="M0 0 C4.54120924 3.07630303 6.41053388 5.7017796 8 11 C8.11596296 14.87751161 7.5204927 18.09479531 5.5625 21.5 C4 23 4 23 2 23 C1.773125 23.556875 1.54625 24.11375 1.3125 24.6875 C0.00929417 26.98362456 -1.47024689 28.53959064 -3.34350586 30.37426758 C-5.39353524 32.38622714 -7.41243998 34.4277872 -9.43359375 36.46875 C-11.10149755 38.14589793 -12.7694681 39.82297948 -14.4375 41.5 C-15.27087891 42.34175781 -16.10425781 43.18351562 -16.96289062 44.05078125 C-21.15981644 48.2642957 -25.36493465 52.27501597 -30 56 C-32.49850776 58.3795312 -34.77121745 60.70258268 -36.875 63.4375 C-38.64601227 65.57313245 -40.25920208 67.12575479 -42.375 68.875 C-44.82768337 70.91109172 -46.91517496 72.97434116 -48.9375 75.4375 C-51.70464298 78.79654522 -54.81759549 81.50586082 -58.12890625 84.31640625 C-60.2152649 86.11306898 -60.2152649 86.11306898 -62.5 89 C-65.13033016 92.15639619 -67.97521261 94.62816595 -71.09375 97.28125 C-73.20952284 99.10720529 -73.20952284 99.10720529 -75.5 102 C-80.30114027 107.76136832 -85.62719038 112.96612148 -93 115 C-99.61989557 115.44567441 -104.3180037 113.9710181 -109.3671875 109.66796875 C-112.99288533 105.96420566 -114 103.29152744 -114 98.125 C-113.20137357 93.5195876 -111.04522914 89.52929735 -108 86 C-106.515 85.505 -106.515 85.505 -105 85 C-101.38752409 81.68856375 -98.26522511 78.02462872 -95.13671875 74.2578125 C-93.33976664 72.35902216 -91.54249823 70.72767829 -89.55566406 69.03979492 C-84.12061882 64.30706154 -79.05972282 59.20428531 -73.97265625 54.10546875 C-72.93287978 53.06636734 -71.89295502 52.02741429 -70.85289001 50.98860168 C-68.69058415 48.82775932 -66.53007046 46.66514564 -64.37084961 44.5012207 C-61.60127373 41.7259052 -58.82717384 38.95516168 -56.05175114 36.18569469 C-53.91131591 34.04886511 -51.77325819 31.9096695 -49.63592339 29.76973915 C-48.61316779 28.74631651 -47.58966892 27.72363609 -46.56541634 26.70171165 C-45.14153708 25.28036354 -43.72119152 23.85547808 -42.30102539 22.43041992 C-41.49242569 21.62102463 -40.68382599 20.81162933 -39.85072327 19.97770691 C-37.94724454 18.13165971 -37.94724454 18.13165971 -37 16 C-36.34 16 -35.68 16 -35 16 C-34.63841797 15.11828125 -34.63841797 15.11828125 -34.26953125 14.21875 C-32.75646404 11.57437408 -31.13018678 10.30635661 -28.6875 8.5 C-27.88054687 7.89671875 -27.07359375 7.2934375 -26.2421875 6.671875 C-25.50226563 6.12015625 -24.76234375 5.5684375 -24 5 C-23.113125 4.2575 -22.22625 3.515 -21.3125 2.75 C-14.1764759 -2.65023446 -8.51828178 -2.54802171 0 0 Z " fill="#3EDF6B" transform="translate(565,277)"/>
<path d="M0 0 C4.06275446 0.13923048 8.12512857 0.28753918 12.1875 0.4375 C13.33798828 0.47681641 14.48847656 0.51613281 15.67382812 0.55664062 C17.34155273 0.61948242 17.34155273 0.61948242 19.04296875 0.68359375 C20.57473755 0.73858032 20.57473755 0.73858032 22.13745117 0.79467773 C24.83828463 0.98840063 27.36166128 1.40451953 30 2 C30 2.66 30 3.32 30 4 C25.545 4.495 25.545 4.495 21 5 C21 4.34 21 3.68 21 3 C19.083412 2.97287847 17.1667127 2.95354903 15.25 2.9375 C14.18265625 2.92589844 13.1153125 2.91429687 12.015625 2.90234375 C9.4371694 2.98584296 7.46348761 3.35171379 5 4 C3.700625 3.95875 2.40125 3.9175 1.0625 3.875 C-4.158352 3.79746259 -8.88553673 5.01679841 -13.92578125 6.28125 C-16.41722421 6.86374746 -18.71095868 7.23478213 -21.25 7.4375 C-25.07228486 8.01084273 -27.6861773 9.05428269 -31.12890625 10.70703125 C-34.19314818 12.08698238 -37.29788203 13.25638736 -40.44628906 14.42749023 C-51.33240484 18.49911319 -61.0113217 23.46167967 -70.1953125 30.6640625 C-71.9668701 31.97547527 -73.74729529 33.02161764 -75.6875 34.0625 C-79.11260036 36.06586059 -81.3062088 38.10417446 -84 41 C-85.22190891 42.27781324 -86.45142236 43.54838761 -87.6875 44.8125 C-88.26886719 45.41707031 -88.85023438 46.02164063 -89.44921875 46.64453125 C-91 48 -91 48 -93 48 C-93.25523437 48.57105469 -93.51046875 49.14210938 -93.7734375 49.73046875 C-96.83902953 55.4027903 -101.84513582 60.13524993 -106.75 64.25 C-110.89567523 67.75849947 -114.49320882 71.7061094 -118.12890625 75.72485352 C-122.78119783 80.83929812 -127.6608807 85.7014048 -132.63134766 90.50610352 C-134.12358386 91.9681914 -135.56686106 93.47993991 -137 95 C-137 95.66 -137 96.32 -137 97 C-138.11375 97.226875 -139.2275 97.45375 -140.375 97.6875 C-144.14348574 98.57619916 -144.14348574 98.57619916 -145.1875 101.4375 C-145.455625 102.283125 -145.72375 103.12875 -146 104 C-149.31034483 107 -149.31034483 107 -152 107 C-152.24693604 107.57290771 -152.49387207 108.14581543 -152.74829102 108.73608398 C-154.20046785 111.36257819 -155.8904066 113.11660999 -158.02734375 115.22265625 C-158.81947266 116.00833984 -159.61160156 116.79402344 -160.42773438 117.60351562 C-161.25595703 118.41498047 -162.08417969 119.22644531 -162.9375 120.0625 C-163.76185547 120.87783203 -164.58621094 121.69316406 -165.43554688 122.53320312 C-166.96771163 124.04794277 -168.50192082 125.56061923 -170.03881836 127.07055664 C-171.70085509 128.70569622 -173.35166988 130.35109182 -175 132 C-176.2065625 133.175625 -176.2065625 133.175625 -177.4375 134.375 C-179.99698295 136.88357721 -179.99698295 136.88357721 -181.875 139.5 C-183.78953345 141.7523923 -185.25964969 142.9176943 -187.6875 144.5 C-190.33002548 146.27862292 -190.88870144 146.66610432 -191.9375 149.8125 C-191.958125 150.534375 -191.97875 151.25625 -192 152 C-193.32 152.33 -194.64 152.66 -196 153 C-197.78161678 159.24979855 -197.29561672 165.68386851 -196 172 C-199.84907492 168.62940125 -200.61555266 164.98963574 -201 160 C-198.47897218 146.0197548 -180.08635511 132.90011594 -170.47192383 123.28662109 C-167.90614229 120.7186151 -165.3485144 118.14265823 -162.79101562 115.56640625 C-161.16194602 113.93440888 -159.53240648 112.30288043 -157.90234375 110.671875 C-157.13784409 109.90018982 -156.37334442 109.12850464 -155.5856781 108.33343506 C-154.88056595 107.63139954 -154.1754538 106.92936401 -153.44897461 106.20605469 C-152.82929306 105.58494812 -152.20961151 104.96384155 -151.57115173 104.32391357 C-150 103 -150 103 -148 103 C-147.505 101.515 -147.505 101.515 -147 100 C-146.34 100 -145.68 100 -145 100 C-144.777108 99.45244553 -144.554216 98.90489105 -144.3245697 98.34074402 C-142.59512229 95.28451097 -140.27921955 93.00037887 -137.80688477 90.5480957 C-137.27806198 90.01576828 -136.7492392 89.48344086 -136.20439148 88.9349823 C-134.45505929 87.17685234 -132.69851496 85.42613675 -130.94140625 83.67578125 C-129.71479052 82.44781692 -128.4884717 81.21955594 -127.26243591 79.99101257 C-124.68739543 77.4130223 -122.10877149 74.83868479 -119.52758789 72.2668457 C-116.24628429 68.99685242 -112.97392974 65.71807551 -109.70430088 62.43641376 C-107.16920608 59.8940243 -104.62928291 57.3565011 -102.08796501 54.82033348 C-100.88144733 53.61513577 -99.67637391 52.40849018 -98.47287178 51.20028114 C-91.29629117 44.00182861 -84.02112313 37.26428656 -76 31 C-75.12867935 30.30953079 -74.2573587 29.61906158 -73.3596344 28.90766907 C-52.88783368 12.89928512 -25.94259747 2.81070617 0 2 C0 1.34 0 0.68 0 0 Z " fill="#36D565" transform="translate(592,232)"/>
<path d="M0 0 C0.66 0.33 1.32 0.66 2 1 C0.43930994 4.83078469 -2.06814114 7.14143762 -5 10 C-5.66 10.99 -6.32 11.98 -7 13 C-7.66 13 -8.32 13 -9 13 C-9.103125 13.763125 -9.20625 14.52625 -9.3125 15.3125 C-10.08590919 18.33582682 -10.80614856 18.90376725 -13 21 C-21.23121244 30.56481401 -21.23121244 30.56481401 -26 42 C-26.66 42 -27.32 42 -28 42 C-28.11859375 42.57234375 -28.2371875 43.1446875 -28.359375 43.734375 C-29.04489505 46.15877517 -30.03268726 48.04650986 -31.25 50.25 C-34.80097073 57.17696608 -36.83632 64.55238569 -39 72 C-39.20069092 72.65033203 -39.40138184 73.30066406 -39.6081543 73.97070312 C-40.78015795 77.50567664 -40.78015795 77.50567664 -40.4375 81.125 C-40.293125 81.74375 -40.14875 82.3625 -40 83 C-40.45375 83.680625 -40.9075 84.36125 -41.375 85.0625 C-46.41895559 94.18041972 -44.11289063 108.47531648 -44.0625 118.6875 C-44.05747418 120.4680977 -44.05291319 122.24869677 -44.04882812 124.02929688 C-44.03791 128.35289909 -44.02070521 132.67643403 -44 137 C-44.66 137 -45.32 137 -46 137 C-46.79855259 132.04310637 -47.18267563 127.20362799 -47.23828125 122.1796875 C-47.25297203 121.08086243 -47.25297203 121.08086243 -47.26795959 119.95983887 C-47.43794281 103.94693349 -47.4029327 88.53089276 -43 73 C-42.78569336 72.2260791 -42.57138672 71.4521582 -42.35058594 70.65478516 C-34.66864698 43.70090763 -18.85461042 20.42132589 0 0 Z " fill="#2EC55E" transform="translate(289,488)"/>
<path d="M0 0 C-0.680625 0.37125 -1.36125 0.7425 -2.0625 1.125 C-8.71457522 5.37100546 -14.83691971 11.04569442 -20 17 C-20 17.66 -20 18.32 -20 19 C-22.46175715 20.94983211 -24.98259022 22.7538331 -27.55859375 24.546875 C-30.67997627 26.78825329 -32.49346046 28.48237231 -34 32 C-37.15415046 35.61251223 -40.82119237 39.61210993 -45 42 C-45.99 41.67 -46.98 41.34 -48 41 C-42.56630278 35.49013913 -37.12080032 29.99215206 -31.66699219 24.50219727 C-29.81367514 22.63380864 -27.96306149 20.76273433 -26.11523438 18.88891602 C-23.45631455 16.19354326 -20.7877719 13.50802853 -18.1171875 10.82421875 C-17.29507782 9.98662521 -16.47296814 9.14903168 -15.62594604 8.28605652 C-5.50712081 -1.83570694 -5.50712081 -1.83570694 0 0 Z " fill="#33CF63" transform="translate(362,422)"/>
<path d="M0 0 C4.75085867 3.96372525 9.23613112 8.09794782 13.58984375 12.4921875 C14.17923233 13.08299103 14.76862091 13.67379456 15.37586975 14.28250122 C17.23213727 16.14430404 19.08487085 18.00957745 20.9375 19.875 C22.20614672 21.14867011 23.4750249 22.42210971 24.74414062 23.6953125 C27.83210554 26.79422043 30.91690929 29.89624301 34 33 C33.01 33.495 33.01 33.495 32 34 C28.64102611 32.77043696 26.81484425 30.90799894 24.5625 28.1875 C22.55707707 25.81434494 20.57560833 23.57560833 18.375 21.375 C16.56225885 19.56225885 15.02001708 17.80868415 13.4375 15.8125 C11.17102957 13.19734181 10.0195028 12.36364642 7 11 C5.62913085 9.70529025 4.28659163 8.37849103 3 7 C3.33 6.34 3.66 5.68 4 5 C2.68 4.34 1.36 3.68 0 3 C0 2.01 0 1.02 0 0 Z " fill="#2DC55B" transform="translate(420,470)"/>
<path d="M0 0 C13.77497127 0.57163342 29.67492823 6.88337158 41.859375 13.16015625 C41.529375 14.15015625 41.199375 15.14015625 40.859375 16.16015625 C40.31667969 15.88300781 39.77398438 15.60585937 39.21484375 15.3203125 C38.14169922 14.77697266 38.14169922 14.77697266 37.046875 14.22265625 C35.98533203 13.68318359 35.98533203 13.68318359 34.90234375 13.1328125 C32.74127215 12.05285109 32.74127215 12.05285109 29.859375 11.16015625 C29.859375 10.50015625 29.859375 9.84015625 29.859375 9.16015625 C28.4671875 9.28390625 28.4671875 9.28390625 27.046875 9.41015625 C22.58669459 9.41911244 18.9539492 7.84702769 14.84375 6.24609375 C9.9551437 4.46725533 4.91920578 3.34053282 -0.140625 2.16015625 C-1.4746086 1.82943486 -2.80822325 1.49719404 -4.140625 1.16015625 C-3.140625 0.16015625 -3.140625 0.16015625 0 0 Z " fill="#36D25D" transform="translate(628.140625,234.83984375)"/>
<path d="M0 0 C0.66 0.66 1.32 1.32 2 2 C-4.46792448 9.59981127 -11.19643899 16.75715119 -19 23 C-19.66 22.67 -20.32 22.34 -21 22 C-17.83393913 17.15196929 -14.56637435 13.55622326 -10.13671875 9.84375 C-6.56401499 6.76090508 -3.29525729 3.37413313 0 0 Z " fill="#32CE62" transform="translate(312,465)"/>
<path d="M0 0 C4.28500208 0.46288603 6.57085413 3.18638443 9.421875 6.12890625 C9.92672424 6.63800034 10.43157349 7.14709442 10.95172119 7.6716156 C12.55833979 9.2949912 14.15419822 10.928497 15.75 12.5625 C16.83914984 13.6667005 17.92898605 14.77022445 19.01953125 15.87304688 C21.6877076 18.5742529 24.34628291 21.28459063 27 24 C26.01 24.33 25.02 24.66 24 25 C18.09136914 21.21076934 13.4654559 15.33548604 9 10 C7.91825868 8.72781126 6.83500698 7.45690472 5.75 6.1875 C5.06164062 5.37345703 5.06164062 5.37345703 4.359375 4.54296875 C2.96575354 2.9611283 1.50578954 1.474788 0 0 Z " fill="#30CE61" transform="translate(388,440)"/>
<path d="M0 0 C5.79820659 2.67022672 10.76723277 7.2593007 15 12 C15 12.66 15 13.32 15 14 C15.66 14 16.32 14 17 14 C18.625 15.375 18.625 15.375 20 17 C20 17.66 20 18.32 20 19 C20.66 19 21.32 19 22 19 C22 19.66 22 20.32 22 21 C22.66 21 23.32 21 24 21 C24 21.66 24 22.32 24 23 C24.598125 23.268125 25.19625 23.53625 25.8125 23.8125 C27.99847854 24.99917406 29.41332594 26.09599113 31 28 C31 28.66 31 29.32 31 30 C30.34 30 29.68 30 29 30 C29 29.34 29 28.68 29 28 C28.46084961 27.78609619 27.92169922 27.57219238 27.36621094 27.35180664 C24.14213944 25.50990777 21.72731411 22.9931054 19.140625 20.37109375 C18.316763 19.54654442 18.316763 19.54654442 17.47625732 18.70533752 C16.32082415 17.54689145 15.16781416 16.38602406 14.01708984 15.22290039 C12.24761619 13.43509149 10.47019144 11.65549296 8.69140625 9.87695312 C7.56983792 8.75047231 6.44872781 7.62353505 5.328125 6.49609375 C4.79382874 5.96068466 4.25953247 5.42527557 3.70904541 4.87364197 C0 1.11606749 0 1.11606749 0 0 Z " fill="#27A94A" transform="translate(535,544)"/>
<path d="M0 0 C3.85415052 -0.02923559 7.70827215 -0.04687777 11.5625 -0.0625 C12.64853516 -0.07087891 13.73457031 -0.07925781 14.85351562 -0.08789062 C20.34832611 -0.10459218 25.58961935 0.01417741 31 1 C31 1.33 31 1.66 31 2 C20.58479695 3.57210612 10.45364785 3.02164796 0 2 C0 1.34 0 0.68 0 0 Z " fill="#249F47" transform="translate(375,748)"/>
<path d="M0 0 C0.99 0 1.98 0 3 0 C1.54254576 3.36335594 -0.31117854 5.54534005 -2.9140625 8.109375 C-3.67460938 8.86347656 -4.43515625 9.61757813 -5.21875 10.39453125 C-6.0128125 11.17183594 -6.806875 11.94914063 -7.625 12.75 C-8.42679688 13.54277344 -9.22859375 14.33554687 -10.0546875 15.15234375 C-12.03202846 17.10614493 -14.01388909 19.05512103 -16 21 C-16.66 20.67 -17.32 20.34 -18 20 C-17.50628906 19.51789062 -17.01257813 19.03578125 -16.50390625 18.5390625 C-15.54291016 17.59160156 -15.54291016 17.59160156 -14.5625 16.625 C-13.92441406 15.99851562 -13.28632812 15.37203125 -12.62890625 14.7265625 C-10.92117824 13.08276939 -10.92117824 13.08276939 -10 11 C-9.34 11 -8.68 11 -8 11 C-8 10.34 -8 9.68 -8 9 C-7.34 9 -6.68 9 -6 9 C-6 8.34 -6 7.68 -6 7 C-5.195625 6.360625 -4.39125 5.72125 -3.5625 5.0625 C-0.76279268 3.18964068 -0.76279268 3.18964068 0 0 Z " fill="#26A445" transform="translate(688,507)"/>
<path d="M0 0 C0 2 0 2 -1.9375 4.0625 C-2.95815287 5.04185478 -3.97902409 6.020982 -5 7 C-6.60685146 8.60147737 -8.21086157 10.20580908 -9.8125 11.8125 C-11.20833333 13.20833333 -12.60416667 14.60416667 -14 16 C-14.33 15.34 -14.66 14.68 -15 14 C-13.71937515 12.2925002 -12.38232443 10.62626404 -11 9 C-10.34 9 -9.68 9 -9 9 C-8.773125 8.443125 -8.54625 7.88625 -8.3125 7.3125 C-6.49644015 4.11277551 -3.9498923 0 0 0 Z " fill="#26A646" transform="translate(670,528)"/>
<path d="M0 0 C0.99 0.33 1.98 0.66 3 1 C-1.29 5.29 -5.58 9.58 -10 14 C-10.33 13.01 -10.66 12.02 -11 11 C-10.01 10.67 -9.02 10.34 -8 10 C-7.71125 9.4225 -7.4225 8.845 -7.125 8.25 C-5.61750467 5.23500934 -3.42990324 3.30529282 -1 1 C-0.67 0.67 -0.34 0.34 0 0 Z " fill="#26A446" transform="translate(631,565)"/>
<path d="M0 0 C0.66 0.66 1.32 1.32 2 2 C0.40207236 3.65189143 -1.20355876 5.2963339 -2.8125 6.9375 C-3.70582031 7.85402344 -4.59914063 8.77054688 -5.51953125 9.71484375 C-8 12 -8 12 -11 13 C-9.84826645 10.53199953 -8.95216435 8.95216435 -7 7 C-6.175 6.13375 -5.35 5.2675 -4.5 4.375 C-2 2 -2 2 0 2 C0 1.34 0 0.68 0 0 Z " fill="#249F44" transform="translate(494,702)"/>
<path d="M0 0 C2.375 0.8125 2.375 0.8125 5 2 C6.66321482 2.35015049 8.33034549 2.68197057 10 3 C12.33762223 3.65146849 14.67190457 4.31526605 17 5 C17 5.33 17 5.66 17 6 C9.96871122 5.56615452 3.670985 4.25678003 -3 2 C-2.01 1.34 -1.02 0.68 0 0 Z " fill="#25A148" transform="translate(350,742)"/>
<path d="M0 0 C1.13199353 0.9080162 2.25532363 1.82683826 3.375 2.75 C4.00148438 3.26046875 4.62796875 3.7709375 5.2734375 4.296875 C7.08312318 6.08199481 8.00117455 7.67949644 9 10 C9.66 10 10.32 10 11 10 C11 10.66 11 11.32 11 12 C7.63820226 10.55922954 5.40843732 8.75249979 3 6 C3 5.34 3 4.68 3 4 C1.68 3.34 0.36 2.68 -1 2 C-0.67 1.34 -0.34 0.68 0 0 Z " fill="#27A849" transform="translate(567,574)"/>
<path d="M0 0 C-2.34117681 2.7928508 -3.95863199 3.4622064 -7.5625 3.8125 C-8.74005859 3.94591797 -8.74005859 3.94591797 -9.94140625 4.08203125 C-12 4 -12 4 -14 2 C-12.04396149 1.47061343 -10.08507711 0.95173199 -8.125 0.4375 C-7.03445313 0.14746094 -5.94390625 -0.14257812 -4.8203125 -0.44140625 C-2 -1 -2 -1 0 0 Z " fill="#28A74A" transform="translate(604,593)"/>
<path d="M0 0 C0.66 0.33 1.32 0.66 2 1 C0.56877218 2.48523642 -0.87020889 3.96300462 -2.3125 5.4375 C-3.11300781 6.26121094 -3.91351562 7.08492187 -4.73828125 7.93359375 C-7 10 -7 10 -10 11 C-8.55218207 7.55571735 -6.72305391 5.63869038 -3.875 3.25 C-3.15054688 2.63640625 -2.42609375 2.0228125 -1.6796875 1.390625 C-0.84824219 0.70226562 -0.84824219 0.70226562 0 0 Z " fill="#26A546" transform="translate(615,582)"/>
<path d="M0 0 C5.13574754 0.43523284 8.77764767 0.80124824 13 4 C13.33 4.66 13.66 5.32 14 6 C10.09991103 5.21998221 6.63179826 3.5847847 3 2 C2.01 1.67 1.02 1.34 0 1 C0 0.67 0 0.34 0 0 Z " fill="#35D266" transform="translate(362,420)"/>
<path d="M0 0 C0.33 0.66 0.66 1.32 1 2 C-0.43359375 4.6015625 -0.43359375 4.6015625 -2.4375 7.625 C-3.42556641 9.12933594 -3.42556641 9.12933594 -4.43359375 10.6640625 C-4.95050781 11.43492187 -5.46742188 12.20578125 -6 13 C-6.33 11.68 -6.66 10.36 -7 9 C-6.01 8.67 -5.02 8.34 -4 8 C-3.29508733 5.67793475 -2.62787571 3.34406932 -2 1 C-1.34 0.67 -0.68 0.34 0 0 Z " fill="#28AC4A" transform="translate(733,454)"/>
<path d="M0 0 C2.75 0.0625 2.75 0.0625 6 1 C7.76511299 3.22511214 8.77297776 5.40437603 10 8 C9.01 8.495 9.01 8.495 8 9 C8 8.34 8 7.68 8 7 C7.360625 6.731875 6.72125 6.46375 6.0625 6.1875 C4 5 4 5 3 2 C2.01 1.67 1.02 1.34 0 1 C0 0.67 0 0.34 0 0 Z " fill="#30CC62" transform="translate(396,405)"/>
<path d="M0 0 C3.59905908 0.55550695 4.99909799 1.74887248 7.25 4.5625 C8.03117187 5.52349609 8.03117187 5.52349609 8.828125 6.50390625 C9.21484375 6.99761719 9.6015625 7.49132812 10 8 C7 8 7 8 5.17578125 6.50390625 C4.56089844 5.86324219 3.94601562 5.22257812 3.3125 4.5625 C2.68988281 3.92441406 2.06726563 3.28632813 1.42578125 2.62890625 C0 1 0 1 0 0 Z " fill="#2EC75E" transform="translate(424,433)"/>
<path d="M0 0 C2.64 0 5.28 0 8 0 C6.66065756 2.67868487 5.48307603 2.74954078 2.6875 3.6875 C1.90761719 3.95949219 1.12773437 4.23148438 0.32421875 4.51171875 C-2.18274511 5.03839183 -3.60132343 4.8178554 -6 4 C-4.02 3.34 -2.04 2.68 0 2 C0 1.34 0 0.68 0 0 Z " fill="#259E46" transform="translate(432,741)"/>
<path d="M0 0 C0.66 0.33 1.32 0.66 2 1 C-1.3 4.3 -4.6 7.6 -8 11 C-8 6.67750434 -5.85084926 5.11604454 -3 2 C-2.01 1.34 -1.02 0.68 0 0 Z " fill="#26A145" transform="translate(550,647)"/>
<path d="M0 0 C6.52307692 2.21538462 6.52307692 2.21538462 8.9375 6.1875 C9.288125 7.115625 9.63875 8.04375 10 9 C6.04322598 7.32598022 3.15535787 4.86850715 0 2 C0 1.34 0 0.68 0 0 Z " fill="#29AB4E" transform="translate(289,708)"/>
<path d="M0 0 C0.99 0 1.98 0 3 0 C3 0.66 3 1.32 3 2 C3.639375 2.2475 4.27875 2.495 4.9375 2.75 C7 4 7 4 7.75 6.125 C7.8325 6.74375 7.915 7.3625 8 8 C6 8 6 8 4.4921875 6.50390625 C3.69167969 5.54291016 3.69167969 5.54291016 2.875 4.5625 C2.33617187 3.92441406 1.79734375 3.28632813 1.2421875 2.62890625 C0 1 0 1 0 0 Z " fill="#2CC159" transform="translate(454,506)"/>
<path d="M0 0 C4.79280002 0.80904103 6.13520113 3.25984591 9 7 C6 7 6 7 4.39453125 5.46875 C3.87246094 4.8190625 3.35039062 4.169375 2.8125 3.5 C2.28269531 2.8503125 1.75289063 2.200625 1.20703125 1.53125 C0.80871094 1.0259375 0.41039062 0.520625 0 0 Z " fill="#2DC55D" transform="translate(433,442)"/>
<path d="M0 0 C0.66 0.66 1.32 1.32 2 2 C-1.465 4.97 -1.465 4.97 -5 8 C-5.66 7.34 -6.32 6.68 -7 6 C-4.69 4.02 -2.38 2.04 0 0 Z " fill="#26A247" transform="translate(528,668)"/>
<path d="M0 0 C0 3 0 3 -1.375 4.6875 C-3 6 -3 6 -5 6 C-5 6.66 -5 7.32 -5 8 C-5.66 7.67 -6.32 7.34 -7 7 C-6.67 6.01 -6.34 5.02 -6 4 C-5.34 4 -4.68 4 -4 4 C-4 3.34 -4 2.68 -4 2 C-2.68 1.34 -1.36 0.68 0 0 Z " fill="#26A647" transform="translate(698,499)"/>
<path d="M0 0 C1.14926266 0.95421808 2.29430541 1.91352045 3.4375 2.875 C4.07558594 3.40867187 4.71367188 3.94234375 5.37109375 4.4921875 C7 6 7 6 8 8 C6.68 8 5.36 8 4 8 C0 2.88888889 0 2.88888889 0 0 Z " fill="#32C855" transform="translate(704,272)"/>
<path d="M0 0 C5.875 3.625 5.875 3.625 7 7 C3.63408134 5.55746343 1.48952921 3.66735273 -1 1 C-0.67 0.67 -0.34 0.34 0 0 Z " fill="#34CF58" transform="translate(689,260)"/>
<path d="M0 0 C3.25543229 0.34879632 4.01873107 1.02133261 6.25 3.5625 C6.8275 4.366875 7.405 5.17125 8 6 C5 6 5 6 3.61328125 4.6875 C2.40885417 3.125 1.20442708 1.5625 0 0 Z " fill="#2FC85F" transform="translate(417,426)"/>
<path d="M0 0 C1 4 1 4 1 4 Z " fill="#2FBA5B" transform="translate(240,585)"/>
<path d="M0 0 C3 1 3 1 3 1 Z " fill="#36CC5B" transform="translate(653,240)"/>
<path d="" fill="#2EB859" transform="translate(0,0)"/>
<path d="" fill="#2EBA5A" transform="translate(0,0)"/>
<path d="M0 0 C2 1 2 1 2 1 Z " fill="#3CD069" transform="translate(536,248)"/>
<path d="" fill="#194022" transform="translate(0,0)"/>
<path d="" fill="#1B4926" transform="translate(0,0)"/>
<path d="" fill="#1A4024" transform="translate(0,0)"/>
<path d="" fill="#1A4224" transform="translate(0,0)"/>
<path d="" fill="#1C4526" transform="translate(0,0)"/>
<path d="" fill="#1C4627" transform="translate(0,0)"/>
<path d="" fill="#1C4927" transform="translate(0,0)"/>
<path d="" fill="#193D22" transform="translate(0,0)"/>
<path d="" fill="#1A4625" transform="translate(0,0)"/>
<path d="" fill="#1A4324" transform="translate(0,0)"/>
<path d="" fill="#1A4323" transform="translate(0,0)"/>
<path d="" fill="#1C4A27" transform="translate(0,0)"/>
<path d="" fill="#1C4B27" transform="translate(0,0)"/>
<path d="" fill="#183E21" transform="translate(0,0)"/>
<path d="" fill="#194324" transform="translate(0,0)"/>
<path d="" fill="#17391F" transform="translate(0,0)"/>
<path d="" fill="#173D21" transform="translate(0,0)"/>
<path d="" fill="#193F21" transform="translate(0,0)"/>
<path d="" fill="#1B4426" transform="translate(0,0)"/>
<path d="" fill="#1C4625" transform="translate(0,0)"/>
<path d="" fill="#1C4A28" transform="translate(0,0)"/>
<path d="" fill="#1D4B28" transform="translate(0,0)"/>
<path d="" fill="#1D4C27" transform="translate(0,0)"/>
<path d="" fill="#1C4B29" transform="translate(0,0)"/>
<path d="" fill="#17391F" transform="translate(0,0)"/>
<path d="" fill="#183920" transform="translate(0,0)"/>
<path d="" fill="#184021" transform="translate(0,0)"/>
<path d="" fill="#1C4726" transform="translate(0,0)"/>
<path d="" fill="#1A4626" transform="translate(0,0)"/>
<path d="" fill="#1C4824" transform="translate(0,0)"/>
<path d="" fill="#1E522B" transform="translate(0,0)"/>
<path d="" fill="#1F522A" transform="translate(0,0)"/>
<path d="" fill="#173B20" transform="translate(0,0)"/>
<path d="" fill="#173C20" transform="translate(0,0)"/>
<path d="" fill="#1A3F22" transform="translate(0,0)"/>
<path d="" fill="#1C4526" transform="translate(0,0)"/>
<path d="" fill="#1C4926" transform="translate(0,0)"/>
<path d="" fill="#1D502A" transform="translate(0,0)"/>
<path d="" fill="#1F552B" transform="translate(0,0)"/>
<path d="" fill="#20532C" transform="translate(0,0)"/>
<path d="" fill="#1C4A26" transform="translate(0,0)"/>
<path d="" fill="#1A4224" transform="translate(0,0)"/>
<path d="" fill="#20532B" transform="translate(0,0)"/>
<path d="" fill="#22572D" transform="translate(0,0)"/>
<path d="" fill="#1D4B28" transform="translate(0,0)"/>
<path d="" fill="#1B4424" transform="translate(0,0)"/>
<path d="" fill="#21552C" transform="translate(0,0)"/>
<path d="" fill="#183B21" transform="translate(0,0)"/>
<path d="" fill="#1D4F29" transform="translate(0,0)"/>
<path d="" fill="#1E4F2A" transform="translate(0,0)"/>
<path d="" fill="#1E4A28" transform="translate(0,0)"/>
<path d="" fill="#193F21" transform="translate(0,0)"/>
<path d="" fill="#1A3F23" transform="translate(0,0)"/>
<path d="" fill="#246032" transform="translate(0,0)"/>
<path d="" fill="#1E512A" transform="translate(0,0)"/>
<path d="" fill="#246734" transform="translate(0,0)"/>
<path d="" fill="#20582D" transform="translate(0,0)"/>
<path d="" fill="#21582C" transform="translate(0,0)"/>
<path d="" fill="#20562D" transform="translate(0,0)"/>
<path d="" fill="#216130" transform="translate(0,0)"/>
<path d="" fill="#1B4525" transform="translate(0,0)"/>
<path d="" fill="#266232" transform="translate(0,0)"/>
<path d="" fill="#1C4826" transform="translate(0,0)"/>
<path d="" fill="#1D4C27" transform="translate(0,0)"/>
<path d="" fill="#236132" transform="translate(0,0)"/>
<path d="" fill="#26A049" transform="translate(0,0)"/>
<path d="" fill="#27A14A" transform="translate(0,0)"/>
<path d="" fill="#27A049" transform="translate(0,0)"/>
<path d="" fill="#27A04B" transform="translate(0,0)"/>
<path d="" fill="#27A04A" transform="translate(0,0)"/>
<path d="" fill="#29A14B" transform="translate(0,0)"/>
<path d="" fill="#21552F" transform="translate(0,0)"/>
<path d="" fill="#2BA44E" transform="translate(0,0)"/>
<path d="" fill="#2AA450" transform="translate(0,0)"/>
<path d="" fill="#1D4E2A" transform="translate(0,0)"/>
<path d="" fill="#1F502A" transform="translate(0,0)"/>
<path d="" fill="#2AAB52" transform="translate(0,0)"/>
<path d="" fill="#1F532C" transform="translate(0,0)"/>
<path d="" fill="#1E4C28" transform="translate(0,0)"/>
<path d="" fill="#2DB356" transform="translate(0,0)"/>
<path d="" fill="#2DB257" transform="translate(0,0)"/>
<path d="" fill="#21582D" transform="translate(0,0)"/>
<path d="" fill="#287038" transform="translate(0,0)"/>
<path d="" fill="#2FB857" transform="translate(0,0)"/>
<path d="" fill="#1E4E2A" transform="translate(0,0)"/>
<path d="" fill="#235B30" transform="translate(0,0)"/>
<path d="" fill="#2FB759" transform="translate(0,0)"/>
<path d="" fill="#1E512A" transform="translate(0,0)"/>
<path d="" fill="#31BB5B" transform="translate(0,0)"/>
<path d="" fill="#2FBC5A" transform="translate(0,0)"/>
<path d="" fill="#204E29" transform="translate(0,0)"/>
<path d="" fill="#2BA64D" transform="translate(0,0)"/>
<path d="" fill="#2CA94D" transform="translate(0,0)"/>
<path d="" fill="#2DB051" transform="translate(0,0)"/>
<path d="" fill="#20532A" transform="translate(0,0)"/>
<path d="" fill="#30BC5C" transform="translate(0,0)"/>
<path d="" fill="#29AA4D" transform="translate(0,0)"/>
<path d="" fill="#33BF5E" transform="translate(0,0)"/>
<path d="" fill="#2BA548" transform="translate(0,0)"/>
<path d="" fill="#2BB052" transform="translate(0,0)"/>
<path d="" fill="#256735" transform="translate(0,0)"/>
<path d="" fill="#34C35F" transform="translate(0,0)"/>
<path d="" fill="#36C260" transform="translate(0,0)"/>
<path d="" fill="#32C462" transform="translate(0,0)"/>
<path d="" fill="#2EB956" transform="translate(0,0)"/>
<path d="" fill="#225C31" transform="translate(0,0)"/>
<path d="" fill="#267238" transform="translate(0,0)"/>
<path d="" fill="#236031" transform="translate(0,0)"/>
<path d="" fill="#266433" transform="translate(0,0)"/>
<path d="" fill="#2FCD63" transform="translate(0,0)"/>
<path d="" fill="#1F552C" transform="translate(0,0)"/>
<path d="" fill="#2CAE4F" transform="translate(0,0)"/>
<path d="" fill="#2D7E41" transform="translate(0,0)"/>
<path d="" fill="#3BD069" transform="translate(0,0)"/>
<path d="" fill="#2BAE50" transform="translate(0,0)"/>
<path d="" fill="#37D26A" transform="translate(0,0)"/>
<path d="" fill="#3BCE68" transform="translate(0,0)"/>
<path d="" fill="#28783C" transform="translate(0,0)"/>
<path d="" fill="#20532D" transform="translate(0,0)"/>
<path d="" fill="#3AD167" transform="translate(0,0)"/>
<path d="" fill="#2F9348" transform="translate(0,0)"/>
<path d="" fill="#20542D" transform="translate(0,0)"/>
<path d="" fill="#1E562B" transform="translate(0,0)"/>
<path d="" fill="#28733B" transform="translate(0,0)"/>
<path d="" fill="#2A6D38" transform="translate(0,0)"/>
<path d="" fill="#256031" transform="translate(0,0)"/>
<path d="" fill="#205D2E" transform="translate(0,0)"/>
<path d="" fill="#328D48" transform="translate(0,0)"/>
<path d="" fill="#20582C" transform="translate(0,0)"/>
<path d="" fill="#33BC53" transform="translate(0,0)"/>
<path d="" fill="#225F30" transform="translate(0,0)"/>
<path d="" fill="#1E4C2A" transform="translate(0,0)"/>
<path d="" fill="#33BC53" transform="translate(0,0)"/>
<path d="" fill="#1F582B" transform="translate(0,0)"/>
<path d="" fill="#22572E" transform="translate(0,0)"/>
<path d="" fill="#2A753B" transform="translate(0,0)"/>
<path d="" fill="#3DD569" transform="translate(0,0)"/>
<path d="" fill="#3ED46C" transform="translate(0,0)"/>
<path d="" fill="#22562E" transform="translate(0,0)"/>
<path d="" fill="#36C85A" transform="translate(0,0)"/>
<path d="" fill="#3ED46A" transform="translate(0,0)"/>
<path d="" fill="#3ACC5F" transform="translate(0,0)"/>
<path d="" fill="#38CD5F" transform="translate(0,0)"/>
<path d="" fill="#39CE5F" transform="translate(0,0)"/>
<path d="" fill="#236031" transform="translate(0,0)"/>
<path d="" fill="#1E4C2A" transform="translate(0,0)"/>
<path d="" fill="#1D4829" transform="translate(0,0)"/>
<path d="" fill="#21552C" transform="translate(0,0)"/>
<path d="" fill="#318943" transform="translate(0,0)"/>
<path d="" fill="#1F502B" transform="translate(0,0)"/>
<path d="" fill="#235931" transform="translate(0,0)"/>
<path d="" fill="#1F532C" transform="translate(0,0)"/>
<path d="" fill="#1A4524" transform="translate(0,0)"/>
<path d="" fill="#1A3E24" transform="translate(0,0)"/>
<path d="" fill="#1D4827" transform="translate(0,0)"/>
<path d="" fill="#1E4B28" transform="translate(0,0)"/>
<path d="" fill="#276034" transform="translate(0,0)"/>
<path d="" fill="#23562F" transform="translate(0,0)"/>
<path d="" fill="#1A3E22" transform="translate(0,0)"/>
<path d="" fill="#22592E" transform="translate(0,0)"/>
<path d="" fill="#286936" transform="translate(0,0)"/>
<path d="" fill="#286C38" transform="translate(0,0)"/>
<path d="" fill="#21532D" transform="translate(0,0)"/>
<path d="" fill="#1C4226" transform="translate(0,0)"/>
<path d="" fill="#22552E" transform="translate(0,0)"/>
<path d="" fill="#204F2C" transform="translate(0,0)"/>
<path d="" fill="#235D31" transform="translate(0,0)"/>
<path d="" fill="#1D4729" transform="translate(0,0)"/>
<path d="" fill="#235B30" transform="translate(0,0)"/>
<path d="" fill="#1B3D24" transform="translate(0,0)"/>
<path d="" fill="#245A31" transform="translate(0,0)"/>
<path d="" fill="#204E2A" transform="translate(0,0)"/>
<path d="" fill="#225A2E" transform="translate(0,0)"/>
<path d="" fill="#256032" transform="translate(0,0)"/>
<path d="" fill="#256232" transform="translate(0,0)"/>
<path d="" fill="#245931" transform="translate(0,0)"/>
<path d="" fill="#22502D" transform="translate(0,0)"/>
<path d="" fill="#1F4F2B" transform="translate(0,0)"/>
<path d="" fill="#1A3B23" transform="translate(0,0)"/>
<path d="" fill="#245F32" transform="translate(0,0)"/>
<path d="" fill="#255A30" transform="translate(0,0)"/>
<path d="" fill="#21512D" transform="translate(0,0)"/>
</svg>
