<svg width="39" height="64" viewBox="0 0 39 64" fill="none" xmlns="http://www.w3.org/2000/svg">
<g clip-path="url(#clip0_351_2)">
<path d="M35.6323 57.6662C32.8211 59.5934 25.2768 61.3425 19.0096 61.2729C9.03361 61.1507 2.70638 58.1062 2.73003 56.0642L2.80226 50.3324C6.29073 52.7211 12.706 54.0114 19.0962 54.0858C19.1015 54.0858 19.1067 54.0858 19.1124 54.0858C19.8576 54.0858 20.4696 53.489 20.4775 52.74L20.6829 35.9149C20.6855 35.5524 20.5498 35.2061 20.295 34.95C20.0415 34.686 19.6978 34.5419 19.334 34.5371C9.36241 34.4172 3.03474 31.3726 3.05882 29.328L3.135 23.186C6.62478 25.5747 13.04 26.8689 19.4303 26.9424C19.6435 26.945 19.8528 26.945 20.0607 26.945C24.7103 26.945 29.0809 26.3168 32.4359 25.1548C33.8662 24.6549 34.9537 24.1111 35.8123 23.5524L35.5378 57.6032C35.5294 58.3601 38.1659 59.1062 38.1738 58.3571L38.5924 19.4375C38.6112 17.8539 37.6165 15.6346 33.125 13.8085L33.2182 5.9135C33.266 2.14396 26.4817 0.0884377 19.7556 0.0043781L19.3226 0C13.0137 0 6.20536 1.75037 6.1572 5.58121L6.06132 13.4697C2.47697 14.8317 0.484499 16.7594 0.453414 18.9681L0.328201 29.2864C0.328201 29.2891 0.328201 29.2891 0.328201 29.2917L0.000280849 56.0266C-0.0596991 61.1026 9.49769 63.88 18.9737 63.9974C19.1816 64 19.3852 64 19.5936 64C26.3039 64 34.6731 60.9112 37.8612 58.7226C38.4855 58.2958 36.2536 57.245 35.6323 57.6662ZM17.9365 37.2323L17.7644 51.3293C8.58048 50.9585 2.82591 48.1009 2.85042 46.1522L3.00628 33.5052C6.24652 35.7231 12.009 37.0024 17.9365 37.2323ZM8.77531 14.6934C8.81033 14.5239 8.81033 14.3576 8.78056 14.1802L8.84054 9.20847C11.4223 10.6616 15.5255 11.4452 19.6146 11.4973L20.0463 11.503C23.8679 11.503 27.8669 10.8551 30.4421 9.4983L30.3677 15.4858C30.3571 16.3872 26.6887 18.4528 19.5284 18.3679C16.4317 18.3302 13.5501 17.8666 11.4039 17.0628C9.47405 16.343 8.76086 15.5488 8.76349 15.2183L8.77531 14.6934ZM19.3226 2.73413L19.7214 2.73675C26.8485 2.82344 30.4994 4.98009 30.4876 5.88154C30.4771 6.74403 26.9116 8.76978 20.0493 8.76978L19.6505 8.76715C12.526 8.68222 8.87513 6.52513 8.88695 5.62149C8.89789 4.75856 12.4595 2.73413 19.3226 2.73413ZM6.2544 16.3365C6.67032 17.4148 7.78629 18.6293 10.4504 19.6249C12.8828 20.5337 16.0929 21.0587 19.4946 21.099C19.6374 21.099 19.7783 21.1016 19.9184 21.1016C25.7873 21.1016 31.5966 19.5929 32.8281 16.6495C35.0325 17.6762 35.8648 18.7409 35.8565 19.413C35.8482 20.1874 34.7103 21.4816 31.5335 22.5814C28.3174 23.6956 23.9905 24.2713 19.4561 24.2192C9.48149 24.0966 3.15426 21.0539 3.17791 19.0167C3.19148 18.3373 4.04871 17.3058 6.2544 16.3365Z" fill="#01DB6B"/>
</g>
<defs>
<clipPath id="clip0_351_2">
<rect width="38.5926" height="64" fill="white"/>
</clipPath>
</defs>
</svg>
