<?xml version="1.0" encoding="UTF-8"?>
<svg version="1.1" xmlns="http://www.w3.org/2000/svg" width="1024" height="1024">
<path d="M0 0 C0.81377808 -0.00367669 1.62755616 -0.00735338 2.46599418 -0.01114148 C5.19647748 -0.02216621 7.92692271 -0.02602011 10.65742493 -0.02983093 C12.61383179 -0.03609649 14.57023747 -0.04274338 16.52664185 -0.04974365 C22.95474927 -0.07077526 29.38285692 -0.08114513 35.81098938 -0.09111023 C38.0247378 -0.09515811 40.2384861 -0.09927504 42.45223427 -0.10346031 C52.85277568 -0.12250991 63.25331001 -0.1367415 73.65386552 -0.14507228 C85.65555623 -0.15484454 97.65706252 -0.18116486 109.65868825 -0.22157317 C118.93781525 -0.25174196 128.2168894 -0.26654189 137.49606448 -0.26985329 C143.0368851 -0.27220288 148.57750863 -0.28115166 154.1182766 -0.30631447 C159.33284252 -0.32961342 164.54708182 -0.33382097 169.76168633 -0.32355309 C171.67202593 -0.32305806 173.58238171 -0.32936854 175.49267197 -0.34310913 C193.99964624 -0.46874463 193.99964624 -0.46874463 200.98677063 4.14717102 C201.89427063 4.72467102 202.80177063 5.30217102 203.73677063 5.89717102 C209.6267911 11.78719149 212.08327664 17.60733078 212.16377258 25.8585968 C212.17660782 27.00724213 212.18944305 28.15588745 212.20266724 29.33934021 C212.21374763 31.19714615 212.21374763 31.19714615 212.22505188 33.09248352 C212.23312363 34.37267365 212.24119537 35.65286377 212.24951172 36.97184753 C212.26451525 39.68360763 212.27436275 42.39534181 212.28193665 45.10713196 C212.2929598 48.55677241 212.32732049 52.00576048 212.36710835 55.45517159 C212.39977788 58.77174732 212.40407104 62.08825947 212.41255188 65.40498352 C212.43005997 66.63137543 212.44756805 67.85776733 212.46560669 69.12132263 C212.44370028 77.86390226 210.86478486 84.52179101 206.23677063 91.95967102 C197.66144238 100.29679571 188.51865043 100.86585104 176.98677063 102.14717102 C176.65677063 114.02717102 176.32677063 125.90717102 175.98677063 138.14717102 C181.55552063 138.27092102 181.55552063 138.27092102 187.23677063 138.39717102 C210.8669374 139.2142413 238.12180546 144.88680868 256.98677063 160.14717102 C258.0744948 160.9884603 259.16445434 161.82686511 260.25630188 162.66279602 C287.61346661 183.70529336 306.05973543 212.66897529 310.74067688 247.25263977 C314.31833777 278.15246961 314.31833777 278.15246961 310.98677063 288.14717102 C311.97290344 287.67408508 312.95903625 287.20099915 313.97505188 286.71357727 C334.37234288 277.16731278 355.86556609 270.31995866 377.98677063 266.14717102 C378.78598938 265.98491028 379.58520813 265.82264954 380.40864563 265.6554718 C393.75620134 263.01376807 407.11844983 262.86227527 420.67427063 262.83467102 C421.53678436 262.83099518 422.3992981 262.82731934 423.28794861 262.8235321 C434.9915686 262.79751571 446.44386121 263.51819578 458.06130981 264.92405701 C461.32787644 265.30257252 464.60264139 265.5573677 467.88130188 265.80342102 C470.70331411 266.26415771 473.27205985 267.24226743 475.98677063 268.14717102 C477.60979631 268.56884369 479.23653537 268.97634437 480.86567688 269.37373352 C508.84043472 276.21635533 534.90935681 287.29275602 558.98677063 303.14717102 C559.88782532 303.67955383 560.78888 304.21193665 561.71723938 304.76045227 C563.74202425 305.99762719 565.41406714 307.25546532 567.17427063 308.83467102 C569.98301692 311.30296321 572.86059802 313.64742392 575.79927063 315.95967102 C580.22380296 319.47781206 584.43599425 323.17813204 588.60786438 326.99092102 C590.76187572 328.94332538 592.95704789 330.82994461 595.17427063 332.70967102 C598.47391852 335.58696398 601.33688916 338.67146685 604.15864563 342.01435852 C605.40424911 343.46756258 606.68776121 344.88891687 608.00239563 346.27998352 C619.16812906 358.1285136 627.99118962 372.01983151 635.98677063 386.14717102 C636.35367004 386.78525696 636.72056946 387.4233429 637.09858704 388.08076477 C668.67083487 443.36983336 674.64406514 511.37916926 658.17427063 572.39717102 C653.25054657 589.84468565 646.96312087 606.11851044 638.7936554 622.30976868 C637.85274326 624.1179112 637.85274326 624.1179112 637.98677063 626.14717102 C637.00079232 627.1609988 635.99836624 628.15890267 634.98677063 629.14717102 C634.14077581 630.39474673 633.33435718 631.66972464 632.56098938 632.96357727 C632.1011969 633.71904846 631.64140442 634.47451965 631.16767883 635.25288391 C630.67485413 636.06362366 630.18202942 636.8743634 629.67427063 637.70967102 C621.52349588 650.85864568 612.15592322 663.11679783 601.56098938 674.39717102 C599.91297703 676.07334891 599.91297703 676.07334891 598.98677063 678.14717102 C598.32677063 678.14717102 597.66677063 678.14717102 596.98677063 678.14717102 C596.72895813 678.72982727 596.47114563 679.31248352 596.20552063 679.91279602 C594.88843046 682.32746132 593.43588679 683.9645728 591.48677063 685.89717102 C590.87833313 686.51076477 590.26989563 687.12435852 589.64302063 687.75654602 C587.98677063 689.14717102 587.98677063 689.14717102 585.98677063 689.14717102 C585.98677063 689.80717102 585.98677063 690.46717102 585.98677063 691.14717102 C584.10786438 692.88935852 584.10786438 692.88935852 581.42427063 695.02217102 C580.42009094 695.8239679 579.41591125 696.62576477 578.38130188 697.45185852 C577.83296692 697.88595032 577.28463196 698.32004211 576.71968079 698.76728821 C574.92618395 700.19541502 573.14874917 701.64176415 571.37348938 703.09248352 C560.56845485 711.89119196 549.53587167 719.90972765 537.35005188 726.73701477 C534.90628459 728.06439273 534.90628459 728.06439273 532.98677063 730.14717102 C531.40552941 730.88587471 529.795203 731.56268943 528.17427063 732.20967102 C524.18345429 733.82217011 520.22544084 735.47344635 516.29536438 737.22920227 C482.70695216 752.16707072 446.84313107 759.41226348 409.98677063 758.14717102 C408.57791757 758.12885661 407.16906331 758.11063403 405.76020813 758.09248352 C370.4297852 757.3072807 332.20419397 748.37447244 302.06880188 729.36201477 C300.10062046 727.97918043 300.10062046 727.97918043 297.98677063 728.14717102 C296.67200086 729.78471085 295.43466655 731.48479375 294.23677063 733.20967102 C280.34799272 752.61930005 261.7878798 763.84429151 238.42279053 768.67755127 C233.91100474 769.29420186 229.4734549 769.32461251 224.92451477 769.35249329 C223.91648583 769.36238722 222.9084569 769.37228115 221.86988163 769.3824749 C218.5039206 769.41419799 215.13794701 769.43898321 211.77192688 769.46357727 C209.37193022 769.48434271 206.97193635 769.5054327 204.57194519 769.52682495 C198.08337807 769.58303094 191.59477315 769.63245835 185.10613632 769.67980194 C181.04559532 769.70948085 176.98507031 769.74106277 172.92454529 769.77284241 C107.61363432 770.28106448 42.28737177 770.66437195 -23.02254868 769.85758209 C-24.97001606 769.83516837 -26.91754332 769.81816517 -28.86506653 769.80128479 C-57.94418921 769.52876222 -81.72205171 764.64307154 -103.01322937 743.14717102 C-118.77919787 726.46792995 -127.30802337 705.7917333 -128.53373718 682.89131165 C-128.57647388 682.10292152 -128.61921059 681.3145314 -128.66324234 680.50225067 C-129.09435144 672.16816557 -129.2923981 663.83423152 -129.43510437 655.49092102 C-129.44896431 654.70454758 -129.46282425 653.91817413 -129.47710419 653.10797119 C-129.5492745 648.97542791 -129.6168448 644.84283887 -129.68070984 640.7101593 C-129.7475996 636.45075559 -129.83220957 632.19187965 -129.92028427 627.93286896 C-129.98514003 624.63715104 -130.03672292 621.34132261 -130.08461761 618.0453186 C-130.10985673 616.47270755 -130.14021256 614.90016995 -130.17578888 613.32775879 C-130.22395381 611.14837007 -130.25328827 608.96951309 -130.27787781 606.78974915 C-130.29928833 605.5516449 -130.32069885 604.31354065 -130.34275818 603.03791809 C-130.23401367 602.08397156 -130.12526917 601.13002502 -130.01322937 600.14717102 C-126.59045382 597.86532066 -125.38489492 597.89743008 -121.3632555 597.89828205 C-120.17931165 597.89368326 -118.99536779 597.88908446 -117.77554685 597.88434631 C-115.81480546 597.89206165 -115.81480546 597.89206165 -113.81445312 597.89993286 C-112.41670889 597.89834541 -111.01896542 597.89588245 -109.62122411 597.89261645 C-105.77091815 597.88618515 -101.92071687 597.892285 -98.07041776 597.90038073 C-93.92083797 597.90694513 -89.77127012 597.90201176 -85.62168884 597.89849854 C-77.48526883 597.89344868 -69.34888936 597.89910944 -61.21247438 597.90834884 C-51.7308431 597.91872834 -42.2492206 597.9186627 -32.7675847 597.91817626 C-15.83668101 597.91767515 1.09420383 597.92684688 18.02510071 597.94136047 C34.43460941 597.95541978 50.84410152 597.9625325 67.25361633 597.96186829 C68.76671264 597.96180835 68.76671264 597.96180835 70.31037655 597.96174721 C71.82090664 597.96168667 71.82090664 597.96168667 73.36195248 597.96162492 C92.05404781 597.96093332 110.7461361 597.96683898 129.43822914 597.97577814 C136.03714493 597.97878536 142.63605942 597.97985665 149.23497581 597.98031044 C157.29438516 597.98099574 165.35378266 597.98550346 173.41318699 597.99464325 C177.52040953 597.99923229 181.62761703 598.00231759 185.7348423 598.00104904 C189.50611829 597.99994085 193.27736123 598.00355125 197.04863033 598.01069757 C199.0358932 598.01332434 201.02316069 598.01117326 203.01042384 598.00876552 C212.03666802 598.032664 220.98807003 598.50036113 229.98677063 599.14717102 C230.31677063 598.48717102 230.64677063 597.82717102 230.98677063 597.14717102 C230.98677063 597.80717102 230.98677063 598.46717102 230.98677063 599.14717102 C238.57677063 599.14717102 246.16677063 599.14717102 253.98677063 599.14717102 C254.31677063 598.48717102 254.64677063 597.82717102 254.98677063 597.14717102 C255.7844989 597.39273743 255.7844989 597.39273743 256.5983429 597.64326477 C259.52381602 598.2604759 262.21072371 598.24115178 265.20161438 598.20967102 C266.44749329 598.20193665 267.69337219 598.19420227 268.977005 598.18623352 C271.54211576 598.16084895 274.10722046 598.13484221 276.6723175 598.10810852 C287.85231843 598.03990313 298.7583454 598.6124841 309.98677063 599.14717102 C309.98677063 499.81717102 309.98677063 400.48717102 309.98677063 298.14717102 C165.11677063 298.14717102 20.24677063 298.14717102 -129.01322937 298.14717102 C-129.01322937 219.2275906 -129.01322937 219.2275906 -103.02885437 185.83857727 C-100.98978414 183.22135877 -100.98978414 183.22135877 -99.46244812 180.49873352 C-98.01651387 178.15250059 -96.67741846 176.71785824 -94.57572937 174.95967102 C-93.86932312 174.36670227 -93.16291687 173.77373352 -92.43510437 173.16279602 C-91.23627625 172.16506165 -91.23627625 172.16506165 -90.01322937 171.14717102 C-88.65971375 169.96381165 -88.65971375 169.96381165 -87.27885437 168.75654602 C-64.56923202 149.1709987 -38.06175255 139.92359335 -8.36088562 138.39326477 C-2.57054905 138.09304638 3.20729843 137.60624419 8.98677063 137.14717102 C9.03629769 132.80555277 9.07255017 128.46408527 9.09663391 124.12226868 C9.10667654 122.64600255 9.12031328 121.16975623 9.13764954 119.69355774 C9.16197484 117.56867068 9.17327103 115.44404717 9.18208313 113.31904602 C9.19779358 111.40237122 9.19779358 111.40237122 9.21382141 109.44697571 C9.00121167 106.3570475 8.8397776 104.60730142 6.98677063 102.14717102 C4.35786669 101.61778075 2.01510793 101.32039036 -0.63822937 101.14717102 C-9.71996003 100.28085157 -15.72680839 98.30670602 -22.01322937 91.14717102 C-22.73510437 90.34279602 -23.45697937 89.53842102 -24.20072937 88.70967102 C-31.52425774 78.35571712 -29.10710416 61.0631815 -29.13822937 49.02217102 C-29.14290222 47.77242493 -29.14757507 46.52267883 -29.15238953 45.23506165 C-29.10456363 17.20173069 -29.10456363 17.20173069 -21.70072937 8.39717102 C-14.24875377 2.15830773 -9.87695974 -0.00239472 0 0 Z M8.98677063 101.14717102 C9.98677063 103.14717102 9.98677063 103.14717102 9.98677063 103.14717102 Z " fill="#58301B" transform="translate(250.0132293701172,101.85282897949219)"/>
<path d="M0 0 C0.81377808 -0.00367669 1.62755616 -0.00735338 2.46599418 -0.01114148 C5.19647748 -0.02216621 7.92692271 -0.02602011 10.65742493 -0.02983093 C12.61383179 -0.03609649 14.57023747 -0.04274338 16.52664185 -0.04974365 C22.95474927 -0.07077526 29.38285692 -0.08114513 35.81098938 -0.09111023 C38.0247378 -0.09515811 40.2384861 -0.09927504 42.45223427 -0.10346031 C52.85277568 -0.12250991 63.25331001 -0.1367415 73.65386552 -0.14507228 C85.65555623 -0.15484454 97.65706252 -0.18116486 109.65868825 -0.22157317 C118.93781525 -0.25174196 128.2168894 -0.26654189 137.49606448 -0.26985329 C143.0368851 -0.27220288 148.57750863 -0.28115166 154.1182766 -0.30631447 C159.33284252 -0.32961342 164.54708182 -0.33382097 169.76168633 -0.32355309 C171.67202593 -0.32305806 173.58238171 -0.32936854 175.49267197 -0.34310913 C193.99964624 -0.46874463 193.99964624 -0.46874463 200.98677063 4.14717102 C201.89427063 4.72467102 202.80177063 5.30217102 203.73677063 5.89717102 C209.6267911 11.78719149 212.08327664 17.60733078 212.16377258 25.8585968 C212.17660782 27.00724213 212.18944305 28.15588745 212.20266724 29.33934021 C212.21374763 31.19714615 212.21374763 31.19714615 212.22505188 33.09248352 C212.23312363 34.37267365 212.24119537 35.65286377 212.24951172 36.97184753 C212.26451525 39.68360763 212.27436275 42.39534181 212.28193665 45.10713196 C212.2929598 48.55677241 212.32732049 52.00576048 212.36710835 55.45517159 C212.39977788 58.77174732 212.40407104 62.08825947 212.41255188 65.40498352 C212.43005997 66.63137543 212.44756805 67.85776733 212.46560669 69.12132263 C212.44370028 77.86390226 210.86478486 84.52179101 206.23677063 91.95967102 C197.66144238 100.29679571 188.51865043 100.86585104 176.98677063 102.14717102 C176.65677063 114.02717102 176.32677063 125.90717102 175.98677063 138.14717102 C181.55552063 138.27092102 181.55552063 138.27092102 187.23677063 138.39717102 C210.8669374 139.2142413 238.12180546 144.88680868 256.98677063 160.14717102 C258.0744948 160.9884603 259.16445434 161.82686511 260.25630188 162.66279602 C287.61346661 183.70529336 306.05973543 212.66897529 310.74067688 247.25263977 C314.31833777 278.15246961 314.31833777 278.15246961 310.98677063 288.14717102 C311.64677063 288.47717102 312.30677063 288.80717102 312.98677063 289.14717102 C312.32677063 289.14717102 311.66677063 289.14717102 310.98677063 289.14717102 C310.98677063 292.11717102 310.98677063 295.08717102 310.98677063 298.14717102 C165.78677063 298.14717102 20.58677063 298.14717102 -129.01322937 298.14717102 C-129.01322937 219.2275906 -129.01322937 219.2275906 -103.02885437 185.83857727 C-100.98978414 183.22135877 -100.98978414 183.22135877 -99.46244812 180.49873352 C-98.01651387 178.15250059 -96.67741846 176.71785824 -94.57572937 174.95967102 C-93.86932312 174.36670227 -93.16291687 173.77373352 -92.43510437 173.16279602 C-91.23627625 172.16506165 -91.23627625 172.16506165 -90.01322937 171.14717102 C-88.65971375 169.96381165 -88.65971375 169.96381165 -87.27885437 168.75654602 C-64.56923202 149.1709987 -38.06175255 139.92359335 -8.36088562 138.39326477 C-2.57054905 138.09304638 3.20729843 137.60624419 8.98677063 137.14717102 C9.03629769 132.80555277 9.07255017 128.46408527 9.09663391 124.12226868 C9.10667654 122.64600255 9.12031328 121.16975623 9.13764954 119.69355774 C9.16197484 117.56867068 9.17327103 115.44404717 9.18208313 113.31904602 C9.19779358 111.40237122 9.19779358 111.40237122 9.21382141 109.44697571 C9.00121167 106.3570475 8.8397776 104.60730142 6.98677063 102.14717102 C4.35786669 101.61778075 2.01510793 101.32039036 -0.63822937 101.14717102 C-9.71996003 100.28085157 -15.72680839 98.30670602 -22.01322937 91.14717102 C-22.73510437 90.34279602 -23.45697937 89.53842102 -24.20072937 88.70967102 C-31.52425774 78.35571712 -29.10710416 61.0631815 -29.13822937 49.02217102 C-29.14290222 47.77242493 -29.14757507 46.52267883 -29.15238953 45.23506165 C-29.10456363 17.20173069 -29.10456363 17.20173069 -21.70072937 8.39717102 C-14.24875377 2.15830773 -9.87695974 -0.00239472 0 0 Z M8.98677063 101.14717102 C9.98677063 103.14717102 9.98677063 103.14717102 9.98677063 103.14717102 Z " fill="#50B953" transform="translate(250.0132293701172,101.85282897949219)"/>
<path d="M0 0 C0.33 0.66 0.66 1.32 1 2 C8.59 2 16.18 2 24 2 C24.33 1.34 24.66 0.68 25 0 C25.53254395 0.16371094 26.06508789 0.32742188 26.61376953 0.49609375 C29.5275566 1.11140545 32.20060026 1.09403864 35.1796875 1.0625 C36.42105469 1.05476562 37.66242188 1.04703125 38.94140625 1.0390625 C41.49349661 1.013719 44.04558055 0.98771689 46.59765625 0.9609375 C54.59806498 0.91200534 62.54532829 1.11830906 70.53564453 1.50390625 C72.05158958 1.57502625 72.05158958 1.57502625 73.59815979 1.64758301 C76.065515 1.76355226 78.53278674 1.88105541 81 2 C81.09324197 13.57125444 81.16403743 25.1424175 81.20724869 36.71397305 C81.22800223 42.08882994 81.25609265 47.46342722 81.30175781 52.83813477 C81.34565654 58.03829004 81.36922873 63.23819778 81.37950897 68.43852425 C81.38682219 70.40897575 81.40109955 72.37941581 81.42292023 74.34976006 C81.70996607 101.37781783 74.47069798 127.3572771 55.52832031 147.46289062 C39.50192051 163.58145502 17.46763611 172.06723499 -5.06225586 172.20532227 C-6.0702848 172.2152162 -7.07831373 172.22511013 -8.116889 172.23530388 C-11.48285003 172.26702696 -14.84882362 172.29181219 -18.21484375 172.31640625 C-20.61484041 172.33717169 -23.01483428 172.35826168 -25.41482544 172.37965393 C-31.90339256 172.43585992 -38.39199748 172.48528733 -44.88063431 172.53263092 C-48.94117531 172.56230983 -53.00170032 172.59389175 -57.06222534 172.62567139 C-122.37313631 173.13389346 -187.69939886 173.51720093 -253.00931931 172.71041107 C-254.95678669 172.68799735 -256.90431395 172.67099415 -258.85183716 172.65411377 C-287.93095984 172.3815912 -311.70882234 167.49590052 -333 146 C-348.7659685 129.32075893 -357.294794 108.64456228 -358.52050781 85.74414062 C-358.56324451 84.9557505 -358.60598122 84.16736038 -358.65001297 83.35507965 C-359.08112207 75.02099455 -359.27916873 66.6870605 -359.421875 58.34375 C-359.43573494 57.55737656 -359.44959488 56.77100311 -359.46387482 55.96080017 C-359.53604513 51.82825689 -359.60361543 47.69566785 -359.66748047 43.56298828 C-359.73437023 39.30358456 -359.8189802 35.04470863 -359.9070549 30.78569794 C-359.97191066 27.48998002 -360.02349355 24.19415159 -360.07138824 20.89814758 C-360.09662736 19.32553653 -360.12698319 17.75299893 -360.16255951 16.18058777 C-360.21072444 14.00119905 -360.2400589 11.82234207 -360.26464844 9.64257812 C-360.28605896 8.40447388 -360.30746948 7.16636963 -360.32952881 5.89074707 C-360.2207843 4.93680054 -360.11203979 3.982854 -360 3 C-356.57722445 0.71814963 -355.37166555 0.75025906 -351.35002613 0.75111103 C-350.16608228 0.74651223 -348.98213842 0.74191344 -347.76231748 0.73717529 C-345.80157609 0.74489063 -345.80157609 0.74489063 -343.80122375 0.75276184 C-342.40347952 0.75117439 -341.00573605 0.74871143 -339.60799474 0.74544543 C-335.75768878 0.73901413 -331.9074875 0.74511398 -328.05718839 0.75320971 C-323.9076086 0.75977411 -319.75804075 0.75484074 -315.60845947 0.75132751 C-307.47203946 0.74627765 -299.33565999 0.75193842 -291.19924501 0.76117782 C-281.71761373 0.77155732 -272.23599123 0.77149168 -262.75435533 0.77100524 C-245.82345164 0.77050413 -228.8925668 0.77967586 -211.96166992 0.79418945 C-195.55216121 0.80824876 -179.14266911 0.81536148 -162.7331543 0.81469727 C-161.22005799 0.81463733 -161.22005799 0.81463733 -159.67639408 0.81457619 C-158.16586399 0.81451565 -158.16586399 0.81451565 -156.62481815 0.8144539 C-137.93272282 0.8137623 -119.24063453 0.81966796 -100.54854149 0.82860712 C-93.9496257 0.83161434 -87.35071121 0.83268563 -80.75179482 0.83313942 C-72.69238547 0.83382472 -64.63298797 0.83833244 -56.57358364 0.84747223 C-52.4663611 0.85206127 -48.3591536 0.85514657 -44.25192833 0.85387802 C-40.48065234 0.85276983 -36.7094094 0.85638023 -32.9381403 0.86352655 C-30.95087743 0.86615331 -28.96360994 0.86400224 -26.97634679 0.8615945 C-17.95010261 0.88549298 -8.9987006 1.35319011 0 2 C0 1.34 0 0.68 0 0 Z " fill="#50BB54" transform="translate(480,699)"/>
<path d="M0 0 C28.16520724 9.69792485 52.64943244 22.40384851 76 41 C76.56960449 41.45246094 77.13920898 41.90492188 77.72607422 42.37109375 C92.85618659 54.53512234 107.24278927 68.54105566 119 84 C120.06930955 85.34428468 121.14115864 86.68655126 122.21484375 88.02734375 C144.6406798 116.1862861 162.98483112 147.84634541 177.9375 180.5625 C178.35660645 181.47821777 178.77571289 182.39393555 179.20751953 183.33740234 C182 189.60513017 182 189.60513017 182 193 C154.56766956 206.67675095 124.16424943 212.0469266 94 204 C93.1430957 203.77425293 92.28619141 203.54850586 91.40332031 203.31591797 C77.05926911 199.43867443 63.46331285 194.26002975 50 188 C49.34112793 187.69545898 48.68225586 187.39091797 48.00341797 187.07714844 C36.66649922 181.77203267 25.78424468 175.53643789 14.84960938 169.45874023 C14.23059753 169.11474686 13.61158569 168.77075348 12.97381592 168.41633606 C11.26935978 167.46828538 9.56580459 166.51861546 7.86230469 165.56884766 C5.6013665 164.32961286 3.30608662 163.15304331 1 162 C1 168.6 1 175.2 1 182 C12.55801587 188.71977667 24.10525314 195.3390553 36.16748047 201.11621094 C37.93426551 201.96829752 39.68816048 202.84695452 41.44140625 203.7265625 C58.96363321 212.30168586 77.90368067 218.96097771 97 223 C97.86665283 223.18401367 98.73330566 223.36802734 99.6262207 223.55761719 C108.26135939 225.19933973 116.8075358 225.39784377 125.5625 225.375 C126.68560074 225.37468277 126.68560074 225.37468277 127.83139038 225.37435913 C148.70787361 225.31556783 166.02653243 220.98856116 184.5390625 211.13671875 C187 210 187 210 190 210 C194.53338047 222.1662365 198.99452932 234.34151085 202.625 246.8125 C202.8842627 247.68221436 203.14352539 248.55192871 203.41064453 249.44799805 C203.75264893 250.65903198 203.75264893 250.65903198 204.1015625 251.89453125 C204.30088379 252.59425049 204.50020508 253.29396973 204.70556641 254.01489258 C205.07233053 256.48766132 205.08128446 257.72093674 204 260 C201.48510742 261.65649414 201.48510742 261.65649414 198.10546875 263.28515625 C197.49536453 263.58258728 196.88526031 263.88001831 196.25666809 264.1864624 C194.24109377 265.16171629 192.21549799 266.1133773 190.1875 267.0625 C189.49084229 267.39325531 188.79418457 267.72401062 188.07641602 268.06478882 C147.62809182 287.25902743 104.26141359 300.98335851 60 308 C59.09604492 308.14808105 58.19208984 308.29616211 57.26074219 308.44873047 C38.19161816 311.47077349 19.24378107 311.3253175 0 311 C-1.24378222 308.51243555 -1.12534406 306.85938533 -1.12584114 304.07542229 C-1.12844889 303.02787171 -1.13105664 301.98032114 -1.13374341 300.90102661 C-1.13151268 299.74113381 -1.12928196 298.58124101 -1.12698364 297.38619995 C-1.12854363 296.16098637 -1.13010362 294.93577278 -1.13171089 293.67343152 C-1.13502087 290.26150211 -1.13381398 286.84962737 -1.13072467 283.43770123 C-1.1284702 279.76201879 -1.13195051 276.08634126 -1.13470459 272.41065979 C-1.13916157 265.20391109 -1.13818591 257.99717279 -1.13529195 250.79042368 C-1.13303658 244.93193813 -1.13272598 239.07345549 -1.13381577 233.21496964 C-1.133969 232.38216666 -1.13412223 231.54936369 -1.13428011 230.69132427 C-1.13459983 228.99959619 -1.13492404 227.3078681 -1.1352527 225.61614002 C-1.13810755 209.73391883 -1.13482094 193.8517034 -1.12945233 177.96948315 C-1.12498922 164.3445614 -1.12575615 150.71964816 -1.13037109 137.09472656 C-1.13572526 121.27991188 -1.13782766 105.46510226 -1.13475883 89.65028679 C-1.13444028 87.96283285 -1.13412591 86.2753789 -1.13381577 84.58792496 C-1.13366149 83.75764344 -1.13350721 82.92736192 -1.13334826 82.07192036 C-1.13248527 76.22417324 -1.13394141 70.37642933 -1.13629532 64.52868271 C-1.13910307 57.39641021 -1.13833465 50.26414871 -1.13301457 43.13187747 C-1.13038999 39.49348759 -1.12935137 35.85511604 -1.13266373 32.2167263 C-1.13620259 28.26970785 -1.13197104 24.32271928 -1.12698364 20.3757019 C-1.12921436 19.22919344 -1.13144509 18.08268497 -1.13374341 16.90143383 C-1.11968794 11.1709225 -0.86426514 5.66708862 0 0 Z " fill="#F56B21" transform="translate(561,392)"/>
<path d="M0 0 C0.81377808 -0.00367669 1.62755616 -0.00735338 2.46599418 -0.01114148 C5.19647748 -0.02216621 7.92692271 -0.02602011 10.65742493 -0.02983093 C12.61383179 -0.03609649 14.57023747 -0.04274338 16.52664185 -0.04974365 C22.95474927 -0.07077526 29.38285692 -0.08114513 35.81098938 -0.09111023 C38.0247378 -0.09515811 40.2384861 -0.09927504 42.45223427 -0.10346031 C52.85277568 -0.12250991 63.25331001 -0.1367415 73.65386552 -0.14507228 C85.65555623 -0.15484454 97.65706252 -0.18116486 109.65868825 -0.22157317 C118.93781525 -0.25174196 128.2168894 -0.26654189 137.49606448 -0.26985329 C143.0368851 -0.27220288 148.57750863 -0.28115166 154.1182766 -0.30631447 C159.33284252 -0.32961342 164.54708182 -0.33382097 169.76168633 -0.32355309 C171.67202593 -0.32305806 173.58238171 -0.32936854 175.49267197 -0.34310913 C193.99964624 -0.46874463 193.99964624 -0.46874463 200.98677063 4.14717102 C202.34802063 5.01342102 202.34802063 5.01342102 203.73677063 5.89717102 C209.6267911 11.78719149 212.08327664 17.60733078 212.16377258 25.8585968 C212.18302544 27.58156479 212.18302544 27.58156479 212.20266724 29.33934021 C212.21005417 30.5778775 212.2174411 31.81641479 212.22505188 33.09248352 C212.23312363 34.37267365 212.24119537 35.65286377 212.24951172 36.97184753 C212.26451525 39.68360763 212.27436275 42.39534181 212.28193665 45.10713196 C212.2929598 48.55677241 212.32732049 52.00576048 212.36710835 55.45517159 C212.39977788 58.77174732 212.40407104 62.08825947 212.41255188 65.40498352 C212.43005997 66.63137543 212.44756805 67.85776733 212.46560669 69.12132263 C212.44370028 77.86390226 210.86478486 84.52179101 206.23677063 91.95967102 C197.66144238 100.29679571 188.51865043 100.86585104 176.98677063 102.14717102 C176.65677063 114.35717102 176.32677063 126.56717102 175.98677063 139.14717102 C121.20677063 139.14717102 66.42677063 139.14717102 9.98677063 139.14717102 C9.157557 135.00110288 8.89272207 131.83803187 8.95942688 127.67451477 C8.97167297 126.44539368 8.98391907 125.21627258 8.99653625 123.9499054 C9.03174656 121.3691208 9.07082096 118.78838608 9.11372375 116.2077179 C9.1301593 114.36596985 9.1301593 114.36596985 9.14692688 112.48701477 C9.17218445 110.80660095 9.17218445 110.80660095 9.19795227 109.09223938 C8.988002 106.16434328 8.71342997 104.50998645 6.98677063 102.14717102 C4.35786669 101.61778075 2.01510793 101.32039036 -0.63822937 101.14717102 C-9.71996003 100.28085157 -15.72680839 98.30670602 -22.01322937 91.14717102 C-22.73510437 90.34279602 -23.45697937 89.53842102 -24.20072937 88.70967102 C-31.52425774 78.35571712 -29.10710416 61.0631815 -29.13822937 49.02217102 C-29.14290222 47.77242493 -29.14757507 46.52267883 -29.15238953 45.23506165 C-29.10456363 17.20173069 -29.10456363 17.20173069 -21.70072937 8.39717102 C-14.24875377 2.15830773 -9.87695974 -0.00239472 0 0 Z M8.98677063 101.14717102 C9.98677063 103.14717102 9.98677063 103.14717102 9.98677063 103.14717102 Z " fill="#47AD4C" transform="translate(250.0132293701172,101.85282897949219)"/>
<path d="M0 0 C2.38206338 0.00536611 4.76393831 0.00001233 7.14599609 -0.00634766 C16.76861243 -0.01007158 26.29181739 0.34880281 35.88427734 1.13037109 C36.25177501 9.79588777 36.5857509 18.46219901 36.88427734 27.13037109 C36.92939453 28.43876953 36.97451172 29.74716797 37.02099609 31.09521484 C37.73191175 74.46107018 27.34767469 116.11607163 -0.11572266 150.13037109 C-0.66357422 150.90767578 -1.21142578 151.68498047 -1.77587891 152.48583984 C-2.21802734 153.02853516 -2.66017578 153.57123047 -3.11572266 154.13037109 C-3.77572266 154.13037109 -4.43572266 154.13037109 -5.11572266 154.13037109 C-5.35677734 154.70400391 -5.59783203 155.27763672 -5.84619141 155.86865234 C-15.39288883 172.87646098 -42.92006906 184.46871514 -60.89208984 189.52832031 C-61.62588867 189.72699707 -62.3596875 189.92567383 -63.11572266 190.13037109 C-63.77217773 190.30971191 -64.42863281 190.48905273 -65.10498047 190.67382812 C-87.54828923 196.40706301 -114.60866917 194.52199129 -137.11572266 190.13037109 C-136.71740234 189.68016602 -136.31908203 189.22996094 -135.90869141 188.76611328 C-133.00224362 185.43713446 -130.3694672 182.19637039 -128.11572266 178.38037109 C-122.64509877 169.59385484 -116.32779598 161.40025168 -110.11572266 153.13037109 C-109.45797852 152.25429199 -108.80023438 151.37821289 -108.12255859 150.47558594 C-96.83896449 135.48093095 -85.31755976 120.71849667 -72.89599609 106.64428711 C-70.51277617 103.91409599 -68.70584689 101.36690715 -67.11572266 98.13037109 C-65.55712891 96.63037109 -65.55712891 96.63037109 -63.67822266 95.13037109 C-59.46778215 91.57829038 -55.80231082 87.62551926 -52.12280273 83.54345703 C-49.60184905 80.7489353 -47.05404964 78.01432742 -44.36572266 75.38037109 C-41.40604095 72.4767971 -38.71712674 69.3959886 -36.02197266 66.24755859 C-33.15749683 63.06611208 -30.05045313 60.14343913 -26.93603516 57.20849609 C-25.05733409 55.0637129 -24.37852791 53.94124467 -24.11572266 51.13037109 C-24.44572266 50.14037109 -24.77572266 49.15037109 -25.11572266 48.13037109 C-29.8493291 47.80605695 -32.31894917 48.42337246 -36.24072266 51.06787109 C-37.19849609 51.71369141 -38.15626953 52.35951172 -39.14306641 53.02490234 C-49.19298206 60.14304234 -58.74554871 67.80441251 -68.26171875 75.61279297 C-69.91226502 76.96383268 -71.56854258 78.30717772 -73.22900391 79.64599609 C-78.54609819 83.94780363 -83.69964439 88.38017688 -88.75244141 92.98974609 C-91.62626629 95.59281392 -94.56533162 98.11426067 -97.52197266 100.62255859 C-99.34941367 102.23910739 -99.34941367 102.23910739 -101.11572266 105.13037109 C-101.85822266 105.56349609 -102.60072266 105.99662109 -103.36572266 106.44287109 C-105.80750019 107.94123458 -107.34682294 109.28015403 -109.30322266 111.31787109 C-110.23134766 112.24599609 -111.15947266 113.17412109 -112.11572266 114.13037109 C-112.77572266 114.13037109 -113.43572266 114.13037109 -114.11572266 114.13037109 C-114.61072266 115.61537109 -114.61072266 115.61537109 -115.11572266 117.13037109 C-115.77572266 117.13037109 -116.43572266 117.13037109 -117.11572266 117.13037109 C-117.38384766 117.76974609 -117.65197266 118.40912109 -117.92822266 119.06787109 C-119.11572266 121.13037109 -119.11572266 121.13037109 -122.11572266 122.13037109 C-122.11572266 122.79037109 -122.11572266 123.45037109 -122.11572266 124.13037109 C-122.77572266 124.13037109 -123.43572266 124.13037109 -124.11572266 124.13037109 C-124.45410156 124.96375 -124.45410156 124.96375 -124.79931641 125.81396484 C-126.5046668 128.81477429 -128.68278582 130.80974646 -131.17822266 133.19287109 C-137.50449194 139.3548757 -142.96299732 146.07531402 -148.38134766 153.04443359 C-149.09806641 153.95966797 -149.81478516 154.87490234 -150.55322266 155.81787109 C-151.19130859 156.64673828 -151.82939453 157.47560547 -152.48681641 158.32958984 C-153.02435547 158.92384766 -153.56189453 159.51810547 -154.11572266 160.13037109 C-154.77572266 160.13037109 -155.43572266 160.13037109 -156.11572266 160.13037109 C-156.55282067 156.25771373 -156.97946386 152.38404392 -157.39746094 148.50927734 C-157.60954502 146.56208924 -157.82931604 144.61574318 -158.04931641 142.66943359 C-159.34681537 130.5594433 -159.73530776 118.75398935 -157.86572266 106.69287109 C-157.72932373 105.79673096 -157.5929248 104.90059082 -157.45239258 103.97729492 C-153.16533986 77.03320476 -139.95644128 51.17970721 -118.11572266 34.13037109 C-117.23529297 33.42525391 -116.35486328 32.72013672 -115.44775391 31.99365234 C-82.22322088 6.1425956 -41.05823106 -0.10962354 0 0 Z " fill="#45AB4B" transform="translate(403.11572265625,453.86962890625)"/>
<path d="M0 0 C6.75052513 30.12652044 6.75052513 30.12652044 8 44 C7.1234375 44.34289062 6.246875 44.68578125 5.34375 45.0390625 C-14.16072926 52.97170737 -32.22119111 64.35541359 -49 77 C-49.62583984 77.47034668 -50.25167969 77.94069336 -50.89648438 78.42529297 C-58.00551661 83.80535211 -64.78242688 89.43377426 -71.3046875 95.515625 C-73.38224884 97.43059459 -75.48451285 99.27604813 -77.62890625 101.11328125 C-82.49951745 105.36018871 -87.06132952 109.9108252 -91.6184082 114.48803711 C-93.06025221 115.93524385 -94.50737116 117.37702026 -95.95507812 118.81835938 C-101.18269653 124.04194922 -106.21604461 129.36685904 -111 135 C-111.845625 135.96421875 -112.69125 136.9284375 -113.5625 137.921875 C-124.91481923 151.09347616 -135.57171309 164.94352325 -144.5 179.88378906 C-147.52864623 184.8137521 -147.52864623 184.8137521 -149.87646484 185.74145508 C-152.2443349 186.02974829 -153.92664595 185.79423661 -156.24609375 185.25 C-157.48588989 184.96129028 -157.48588989 184.96129028 -158.75073242 184.66674805 C-159.63736572 184.44672119 -160.52399902 184.22669434 -161.4375 184 C-162.82835815 183.65932495 -162.82835815 183.65932495 -164.24731445 183.31176758 C-185.25529285 178.01324025 -205.59422495 170.5487216 -224 159 C-222.91716296 156.25681283 -221.80029126 153.53667573 -220.6328125 150.828125 C-219.88644531 149.05695313 -219.88644531 149.05695313 -219.125 147.25 C-218.63257813 146.10015625 -218.14015625 144.9503125 -217.6328125 143.765625 C-212.96657003 131.11682633 -211.39835585 118.62148392 -211.390625 105.24609375 C-211.3755863 103.72337641 -211.35884764 102.20067502 -211.34051514 100.67799377 C-211.29746579 96.73429476 -211.27698423 92.79081528 -211.26177979 88.84692383 C-211.24197907 84.79690895 -211.20003801 80.74712372 -211.16015625 76.69726562 C-211.08553358 68.79823831 -211.03483536 60.89930271 -211 53 C-209.97156982 52.96559814 -208.94313965 52.93119629 -207.88354492 52.89575195 C-175.78095446 51.77225042 -144.22712817 48.9044808 -113 41 C-111.92218262 40.72849121 -110.84436523 40.45698242 -109.73388672 40.17724609 C-75.21307761 31.34588781 -42.05433586 19.19187387 -10.11694336 3.3515625 C-9.22370361 2.91199219 -8.33046387 2.47242188 -7.41015625 2.01953125 C-6.23658569 1.43328979 -6.23658569 1.43328979 -5.03930664 0.83520508 C-3 0 -3 0 0 0 Z " fill="#F56B21" transform="translate(772,670)"/>
<path d="M0 0 C0.86251373 -0.00367584 1.72502747 -0.00735168 2.61367798 -0.01113892 C14.31729797 -0.03715531 25.76959058 0.68352476 37.38703918 2.08938599 C40.65360581 2.4679015 43.92837076 2.72269668 47.20703125 2.96875 C50.03152793 3.42989232 52.59526051 4.40368318 55.3125 5.3125 C59.13446309 6.35649107 62.973772 7.33219272 66.8125 8.3125 C70.6513431 9.29283667 74.48445661 10.29082999 78.3125 11.3125 C79.46363281 11.61285156 80.61476563 11.91320312 81.80078125 12.22265625 C95.70438951 18.25548161 106.84725394 48.93939791 112.3125 62.3125 C126.03559527 98.10843162 132.12390207 137.52689571 116.625 173.75 C110.32572647 187.47234705 101.24598867 198.05530959 90.3125 208.3125 C87.3125 207.3125 87.3125 207.3125 85.69360352 204.51879883 C85.09932562 203.27386658 84.51604662 202.02364885 83.94140625 200.76953125 C83.62327972 200.09822174 83.3051532 199.42691223 82.97738647 198.73526001 C82.29269295 197.28952843 81.61222088 195.84179165 80.93551636 194.39230347 C79.15226311 190.57984339 77.32963581 186.78633114 75.5078125 182.9921875 C74.96534126 181.86069527 74.96534126 181.86069527 74.41191101 180.7063446 C57.51637438 145.58451191 35.71450277 112.98564279 9.3125 84.3125 C8.49007812 83.38695312 7.66765625 82.46140625 6.8203125 81.5078125 C2.5612129 76.73088924 -1.69937775 72.20244469 -6.60546875 68.08984375 C-8.08075729 66.8304511 -9.51782396 65.5256485 -10.92578125 64.19140625 C-31.84180988 44.38135736 -58.41240897 26.0600908 -85.6875 16.3125 C-73.77150541 8.36850361 -56.51829379 6.02771752 -42.6875 3.3125 C-41.87522949 3.14588867 -41.06295898 2.97927734 -40.22607422 2.80761719 C-26.89408042 0.17231823 -13.5391786 0.02757036 0 0 Z " fill="#F56B21" transform="translate(670.6875,364.6875)"/>
<path d="M0 0 C8.77536193 4.09166051 16.63794408 8.56844939 24.453125 14.27734375 C26.7636469 16.1867527 26.7636469 16.1867527 29 16 C30.69088966 17.64208639 32.35370744 19.3132053 34 21 C35.71014616 22.43957004 37.43994196 23.85608369 39.1875 25.25 C43.81132248 28.99131873 48.26429407 32.86916167 52.65625 36.87890625 C54.79924312 38.81831503 56.98344638 40.69329299 59.1875 42.5625 C62.48714789 45.43979296 65.35011853 48.52429583 68.171875 51.8671875 C69.41747848 53.32039156 70.70099058 54.74174585 72.015625 56.1328125 C83.18135843 67.98134258 92.00441899 81.87266049 100 96 C100.36689941 96.63808594 100.73379883 97.27617187 101.11181641 97.93359375 C106.14103372 106.740719 110.28539712 115.74895045 114 125.1875 C114.57911133 126.65799805 114.57911133 126.65799805 115.16992188 128.15820312 C118.94799633 138.03038684 118.94799633 138.03038684 119 142 C117.62890625 144.859375 117.62890625 144.859375 115.5625 147.75 C114.81742188 148.79800781 114.07234375 149.84601563 113.3046875 150.92578125 C109.96885687 155.37544007 106.55314485 159.72198771 103 164 C101.92298828 165.35544922 101.92298828 165.35544922 100.82421875 166.73828125 C94.64877437 174.33200951 87.89897257 181.3158775 81 188.25 C80.08653809 189.17264648 79.17307617 190.09529297 78.23193359 191.04589844 C72.12678077 197.12377176 65.72937824 202.62905782 59 208 C57.97261364 208.86358302 56.94922211 209.73199402 55.93359375 210.609375 C39.48231815 224.71782418 19.35373978 241.05421312 -1 249 C-1.99 248.67 -2.98 248.34 -4 248 C-5.0715332 245.47827148 -5.0715332 245.47827148 -6.05078125 242.12109375 C-6.41695557 240.89640381 -6.78312988 239.67171387 -7.16040039 238.40991211 C-7.34877472 237.76037567 -7.53714905 237.11083923 -7.73123169 236.44161987 C-8.69751804 233.11001956 -9.70017514 229.78946458 -10.703125 226.46875 C-10.89906754 225.81724472 -11.09501007 225.16573944 -11.29689026 224.49449158 C-13.22170799 218.15221439 -15.52197296 212.01202896 -18.00390625 205.87109375 C-19 203 -19 203 -19 199 C-16.875 196.921875 -16.875 196.921875 -14 194.75 C10.27241736 175.62345911 23.92404337 146.45759986 27.75 116.0625 C27.86447699 114.37682633 27.94267891 112.68858372 28 111 C28.0515625 109.68644531 28.103125 108.37289062 28.15625 107.01953125 C29.09332016 71.34916494 19.03385672 35.5119188 1.3984375 4.59765625 C0 2 0 2 0 0 Z " fill="#F56B21" transform="translate(786,392)"/>
<path d="M0 0 C0.33 0 0.66 0 1 0 C5.69549212 30.15687155 5.69549212 30.15687155 6 41 C6.03996094 42.23105469 6.07992187 43.46210937 6.12109375 44.73046875 C7.01949416 86.62349242 -2.32103035 128.54502709 -21 166 C-21.99386719 165.24847656 -22.98773437 164.49695313 -24.01171875 163.72265625 C-27.76067841 161.05315626 -31.55663914 159.16015824 -35.8125 157.4375 C-36.53953125 157.14085449 -37.2665625 156.84420898 -38.015625 156.53857422 C-59.4203882 148.1641893 -84.88836372 145.93260826 -107.234375 151.34375 C-110 152 -110 152 -113 152 C-113.34780518 150.3439978 -113.34780518 150.3439978 -113.70263672 148.65454102 C-114.57060163 144.52259471 -115.43925449 140.39079327 -116.30810547 136.2590332 C-116.68263947 134.47749657 -117.05699182 132.69592175 -117.43115234 130.91430664 C-117.97184189 128.33990349 -118.51320454 125.76564262 -119.0546875 123.19140625 C-119.21935516 122.40665421 -119.38402283 121.62190216 -119.55368042 120.81336975 C-120.6651287 115.53372812 -121.81916563 110.26454915 -123 105 C-121.20859639 103.89540661 -119.41685046 102.79136837 -117.625 101.6875 C-117.0484668 101.33139648 -116.47193359 100.97529297 -115.87792969 100.60839844 C-112.50737517 98.52997856 -109.12597967 96.47231651 -105.7265625 94.44140625 C-90.42667689 85.26720455 -75.98467494 75.07043731 -62 64 C-61.06800781 63.26265625 -60.13601563 62.5253125 -59.17578125 61.765625 C-53.14922989 56.91687326 -47.42587753 51.80326758 -41.76171875 46.54296875 C-39.58459371 44.53828926 -37.38287232 42.598748 -35.125 40.6875 C-26.12374656 32.87509135 -17.60159291 24.1755698 -10 15 C-9.21496094 14.08089844 -8.42992187 13.16179688 -7.62109375 12.21484375 C-6.79738281 11.23644531 -5.97367188 10.25804687 -5.125 9.25 C-3.98417969 7.89648438 -3.98417969 7.89648438 -2.8203125 6.515625 C-1.14970407 4.20688717 -0.40252766 2.77873933 0 0 Z " fill="#F56B21" transform="translate(911,556)"/>
<path d="M0 0 C1.20241585 0.00607269 1.20241585 0.00607269 2.42912292 0.01226807 C3.27315674 0.00876343 4.11719055 0.00525879 4.98680115 0.00164795 C7.78609869 -0.00717829 10.58514493 -0.00131657 13.38444519 0.00543213 C15.32496184 0.00408561 17.26547816 0.00214519 19.20599365 -0.00036621 C23.27731023 -0.00331879 27.34853917 0.00098399 31.41984558 0.01031494 C36.64343726 0.02170196 41.86682327 0.01515559 47.09040737 0.00317001 C51.09920811 -0.00405145 55.10795996 -0.0017592 59.11676216 0.0034256 C61.04292386 0.00476169 62.96908996 0.00311577 64.89524651 -0.00153351 C67.58634597 -0.00660257 70.27711092 0.00111721 72.96818542 0.01226807 C73.76777176 0.0082196 74.56735809 0.00417114 75.39117432 0 C79.21476415 0.02940779 81.00447301 0.09847151 84.26335144 2.27105713 C81.6399755 3.5827451 79.67459599 3.40059692 76.73991394 3.40386963 C75.08475769 3.40580322 75.08475769 3.40580322 73.39616394 3.40777588 C72.23858582 3.40390869 71.08100769 3.4000415 69.88835144 3.39605713 C68.73850769 3.39992432 67.58866394 3.4037915 66.40397644 3.40777588 C65.29796082 3.40648682 64.19194519 3.40519775 63.05241394 3.40386963 C62.03872742 3.4027417 61.02504089 3.40161377 59.9806366 3.40045166 C57.56151358 3.28525533 55.58564728 2.8952436 53.26335144 2.27105713 C53.3481623 12.98162248 53.44319909 23.69204545 53.55087852 34.40240669 C53.60057928 39.37698771 53.64690908 44.35155015 53.68522644 49.32623291 C53.72241367 54.13742116 53.76885866 58.94844313 53.82141495 63.75948715 C53.83978301 65.58442102 53.85495396 67.40939028 53.8666954 69.23437881 C53.95959101 83.18887809 54.72482179 96.63206728 58.82585144 110.08355713 C59.08124695 110.92322021 59.33664246 111.7628833 59.59977722 112.62799072 C66.52776998 134.22559115 79.27274391 150.76339967 99.22428894 161.60699463 C102.26335144 163.27105713 102.26335144 163.27105713 105.26335144 165.27105713 C107.58443813 165.97918527 109.91712291 166.65129865 112.26335144 167.27105713 C112.26335144 167.93105713 112.26335144 168.59105713 112.26335144 169.27105713 C193.11335144 169.27105713 273.96335144 169.27105713 357.26335144 169.27105713 C357.26335144 169.93105713 357.26335144 170.59105713 357.26335144 171.27105713 C181.54976029 172.998088 181.54976029 172.998088 99.25403214 171.9814682 C97.30656475 171.95905448 95.35903749 171.94205127 93.41151428 171.9251709 C64.3323916 171.65264833 40.5545291 166.76695765 19.26335144 145.27105713 C3.49692998 128.59133687 -5.02951035 107.91566773 -6.25935364 85.01519775 C-6.30216115 84.22680763 -6.34496866 83.43841751 -6.38907337 82.62613678 C-6.81957334 74.29174494 -6.9973456 65.95852192 -7.12336731 57.61480713 C-7.14912678 56.00864628 -7.17490954 54.40248581 -7.20071411 52.79632568 C-7.25297434 49.47560099 -7.30200894 46.15484579 -7.34919739 42.83404541 C-7.4104169 38.57475431 -7.48460687 34.31578671 -7.56157207 30.05675507 C-7.61895466 26.76099359 -7.66733324 23.46514527 -7.71315956 20.16920471 C-7.73655169 18.59663085 -7.76330154 17.0241032 -7.79347801 15.4516449 C-7.83442716 13.27232169 -7.86271869 11.09319091 -7.88777161 8.91363525 C-7.90696152 7.67553101 -7.92615143 6.43742676 -7.94592285 5.1618042 C-7.55342713 -0.25981655 -4.76367983 0.03677959 0 0 Z " fill="#46AC4C" transform="translate(127.73664855957031,699.7289428710938)"/>
<path d="M0 0 C0.86213504 6.00587481 1.18624002 11.86588073 1.23828125 17.9296875 C1.24802979 18.86951981 1.25777832 19.80935211 1.26782227 20.77766418 C1.75159762 79.49680476 1.75159762 79.49680476 -9 101 C-8.34 101.33 -7.68 101.66 -7 102 C-51.62750831 121.6829449 -94.3674168 128.73986384 -143 126 C-142.39422119 125.74057617 -141.78844238 125.48115234 -141.16430664 125.21386719 C-138.79988808 123.88776577 -137.86962131 122.80759156 -136.37109375 120.578125 C-135.89921631 119.88944336 -135.42733887 119.20076172 -134.94116211 118.49121094 C-134.44495361 117.75161133 -133.94874512 117.01201172 -133.4375 116.25 C-116.31619461 91.38352976 -96.06130128 67.56346722 -73 48 C-72.03191406 47.14277344 -71.06382812 46.28554688 -70.06640625 45.40234375 C-18.55588391 0 -18.55588391 0 0 0 Z " fill="#F36921" transform="translate(783,733)"/>
<path d="M0 0 C59.73 0 119.46 0 181 0 C186.96471104 11.92942208 182.37034324 26.66764332 182 40 C127.22 40 72.44 40 16 40 C15.17078637 35.85393186 14.90595144 32.69086085 14.97265625 28.52734375 C14.99102539 26.68366211 14.99102539 26.68366211 15.00976562 24.80273438 C15.04497593 22.22194978 15.08405033 19.64121506 15.12695312 17.06054688 C15.13791016 15.83271484 15.14886719 14.60488281 15.16015625 13.33984375 C15.18541382 11.65942993 15.18541382 11.65942993 15.21118164 9.94506836 C15.00146609 7.02044567 14.69428719 5.37719045 13 3 C9.9017122 2.07500217 9.9017122 2.07500217 6.375 1.75 C5.18648437 1.60046875 3.99796875 1.4509375 2.7734375 1.296875 C1.85820312 1.19890625 0.94296875 1.1009375 0 1 C0 0.67 0 0.34 0 0 Z M15 2 C16 4 16 4 16 4 Z " fill="#379A43" transform="translate(244,201)"/>
<path d="M0 0 C-2.63423761 5.57621327 -5.53942223 10.45962167 -9.25 15.375 C-9.73452637 16.0256543 -10.21905273 16.67630859 -10.71826172 17.34667969 C-14.69516468 22.66061085 -18.80165256 27.85950373 -23 33 C-23.79921875 34.00804687 -24.5984375 35.01609375 -25.421875 36.0546875 C-26.23140625 37.06789063 -27.0409375 38.08109375 -27.875 39.125 C-28.61492188 40.05570313 -29.35484375 40.98640625 -30.1171875 41.9453125 C-30.73851562 42.62335937 -31.35984375 43.30140625 -32 44 C-32.66 44 -33.32 44 -34 44 C-34.38671875 44.87398437 -34.38671875 44.87398437 -34.78125 45.765625 C-36.09834017 48.1802903 -37.55088384 49.81740177 -39.5 51.75 C-40.1084375 52.36359375 -40.716875 52.9771875 -41.34375 53.609375 C-43 55 -43 55 -45 55 C-45 55.66 -45 56.32 -45 57 C-46.87890625 58.7421875 -46.87890625 58.7421875 -49.5625 60.875 C-50.56667969 61.67679688 -51.57085938 62.47859375 -52.60546875 63.3046875 C-53.15380371 63.7387793 -53.70213867 64.17287109 -54.26708984 64.62011719 C-56.06058668 66.048244 -57.83802146 67.49459313 -59.61328125 68.9453125 C-67.49772362 75.36288187 -75.54381997 81.35303998 -84 87 C-85.81429898 83.37140203 -83.62529806 78.71326026 -82.64648438 74.8828125 C-79.1215048 60.1720674 -78.68460856 45.17850773 -78.8125 30.125 C-78.81936523 28.45621887 -78.82587263 26.78743623 -78.83203125 25.11865234 C-78.89261462 13.72772531 -79.18200361 2.36430694 -80 -9 C-78.33546212 -9.48651015 -76.66822271 -9.96377915 -75 -10.4375 C-74.071875 -10.70433594 -73.14375 -10.97117187 -72.1875 -11.24609375 C-47.53051198 -17.07795489 -22.16839656 -11.0531501 0 0 Z " fill="#F56B21" transform="translate(881,736)"/>
<path d="M0 0 C0.33 0 0.66 0 1 0 C1.02505615 1.03294189 1.0501123 2.06588379 1.07592773 3.13012695 C1.17106924 7.01238556 1.27101602 10.8945089 1.37231445 14.77661133 C1.41526441 16.44747727 1.45696177 18.11837595 1.49731445 19.78930664 C1.76603671 31.13935174 1.76603671 31.13935174 2.34375 42.4765625 C2.39595703 43.29334473 2.44816406 44.11012695 2.50195312 44.95166016 C3.40180544 48.65252336 5.92328943 49.97068026 9 52 C9 52.66 9 53.32 9 54 C9.87978516 54.39445313 9.87978516 54.39445313 10.77734375 54.796875 C13.10995868 56.05952069 14.65253958 57.41580002 16.5625 59.25 C35.0145914 75.96649865 57.17196767 90.72779122 81.09375 98.11328125 C81.7228125 98.40589844 82.351875 98.69851563 83 99 C83.33 99.99 83.66 100.98 84 102 C82.65515112 104.00493525 81.29347879 105.78182204 79.75 107.625 C74.89226063 113.62173535 70.73199201 119.91338696 66.75683594 126.52587891 C66.3240332 127.22374512 65.89123047 127.92161133 65.4453125 128.640625 C64.88094482 129.57696777 64.88094482 129.57696777 64.30517578 130.53222656 C62.60797868 132.44085899 61.51894314 132.71005809 59 133 C56.95141602 132.765625 56.95141602 132.765625 54.75390625 132.25 C53.51411011 131.96129028 53.51411011 131.96129028 52.24926758 131.66674805 C51.36263428 131.44672119 50.47600098 131.22669434 49.5625 131 C48.17164185 130.65932495 48.17164185 130.65932495 46.75268555 130.31176758 C25.74470715 125.01324025 5.40577505 117.5487216 -13 106 C-11.91716296 103.25681283 -10.80029126 100.53667573 -9.6328125 97.828125 C-9.13523437 96.64734375 -8.63765625 95.4665625 -8.125 94.25 C-7.63257813 93.10015625 -7.14015625 91.9503125 -6.6328125 90.765625 C-1.96657003 78.11682633 -0.39835585 65.62148392 -0.390625 52.24609375 C-0.3755863 50.72337641 -0.35884764 49.20067502 -0.34051514 47.67799377 C-0.29746579 43.73429476 -0.27698423 39.79081528 -0.26177979 35.84692383 C-0.24197907 31.79690895 -0.20003801 27.74712372 -0.16015625 23.69726562 C-0.08553358 15.79823831 -0.03483536 7.89930271 0 0 Z " fill="#E95C1C" transform="translate(561,723)"/>
<path d="M0 0 C8.71554682 5.32527316 19.01836116 12.94588662 22.79516602 22.77392578 C23.46428727 27.16038733 23.34843654 28.92557764 20.92016602 32.64892578 C16.67422193 36.89486987 11.68103488 36.1387843 6.01879883 36.15673828 C-1.52405347 36.01402763 -7.47282041 34.21510393 -14.20483398 30.77392578 C-15.36756836 30.18095703 -16.53030273 29.58798828 -17.72827148 28.97705078 C-28.43634307 23.27913789 -40.0162879 16.1970958 -45.20483398 4.77392578 C-45.89233398 1.02392578 -45.89233398 1.02392578 -45.20483398 -2.22607422 C-34.13298509 -16.46130851 -12.835322 -7.40326088 0 0 Z " fill="#6DD071" transform="translate(486.204833984375,278.22607421875)"/>
<path d="M0 0 C3.40429471 0.65696915 5.16919313 1.26127518 7.53244019 3.79537964 C9.95586148 8.24697042 9.244501 13.79561224 9.19140625 18.72265625 C9.19381821 19.99346542 9.19623016 21.2642746 9.19871521 22.57359314 C9.19773621 25.2583412 9.18693142 27.94085673 9.15942383 30.62524414 C9.12530507 34.06105379 9.13137466 37.49537089 9.1500864 40.93125248 C9.16320939 44.21597382 9.14493992 47.50046718 9.12890625 50.78515625 C9.13386612 52.01750504 9.13882599 53.24985382 9.14393616 54.51954651 C9.12809982 55.66430954 9.11226349 56.80907257 9.09594727 57.98852539 C9.08974869 58.99492569 9.08355011 60.00132599 9.0771637 61.03822327 C8.42246862 64.40832388 7.22050519 65.57826398 4.5625 67.6875 C1.625 68.6875 1.625 68.6875 -1.4375 68.6875 C-4.14828117 67.0610313 -6.00729634 65.93363538 -7.06315613 62.87521362 C-7.49631328 60.34378766 -7.58737637 57.94058949 -7.61450195 55.37158203 C-7.62733719 54.3101297 -7.64017242 53.24867737 -7.65339661 52.15505981 C-7.66078354 51.0133432 -7.66817047 49.87162659 -7.67578125 48.6953125 C-7.683853 47.51661591 -7.69192474 46.33791931 -7.70024109 45.12350464 C-7.71406654 42.63036565 -7.72479557 40.13720786 -7.73266602 37.64404297 C-7.74990298 33.83394604 -7.79380748 30.02471146 -7.83789062 26.21484375 C-7.8480158 23.79167304 -7.85653245 21.36849497 -7.86328125 18.9453125 C-7.88078934 17.80764435 -7.89829742 16.6699762 -7.91633606 15.49783325 C-7.87819036 1.57563807 -7.87819036 1.57563807 0 0 Z " fill="#379B42" transform="translate(341.4375,118.3125)"/>
<path d="M0 0 C0.66257812 0.07992187 1.32515625 0.15984375 2.0078125 0.2421875 C4.79689083 1.56087307 5.50471991 3.4043607 6.875 6.125 C7.26268005 8.81860352 7.26268005 8.81860352 7.27905273 11.75390625 C7.29173691 12.85855225 7.30442108 13.96319824 7.31748962 15.10131836 C7.31455399 16.2847583 7.31161835 17.46819824 7.30859375 18.6875 C7.3138356 19.91154541 7.31907745 21.13559082 7.32447815 22.39672852 C7.33089581 24.9822514 7.32956472 27.5678035 7.32104492 30.15332031 C7.31253108 34.11055397 7.34130945 38.06634626 7.37304688 42.0234375 C7.37465886 44.5364579 7.3740814 47.04948086 7.37109375 49.5625 C7.38232773 50.74593994 7.39356171 51.92937988 7.40513611 53.14868164 C7.33572371 61.32228011 7.33572371 61.32228011 5.02758789 65.34375 C2.207923 67.67700111 0.53634747 68.19972138 -3.125 68.125 C-5.87216387 66.35460551 -7.65645922 65.06208156 -9.125 62.125 C-9.24124665 60.33424145 -9.29463378 58.53925024 -9.31787109 56.74487305 C-9.33393402 55.61997971 -9.34999695 54.49508636 -9.36654663 53.33610535 C-9.41091476 48.18933909 -9.45250102 43.04266199 -9.47509766 37.89575195 C-9.48843211 35.17861221 -9.51627382 32.4622244 -9.55712891 29.74536133 C-9.61594168 25.8341677 -9.63375963 21.92333948 -9.6484375 18.01171875 C-9.67110687 16.79699387 -9.69377625 15.58226898 -9.71713257 14.33073425 C-9.69356373 4.95004645 -9.69356373 4.95004645 -6.72558594 1.84741211 C-4.06939966 0.08817495 -3.09323712 -0.49734401 0 0 Z " fill="#379B43" transform="translate(303.125,118.875)"/>
<path d="M0 0 C3.5 0.875 3.5 0.875 5.19151306 2.57350159 C6.81149522 5.42288913 6.89863417 7.30389442 6.93579102 10.57397461 C6.95493057 11.71873764 6.97407013 12.86350067 6.99378967 14.04295349 C6.99712814 15.27530228 7.00046661 16.50765106 7.00390625 17.77734375 C7.01389145 19.0471962 7.02387665 20.31704865 7.03416443 21.62538147 C7.04935498 24.31136623 7.05768778 26.99644019 7.0559082 29.68237305 C7.05560325 33.11728511 7.09657375 36.55033768 7.14822483 39.98480892 C7.18967925 43.26975047 7.18785261 46.55467612 7.19140625 49.83984375 C7.22374107 51.68533058 7.22374107 51.68533058 7.25672913 53.56809998 C7.19023497 61.83793425 7.19023497 61.83793425 5.22750854 64.78689575 C2.63563867 67.08193796 0.83197433 67.86172103 -2.625 68 C-6.44893428 66.50367789 -7.42362858 65.46531808 -9.5 61.875 C-10.09343163 57.76169894 -10.03622577 53.68080324 -9.99609375 49.53125 C-9.99754898 48.32940063 -9.99900421 47.12755127 -10.00050354 45.88928223 C-9.99884515 43.35080539 -9.98729071 40.81231845 -9.96655273 38.27392578 C-9.93760591 34.38921379 -9.94594492 30.50586714 -9.95898438 26.62109375 C-9.95274665 24.1536392 -9.94435546 21.68618896 -9.93359375 19.21875 C-9.93652939 18.05718384 -9.93946503 16.89561768 -9.94248962 15.69885254 C-9.92980545 14.61422729 -9.91712128 13.52960205 -9.90405273 12.41210938 C-9.89864975 11.46122437 -9.89324677 10.51033936 -9.88768005 9.53063965 C-9.42125576 6.3355956 -8.39489765 4.47289377 -6.5 1.875 C-3.5 -0.125 -3.5 -0.125 0 0 Z " fill="#379B42" transform="translate(425.5,119.125)"/>
<path d="M0 0 C2.57467599 1.6521035 3.56998944 2.39003287 5 5 C5.76429865 9.41219617 5.70018066 13.78533511 5.6640625 18.25390625 C5.66884613 19.54691147 5.67362976 20.83991669 5.67855835 22.17210388 C5.68591347 24.90337119 5.67526877 27.63381856 5.65185547 30.36499023 C5.62333729 33.86152262 5.63979525 37.3561386 5.66971779 40.85260105 C5.69215117 44.19485568 5.67643694 47.5365972 5.6640625 50.87890625 C5.67418365 52.13312881 5.68430481 53.38735138 5.69473267 54.67958069 C5.67897186 55.84436447 5.66321106 57.00914825 5.64697266 58.20922852 C5.64299469 59.23339371 5.63901672 60.2575589 5.63491821 61.3127594 C5 64 5 64 2.68612671 66.36192322 C0 68 0 68 -3.625 68 C-7 67 -7 67 -8.875 65.1875 C-10.79868239 61.44700646 -11.12721807 58.11933777 -11.14526367 53.94360352 C-11.15164352 52.93898575 -11.15802338 51.93436798 -11.16459656 50.89930725 C-11.16570938 49.82007492 -11.1668222 48.74084259 -11.16796875 47.62890625 C-11.17129715 46.51442612 -11.17462555 45.39994598 -11.17805481 44.25169373 C-11.1831156 41.89558322 -11.1854634 39.53946555 -11.18530273 37.18334961 C-11.1874895 33.57979531 -11.20565524 29.97654702 -11.22460938 26.37304688 C-11.2275434 24.08333438 -11.22952814 21.79362043 -11.23046875 19.50390625 C-11.23765427 18.42669815 -11.24483978 17.34949005 -11.25224304 16.23963928 C-11.2476281 14.72798439 -11.2476281 14.72798439 -11.24291992 13.18579102 C-11.24505745 11.86152855 -11.24505745 11.86152855 -11.24723816 10.51051331 C-10.89732908 6.95745581 -9.77158795 4.11880253 -7.75 1.1875 C-5.00877891 -0.67261431 -3.2320262 -0.51712419 0 0 Z " fill="#389B43" transform="translate(264,119)"/>
<path d="M0 0 C3.75129642 0.68901363 5.41696924 1.84138265 8.0625 4.5625 C9.12722026 7.64313176 9.19951113 10.56091628 9.22363281 13.80249023 C9.23324036 14.84714951 9.2428479 15.89180878 9.25274658 16.96812439 C9.25699646 18.09110428 9.26124634 19.21408417 9.265625 20.37109375 C9.27132507 21.52996597 9.27702515 22.6888382 9.28289795 23.88282776 C9.29234047 26.33309009 9.29887896 28.78336508 9.30273438 31.23364258 C9.31245374 34.98215808 9.3434906 38.73012845 9.375 42.47851562 C9.3815289 44.85937174 9.38677982 47.24023178 9.390625 49.62109375 C9.4029718 50.74204941 9.4153186 51.86300507 9.42803955 53.01792908 C9.42503845 54.06574051 9.42203735 55.11355194 9.41894531 56.19311523 C9.42259094 57.11148666 9.42623657 58.02985809 9.42999268 58.97605896 C8.98428873 62.11295677 7.88372552 63.99282683 6.0625 66.5625 C3.63474263 68.3428554 2.51273309 68.59544388 -0.5 68.375 C-3.12503304 67.49998899 -4.22681337 66.70085829 -5.9375 64.5625 C-7.23017002 61.97715996 -7.08580288 60.07751472 -7.11450195 57.18237305 C-7.12733719 56.05747971 -7.14017242 54.93258636 -7.15339661 53.77360535 C-7.16078354 52.55280777 -7.16817047 51.33201019 -7.17578125 50.07421875 C-7.183853 48.82373245 -7.19192474 47.57324615 -7.20024109 46.28486633 C-7.21409195 43.63429042 -7.22510536 40.98383931 -7.23266602 38.33325195 C-7.24372212 34.94359251 -7.2781122 31.55459108 -7.31783772 28.16516399 C-7.35032306 24.9265809 -7.35478463 21.68793995 -7.36328125 18.44921875 C-7.38078934 17.23449387 -7.39829742 16.01976898 -7.41633606 14.76823425 C-7.41341049 13.63388443 -7.41048492 12.49953461 -7.4074707 11.33081055 C-7.41333694 10.33534714 -7.41920319 9.33988373 -7.42524719 8.31425476 C-6.61945165 3.76814611 -4.59323791 0.8795562 0 0 Z " fill="#379A42" transform="translate(382.9375,118.4375)"/>
<path d="M0 0 C0 0.66 0 1.32 0 2 C-0.54785156 2.1959375 -1.09570312 2.391875 -1.66015625 2.59375 C-16.19026944 8.07502847 -27.74697854 15.3953996 -39 26 C-39.515625 26.48388184 -40.03125 26.96776367 -40.5625 27.46630859 C-46.32492466 32.52476412 -46.32492466 32.52476412 -50 39 C-51.010625 39.763125 -52.02125 40.52625 -53.0625 41.3125 C-56.82613804 44.39042345 -59.01411519 47.94763656 -61.375 52.125 C-61.72054932 52.73512939 -62.06609863 53.34525879 -62.42211914 53.97387695 C-64.03644418 56.92358265 -65.42020665 59.67032959 -66 63 C-66.66 63 -67.32 63 -68 63 C-68.29003906 63.97839844 -68.29003906 63.97839844 -68.5859375 64.9765625 C-70.83292383 72.51842752 -70.83292383 72.51842752 -72.0625 76.0625 C-73.31648004 79.99163746 -74.16836203 83.96627298 -75 88 C-75.26167969 89.15628906 -75.52335937 90.31257813 -75.79296875 91.50390625 C-77.5019047 99.38983973 -78.23769145 106.8294877 -78.08251953 114.89575195 C-77.9623377 121.15803548 -78.1769719 127.37043458 -78.5 133.625 C-78.54785645 134.55658936 -78.59571289 135.48817871 -78.64501953 136.44799805 C-78.75985759 138.63218492 -78.87939147 140.81612416 -79 143 C-79.33 143 -79.66 143 -80 143 C-80.10299017 136.63621148 -80.17211704 130.2726442 -80.21972656 123.90820312 C-80.23961246 121.75154594 -80.26673096 119.59494098 -80.30175781 117.43847656 C-80.78885255 86.63689738 -72.79257456 61.58236948 -54 37 C-53.42636719 36.4328125 -52.85273438 35.865625 -52.26171875 35.28125 C-50.72496891 33.90879166 -50.72496891 33.90879166 -50 31 C-48.57421875 29.52734375 -48.57421875 29.52734375 -46.6875 27.9375 C-45.96304688 27.32648438 -45.23859375 26.71546875 -44.4921875 26.0859375 C-43.66976562 25.39757812 -42.84734375 24.70921875 -42 24 C-40.64261719 22.81277344 -40.64261719 22.81277344 -39.2578125 21.6015625 C-29.09550409 12.8409518 -13.96853806 0 0 0 Z " fill="#45A448" transform="translate(202,249)"/>
<path d="M0 0 C1.53888382 0.03330917 1.53888382 0.03330917 3.1088562 0.06729126 C4.85043503 0.09754898 4.85043503 0.09754898 6.62719727 0.12841797 C8.51473221 0.17671249 8.51473221 0.17671249 10.44039917 0.22598267 C11.72493988 0.25100861 13.00948059 0.27603455 14.33294678 0.30181885 C17.74937184 0.36849376 21.16541068 0.44738064 24.58151245 0.52877808 C28.06687588 0.60967528 31.55246599 0.67906953 35.03805542 0.74942017 C41.87816592 0.88917814 48.71793732 1.04183329 55.55758667 1.20254517 C55.55758667 1.53254517 55.55758667 1.86254517 55.55758667 2.20254517 C54.64343491 2.21800636 54.64343491 2.21800636 53.71081543 2.23377991 C47.38456202 2.34171469 41.05845482 2.45632304 34.73239136 2.57485962 C32.36946666 2.61825033 30.00650976 2.65992229 27.64352417 2.69985962 C24.25280031 2.7574621 20.86223917 2.82118527 17.47164917 2.88613892 C15.87941025 2.91120766 15.87941025 2.91120766 14.25500488 2.93678284 C13.2741391 2.95672806 12.29327332 2.97667328 11.28268433 2.9972229 C10.41664581 3.01276718 9.5506073 3.02831146 8.6583252 3.04432678 C6.50000774 3.07351109 6.50000774 3.07351109 4.55758667 4.20254517 C2.57758667 4.20254517 0.59758667 4.20254517 -1.44241333 4.20254517 C-1.44241333 27.96254517 -1.44241333 51.72254517 -1.44241333 76.20254517 C-2.10241333 75.87254517 -2.76241333 75.54254517 -3.44241333 75.20254517 C-3.61923283 65.7192484 -3.78519806 56.23584269 -3.9371891 46.75211525 C-4.00810324 42.34875797 -4.0827988 37.94553167 -4.16604614 33.54238892 C-4.24620038 29.29556782 -4.31653936 25.04868858 -4.37998581 20.80158615 C-4.40597118 19.1787654 -4.43553305 17.55599797 -4.46867752 15.93330765 C-4.51438972 13.66583005 -4.54754497 11.39849845 -4.57766724 9.13076782 C-4.61097641 7.19217392 -4.61097641 7.19217392 -4.6449585 5.2144165 C-4.39381548 1.47988919 -3.82812136 0.31745957 0 0 Z " fill="#43A146" transform="translate(124.44241333007813,699.7974548339844)"/>
<path d="M0 0 C-1.66754542 1.11169695 -3.34382698 2.21153546 -5.05078125 3.26171875 C-13.82158127 8.70483929 -13.82158127 8.70483929 -18.66577148 17.46142578 C-20.34103157 28.21003823 -20.44873015 38.95446063 -20.625 49.8125 C-20.66326906 51.77670833 -20.70232564 53.74090148 -20.7421875 55.70507812 C-20.83719753 60.46992586 -20.92157446 65.23485163 -21 70 C-23.50447577 66.24328635 -23.2444445 64.25012821 -23.23046875 59.76171875 C-23.23001053 59.0445015 -23.22955231 58.32728424 -23.2290802 57.58833313 C-23.22605779 56.06432449 -23.21817176 54.54031893 -23.20581055 53.01635742 C-23.18786635 50.73409484 -23.18529898 48.45224676 -23.18554688 46.16992188 C-23.1163124 16.08426339 -23.1163124 16.08426339 -15.6875 7.25 C-14.800625 6.5075 -13.91375 5.765 -13 5 C-12.45085937 4.53464844 -11.90171875 4.06929688 -11.3359375 3.58984375 C-7.50310401 0.55903489 -5.05635901 -0.61662915 0 0 Z " fill="#43A346" transform="translate(244,103)"/>
<path d="M0 0 C0.33 0 0.66 0 1 0 C1.20753906 1.17433594 1.41507812 2.34867188 1.62890625 3.55859375 C4.77060854 20.34712022 10.02542664 35.57594446 20.703125 49.16796875 C22 51 22 51 22 53 C22.598125 53.268125 23.19625 53.53625 23.8125 53.8125 C25.99847854 54.99917406 27.41332594 56.09599113 29 58 C29 58.66 29 59.32 29 60 C17.0413613 54.89406438 9.82294039 39.03070575 5.13671875 27.58984375 C2.22611099 20.12747839 -0.16013639 13.29132047 -0.0625 5.1875 C-0.05347656 4.21167969 -0.04445313 3.23585938 -0.03515625 2.23046875 C-0.02355469 1.49441406 -0.01195313 0.75835938 0 0 Z " fill="#419F44" transform="translate(123,788)"/>
<path d="M0 0 C0 0.99 0 1.98 0 3 C-4.9296024 3.02471455 -9.85916874 3.04286691 -14.78881836 3.05493164 C-16.46590808 3.05996113 -18.14299342 3.06678548 -19.82006836 3.07543945 C-22.230317 3.08756559 -24.64050768 3.09324215 -27.05078125 3.09765625 C-27.80087967 3.10281754 -28.55097809 3.10797882 -29.32380676 3.11329651 C-32.48951232 3.11363785 -34.97337972 3.00887343 -38 2 C-40.39254576 1.77439324 -42.78928123 1.59151405 -45.1875 1.4375 C-46.45980469 1.35371094 -47.73210938 1.26992188 -49.04296875 1.18359375 C-50.01878906 1.12300781 -50.99460937 1.06242188 -52 1 C-52 0.67 -52 0.34 -52 0 C-34.58431662 -0.81627339 -17.41199869 -1.13539722 0 0 Z " fill="#45B14D" transform="translate(561,701)"/>
<path d="M0 0 C-1.44560711 3.3292629 -3.25396672 5.47741397 -5.84375 8.00390625 C-6.59527344 8.74447266 -7.34679687 9.48503906 -8.12109375 10.24804688 C-8.90613281 11.01181641 -9.69117188 11.77558594 -10.5 12.5625 C-12.05431338 14.08235816 -13.60649288 15.60440247 -15.15625 17.12890625 C-15.84525391 17.79994385 -16.53425781 18.47098145 -17.24414062 19.16235352 C-19.18016411 21.0820133 -19.18016411 21.0820133 -21 24 C-21.66 24 -22.32 24 -23 24 C-23.309375 25.051875 -23.309375 25.051875 -23.625 26.125 C-25.3834378 29.80173359 -27.80428141 32.47295079 -31 35 C-31.66 35 -32.32 35 -33 35 C-33.268125 35.598125 -33.53625 36.19625 -33.8125 36.8125 C-34.98493467 38.97224808 -36.19369282 40.35790256 -38 42 C-38.66 41.67 -39.32 41.34 -40 41 C-32.49365184 32.28956186 -24.82407033 23.69855109 -16.61328125 15.64453125 C-14.80829948 13.80458616 -13.12295552 11.8873407 -11.4375 9.9375 C-2.83662281 0 -2.83662281 0 0 0 Z " fill="#41A243" transform="translate(377,512)"/>
<path d="M0 0 C-1.24441309 3.73323926 -2.72687968 4.59860164 -5.8125 7 C-10.21690008 10.51543859 -14.46857304 14.1320098 -18.625 17.9375 C-19.14553955 18.40994141 -19.6660791 18.88238281 -20.20239258 19.36914062 C-22.97660884 21.88706795 -22.97660884 21.88706795 -25 25 C-25.721875 25.4125 -26.44375 25.825 -27.1875 26.25 C-29.6444873 27.7787921 -31.21322095 29.13095932 -33.1875 31.1875 C-34.115625 32.115625 -35.04375 33.04375 -36 34 C-36.66 34 -37.32 34 -38 34 C-38.33 34.99 -38.66 35.98 -39 37 C-40.485 37.495 -40.485 37.495 -42 38 C-40.55922954 34.63820226 -38.75249979 32.40843732 -36 30 C-35.34 30 -34.68 30 -34 30 C-33.64228516 29.13955078 -33.64228516 29.13955078 -33.27734375 28.26171875 C-31.72949074 25.52102489 -29.92690978 23.88939755 -27.5625 21.8125 C-26.66789062 21.02617188 -25.77328125 20.23984375 -24.8515625 19.4296875 C-21.17771166 16.29936528 -17.44378871 13.24939203 -13.6875 10.21875 C-10.2774567 7.40348169 -7.01867876 4.44047414 -3.77734375 1.43359375 C-2 0 -2 0 0 0 Z " fill="#41A244" transform="translate(327,534)"/>
<path d="M0 0 C13.53 0 27.06 0 41 0 C41.495 1.485 41.495 1.485 42 3 C25.83 3 9.66 3 -7 3 C-7 2.67 -7 2.34 -7 2 C-4.69 2 -2.38 2 0 2 C0 1.34 0 0.68 0 0 Z " fill="#47AE4B" transform="translate(335,700)"/>
<path d="M0 0 C1.04150711 -0.00315216 2.08301422 -0.00630432 3.15608215 -0.009552 C4.84358833 -0.00651566 4.84358833 -0.00651566 6.56518555 -0.00341797 C7.72310104 -0.00437469 8.88101654 -0.00533142 10.07402039 -0.00631714 C12.52607274 -0.00699818 14.97812689 -0.00514917 17.43017578 -0.00097656 C21.17639241 0.0043582 24.92248835 -0.00091664 28.66870117 -0.00732422 C31.05086289 -0.00666314 33.43302454 -0.00538136 35.81518555 -0.00341797 C37.49358269 -0.00645432 37.49358269 -0.00645432 39.20588684 -0.009552 C44.20687739 0.0054475 48.97776692 0.05382231 53.8894043 1.12939453 C50.60038887 3.08775072 48.12980265 3.38200768 44.32641602 3.38818359 C43.21201141 3.39448792 42.09760681 3.40079224 40.94943237 3.4072876 C39.15241379 3.4012149 39.15241379 3.4012149 37.3190918 3.39501953 C36.08651642 3.39693298 34.85394104 3.39884644 33.58401489 3.40081787 C30.3132216 3.4025269 27.04261861 3.39448085 23.77185059 3.38330078 C21.76328507 3.37939235 19.75489385 3.38329451 17.74633789 3.39013672 C13.89550602 3.40245029 10.04493423 3.40100688 6.1940918 3.39501953 C4.99203094 3.39906799 3.78997009 3.40311646 2.55148315 3.4072876 C0.88933273 3.39783112 0.88933273 3.39783112 -0.80639648 3.38818359 C-2.2738884 3.38579681 -2.2738884 3.38579681 -3.77102661 3.38336182 C-6.1105957 3.12939453 -6.1105957 3.12939453 -8.1105957 1.12939453 C-5.113628 0.1304053 -3.13000806 0.00271626 0 0 Z " fill="#48AD4B" transform="translate(386.110595703125,699.87060546875)"/>
<path d="M0 0 C0.33 0 0.66 0 1 0 C1.78174011 18.4332655 2.44381776 36.59132362 1 55 C0.67 55 0.34 55 0 55 C-1.60923283 36.67950315 -0.65774621 18.34679384 0 0 Z " fill="#4DAE50" transform="translate(438,455)"/>
<path d="M0 0 C5.10046073 1.56861365 8.65888877 4.70659263 12.6875 8.0625 C13.39938477 8.6488623 14.11126953 9.23522461 14.84472656 9.83935547 C20.36728488 14.4130766 25.73703182 19.12966595 31 24 C32.09058517 24.99931013 33.18176768 25.99796863 34.2734375 26.99609375 C37.1860728 29.65996605 40.09410693 32.32877527 43 35 C42.505 35.99 42.505 35.99 42 37 C41.55309814 36.57291748 41.10619629 36.14583496 40.64575195 35.70581055 C28.33060903 23.96126557 15.94363947 12.69511693 2.16796875 2.6796875 C1.45253906 2.12539063 0.73710938 1.57109375 0 1 C0 0.67 0 0.34 0 0 Z " fill="#F37D25" transform="translate(634,407)"/>
<path d="M0 0 C0.65484375 0.43570313 1.3096875 0.87140625 1.984375 1.3203125 C12.49645763 8.17989184 22.96822515 13.3734012 35 17 C35 17.33 35 17.66 35 18 C22.34515296 17.56362596 10.29595489 11.46563659 1 3 C0.67 2.01 0.34 1.02 0 0 Z " fill="#42A245" transform="translate(155,850)"/>
<path d="M0 0 C1.32 0.33 2.64 0.66 4 1 C-5.51245447 7.68442747 -18.19997424 15.26333376 -30.25 15.0625 C-32.10625 15.0315625 -32.10625 15.0315625 -34 15 C-34 14.67 -34 14.34 -34 14 C-29.71 13.34 -25.42 12.68 -21 12 C-21 11.34 -21 10.68 -21 10 C-19.67935547 9.63648438 -19.67935547 9.63648438 -18.33203125 9.265625 C-17.17058594 8.93046875 -16.00914062 8.5953125 -14.8125 8.25 C-13.66394531 7.92515625 -12.51539063 7.6003125 -11.33203125 7.265625 C-7.90592719 5.96426777 -5.80435606 4.30548097 -3 2 C-2.01 2 -1.02 2 0 2 C0 1.34 0 0.68 0 0 Z " fill="#4DAB4B" transform="translate(521,854)"/>
<path d="M0 0 C3.96 1.98 7.92 3.96 12 6 C11.01 6.495 11.01 6.495 10 7 C8.0546875 6.22265625 8.0546875 6.22265625 5.875 5.0625 C5.15054688 4.68222656 4.42609375 4.30195312 3.6796875 3.91015625 C3.12539063 3.60980469 2.57109375 3.30945313 2 3 C1.91910458 5.77141717 1.85955938 8.54047819 1.8125 11.3125 C1.78736328 12.09818359 1.76222656 12.88386719 1.73632812 13.69335938 C1.72666016 14.45068359 1.71699219 15.20800781 1.70703125 15.98828125 C1.6913208 16.68477783 1.67561035 17.38127441 1.65942383 18.09887695 C2.09761557 20.54489783 3.13437358 21.42702086 5 23 C2.525 22.01 2.525 22.01 0 21 C0 14.07 0 7.14 0 0 Z " fill="#3F271A" transform="translate(561,553)"/>
<path d="M0 0 C0.33 0 0.66 0 1 0 C2.5912689 4.873261 3.21192221 8.80790596 3 14 C3.99 14 4.98 14 6 14 C6.66 12.68 7.32 11.36 8 10 C8 13.34419152 7.52480606 14.06840321 5.625 16.6875 C5.18414062 17.31011719 4.74328125 17.93273437 4.2890625 18.57421875 C3.65097656 19.27998047 3.65097656 19.27998047 3 20 C2.34 20 1.68 20 1 20 C-0.23839599 13.34362157 -0.09139136 6.7528064 0 0 Z " fill="#42A144" transform="translate(246,594)"/>
<path d="M0 0 C-2 2 -2 2 -3.85668945 2.24291992 C-4.97370239 2.23675659 -4.97370239 2.23675659 -6.11328125 2.23046875 C-6.94375977 2.22917969 -7.77423828 2.22789062 -8.62988281 2.2265625 C-9.51514648 2.21367188 -10.40041016 2.20078125 -11.3125 2.1875 C-12.20936523 2.18105469 -13.10623047 2.17460938 -14.03027344 2.16796875 C-21.05332978 2.08738868 -28.01079806 1.71422502 -35 1 C-35 0.67 -35 0.34 -35 0 C-23.28905831 -1.43624757 -11.74034161 -0.69711736 0 0 Z " fill="#45AB49" transform="translate(248,701)"/>
<path d="M0 0 C-0.33 0.66 -0.66 1.32 -1 2 C-2.10408203 1.98259766 -2.10408203 1.98259766 -3.23046875 1.96484375 C-4.69419922 1.95130859 -4.69419922 1.95130859 -6.1875 1.9375 C-7.15042969 1.92589844 -8.11335938 1.91429687 -9.10546875 1.90234375 C-11.86669485 1.99550253 -14.30038252 2.45324203 -17 3 C-18.76977761 3.06459042 -20.54170152 3.08611065 -22.3125 3.0625 C-23.19550781 3.05347656 -24.07851562 3.04445312 -24.98828125 3.03515625 C-25.65214844 3.02355469 -26.31601563 3.01195312 -27 3 C-26.67 2.34 -26.34 1.68 -26 1 C-23.12471445 0.48837271 -20.33620776 0.10856754 -17.4375 -0.1875 C-16.25704102 -0.32961914 -16.25704102 -0.32961914 -15.05273438 -0.47460938 C-9.82235581 -1.03947301 -5.19377152 -0.83885657 0 0 Z " fill="#46A84A" transform="translate(249,241)"/>
<path d="M0 0 C0.66 0.33 1.32 0.66 2 1 C1.27554687 1.90621094 0.55109375 2.81242188 -0.1953125 3.74609375 C-5.04261656 9.84439608 -9.80141127 15.8687721 -13.87890625 22.5234375 C-14.43384766 23.25433594 -14.43384766 23.25433594 -15 24 C-15.66 24 -16.32 24 -17 24 C-15.73593712 20.52117466 -14.2950896 17.78647463 -12.03125 14.86328125 C-11.46019531 14.12142578 -10.88914062 13.37957031 -10.30078125 12.61523438 C-9.70652344 11.85533203 -9.11226563 11.09542969 -8.5 10.3125 C-7.90574219 9.54099609 -7.31148438 8.76949219 -6.69921875 7.97460938 C-2.33629947 2.33629947 -2.33629947 2.33629947 0 0 Z " fill="#3FA041" transform="translate(311,584)"/>
<path d="M0 0 C1 3 1 3 -0.625 6.4765625 C-1.40407466 7.86650825 -2.19654546 9.24900315 -3 10.625 C-3.40919678 11.33978516 -3.81839355 12.05457031 -4.23999023 12.79101562 C-7.40207868 18.21419706 -10.89061084 23.24315081 -15 28 C-15.33 27.34 -15.66 26.68 -16 26 C-15.26394531 24.96101562 -14.52789062 23.92203125 -13.76953125 22.8515625 C-8.59956689 15.48584332 -3.60719243 8.29056381 0 0 Z " fill="#43A244" transform="translate(421,572)"/>
<path d="M0 0 C7.00122607 6.17022001 11.05268479 18.08263929 13 27 C12.59765625 29.34375 12.59765625 29.34375 12 31 C11.76925781 30.34515625 11.53851562 29.6903125 11.30078125 29.015625 C8.31771536 20.66775681 5.25752151 12.26546622 1.1875 4.375 C0 2 0 2 0 0 Z " fill="#55AC4B" transform="translate(544,304)"/>
<path d="M0 0 C0.886875 0.78375 1.77375 1.5675 2.6875 2.375 C2.6875 3.695 2.6875 5.015 2.6875 6.375 C0.6875 5.375 0.6875 5.375 -0.3125 2.375 C-4.98940588 1.65547602 -7.28066926 2.80601273 -11 5.4375 C-11.74636719 6.00597656 -12.49273437 6.57445312 -13.26171875 7.16015625 C-13.93847656 7.56105469 -14.61523438 7.96195312 -15.3125 8.375 C-16.3025 8.045 -17.2925 7.715 -18.3125 7.375 C-16.75460317 6.24363414 -15.19096143 5.12017679 -13.625 4 C-12.75488281 3.37351562 -11.88476562 2.74703125 -10.98828125 2.1015625 C-4.39213915 -2.1546343 -4.39213915 -2.1546343 0 0 Z " fill="#42A244" transform="translate(378.3125,499.625)"/>
<path d="M0 0 C0 0.66 0 1.32 0 2 C-6.43028541 3.32388229 -12.4294834 4.24794402 -19 4 C-19.33 3.34 -19.66 2.68 -20 2 C-17.41703099 1.66361334 -14.83368737 1.3307835 -12.25 1 C-11.15558594 0.85691406 -11.15558594 0.85691406 -10.0390625 0.7109375 C-6.65143196 0.27978452 -3.42145141 0 0 0 Z " fill="#EB601B" transform="translate(711,854)"/>
<path d="M0 0 C0 0.66 0 1.32 0 2 C-4.87442504 4.26269607 -9.79814445 6.37819887 -14.8125 8.3125 C-16.15248047 8.83263672 -16.15248047 8.83263672 -17.51953125 9.36328125 C-20.20731075 10.0532152 -21.39857909 9.76111441 -24 9 C-23.47567383 8.79842285 -22.95134766 8.5968457 -22.41113281 8.38916016 C-20.02329252 7.4698258 -17.63664066 6.54744394 -15.25 5.625 C-14.425 5.30789063 -13.6 4.99078125 -12.75 4.6640625 C-11.95078125 4.3546875 -11.1515625 4.0453125 -10.328125 3.7265625 C-9.22839355 3.30238037 -9.22839355 3.30238037 -8.10644531 2.86962891 C-5.96548494 2.02069447 -5.96548494 2.02069447 -3.85449219 0.89208984 C-2 0 -2 0 0 0 Z " fill="#F07C24" transform="translate(742,606)"/>
<path d="M0 0 C0.33 0.66 0.66 1.32 1 2 C0.19555664 3.97119141 0.19555664 3.97119141 -1.08984375 6.3515625 C-1.54423828 7.20234375 -1.99863281 8.053125 -2.46679688 8.9296875 C-2.95212891 9.81914063 -3.43746094 10.70859375 -3.9375 11.625 C-4.41896484 12.5221875 -4.90042969 13.419375 -5.39648438 14.34375 C-6.59058716 16.56643636 -7.79199381 18.78484826 -9 21 C-10.17774394 17.5094992 -10.02718714 17.06189269 -8.41796875 13.3984375 C-7.6869317 12.05046356 -6.94292632 10.70945868 -6.1875 9.375 C-5.81818359 8.694375 -5.44886719 8.01375 -5.06835938 7.3125 C-3.56825597 4.58699794 -2.21029611 2.21029611 0 0 Z " fill="#409F43" transform="translate(263,513)"/>
<path d="M0 0 C-0.33 0.33 -0.66 0.66 -1 1 C1.97 1.495 1.97 1.495 5 2 C5 2.33 5 2.66 5 3 C-1.93 2.67 -8.86 2.34 -16 2 C-13.04655319 0.03103546 -11.94214163 -0.33984715 -8.5625 -0.6875 C-7.41974609 -0.81705078 -7.41974609 -0.81705078 -6.25390625 -0.94921875 C-3.96788208 -1.00072363 -2.17903015 -0.66016176 0 0 Z " fill="#E25D1C" transform="translate(664,857)"/>
<path d="M0 0 C3.45826342 -0.05789006 6.91640293 -0.09355821 10.375 -0.125 C11.35984375 -0.14175781 12.3446875 -0.15851563 13.359375 -0.17578125 C14.77089844 -0.18544922 14.77089844 -0.18544922 16.2109375 -0.1953125 C17.51490479 -0.21102295 17.51490479 -0.21102295 18.84521484 -0.22705078 C21 0 21 0 23 2 C19.23662261 3.05844989 16.11712791 2.89069092 12.26953125 2.32421875 C9.68465503 1.95495072 7.09867011 1.69111844 4.5 1.4375 C3.6440625 1.35371094 2.788125 1.26992187 1.90625 1.18359375 C1.2771875 1.12300781 0.648125 1.06242188 0 1 C0 0.67 0 0.34 0 0 Z " fill="#4CAF4C" transform="translate(430,241)"/>
<path d="M0 0 C-5.78987645 3.85991763 -11.06746106 5.43328368 -18 5 C-14.02877632 -0.46043255 -6.12381866 -0.25515911 0 0 Z " fill="#43A345" transform="translate(221,244)"/>
<path d="M0 0 C-2.35371114 0.1968999 -4.7074695 0.38270974 -7.0625 0.5625 C-9.02896484 0.71912109 -9.02896484 0.71912109 -11.03515625 0.87890625 C-14.92325897 0.99765619 -18.19110223 0.66866216 -22 0 C-22 -0.33 -22 -0.66 -22 -1 C-5.45438228 -3.10103082 -5.45438228 -3.10103082 0 0 Z " fill="#4AAC4B" transform="translate(463,702)"/>
<path d="M0 0 C0.99 0.66 1.98 1.32 3 2 C0.69 5.63 -1.62 9.26 -4 13 C-4.66 12.67 -5.32 12.34 -6 12 C-4.79618552 9.50638429 -3.54571278 7.31856917 -2 5 C-1.34 5 -0.68 5 0 5 C-0.33 4.01 -0.66 3.02 -1 2 C-0.67 1.34 -0.34 0.68 0 0 Z " fill="#EB661E" transform="translate(878,735)"/>
<path d="M0 0 C0.99 0.33 1.98 0.66 3 1 C1.75160427 2.41808059 0.50120779 3.83439995 -0.75 5.25 C-1.79414063 6.43335938 -1.79414063 6.43335938 -2.859375 7.640625 C-4.84586916 9.83011856 -6.89101308 11.92901285 -9 14 C-8.41827275 10.0479482 -6.44842259 7.77904947 -3.9375 4.75 C-3.20402344 3.85796875 -2.47054688 2.9659375 -1.71484375 2.046875 C-1.14894531 1.37140625 -0.58304687 0.6959375 0 0 Z " fill="#3F9E42" transform="translate(275,497)"/>
<path d="M0 0 C3.96 1.98 3.96 1.98 8 4 C7.01 4.66 6.02 5.32 5 6 C5.350625 6.598125 5.70125 7.19625 6.0625 7.8125 C7 10 7 10 6 13 C4.99491199 11.21118264 3.99607264 9.41885304 3 7.625 C2.1646875 6.12839844 2.1646875 6.12839844 1.3125 4.6015625 C0 2 0 2 0 0 Z " fill="#E16E20" transform="translate(786,392)"/>
<path d="M0 0 C-1.47721422 3.45201639 -3.43794001 5.64961936 -6.125 8.25 C-6.84945313 8.95640625 -7.57390625 9.6628125 -8.3203125 10.390625 C-8.87460937 10.92171875 -9.42890625 11.4528125 -10 12 C-10 8.07290865 -8.72099538 7.1810287 -6.125 4.3125 C-5.04605469 3.10013672 -5.04605469 3.10013672 -3.9453125 1.86328125 C-2 0 -2 0 0 0 Z " fill="#3F9F41" transform="translate(275,582)"/>
<path d="M0 0 C0.33 0 0.66 0 1 0 C1.21824777 6.0018137 0.5056904 11.19233704 -1 17 C-1.33 17 -1.66 17 -2 17 C-2.3690205 5.47835991 -2.3690205 5.47835991 0 0 Z " fill="#3D9B3F" transform="translate(248,548)"/>
<path d="M0 0 C2.475 0.99 2.475 0.99 5 2 C5 2.66 5 3.32 5 4 C6.423125 4.185625 6.423125 4.185625 7.875 4.375 C11 5 11 5 13 7 C7.55432314 5.97137215 2.88182883 4.75385216 -2 2 C-1.34 1.34 -0.68 0.68 0 0 Z " fill="#372017" transform="translate(563,390)"/>
<path d="M0 0 C0.99 0.33 1.98 0.66 3 1 C1.42040347 2.29623379 -0.16383413 3.58681327 -1.75 4.875 C-2.63171875 5.59429687 -3.5134375 6.31359375 -4.421875 7.0546875 C-6.58176924 8.68442588 -8.539766 9.90784005 -11 11 C-4.27521008 2.77310924 -4.27521008 2.77310924 0 0 Z " fill="#3F9B40" transform="translate(289,485)"/>
<path d="M0 0 C0.66 0.99 1.32 1.98 2 3 C-0.12849611 7.25699221 -4.16159839 10.29890257 -8 13 C-6.53181332 9.89257577 -4.79975 7.09528261 -2.875 4.25 C-2.33617187 3.45078125 -1.79734375 2.6515625 -1.2421875 1.828125 C-0.62730469 0.92320312 -0.62730469 0.92320312 0 0 Z " fill="#372119" transform="translate(782,547)"/>
<path d="M0 0 C0.84755859 0.04833984 1.69511719 0.09667969 2.56835938 0.14648438 C3.44943359 0.20255859 4.33050781 0.25863281 5.23828125 0.31640625 C6.13095703 0.36861328 7.02363281 0.42082031 7.94335938 0.47460938 C10.14619685 0.60418805 12.34856998 0.73914871 14.55078125 0.87890625 C14.55078125 1.20890625 14.55078125 1.53890625 14.55078125 1.87890625 C11.26004463 2.10422597 7.96828706 2.30626607 4.67578125 2.50390625 C3.27005859 2.60058594 3.27005859 2.60058594 1.8359375 2.69921875 C0.49208984 2.7765625 0.49208984 2.7765625 -0.87890625 2.85546875 C-1.70632324 2.90783691 -2.53374023 2.96020508 -3.38623047 3.01416016 C-5.44921875 2.87890625 -5.44921875 2.87890625 -7.44921875 0.87890625 C-4.52252184 -0.09665939 -3.00860554 -0.18172785 0 0 Z " fill="#42A645" transform="translate(385.44921875,700.12109375)"/>
<path d="M0 0 C0.99 0 1.98 0 3 0 C1.68775452 3.93673644 0.08089673 6.22719294 -3 9 C-2.01 6.03 -1.02 3.06 0 0 Z " fill="#5BAE4B" transform="translate(545,828)"/>
<path d="M0 0 C1.98 0 3.96 0 6 0 C6.33 0.99 6.66 1.98 7 3 C3.04 3 -0.92 3 -5 3 C-5 2.67 -5 2.34 -5 2 C-3.35 2 -1.7 2 0 2 C0 1.34 0 0.68 0 0 Z " fill="#49B14D" transform="translate(320,700)"/>
<path d="M0 0 C-3.03525486 2.02350324 -4.19426202 2.32124018 -7.6875 2.625 C-8.49574219 2.69976562 -9.30398438 2.77453125 -10.13671875 2.8515625 C-10.75160156 2.90054687 -11.36648438 2.94953125 -12 3 C-11 1 -11 1 -9.375 0.375 C-6.2339425 -0.12095645 -3.17398169 -0.06103811 0 0 Z " fill="#3F9E41" transform="translate(349,460)"/>
<path d="M0 0 C0.53625 0.226875 1.0725 0.45375 1.625 0.6875 C-3.79038462 3.76442308 -3.79038462 3.76442308 -6.75 3.375 C-7.554375 3.0346875 -7.554375 3.0346875 -8.375 2.6875 C-2.95961538 -0.38942308 -2.95961538 -0.38942308 0 0 Z " fill="#42A244" transform="translate(325.375,466.3125)"/>
<path d="M0 0 C0.33 0.66 0.66 1.32 1 2 C-0.65 4.31 -2.3 6.62 -4 9 C-4.33 8.01 -4.66 7.02 -5 6 C-3.59554165 3.7363436 -1.8032087 1.9791315 0 0 Z " fill="#41A140" transform="translate(287,616)"/>
<path d="M0 0 C0.66 0.33 1.32 0.66 2 1 C1.34 2.32 0.68 3.64 0 5 C-1.98 4.34 -3.96 3.68 -6 3 C-3 1 -3 1 0 0 Z " fill="#EB7525" transform="translate(591,378)"/>
<path d="M0 0 C1.32 0.33 2.64 0.66 4 1 C1.03 3.475 1.03 3.475 -2 6 C-2 3 -2 3 0 0 Z " fill="#4EAC4A" transform="translate(528,848)"/>
<path d="M0 0 C0.33 0.99 0.66 1.98 1 3 C1.66 3.33 2.32 3.66 3 4 C1.02 4.99 -0.96 5.98 -3 7 C-2.625 4.0625 -2.625 4.0625 -2 1 C-1.34 0.67 -0.68 0.34 0 0 Z " fill="#D96222" transform="translate(799,816)"/>
<path d="M0 0 C0 0.99 0 1.98 0 3 C-0.66 3 -1.32 3 -2 3 C-2.66 4.32 -3.32 5.64 -4 7 C-4.99 6.67 -5.98 6.34 -7 6 C-4.69 4.02 -2.38 2.04 0 0 Z " fill="#F77A24" transform="translate(732,763)"/>
<path d="M0 0 C4 1 4 1 4 1 Z " fill="#4FB555" transform="translate(352,456)"/>
<path d="M0 0 C3 1 3 1 3 1 Z " fill="#48A64D" transform="translate(184,869)"/>
<path d="" fill="#4DA850" transform="translate(0,0)"/>
<path d="M0 0 C3 1 3 1 3 1 Z " fill="#56BB58" transform="translate(456,240)"/>
<path d="" fill="#4AA54C" transform="translate(0,0)"/>
<path d="M0 0 C2 1 2 1 2 1 Z " fill="#49A64C" transform="translate(187,870)"/>
<path d="" fill="#46A249" transform="translate(0,0)"/>
<path d="M0 0 C2 1 2 1 2 1 Z " fill="#D8621E" transform="translate(685,860)"/>
<path d="M0 0 C2 1 2 1 2 1 Z " fill="#C1571E" transform="translate(634,859)"/>
<path d="M0 0 C2 1 2 1 2 1 Z " fill="#CE6221" transform="translate(584,847)"/>
<path d="" fill="#48A44A" transform="translate(0,0)"/>
<path d="" fill="#4BB051" transform="translate(0,0)"/>
<path d="" fill="#52B052" transform="translate(0,0)"/>
<path d="" fill="#4DAF51" transform="translate(0,0)"/>
<path d="" fill="#4DB352" transform="translate(0,0)"/>
<path d="M0 0 C2 1 2 1 2 1 Z " fill="#4FB356" transform="translate(305,472)"/>
<path d="" fill="#4FB351" transform="translate(0,0)"/>
<path d="M0 0 C2 1 2 1 2 1 Z " fill="#57B553" transform="translate(432,453)"/>
<path d="M0 0 C2 1 2 1 2 1 Z " fill="#5AC05C" transform="translate(260,401)"/>
<path d="M0 0 C2 1 2 1 2 1 Z " fill="#5ABF5B" transform="translate(244,401)"/>
<path d="" fill="#4CA84F" transform="translate(0,0)"/>
<path d="M0 0 C2 1 2 1 2 1 Z " fill="#57B959" transform="translate(482,248)"/>
<path d="M0 0 C2 1 2 1 2 1 Z " fill="#51B656" transform="translate(224,240)"/>
<path d="M0 0 C2 1 2 1 2 1 Z " fill="#47A44C" transform="translate(233,104)"/>
<path d="M0 0 C2 1 2 1 2 1 Z " fill="#4AAC4F" transform="translate(409,100)"/>
<path d="" fill="#306E2D" transform="translate(0,0)"/>
<path d="" fill="#5BAD51" transform="translate(0,0)"/>
<path d="" fill="#5CAD50" transform="translate(0,0)"/>
<path d="" fill="#C6581E" transform="translate(0,0)"/>
<path d="" fill="#62A64D" transform="translate(0,0)"/>
<path d="" fill="#D45F1F" transform="translate(0,0)"/>
<path d="" fill="#C25B20" transform="translate(0,0)"/>
<path d="" fill="#D9611F" transform="translate(0,0)"/>
<path d="" fill="#C15920" transform="translate(0,0)"/>
<path d="" fill="#6AAA4C" transform="translate(0,0)"/>
<path d="" fill="#DD6621" transform="translate(0,0)"/>
<path d="" fill="#DB6520" transform="translate(0,0)"/>
<path d="" fill="#48A44C" transform="translate(0,0)"/>
<path d="" fill="#779E49" transform="translate(0,0)"/>
<path d="" fill="#DD6824" transform="translate(0,0)"/>
<path d="" fill="#CF6522" transform="translate(0,0)"/>
<path d="" fill="#DE6722" transform="translate(0,0)"/>
<path d="" fill="#D36524" transform="translate(0,0)"/>
<path d="" fill="#47A14A" transform="translate(0,0)"/>
<path d="" fill="#CB7129" transform="translate(0,0)"/>
<path d="" fill="#C75D21" transform="translate(0,0)"/>
<path d="" fill="#AA9540" transform="translate(0,0)"/>
<path d="" fill="#46A04C" transform="translate(0,0)"/>
<path d="" fill="#46A24B" transform="translate(0,0)"/>
<path d="" fill="#49AA4F" transform="translate(0,0)"/>
<path d="" fill="#4CAA4E" transform="translate(0,0)"/>
<path d="" fill="#BB591E" transform="translate(0,0)"/>
<path d="" fill="#D26021" transform="translate(0,0)"/>
<path d="" fill="#E06821" transform="translate(0,0)"/>
<path d="" fill="#90A84B" transform="translate(0,0)"/>
<path d="" fill="#8DAA4B" transform="translate(0,0)"/>
<path d="" fill="#83AF50" transform="translate(0,0)"/>
<path d="" fill="#73B854" transform="translate(0,0)"/>
<path d="" fill="#6ABC58" transform="translate(0,0)"/>
<path d="" fill="#5FBD5A" transform="translate(0,0)"/>
<path d="" fill="#5BC15C" transform="translate(0,0)"/>
<path d="" fill="#58BE5A" transform="translate(0,0)"/>
<path d="" fill="#48A64E" transform="translate(0,0)"/>
<path d="" fill="#45A44A" transform="translate(0,0)"/>
<path d="" fill="#449F46" transform="translate(0,0)"/>
<path d="" fill="#E56B23" transform="translate(0,0)"/>
<path d="" fill="#E76A26" transform="translate(0,0)"/>
<path d="" fill="#E66B23" transform="translate(0,0)"/>
<path d="" fill="#4FB254" transform="translate(0,0)"/>
<path d="" fill="#50B456" transform="translate(0,0)"/>
<path d="" fill="#50B553" transform="translate(0,0)"/>
<path d="" fill="#E86A23" transform="translate(0,0)"/>
<path d="" fill="#4FB251" transform="translate(0,0)"/>
<path d="" fill="#E56824" transform="translate(0,0)"/>
<path d="" fill="#4FB253" transform="translate(0,0)"/>
<path d="" fill="#E46A21" transform="translate(0,0)"/>
<path d="" fill="#4DB053" transform="translate(0,0)"/>
<path d="" fill="#E36A22" transform="translate(0,0)"/>
<path d="" fill="#4BB152" transform="translate(0,0)"/>
<path d="" fill="#48A94F" transform="translate(0,0)"/>
<path d="" fill="#48A94E" transform="translate(0,0)"/>
<path d="" fill="#54AE50" transform="translate(0,0)"/>
<path d="" fill="#DC6522" transform="translate(0,0)"/>
<path d="" fill="#4BB14F" transform="translate(0,0)"/>
<path d="" fill="#4CB14F" transform="translate(0,0)"/>
<path d="" fill="#4BAF4F" transform="translate(0,0)"/>
<path d="" fill="#54AC51" transform="translate(0,0)"/>
<path d="" fill="#B05021" transform="translate(0,0)"/>
<path d="" fill="#4BB24F" transform="translate(0,0)"/>
<path d="" fill="#4AB151" transform="translate(0,0)"/>
<path d="" fill="#51B252" transform="translate(0,0)"/>
<path d="" fill="#B7521E" transform="translate(0,0)"/>
<path d="" fill="#4BAD52" transform="translate(0,0)"/>
<path d="" fill="#BE5720" transform="translate(0,0)"/>
<path d="" fill="#4AB050" transform="translate(0,0)"/>
<path d="" fill="#4CB554" transform="translate(0,0)"/>
<path d="" fill="#49B150" transform="translate(0,0)"/>
<path d="" fill="#D66422" transform="translate(0,0)"/>
<path d="" fill="#53B053" transform="translate(0,0)"/>
<path d="" fill="#4BB250" transform="translate(0,0)"/>
<path d="" fill="#4DAD51" transform="translate(0,0)"/>
<path d="" fill="#4EB553" transform="translate(0,0)"/>
<path d="" fill="#E26825" transform="translate(0,0)"/>
<path d="" fill="#4EB554" transform="translate(0,0)"/>
<path d="" fill="#4CB352" transform="translate(0,0)"/>
<path d="" fill="#4FB457" transform="translate(0,0)"/>
<path d="" fill="#4BAE52" transform="translate(0,0)"/>
<path d="" fill="#DE6422" transform="translate(0,0)"/>
<path d="" fill="#4BAF52" transform="translate(0,0)"/>
<path d="" fill="#4DAD51" transform="translate(0,0)"/>
<path d="" fill="#4EB252" transform="translate(0,0)"/>
<path d="" fill="#50B555" transform="translate(0,0)"/>
<path d="" fill="#4FB655" transform="translate(0,0)"/>
<path d="" fill="#4FB553" transform="translate(0,0)"/>
<path d="" fill="#50B454" transform="translate(0,0)"/>
<path d="" fill="#E46820" transform="translate(0,0)"/>
<path d="" fill="#7CB755" transform="translate(0,0)"/>
<path d="" fill="#72BA57" transform="translate(0,0)"/>
<path d="" fill="#6ABE5C" transform="translate(0,0)"/>
<path d="" fill="#6BC15A" transform="translate(0,0)"/>
<path d="" fill="#67C25B" transform="translate(0,0)"/>
<path d="" fill="#64C05B" transform="translate(0,0)"/>
<path d="" fill="#65C15C" transform="translate(0,0)"/>
<path d="" fill="#5BC25D" transform="translate(0,0)"/>
<path d="" fill="#5AC35B" transform="translate(0,0)"/>
<path d="" fill="#59C25C" transform="translate(0,0)"/>
<path d="" fill="#5AC15C" transform="translate(0,0)"/>
<path d="" fill="#5AC15B" transform="translate(0,0)"/>
<path d="" fill="#5AC25D" transform="translate(0,0)"/>
<path d="" fill="#5AC25B" transform="translate(0,0)"/>
<path d="" fill="#5CC15C" transform="translate(0,0)"/>
<path d="" fill="#5AC15C" transform="translate(0,0)"/>
<path d="" fill="#5AC25D" transform="translate(0,0)"/>
<path d="" fill="#5DC25F" transform="translate(0,0)"/>
<path d="" fill="#5BC25C" transform="translate(0,0)"/>
<path d="" fill="#5BC05C" transform="translate(0,0)"/>
<path d="" fill="#5CC15E" transform="translate(0,0)"/>
<path d="" fill="#59BF5C" transform="translate(0,0)"/>
<path d="" fill="#5BBF5D" transform="translate(0,0)"/>
<path d="" fill="#5BBF5B" transform="translate(0,0)"/>
<path d="" fill="#5ABF5D" transform="translate(0,0)"/>
<path d="" fill="#5ABF5C" transform="translate(0,0)"/>
<path d="" fill="#5ABD5B" transform="translate(0,0)"/>
<path d="" fill="#59BD5B" transform="translate(0,0)"/>
<path d="" fill="#4CA64E" transform="translate(0,0)"/>
<path d="" fill="#49A24D" transform="translate(0,0)"/>
<path d="" fill="#D3641F" transform="translate(0,0)"/>
<path d="" fill="#C75B1E" transform="translate(0,0)"/>
<path d="" fill="#C25D24" transform="translate(0,0)"/>
<path d="" fill="#B5581E" transform="translate(0,0)"/>
<path d="" fill="#9B8034" transform="translate(0,0)"/>
<path d="" fill="#9C863E" transform="translate(0,0)"/>
<path d="" fill="#B85822" transform="translate(0,0)"/>
<path d="" fill="#A47132" transform="translate(0,0)"/>
<path d="" fill="#C1591F" transform="translate(0,0)"/>
<path d="" fill="#C4712C" transform="translate(0,0)"/>
<path d="" fill="#A87833" transform="translate(0,0)"/>
<path d="" fill="#BE702C" transform="translate(0,0)"/>
<path d="" fill="#D87327" transform="translate(0,0)"/>
<path d="" fill="#DC7227" transform="translate(0,0)"/>
<path d="" fill="#DD6F26" transform="translate(0,0)"/>
<path d="" fill="#E36B22" transform="translate(0,0)"/>
<path d="" fill="#DF7028" transform="translate(0,0)"/>
<path d="" fill="#E86D22" transform="translate(0,0)"/>
<path d="" fill="#E87024" transform="translate(0,0)"/>
<path d="" fill="#EA7125" transform="translate(0,0)"/>
<path d="" fill="#79A84E" transform="translate(0,0)"/>
<path d="" fill="#4DA951" transform="translate(0,0)"/>
<path d="" fill="#73AC50" transform="translate(0,0)"/>
<path d="" fill="#4CA74F" transform="translate(0,0)"/>
<path d="" fill="#77AE52" transform="translate(0,0)"/>
<path d="" fill="#74AD51" transform="translate(0,0)"/>
<path d="" fill="#4CA74E" transform="translate(0,0)"/>
<path d="" fill="#4AA650" transform="translate(0,0)"/>
<path d="" fill="#68AF53" transform="translate(0,0)"/>
<path d="" fill="#48A44D" transform="translate(0,0)"/>
<path d="" fill="#60B054" transform="translate(0,0)"/>
<path d="" fill="#48A74E" transform="translate(0,0)"/>
<path d="" fill="#4FAC51" transform="translate(0,0)"/>
<path d="" fill="#5AB857" transform="translate(0,0)"/>
<path d="" fill="#4CAB51" transform="translate(0,0)"/>
<path d="" fill="#59B958" transform="translate(0,0)"/>
<path d="" fill="#4EAF51" transform="translate(0,0)"/>
<path d="" fill="#56BB58" transform="translate(0,0)"/>
<path d="" fill="#56BB59" transform="translate(0,0)"/>
<path d="" fill="#57BA59" transform="translate(0,0)"/>
<path d="" fill="#49AB4E" transform="translate(0,0)"/>
<path d="" fill="#4AB051" transform="translate(0,0)"/>
<path d="" fill="#4BAD4F" transform="translate(0,0)"/>
<path d="" fill="#48A84D" transform="translate(0,0)"/>
<path d="" fill="#0A0A00" transform="translate(0,0)"/>
<path d="" fill="#4DAA4E" transform="translate(0,0)"/>
<path d="" fill="#4AA54D" transform="translate(0,0)"/>
<path d="" fill="#49AC50" transform="translate(0,0)"/>
<path d="" fill="#4CB050" transform="translate(0,0)"/>
<path d="" fill="#4BAE50" transform="translate(0,0)"/>
<path d="" fill="#4CAF51" transform="translate(0,0)"/>
<path d="" fill="#4AAD51" transform="translate(0,0)"/>
<path d="" fill="#4BAF51" transform="translate(0,0)"/>
<path d="" fill="#4AAD50" transform="translate(0,0)"/>
<path d="" fill="#4AAB4E" transform="translate(0,0)"/>
</svg>
