<svg width="29" height="29" viewBox="0 0 29 29" fill="none" xmlns="http://www.w3.org/2000/svg">
<path d="M2 14.1795C2 9.34458 2 6.92713 3.46446 5.42511C4.92894 3.9231 7.28595 3.9231 12 3.9231H17C21.714 3.9231 24.0711 3.9231 25.5355 5.42511C27 6.92713 27 9.34458 27 14.1795V16.7436C27 21.5785 27 23.996 25.5355 25.498C24.0711 27 21.714 27 17 27H12C7.28595 27 4.92894 27 3.46446 25.498C2 23.996 2 21.5785 2 16.7436V14.1795Z" stroke="#C1C6C8" stroke-width="4"/>
<path opacity="0.5" d="M8.25 3.92308V2" stroke="#C1C6C8" stroke-width="4" stroke-linecap="round"/>
<path opacity="0.5" d="M20.75 3.92308V2" stroke="#C1C6C8" stroke-width="4" stroke-linecap="round"/>
<path opacity="0.5" d="M2.625 10.3333H26.375" stroke="#C1C6C8" stroke-width="4" stroke-linecap="round"/>
<path d="M22 20.5897C22 21.2978 21.4404 21.8718 20.75 21.8718C20.0596 21.8718 19.5 21.2978 19.5 20.5897C19.5 19.8817 20.0596 19.3077 20.75 19.3077C21.4404 19.3077 22 19.8817 22 20.5897Z" fill="#C1C6C8"/>
<path d="M22 15.4615C22 16.1696 21.4404 16.7435 20.75 16.7435C20.0596 16.7435 19.5 16.1696 19.5 15.4615C19.5 14.7534 20.0596 14.1794 20.75 14.1794C21.4404 14.1794 22 14.7534 22 15.4615Z" fill="#C1C6C8"/>
<path d="M15.75 20.5897C15.75 21.2978 15.1904 21.8718 14.5 21.8718C13.8096 21.8718 13.25 21.2978 13.25 20.5897C13.25 19.8817 13.8096 19.3077 14.5 19.3077C15.1904 19.3077 15.75 19.8817 15.75 20.5897Z" fill="#C1C6C8"/>
<path d="M15.75 15.4615C15.75 16.1696 15.1904 16.7435 14.5 16.7435C13.8096 16.7435 13.25 16.1696 13.25 15.4615C13.25 14.7534 13.8096 14.1794 14.5 14.1794C15.1904 14.1794 15.75 14.7534 15.75 15.4615Z" fill="#C1C6C8"/>
<path d="M9.5 20.5897C9.5 21.2978 8.94035 21.8718 8.25 21.8718C7.55965 21.8718 7 21.2978 7 20.5897C7 19.8817 7.55965 19.3077 8.25 19.3077C8.94035 19.3077 9.5 19.8817 9.5 20.5897Z" fill="#C1C6C8"/>
<path d="M9.5 15.4615C9.5 16.1696 8.94035 16.7435 8.25 16.7435C7.55965 16.7435 7 16.1696 7 15.4615C7 14.7534 7.55965 14.1794 8.25 14.1794C8.94035 14.1794 9.5 14.7534 9.5 15.4615Z" fill="#C1C6C8"/>
</svg>
