<svg width="25" height="25" viewBox="0 0 25 25" fill="none" xmlns="http://www.w3.org/2000/svg">
<path d="M12.7902 0.082017C13.0765 0.255822 13.3563 0.436442 13.6295 0.634103C13.8345 0.777236 14.0394 0.916961 14.2444 1.05669C14.3257 1.11121 14.407 1.16574 14.4851 1.22368C14.5469 1.26457 14.5469 1.26457 14.612 1.30888C14.8364 1.46223 15.0642 1.61559 15.2886 1.77235C15.3114 1.78599 15.3342 1.80303 15.3569 1.81666C15.6367 2.01091 15.9165 2.20176 16.1963 2.39942C16.4077 2.54596 16.6192 2.68909 16.8339 2.83222C17.0486 2.97877 17.2665 3.12871 17.4813 3.28207C17.6862 3.4252 17.8879 3.56834 18.0961 3.70806C18.1449 3.74214 18.1449 3.74214 18.1969 3.77622C18.275 3.83075 18.275 3.83075 18.3596 3.82393C18.3889 3.8546 18.4182 3.88528 18.4474 3.91936C18.5776 4.05226 18.7077 4.14087 18.8638 4.23629C18.9224 4.27378 18.981 4.31127 19.0363 4.34876C19.0655 4.3692 19.0981 4.38624 19.1274 4.40669C19.3095 4.52597 19.4852 4.65206 19.6641 4.77816C19.8105 4.88039 19.9569 4.98263 20.1033 5.08487C20.2985 5.22119 20.4937 5.35751 20.6856 5.49042C20.7995 5.57221 20.9133 5.65059 21.0272 5.73238C21.0858 5.76987 21.1443 5.81076 21.2029 5.85166C21.5087 6.06636 21.8145 6.28106 22.1268 6.48553C22.2959 6.6014 22.4651 6.71727 22.631 6.83655C22.7611 6.92516 22.8913 7.01717 23.0181 7.10578C23.1287 7.18416 23.2426 7.26254 23.3532 7.34093C23.5061 7.44657 23.6623 7.55563 23.8152 7.66127C23.89 7.71239 23.9615 7.76351 24.0331 7.81463C24.1307 7.88279 24.225 7.94754 24.3194 8.01229C24.6089 8.20654 24.8659 8.40761 24.9733 8.76545C25.0188 9.03126 25.0058 9.2596 24.8789 9.49474C24.7325 9.71285 24.5471 9.8628 24.2966 9.91392C23.9225 9.96504 23.633 9.81509 23.3207 9.61743C23.3207 9.64128 23.3207 9.66855 23.3207 9.69581C23.3207 11.2089 23.3174 12.7255 23.3142 14.2386C23.3142 14.4226 23.3142 14.6032 23.3109 14.7839C23.3109 14.8214 23.3109 14.8588 23.3109 14.8963C23.3109 15.4825 23.3109 16.0687 23.3109 16.6548C23.3077 17.2546 23.3077 17.8578 23.3077 18.4576C23.3044 18.8291 23.3044 19.2006 23.3044 19.572C23.3044 19.8276 23.3044 20.0832 23.3044 20.3354C23.3012 20.4819 23.3012 20.6285 23.3012 20.7784C23.3044 21.4975 23.3012 22.1859 22.9661 22.8368C22.9498 22.8641 22.9368 22.8914 22.9238 22.922C22.4651 23.8115 21.7266 24.4351 20.8125 24.7487C20.4416 24.8611 20.0773 24.8918 19.6934 24.902C19.547 24.8986 19.547 24.8986 19.4592 24.9532C19.4169 24.9395 19.3778 24.9259 19.3356 24.9089C19.2347 24.9054 19.1339 24.9054 19.033 24.9054C19.0005 24.9054 18.9712 24.9054 18.9387 24.9054C18.8704 24.9054 18.8053 24.9054 18.737 24.9089C18.6329 24.9089 18.5255 24.9089 18.4214 24.9089C18.1969 24.9089 17.9725 24.9089 17.748 24.9089C17.4878 24.9123 17.2275 24.9123 16.9673 24.9123C16.8632 24.9123 16.7591 24.9123 16.655 24.9157C16.5899 24.9157 16.5248 24.9157 16.463 24.9157C16.4175 24.9157 16.4175 24.9157 16.3752 24.9157C16.1735 24.9157 16.1735 24.9157 16.0824 24.868C16.0694 24.8952 16.0564 24.9225 16.0434 24.9532C16.0206 24.9463 15.9978 24.9395 15.975 24.9361C15.8742 24.9089 15.8742 24.9089 15.7538 24.8952C15.6335 24.868 15.6335 24.868 15.5586 24.8168C15.4903 24.701 15.5001 24.6192 15.5131 24.4863C15.5749 24.3806 15.5749 24.3806 15.6627 24.275C15.6953 24.2341 15.7278 24.1932 15.7636 24.1523C15.8026 24.108 15.8417 24.0603 15.8807 24.016C15.9523 23.9308 16.0238 23.8456 16.0954 23.7604C16.141 23.7024 16.1897 23.6445 16.2385 23.5866C16.3622 23.4605 16.3622 23.4605 16.4077 23.2935C16.4793 23.2287 16.4793 23.2287 16.5769 23.1606C16.6062 23.1401 16.6387 23.1163 16.6712 23.0924C16.8762 22.98 17.0941 22.9902 17.3218 22.9902C17.3511 22.9902 17.3804 22.9936 17.4097 22.9936C17.4747 22.9936 17.5366 22.9936 17.6016 22.9936C17.7025 22.997 17.8033 22.997 17.9042 22.997C18.1904 22.997 18.4767 23.0004 18.763 23.0038C18.9387 23.0072 19.1176 23.0072 19.2933 23.0072C19.3583 23.0072 19.4266 23.0106 19.4917 23.0106C20.0187 23.0174 20.4546 22.9595 20.8808 22.6119C20.9068 22.6119 20.9361 22.6119 20.9621 22.6119C20.9751 22.5676 20.9882 22.5267 21.0012 22.4824C21.0304 22.4824 21.0565 22.4824 21.0858 22.4824C21.0955 22.4585 21.1085 22.4347 21.1183 22.4074C21.2874 22.0564 21.2874 22.0564 21.3493 21.9371C21.4761 21.6543 21.4631 21.3544 21.4761 21.0477C21.4761 20.9965 21.4794 20.9488 21.4826 20.8977C21.4859 20.8295 21.4859 20.8295 21.4859 20.758C21.4891 20.7137 21.4891 20.6694 21.4924 20.6285C21.4989 20.5228 21.4989 20.5228 21.4501 20.4376C21.4469 20.3763 21.4469 20.315 21.4469 20.2502C21.4469 20.2195 21.4469 20.1854 21.4501 20.1514C21.4501 20.1037 21.4501 20.1037 21.4501 20.0559C21.4501 19.9605 21.4501 19.8685 21.4501 19.7731C21.4469 19.5618 21.4566 19.3675 21.4891 19.1597C21.4761 19.1324 21.4631 19.1017 21.4501 19.0745C21.4469 18.9893 21.4436 18.9041 21.4436 18.8189C21.4436 18.7371 21.4436 18.7371 21.4436 18.6553C21.4436 18.5973 21.4436 18.5394 21.4436 18.4781C21.4436 18.4167 21.4436 18.3588 21.4436 18.2975C21.4436 18.1714 21.4436 18.0453 21.4436 17.9158C21.4436 17.7556 21.4436 17.592 21.4436 17.4318C21.4436 17.3057 21.4436 17.1831 21.4436 17.057C21.4436 16.9956 21.4436 16.9377 21.4436 16.8763C21.4436 16.7945 21.4436 16.7094 21.4436 16.6276C21.4436 16.556 21.4436 16.556 21.4436 16.481C21.4501 16.3481 21.4501 16.3481 21.4729 16.2118C21.4989 16.0891 21.4989 16.0891 21.4501 15.963C21.4436 15.8199 21.4469 15.6904 21.4729 15.5507C21.4989 15.4484 21.4989 15.4484 21.4501 15.3257C21.4469 15.2303 21.4436 15.1349 21.4436 15.0395C21.4436 15.0088 21.4436 14.9781 21.4436 14.9509C21.4469 14.6373 21.4631 14.3238 21.4794 14.0103C21.4924 13.7922 21.4891 13.5843 21.4599 13.3662C21.4371 13.1651 21.4436 12.9674 21.4729 12.7698C21.4924 12.6266 21.4794 12.5005 21.4599 12.3574C21.4403 12.1734 21.4436 11.9894 21.4436 11.8053C21.4436 11.7644 21.4436 11.7201 21.4436 11.6758C21.4436 11.5872 21.4436 11.4986 21.4436 11.41C21.4436 11.2737 21.4436 11.1374 21.4436 11.0011C21.4436 10.9159 21.4436 10.8272 21.4436 10.742C21.4436 10.7012 21.4436 10.6603 21.4436 10.6194C21.4436 10.4217 21.4566 10.2377 21.4891 10.0434C21.4794 9.98549 21.4631 9.93096 21.4501 9.87303C21.4436 9.66514 21.4566 9.48111 21.4891 9.27664C21.4761 9.24937 21.4631 9.2187 21.4501 9.19144C21.4501 9.11305 21.4501 9.11306 21.4599 9.02104C21.4631 8.98696 21.4631 8.95288 21.4664 8.9188C21.4729 8.84723 21.4794 8.77567 21.4859 8.7041C21.4891 8.65298 21.4891 8.65298 21.4924 8.60186C21.4956 8.55415 21.4956 8.55415 21.4989 8.50985C21.4859 8.39398 21.4534 8.37012 21.3688 8.29856C21.2907 8.23721 21.2126 8.18269 21.1313 8.12816C21.0988 8.1043 21.0988 8.1043 21.063 8.07704C21.0142 8.04296 20.9654 8.00888 20.9166 7.9748C20.8418 7.92368 20.7669 7.87257 20.6954 7.82145C20.5522 7.72602 20.4123 7.62719 20.2725 7.52836C20.2269 7.5011 20.1846 7.47043 20.1391 7.43976C20.0773 7.39886 20.0773 7.39886 20.0155 7.35797C19.9797 7.3307 19.9471 7.30685 19.9081 7.28299C19.8268 7.22506 19.8268 7.22506 19.7422 7.23187C19.6934 7.18075 19.6479 7.13304 19.6023 7.08192C19.4885 6.96946 19.3551 6.88085 19.2249 6.79225C19.1989 6.7718 19.1729 6.75476 19.1436 6.73431C19.007 6.62867 19.007 6.62867 18.8476 6.59459C18.7923 6.53665 18.7402 6.47872 18.6849 6.42419C18.5515 6.31855 18.4149 6.22653 18.275 6.13111C18.2392 6.10725 18.2002 6.07999 18.1644 6.05273C18.1286 6.02887 18.0928 6.00501 18.0571 5.98116C18.0245 5.9573 17.992 5.93345 17.9562 5.913C17.8684 5.85507 17.8684 5.85507 17.748 5.913C17.7448 5.88574 17.7415 5.86188 17.7383 5.83462C17.6992 5.71193 17.6537 5.68467 17.5528 5.6131C17.5203 5.59265 17.4878 5.5688 17.4552 5.54494C17.4227 5.52449 17.3869 5.50064 17.3544 5.47678C17.3186 5.45293 17.2861 5.43248 17.2535 5.40522C17.0909 5.29616 16.9673 5.21778 16.7721 5.18711C16.7591 5.14621 16.746 5.10191 16.733 5.06101C16.6484 4.99626 16.5639 4.93833 16.476 4.88039C16.424 4.84632 16.3719 4.81224 16.3199 4.77816C16.2939 4.76112 16.2678 4.74408 16.2385 4.72704C16.1312 4.65547 16.0238 4.57709 15.9132 4.50211C15.8742 4.47485 15.8352 4.44759 15.7961 4.42032C15.7115 4.35898 15.627 4.30105 15.5424 4.2397C15.5001 4.20903 15.4545 4.18177 15.4122 4.14769C15.3732 4.12043 15.3342 4.09316 15.2919 4.0659C15.204 4.00455 15.1195 3.95684 15.0251 3.90913C14.9991 3.8955 14.9698 3.88187 14.9438 3.86824C14.8885 3.8512 14.8364 3.83757 14.7811 3.82393C14.7941 3.79667 14.8072 3.766 14.8202 3.73874C14.7616 3.69784 14.7616 3.69784 14.6998 3.65695C14.5502 3.5513 14.3973 3.44906 14.2476 3.34341C14.1826 3.29911 14.1175 3.25481 14.0524 3.2105C13.7206 2.98217 13.3888 2.75384 13.057 2.5221C13.0309 2.50506 13.0082 2.48802 12.9821 2.47098C12.8845 2.40282 12.7935 2.33807 12.7056 2.25628C12.5918 2.18131 12.5137 2.18812 12.3803 2.20516C12.2795 2.25287 12.2795 2.25287 12.1819 2.32785C12.1461 2.35511 12.107 2.38238 12.068 2.40964C12.029 2.4369 11.9899 2.46757 11.9476 2.49824C11.8598 2.55959 11.772 2.62434 11.6841 2.68568C11.6386 2.71976 11.593 2.75043 11.5475 2.78451C11.3328 2.94128 11.1148 3.09123 10.8969 3.24118C10.7863 3.31956 10.6724 3.39794 10.5618 3.47632C10.5195 3.507 10.4772 3.53426 10.4349 3.56493C10.3503 3.62287 10.2658 3.68421 10.1812 3.74214C9.89814 3.9398 9.61187 4.13746 9.32559 4.33172C9.12064 4.46803 8.91894 4.61117 8.71725 4.75089C8.42446 4.95537 8.13168 5.15644 7.83564 5.36091C7.4355 5.63355 7.03862 5.90618 6.64173 6.18564C6.30015 6.4276 5.95532 6.66275 5.61048 6.89789C5.37951 7.05466 5.15179 7.21142 4.92732 7.36819C4.70936 7.52155 4.4914 7.66809 4.27344 7.81463C4.21813 7.85212 4.16283 7.8896 4.11078 7.9305C4.00668 7.99866 4.00668 7.99866 3.8733 8.05319C3.70088 8.13498 3.57726 8.20995 3.47641 8.38035C3.37882 8.74841 3.4081 9.14713 3.4146 9.52201C3.4146 9.68218 3.4146 9.83895 3.4146 9.99912C3.4146 10.3092 3.4146 10.6194 3.41785 10.9295C3.42111 11.2941 3.42436 11.6554 3.42436 12.0166C3.42436 12.6641 3.42761 13.3116 3.43087 13.9557C3.43737 14.5828 3.44063 15.2099 3.44063 15.8369C3.44063 15.8744 3.44063 15.9153 3.44063 15.9528C3.44063 16.1096 3.44063 16.2629 3.44388 16.4197C3.44388 17.091 3.44713 17.759 3.45039 18.4304C3.45039 18.5019 3.45039 18.5735 3.45039 18.6451C3.45364 19.0949 3.45364 19.5413 3.45689 19.9878C3.45689 20.1139 3.46015 20.24 3.46015 20.3627C3.46015 20.5331 3.46015 20.7035 3.4634 20.8739C3.4634 20.9216 3.4634 20.9727 3.4634 21.0238C3.46991 21.61 3.58051 22.0769 3.97089 22.5165C4.31247 22.8539 4.69309 23.0038 5.15504 22.9936C5.21685 22.9936 5.27866 22.9902 5.33722 22.9902C5.38602 22.9902 5.38601 22.9902 5.43481 22.9868C5.60398 22.9834 5.77314 22.9834 5.9423 22.98C6.15701 22.9766 6.37497 22.9766 6.58968 22.9697C6.76535 22.9663 6.93777 22.9629 7.11344 22.9629C7.1785 22.9629 7.24682 22.9595 7.31188 22.9595C7.8942 22.9425 7.8942 22.9425 8.12843 23.1572C8.18048 23.2151 8.22927 23.273 8.27482 23.3344C8.30735 23.3719 8.33988 23.4128 8.37567 23.4503C8.40169 23.4843 8.42772 23.5184 8.45374 23.5559C8.55134 23.6888 8.65218 23.8183 8.75954 23.9478C8.77906 23.9717 8.79858 23.9955 8.82135 24.0194C8.85713 24.0671 8.89617 24.1148 8.93846 24.1625C9.05232 24.3022 9.14341 24.4386 9.21173 24.6124C9.19221 24.7282 9.19221 24.7282 9.12715 24.8271C8.91894 24.9463 8.70749 24.902 8.47651 24.868C8.47651 24.9089 8.47651 24.9532 8.47651 24.9975C8.43748 24.9804 8.39844 24.9668 8.35615 24.9532C8.35615 24.9395 8.35615 24.9259 8.35615 24.9089C7.28911 24.8884 7.28911 24.8884 6.1993 24.868C6.1993 24.9089 6.1993 24.9532 6.1993 24.9975C6.17328 24.9838 6.144 24.9702 6.11472 24.9532C5.9911 24.9089 5.89025 24.8952 5.76013 24.885C5.72109 24.8816 5.68205 24.8782 5.63976 24.8748C5.61048 24.8714 5.5812 24.8714 5.54867 24.868C5.53566 24.8952 5.52265 24.9225 5.50963 24.9532C5.41529 24.9259 5.32095 24.8952 5.22336 24.868C5.21035 24.8952 5.19733 24.9225 5.18432 24.9532C5.18432 24.9259 5.18432 24.8952 5.18432 24.868C5.16155 24.868 5.13878 24.8714 5.116 24.8714C4.32874 24.8986 4.32874 24.8986 3.96439 24.6976C3.88631 24.6669 3.80498 24.6328 3.72691 24.6021C3.30725 24.4181 2.96892 24.1489 2.66312 23.8047C2.62734 23.7706 2.59481 23.7365 2.55902 23.7024C1.9702 23.0379 1.71971 22.1586 1.72296 21.2692C1.72296 21.2215 1.72296 21.1703 1.72296 21.1192C1.72296 20.9829 1.72296 20.8466 1.72296 20.7103C1.72296 20.5603 1.72296 20.4138 1.72296 20.2672C1.72296 20.0116 1.72296 19.756 1.72296 19.497C1.72296 19.129 1.72296 18.7575 1.72296 18.3895C1.72296 17.7897 1.72296 17.1899 1.72621 16.5867C1.72621 16.0039 1.72621 15.4211 1.72621 14.8384C1.72621 14.8043 1.72621 14.7668 1.72621 14.7293C1.72621 14.5487 1.72621 14.3681 1.72621 14.1909C1.72621 12.6948 1.72621 11.1987 1.72947 9.70263C1.56681 9.72989 1.43668 9.76056 1.29029 9.83213C1.04956 9.93778 0.831594 9.96504 0.581101 9.88666C0.340367 9.7776 0.167951 9.59357 0.05409 9.34479C-0.017479 9.11305 -0.0207324 8.88132 0.0605963 8.64958C0.265545 8.26448 0.594114 8.06 0.945455 7.83167C1.10811 7.72262 1.27077 7.61015 1.43343 7.49428C1.45945 7.47724 1.48873 7.4568 1.51801 7.43635C1.57982 7.39205 1.63838 7.35115 1.70019 7.30685C1.73597 7.28299 1.77176 7.25914 1.80754 7.23187C1.85309 7.2012 1.89538 7.17053 1.94092 7.13986C2.40938 6.8127 2.88108 6.48553 3.35279 6.16178C3.75944 5.88233 4.16608 5.60288 4.56947 5.31661C4.77117 5.17689 4.97612 5.03716 5.17781 4.90084C5.65277 4.60435 5.65277 4.60435 6.07894 4.24993C6.14725 4.20903 6.21557 4.16814 6.28389 4.12724C6.7068 3.87164 7.11019 3.58197 7.50707 3.28548C7.66322 3.16961 7.82588 3.06056 7.98854 2.95491C8.69122 2.50165 9.37764 2.01773 10.0641 1.53721C10.3536 1.33273 10.6464 1.13166 10.9392 0.93741C11.053 0.859027 11.1669 0.784053 11.2775 0.70567C12.4031 -0.0747479 12.4031 -0.0747477 12.7902 0.082017Z" fill="#B7C1CA"/>
<path d="M11.8533 8.16907C11.8728 8.20996 11.8728 8.20996 11.8923 8.25427C11.9736 8.28153 12.055 8.3122 12.1395 8.33946C12.2306 8.39058 12.3217 8.44511 12.4128 8.50305C12.4388 8.52008 12.4649 8.53372 12.4909 8.55076C12.569 8.60188 12.6503 8.64959 12.7316 8.70071C12.8097 8.75182 12.891 8.80294 12.9724 8.85066C13.0212 8.88473 13.0699 8.91541 13.122 8.94608C13.2521 9.02787 13.379 9.08921 13.5189 9.15055C13.5449 9.17441 13.5677 9.19826 13.5905 9.22553C13.7303 9.36525 13.893 9.45727 14.0589 9.55951C14.1337 9.60381 14.2086 9.65152 14.2801 9.69582C14.3192 9.71968 14.3549 9.74353 14.394 9.76398C14.5339 9.856 14.677 9.94801 14.8169 10.04C15.0804 10.2172 15.3504 10.3842 15.6204 10.5512C15.6595 10.5751 15.6952 10.5989 15.7343 10.6228C16.1019 10.8818 16.1019 10.8818 16.5183 10.9363C16.6907 10.8613 16.8111 10.7216 16.9412 10.5853C17.0486 10.4796 17.1592 10.3808 17.273 10.282C17.6276 9.98209 17.9725 9.67538 18.3075 9.35162C18.9939 8.69389 18.9939 8.69389 19.329 8.70752C19.4982 8.73819 19.6218 8.81317 19.7422 8.93585C19.8365 9.09262 19.8756 9.23575 19.8495 9.41978C19.7617 9.72309 19.6023 9.96164 19.3746 10.1729C19.3485 10.1729 19.3225 10.1729 19.2965 10.1729C19.2802 10.2104 19.2802 10.2104 19.264 10.2479C19.2087 10.3501 19.1599 10.3979 19.0753 10.4694C18.9029 10.6228 18.7435 10.7864 18.5873 10.9568C18.4767 11.0726 18.3661 11.1851 18.249 11.2907C18.044 11.4748 17.8586 11.6758 17.6699 11.8769C17.4552 12.1018 17.2405 12.3268 17.0063 12.5346C16.9152 12.6198 16.8273 12.7084 16.7395 12.797C16.4077 13.1038 16.1409 13.2333 15.692 13.2128C15.2626 13.1583 14.9275 12.8891 14.5794 12.6403C14.5631 12.671 14.5501 12.6982 14.5371 12.7289C14.5111 12.6846 14.4818 12.6437 14.4558 12.5994C14.3127 12.5789 14.2411 12.5789 14.1207 12.6675C14.0947 12.6948 14.0687 12.7255 14.0394 12.7562C14.0101 12.7902 13.9808 12.8243 13.9483 12.8584C13.919 12.8925 13.8865 12.9266 13.8572 12.9606C13.7954 13.0288 13.7336 13.0969 13.6718 13.1651C13.6425 13.1958 13.6165 13.2264 13.5905 13.2571C13.5189 13.3219 13.5189 13.3219 13.4408 13.3219C13.4408 13.3525 13.4408 13.3798 13.4408 13.4105C13.3985 13.4377 13.3595 13.465 13.3172 13.4923C13.2814 13.5945 13.2814 13.5945 13.3172 13.707C13.4115 13.8058 13.5189 13.8774 13.6262 13.9523C13.6588 13.9728 13.688 13.9966 13.7206 14.0205C13.919 14.1602 14.1175 14.2931 14.3192 14.426C14.6998 14.6782 15.0446 14.9509 15.165 15.4314C15.2203 15.7994 15.1552 16.0414 14.9568 16.3481C14.7941 16.5696 14.6119 16.7673 14.4298 16.9684C14.3582 17.0502 14.2866 17.1319 14.2183 17.2171C14.111 17.3466 13.9938 17.4693 13.8767 17.592C13.7271 17.7522 13.5872 17.926 13.4506 18.0964C13.431 18.1237 13.4083 18.1509 13.3855 18.1816C13.366 18.2054 13.3465 18.2293 13.3269 18.2532C13.2782 18.3077 13.2782 18.3077 13.1936 18.3077C13.1838 18.3349 13.174 18.3588 13.1643 18.3861C13.1057 18.4951 13.0569 18.5088 12.9528 18.5633C12.9398 18.5905 12.9268 18.6144 12.9138 18.6417C12.839 18.795 12.7349 18.8768 12.5852 18.9382C12.377 18.9995 12.2176 18.9927 12.0192 18.9109C11.8403 18.8052 11.7362 18.6451 11.6321 18.461C11.5898 18.26 11.5963 18.0657 11.6971 17.8817C11.7589 17.7931 11.824 17.7113 11.8923 17.6261C11.9509 17.5511 12.0062 17.4761 12.0615 17.4012C12.1623 17.2717 12.2632 17.1422 12.3803 17.0297C12.4096 17.0297 12.4356 17.0297 12.4649 17.0297C12.4714 17.0059 12.4811 16.982 12.4909 16.9581C12.5592 16.8286 12.6503 16.7434 12.7511 16.6412C12.8878 16.5083 12.8878 16.5083 12.9919 16.3481C13.0179 16.3481 13.0439 16.3481 13.0732 16.3481C13.0862 16.3209 13.0992 16.297 13.1122 16.2697C13.1383 16.2084 13.1675 16.1505 13.1936 16.0925C13.2131 15.9664 13.2131 15.9664 13.1936 15.8369C13.122 15.7517 13.122 15.7517 13.0212 15.6904C12.9821 15.6665 12.9463 15.6393 12.9073 15.6154C12.8683 15.5881 12.8292 15.5643 12.7902 15.537C12.7121 15.4893 12.6373 15.4382 12.5625 15.3871C12.5267 15.3632 12.4876 15.3394 12.4486 15.3121C12.3185 15.2235 12.1883 15.1315 12.0582 15.0361C11.9574 14.9747 11.8891 14.9509 11.7719 14.944C11.5865 15.0224 11.4987 15.1519 11.3881 15.3223C11.3718 15.3496 11.3555 15.3734 11.336 15.4007C11.3002 15.4586 11.2612 15.5132 11.2254 15.5711C11.1311 15.7108 11.0367 15.8506 10.9456 15.9937C10.8513 16.1334 10.757 16.2731 10.6626 16.4129C10.6138 16.4844 10.5683 16.556 10.5195 16.6276C10.4121 16.7877 10.3048 16.9479 10.2072 17.1149C9.96318 17.5205 9.96318 17.5205 9.78426 17.5784C9.68341 17.5784 9.59558 17.5682 9.49473 17.5409C9.49473 17.5136 9.49473 17.4864 9.49473 17.4557C9.4687 17.4557 9.43942 17.4557 9.4134 17.4557C9.4134 17.4284 9.4134 17.3978 9.4134 17.3705C9.38737 17.3705 9.36135 17.3705 9.33207 17.3705C9.33207 17.3432 9.33207 17.316 9.33207 17.2853C9.30605 17.2853 9.27677 17.2853 9.25074 17.2853C9.25074 17.258 9.25074 17.2274 9.25074 17.2001C9.22797 17.1899 9.20194 17.1762 9.17592 17.166C9.09134 17.1149 9.02953 17.0672 8.95796 16.999C8.92217 16.965 8.92217 16.965 8.88639 16.9309C8.86362 16.907 8.84084 16.8832 8.81482 16.8593C8.79205 16.8355 8.76927 16.8116 8.74325 16.7877C8.52529 16.5765 8.52529 16.5765 8.50577 16.3992C8.52203 16.2323 8.56107 16.1743 8.66192 16.0482C8.69445 16.0039 8.72698 15.9562 8.76277 15.9119C8.78229 15.888 8.80181 15.8642 8.82132 15.8369C8.9482 15.6665 9.07507 15.4927 9.19869 15.3189C9.22797 15.2814 9.25725 15.2439 9.28653 15.2031C9.48172 14.9304 9.67691 14.6544 9.86559 14.3783C10.0315 14.1364 10.2007 13.9012 10.3698 13.6627C10.757 13.1242 11.1343 12.5721 11.5084 12.02C11.5312 11.9826 11.554 11.9485 11.58 11.9144C11.9183 11.4509 11.9183 11.4509 12.0159 10.8954C11.9086 10.6603 11.6711 10.558 11.4466 10.4694C11.2124 10.4319 11.0693 10.5035 10.8773 10.6398C10.7732 10.7284 10.6789 10.8273 10.5813 10.9261C10.4089 11.0999 10.2364 11.2669 10.0478 11.4236C9.81679 11.6179 9.60534 11.8292 9.39713 12.0439C9.25725 12.1836 9.14989 12.279 8.96446 12.3438C8.95145 12.3711 8.93844 12.4017 8.92543 12.429C8.35287 12.4563 8.35287 12.4563 8.12515 12.2381C7.9755 12.0712 7.90393 11.9417 7.91044 11.7065C7.96249 11.4577 8.08286 11.2601 8.23576 11.0658C8.26178 11.0658 8.28781 11.0658 8.31383 11.0658C8.32359 11.042 8.33335 11.0181 8.34311 10.9942C8.41143 10.8682 8.49601 10.7795 8.5936 10.6773C8.61312 10.6569 8.63264 10.6364 8.65541 10.6126C8.72048 10.5444 8.78554 10.4728 8.85386 10.4047C8.8994 10.357 8.94494 10.3058 8.99049 10.2581C9.08808 10.1559 9.18568 10.0537 9.28327 9.95142C9.40689 9.82192 9.53051 9.69242 9.65413 9.56291C9.75173 9.46068 9.84607 9.36185 9.94366 9.25961C9.98921 9.2119 10.0348 9.16419 10.0803 9.11647C10.6138 8.55416 11.0758 8.19633 11.8533 8.16907Z" fill="#B6BFC8"/>
<path d="M18.8866 15.5813C19.0753 15.7653 19.1989 15.9494 19.2282 16.222C19.2347 16.8184 18.9907 17.0842 18.6068 17.4966C18.4247 17.6942 18.2392 17.8885 18.0538 18.0827C17.953 18.185 17.8554 18.2906 17.7578 18.3963C17.6927 18.461 17.6309 18.5258 17.5691 18.5939C17.5235 18.6382 17.5235 18.6382 17.478 18.6894C17.452 18.7166 17.4227 18.7439 17.3967 18.7746C17.3706 18.7984 17.3479 18.8257 17.3218 18.8495C17.26 18.9041 17.26 18.9041 17.182 18.9041C17.1689 18.9279 17.1592 18.9552 17.1494 18.979C17.0941 19.0813 17.0356 19.1494 16.9575 19.2312C16.9282 19.2619 16.8989 19.2926 16.8696 19.3198C16.8404 19.3505 16.8111 19.3812 16.7818 19.4118C16.7525 19.4425 16.7233 19.4732 16.694 19.5039C16.6387 19.5618 16.5801 19.6197 16.5248 19.6777C16.3979 19.8072 16.2711 19.9401 16.1474 20.073C16.1182 20.1071 16.0856 20.1411 16.0531 20.1752C16.0238 20.2093 15.9913 20.24 15.9588 20.2775C15.8807 20.3524 15.8807 20.3524 15.7961 20.3524C15.7961 20.3797 15.7961 20.4104 15.7961 20.4376C15.731 20.4956 15.6627 20.5535 15.5944 20.608C15.5814 20.6353 15.5684 20.6626 15.5554 20.6932C15.5261 20.6932 15.5001 20.6932 15.4708 20.6932C15.4708 20.7205 15.4708 20.7512 15.4708 20.7784C15.4122 20.8432 15.4122 20.8432 15.3277 20.9147C15.165 21.0613 15.0121 21.2146 14.8625 21.3748C14.8364 21.4021 14.8071 21.4327 14.7811 21.46C14.6803 21.5657 14.5794 21.6713 14.4818 21.7769C14.3127 21.9542 14.1468 22.128 13.9776 22.3052C13.8767 22.4108 13.7759 22.5165 13.675 22.6255C13.5579 22.7482 13.4441 22.8709 13.327 22.9936C13.2879 23.0311 13.2521 23.0686 13.2164 23.1095C13.1806 23.1435 13.148 23.181 13.1155 23.2151C13.083 23.2458 13.0537 23.2798 13.0244 23.3105C12.9528 23.3753 12.9528 23.3753 12.8683 23.3753C12.8585 23.4025 12.8487 23.4264 12.839 23.4537C12.7837 23.5559 12.7284 23.6138 12.6405 23.6888C12.6113 23.7127 12.5852 23.7399 12.5527 23.7672C12.5234 23.791 12.4942 23.8183 12.4649 23.8456C12.4031 23.9001 12.3413 23.9546 12.2827 24.0091C12.2567 24.033 12.2306 24.0569 12.2014 24.0807C12.1331 24.1421 12.1331 24.1421 12.0973 24.2273C11.9216 24.292 11.7492 24.3227 11.567 24.292C11.2384 24.1182 10.9912 23.8899 10.7407 23.6172C10.6561 23.5286 10.5715 23.4468 10.4804 23.365C10.2853 23.1912 10.1063 22.997 9.92741 22.8061C9.80379 22.6732 9.67692 22.5471 9.54354 22.4279C9.30606 22.2132 9.0881 21.9746 8.86688 21.7395C8.66193 21.5214 8.45373 21.3067 8.23252 21.1056C8.07962 20.9659 7.93973 20.8159 7.79985 20.666C7.77057 20.6353 7.74129 20.6046 7.70876 20.5705C7.58839 20.4444 7.47128 20.3183 7.35091 20.1923C7.25657 20.0934 7.15897 20.0048 7.05813 19.9128C6.73281 19.6061 6.50834 19.3096 6.47906 18.8393C6.49208 18.5121 6.62546 18.2429 6.84992 18.0146C7.1297 17.776 7.43224 17.7181 7.78683 17.7522C8.13167 17.8612 8.39192 18.1305 8.63916 18.3929C8.67169 18.4269 8.70422 18.4576 8.73676 18.4917C10.552 20.3967 10.552 20.3967 10.6594 20.5092C10.7537 20.6114 10.7537 20.6114 10.8773 20.6932C10.8773 20.7205 10.8773 20.7512 10.8773 20.7784C10.9131 20.7955 10.9131 20.7955 10.9489 20.8091C11.0563 20.8738 11.1148 20.9454 11.1961 21.0442C11.297 21.1669 11.3978 21.2896 11.5117 21.4021C11.5345 21.4225 11.554 21.443 11.5768 21.4634C11.6939 21.5248 11.7687 21.4941 11.8923 21.46C11.9802 21.3884 12.0485 21.3203 12.1233 21.2385C12.1428 21.218 12.1656 21.1942 12.1851 21.1737C12.2502 21.1022 12.3152 21.0306 12.3803 20.959C12.4486 20.8875 12.5137 20.8193 12.5787 20.7477C12.6178 20.7034 12.6601 20.6591 12.6991 20.6182C12.7967 20.5126 12.8943 20.4138 13.0016 20.3218C13.1057 20.2297 13.1415 20.1786 13.1936 20.0559C13.2359 20.0389 13.2749 20.0253 13.3172 20.0116C13.3888 19.9435 13.4538 19.8719 13.5189 19.7969C13.5775 19.739 13.6328 19.6811 13.6881 19.6197C13.7206 19.5891 13.7499 19.555 13.7824 19.5209C13.8149 19.4868 13.8475 19.4561 13.88 19.4221C13.9093 19.388 13.9418 19.3539 13.9743 19.3198C14.1468 19.1392 14.3224 18.962 14.5079 18.795C14.6055 18.7098 14.6933 18.6144 14.7811 18.5224C14.8494 18.4508 14.9178 18.3792 14.9828 18.3077C15.0446 18.2463 15.1032 18.185 15.1617 18.1236C15.2528 18.0248 15.3439 17.9294 15.435 17.834C15.4806 17.7863 15.5293 17.7351 15.5781 17.684C16.0238 17.2103 16.0238 17.2103 16.1995 17.057C16.3589 16.9138 16.5053 16.7571 16.6517 16.6003C16.6907 16.5594 16.6907 16.5594 16.7298 16.5185C16.8371 16.4026 16.9445 16.2868 17.0518 16.1709C17.5496 15.629 18.1709 15.0531 18.8866 15.5813Z" fill="#B6C0C8"/>
<path d="M15.8514 6.31515C16.1897 6.56733 16.4532 6.92858 16.5313 7.35798C16.5768 7.77374 16.4825 8.1418 16.2515 8.47919C15.936 8.88473 15.6042 9.07217 15.1097 9.13351C14.6737 9.17441 14.3257 9.07217 13.9678 8.80976C13.6197 8.47578 13.4278 8.08727 13.3855 7.59994C13.4245 7.13305 13.6165 6.78544 13.932 6.46169C14.4786 5.98117 15.2496 5.91983 15.8514 6.31515Z" fill="#B4BEC7"/>
<path d="M12.6666 2.11998C12.8 2.19836 12.9268 2.29038 13.0537 2.38239C13.0895 2.40625 13.1285 2.43351 13.1643 2.46077C13.2847 2.54597 13.4018 2.63117 13.5189 2.71637C13.636 2.80157 13.7531 2.88336 13.8703 2.96856C13.9483 3.02308 14.0232 3.07761 14.098 3.13214C14.3485 3.30935 14.6022 3.48316 14.856 3.65355C15.0772 3.80009 15.2919 3.95345 15.5098 4.10681C15.8449 4.34196 16.18 4.5737 16.5183 4.80203C17.1592 5.23825 17.7903 5.68128 18.4214 6.12431C18.6589 6.2913 18.8964 6.45488 19.1339 6.62187C19.2868 6.72751 19.4397 6.83657 19.5958 6.94562C19.6609 6.98992 19.7292 7.03764 19.7943 7.08535C19.9309 7.17736 20.0643 7.27278 20.2009 7.36821C20.2334 7.39206 20.2692 7.41592 20.3017 7.43977C20.3701 7.48408 20.4351 7.53179 20.5002 7.57609C20.6726 7.69537 20.8418 7.81465 21.0109 7.93392C21.0435 7.95778 21.0793 7.98164 21.115 8.00549C21.1801 8.04979 21.2419 8.0941 21.307 8.1384C21.3363 8.15885 21.3655 8.1793 21.3948 8.19974C21.4208 8.21678 21.4469 8.23723 21.4729 8.25427C21.5314 8.29857 21.5314 8.29857 21.5737 8.33947C21.577 8.40763 21.577 8.47919 21.577 8.54735C21.577 8.59506 21.577 8.63937 21.577 8.68708C21.577 8.7382 21.577 8.78591 21.577 8.84044C21.577 8.89156 21.577 8.94608 21.577 9.00061C21.577 9.15056 21.577 9.2971 21.5802 9.44705C21.5802 9.60722 21.5802 9.7674 21.5802 9.92757C21.5802 10.2752 21.5802 10.6262 21.5802 10.9772C21.5802 11.1953 21.5802 11.4134 21.5802 11.6315C21.5802 12.2382 21.5802 12.8448 21.5802 13.448C21.5802 13.5059 21.5802 13.5059 21.5802 13.5672C21.5802 13.6047 21.5802 13.6422 21.5802 13.6831C21.5802 13.7615 21.5802 13.8399 21.5835 13.9217C21.5835 13.9796 21.5835 13.9796 21.5835 14.0375C21.5835 14.6714 21.5835 15.3019 21.5835 15.9358C21.5835 16.5867 21.5867 17.2342 21.5867 17.8851C21.5867 18.2498 21.5867 18.6144 21.5867 18.9791C21.5867 19.2892 21.5867 19.5993 21.5867 19.9094C21.5867 20.0662 21.5867 20.2264 21.5867 20.3831C21.5867 20.5569 21.5867 20.7273 21.5867 20.9011C21.5867 20.9761 21.5867 20.9761 21.5867 21.0511C21.5867 21.4532 21.5412 21.8656 21.3265 22.2098C21.307 22.2439 21.2875 22.2779 21.2679 22.312C21.2061 22.3972 21.2061 22.3972 21.0858 22.4824C21.2875 22.0564 21.2875 22.0564 21.3493 21.9371C21.4761 21.6543 21.4631 21.3544 21.4761 21.0477C21.4761 20.9966 21.4794 20.9488 21.4826 20.8977C21.4859 20.8296 21.4859 20.8296 21.4859 20.758C21.4891 20.7137 21.4891 20.6694 21.4924 20.6285C21.4989 20.5229 21.4989 20.5229 21.4501 20.4377C21.4469 20.3763 21.4469 20.315 21.4469 20.2502C21.4469 20.2195 21.4469 20.1855 21.4501 20.1514C21.4501 20.1037 21.4501 20.1037 21.4501 20.056C21.4501 19.9605 21.4501 19.8685 21.4501 19.7731C21.4469 19.5618 21.4566 19.3676 21.4891 19.1597C21.4761 19.1324 21.4631 19.1017 21.4501 19.0745C21.4469 18.9893 21.4436 18.9041 21.4436 18.8189C21.4436 18.7644 21.4436 18.7098 21.4436 18.6553C21.4436 18.5974 21.4436 18.5394 21.4436 18.4781C21.4436 18.4167 21.4436 18.3588 21.4436 18.2975C21.4436 18.1714 21.4436 18.0453 21.4436 17.9158C21.4436 17.7556 21.4436 17.592 21.4436 17.4318C21.4436 17.3058 21.4436 17.1831 21.4436 17.057C21.4436 16.9956 21.4436 16.9377 21.4436 16.8764C21.4436 16.7946 21.4436 16.7094 21.4436 16.6276C21.4436 16.5799 21.4436 16.5322 21.4436 16.481C21.4501 16.3481 21.4501 16.3481 21.4729 16.2118C21.4989 16.0891 21.4989 16.0891 21.4501 15.9664C21.4436 15.8199 21.4469 15.6904 21.4729 15.5507C21.4989 15.4484 21.4989 15.4484 21.4501 15.3257C21.4469 15.2303 21.4436 15.1349 21.4436 15.0395C21.4436 15.0088 21.4436 14.9781 21.4436 14.9509C21.4469 14.6373 21.4631 14.3238 21.4794 14.0103C21.4924 13.7922 21.4891 13.5843 21.4599 13.3662C21.4371 13.1651 21.4436 12.9674 21.4729 12.7698C21.4924 12.6267 21.4794 12.5006 21.4599 12.3574C21.4404 12.1734 21.4436 11.9894 21.4436 11.8053C21.4436 11.7644 21.4436 11.7201 21.4436 11.6758C21.4436 11.5872 21.4436 11.4986 21.4436 11.41C21.4436 11.2737 21.4436 11.1374 21.4436 11.0011C21.4436 10.9159 21.4436 10.8273 21.4436 10.7421C21.4436 10.7012 21.4436 10.6603 21.4436 10.6194C21.4436 10.4217 21.4566 10.2377 21.4891 10.0434C21.4794 9.9855 21.4631 9.93098 21.4501 9.87304C21.4436 9.66516 21.4566 9.48113 21.4891 9.27665C21.4761 9.24939 21.4631 9.21872 21.4501 9.19145C21.4501 9.11307 21.4501 9.11307 21.4599 9.02106C21.4631 8.98698 21.4631 8.9529 21.4664 8.91882C21.4729 8.84725 21.4794 8.77568 21.4859 8.70412C21.4859 8.67004 21.4891 8.63596 21.4924 8.60188C21.4957 8.55417 21.4957 8.55417 21.4989 8.50987C21.4859 8.394 21.4534 8.37014 21.3688 8.29857C21.2907 8.23723 21.2126 8.1827 21.1313 8.12818C21.1085 8.11114 21.0858 8.0941 21.063 8.07706C21.0142 8.04298 20.9654 8.0089 20.9166 7.97482C20.8418 7.9237 20.7669 7.87258 20.6954 7.82146C20.5522 7.72604 20.4124 7.62721 20.2725 7.52838C20.2269 7.50112 20.1846 7.47044 20.1391 7.43977C20.0968 7.41251 20.0578 7.38525 20.0155 7.35798C19.9797 7.33072 19.9472 7.30686 19.9081 7.28301C19.8268 7.22507 19.8268 7.22507 19.7422 7.23189C19.6934 7.18077 19.6479 7.13306 19.6023 7.08194C19.4885 6.96948 19.3551 6.88087 19.225 6.79226C19.1859 6.765 19.1859 6.765 19.1436 6.73433C19.007 6.62868 19.007 6.62868 18.8476 6.5946C18.7923 6.53667 18.7402 6.47873 18.6849 6.42421C18.5515 6.31856 18.4149 6.22655 18.275 6.13112C18.2392 6.10727 18.2002 6.08001 18.1644 6.05274C18.1091 6.01866 18.1091 6.01866 18.0571 5.98118C18.0245 5.95732 17.992 5.93346 17.9562 5.91302C17.8684 5.85508 17.8684 5.85508 17.748 5.91302C17.7448 5.88575 17.7415 5.8619 17.7383 5.83463C17.6992 5.71195 17.6537 5.68468 17.5528 5.61312C17.5203 5.59267 17.4878 5.56881 17.4552 5.54496C17.4227 5.52451 17.3869 5.50066 17.3544 5.4768C17.3023 5.44272 17.3023 5.44272 17.2535 5.40523C17.0909 5.29618 16.9673 5.2178 16.7721 5.18713C16.7591 5.14623 16.746 5.10193 16.733 5.06103C16.6485 4.99628 16.5639 4.93835 16.476 4.88041C16.424 4.84633 16.3719 4.81225 16.3199 4.77817C16.2939 4.76113 16.2678 4.74409 16.2386 4.72705C16.1312 4.65549 16.0238 4.5771 15.9132 4.50213C15.8742 4.47487 15.8352 4.4476 15.7961 4.42034C15.7115 4.359 15.627 4.30106 15.5424 4.23972C15.5001 4.20905 15.4545 4.18178 15.4123 4.14771C15.3732 4.12044 15.3342 4.09318 15.2919 4.06591C15.204 4.00457 15.1195 3.95686 15.0251 3.90915C14.9991 3.89552 14.9698 3.88188 14.9438 3.86825C14.8885 3.85121 14.8364 3.83758 14.7811 3.82395C14.8007 3.78305 14.8007 3.78306 14.8202 3.73875C14.7616 3.69786 14.7616 3.69786 14.6998 3.65696C14.5502 3.55132 14.3973 3.44908 14.2476 3.34343C14.1826 3.29913 14.1175 3.25482 14.0524 3.21052C13.7206 2.98219 13.3888 2.75386 13.057 2.52212C13.0309 2.50508 13.0082 2.48804 12.9821 2.471C12.8845 2.40284 12.7902 2.33468 12.6991 2.25971C12.5885 2.17792 12.5137 2.18473 12.3803 2.20518C12.2469 2.28697 12.2469 2.28697 12.1396 2.37558C12.1103 2.36194 12.0843 2.34831 12.055 2.33468C12.1103 2.28697 12.1689 2.24607 12.2242 2.20177C12.2567 2.17792 12.286 2.15406 12.3185 2.13021C12.4616 2.05864 12.5137 2.07568 12.6666 2.11998Z" fill="#6B7278"/>
<path d="M0.0605469 9.19141C0.112597 9.2732 0.164648 9.3584 0.216698 9.44359C0.37285 9.67533 0.525749 9.78098 0.792507 9.8321C1.16337 9.85595 1.45615 9.67193 1.76845 9.4913C1.80424 9.62081 1.814 9.73327 1.814 9.86959C1.814 9.91048 1.814 9.95478 1.814 9.99909C1.814 10.0434 1.814 10.0911 1.814 10.1388C1.814 10.1899 1.814 10.2376 1.814 10.2888C1.814 10.4251 1.814 10.5648 1.814 10.7011C1.814 10.8511 1.814 10.9976 1.814 11.1476C1.814 11.3691 1.814 11.594 1.814 11.8189C1.814 12.2586 1.814 12.6982 1.81725 13.1378C1.81725 13.2094 1.81725 13.2775 1.81725 13.3457C1.81725 13.4513 1.81725 13.557 1.81725 13.6626C1.81725 14.0579 1.81725 14.4567 1.81725 14.852C1.81725 14.8895 1.81725 14.9236 1.81725 14.961C1.8205 15.5472 1.8205 16.1334 1.8205 16.7195C1.8205 17.3227 1.8205 17.926 1.8205 18.5292C1.82376 18.8972 1.82376 19.2687 1.8205 19.6401C1.8205 19.8957 1.82051 20.1513 1.82376 20.4069C1.82376 20.5535 1.82376 20.7 1.82376 20.8466C1.82051 21.6168 1.84002 22.3631 2.2239 23.0481C2.23366 23.0719 2.24667 23.0958 2.25643 23.1231C2.24342 23.1503 2.2304 23.1776 2.21739 23.2048C1.89207 22.5812 1.71966 21.9882 1.72291 21.2691C1.72291 21.2214 1.72291 21.1703 1.72291 21.1192C1.72291 20.9829 1.72291 20.8466 1.72291 20.7102C1.72291 20.5603 1.72291 20.4137 1.72291 20.2672C1.72291 20.0116 1.72291 19.756 1.72291 19.497C1.72291 19.129 1.72291 18.7575 1.72291 18.3894C1.72291 17.7896 1.72291 17.1898 1.72616 16.5866C1.72616 16.0039 1.72616 15.4211 1.72616 14.8384C1.72616 14.8043 1.72616 14.7668 1.72616 14.7293C1.72616 14.5487 1.72616 14.3681 1.72616 14.1909C1.72616 12.6948 1.72616 11.1987 1.72942 9.7026C1.56676 9.72986 1.43663 9.76053 1.29024 9.8321C1.04951 9.93775 0.831545 9.96501 0.581052 9.88663C0.376103 9.7912 0.219952 9.64807 0.102838 9.447C0.067053 9.30046 0.0670528 9.30046 0.0605469 9.19141Z" fill="#6C7379"/>
<path d="M6.28387 20.8193C6.43026 20.9079 6.55713 21.0306 6.60918 21.2044C6.6287 21.535 6.6287 21.535 6.5246 21.6713C6.36845 21.7974 6.25784 21.8587 6.05614 21.8519C5.87397 21.8213 5.78288 21.7361 5.67552 21.5793C5.61697 21.4771 5.58769 21.4123 5.59094 21.2896C5.64299 21.1124 5.69179 21.0136 5.82192 20.8875C5.98458 20.8057 6.10494 20.7784 6.28387 20.8193Z" fill="#ACB5BE"/>
<path d="M2.78345 23.8865C2.92008 23.9512 3.02743 24.0364 3.14455 24.1318C3.93832 24.7385 4.79064 24.81 5.75033 24.7998C5.84467 24.7998 5.94226 24.7998 6.0366 24.7998C6.23505 24.7998 6.43349 24.7998 6.63193 24.7964C6.88568 24.7964 7.14268 24.7964 7.39642 24.7964C7.64041 24.793 7.8844 24.793 8.12513 24.793C8.17393 24.793 8.21947 24.793 8.26827 24.793C8.3984 24.793 8.52852 24.7896 8.65865 24.7896C8.69769 24.7896 8.73672 24.7896 8.77576 24.7896C8.81155 24.7896 8.84733 24.7896 8.88312 24.7896C8.92866 24.7896 8.92866 24.7896 8.97746 24.7896C9.04903 24.7896 9.04903 24.7896 9.08807 24.7385C9.07831 24.5681 9.0718 24.4692 8.96445 24.3397C8.93842 24.3159 8.9124 24.2954 8.88637 24.2716C8.89938 24.2443 8.9124 24.2136 8.92541 24.1864C8.96445 24.2341 9.00674 24.2818 9.04577 24.3261C9.06855 24.3534 9.08807 24.3806 9.11084 24.4079C9.16939 24.4863 9.16939 24.4863 9.21169 24.6124C9.18566 24.7214 9.18566 24.7214 9.1271 24.8271C8.9189 24.9463 8.70745 24.902 8.47647 24.868C8.47647 24.9089 8.47647 24.9532 8.47647 24.9975C8.43743 24.9804 8.3984 24.9668 8.35611 24.9532C8.35611 24.9395 8.35611 24.9259 8.35611 24.9089C7.64366 24.8952 6.93448 24.8816 6.19926 24.868C6.19926 24.9089 6.19926 24.9532 6.19926 24.9975C6.17324 24.9838 6.14396 24.9702 6.11468 24.9532C5.99106 24.9089 5.89021 24.8952 5.76009 24.885C5.70153 24.8782 5.70153 24.8782 5.63972 24.8748C5.61044 24.8714 5.58116 24.8714 5.54863 24.868C5.53562 24.8952 5.52261 24.9225 5.50959 24.9532C5.41525 24.9259 5.32091 24.8952 5.22332 24.868C5.2103 24.8952 5.19729 24.9225 5.18428 24.9532C5.18428 24.9259 5.18428 24.8952 5.18428 24.868C5.15175 24.868 5.15175 24.868 5.11596 24.8714C4.3287 24.8986 4.3287 24.8986 3.96434 24.6976C3.88627 24.6669 3.80494 24.6328 3.72686 24.6021C3.36251 24.442 3.01442 24.2307 2.78345 23.8865Z" fill="#62686D"/>
<path d="M20.8808 22.6119C20.9198 22.6323 20.9198 22.6323 20.9621 22.6528C20.5815 22.997 20.1586 23.1299 19.6608 23.1265C19.6283 23.1265 19.5958 23.1265 19.5633 23.1265C19.4559 23.1265 19.3518 23.1265 19.2444 23.1265C19.1729 23.1265 19.0981 23.1265 19.0265 23.1265C18.8313 23.1265 18.6394 23.1231 18.4442 23.1231C18.249 23.1231 18.0505 23.1231 17.8521 23.1231C17.465 23.1231 17.0778 23.1231 16.694 23.1231C16.8241 22.9833 16.9802 22.9936 17.1624 22.9902C17.2145 22.9902 17.2665 22.9902 17.3218 22.9902C17.3511 22.9902 17.3804 22.9936 17.4097 22.9936C17.4747 22.9936 17.5365 22.9936 17.6016 22.9936C17.7024 22.997 17.8033 22.997 17.9041 22.997C18.1904 22.997 18.4767 23.0004 18.763 23.0038C18.9386 23.0072 19.1176 23.0072 19.2932 23.0072C19.3583 23.0072 19.4266 23.0106 19.4917 23.0106C20.0122 23.0174 20.4644 22.9663 20.8808 22.6119Z" fill="#787F84"/>
<path d="M15.7181 24.2272C15.7181 24.3567 15.7181 24.3567 15.6562 24.4351C15.5749 24.5544 15.5912 24.6396 15.5944 24.7827C16.1767 24.7861 16.7558 24.7895 17.3381 24.793C17.6081 24.793 17.8782 24.793 18.1482 24.7964C18.4084 24.7964 18.6687 24.7998 18.9322 24.7998C19.0298 24.7998 19.1274 24.7998 19.2282 24.7998C19.9472 24.8066 20.601 24.7691 21.2647 24.4487C21.3785 24.3942 21.4924 24.3533 21.6128 24.3158C21.2842 24.7112 20.5848 24.8509 20.1001 24.885C19.9667 24.8952 19.83 24.8986 19.6934 24.902C19.547 24.8986 19.547 24.8986 19.4592 24.9531C19.3974 24.9327 19.3974 24.9327 19.3356 24.9088C19.2347 24.9054 19.1339 24.9054 19.033 24.9054C19.0005 24.9054 18.9712 24.9054 18.9387 24.9054C18.8704 24.9054 18.8053 24.9054 18.737 24.9088C18.6329 24.9088 18.5255 24.9088 18.4214 24.9088C18.197 24.9088 17.9725 24.9088 17.748 24.9088C17.4878 24.9122 17.2275 24.9122 16.9673 24.9122C16.8632 24.9122 16.7591 24.9122 16.655 24.9156C16.5899 24.9156 16.5248 24.9156 16.463 24.9156C16.4175 24.9156 16.4175 24.9156 16.3752 24.9156C16.1735 24.9156 16.1735 24.9156 16.0824 24.8679C16.0694 24.8952 16.0564 24.9225 16.0434 24.9531C16.0206 24.9463 15.9978 24.9395 15.9751 24.9361C15.8742 24.9088 15.8742 24.9088 15.7538 24.8952C15.6335 24.8679 15.6335 24.8679 15.5587 24.8168C15.4871 24.6975 15.4936 24.6226 15.5131 24.4862C15.5749 24.3874 15.64 24.3124 15.7181 24.2272Z" fill="#4B5155"/>
<path d="M21.5314 16.5185C21.5444 16.5185 21.5575 16.5185 21.5737 16.5185C21.5737 17.1524 21.577 17.7897 21.577 18.4235C21.5802 18.72 21.5802 19.0165 21.5802 19.3096C21.5835 19.5959 21.5835 19.8787 21.5835 20.165C21.5835 20.274 21.5835 20.3831 21.5835 20.4922C21.5867 20.6421 21.5867 20.7955 21.5867 20.9488C21.5867 20.9931 21.5867 21.0374 21.5867 21.0817C21.5867 21.4736 21.5314 21.8758 21.3265 22.2098C21.307 22.2438 21.2874 22.2779 21.2679 22.312C21.2061 22.3972 21.2061 22.3972 21.0858 22.4824C21.2874 22.0564 21.2874 22.0564 21.3493 21.9371C21.4761 21.6543 21.4631 21.3544 21.4761 21.0476C21.4761 20.9965 21.4794 20.9488 21.4826 20.8977C21.4826 20.85 21.4859 20.8057 21.4859 20.758C21.4891 20.7137 21.4891 20.6694 21.4924 20.6285C21.4989 20.5228 21.4989 20.5228 21.4501 20.4376C21.4469 20.3763 21.4469 20.3149 21.4469 20.2502C21.4469 20.2195 21.4469 20.1854 21.4501 20.1514C21.4501 20.1207 21.4501 20.0866 21.4501 20.0559C21.4501 19.9605 21.4501 19.8651 21.4501 19.7731C21.4469 19.7322 21.4469 19.6947 21.4469 19.6538C21.4469 19.6129 21.4469 19.572 21.4469 19.5311C21.4501 19.4152 21.4501 19.4152 21.4696 19.3198C21.4924 19.1869 21.4989 19.0642 21.4989 18.9313C21.4989 18.8495 21.4989 18.8495 21.5022 18.7677C21.5022 18.7098 21.5022 18.6519 21.5022 18.5939C21.5054 18.536 21.5054 18.4747 21.5054 18.4133C21.5087 18.2565 21.5119 18.0998 21.5119 17.943C21.5152 17.7828 21.5152 17.6227 21.5184 17.4625C21.5249 17.149 21.5282 16.832 21.5314 16.5185Z" fill="#666D73"/>
<path d="M4.65729 22.9936C5.07369 22.9868 5.4901 22.98 5.90975 22.9766C6.10169 22.9731 6.29688 22.9731 6.49207 22.9663C6.6775 22.9629 6.86618 22.9629 7.05486 22.9629C7.12643 22.9595 7.19475 22.9595 7.26632 22.9561C7.89743 22.9425 7.89743 22.9425 8.13166 23.1572C8.20974 23.2458 8.20974 23.2458 8.2748 23.3344C8.29757 23.3617 8.31709 23.3855 8.33986 23.4128C8.38866 23.4707 8.4342 23.5286 8.47649 23.59C8.46348 23.6172 8.45047 23.6479 8.43746 23.6752C8.40167 23.6207 8.40167 23.6207 8.36263 23.5661C8.21299 23.3582 8.08286 23.1913 7.83562 23.1163C7.6567 23.0958 7.47778 23.1026 7.29885 23.1061C7.23379 23.1095 7.16872 23.1095 7.10041 23.1061C6.92799 23.1061 6.75557 23.1095 6.58316 23.1129C6.37495 23.1197 6.1635 23.1197 5.9553 23.1197C5.79264 23.1197 5.62673 23.1197 5.46407 23.1231C5.43479 23.1265 5.40551 23.1265 5.37298 23.1265C5.29165 23.1265 5.21358 23.1299 5.13225 23.1299C4.96308 23.1197 4.81995 23.0856 4.65729 23.0345C4.65729 23.0209 4.65729 23.0072 4.65729 22.9936Z" fill="#767D82"/>
<path d="M21.4891 13.707C21.5054 13.707 21.5184 13.707 21.5314 13.707C21.6225 15.5234 21.5639 17.3432 21.5314 19.1597C21.4501 19.0745 21.4501 19.0745 21.4403 18.962C21.4403 18.9143 21.4403 18.8666 21.4403 18.8189C21.4403 18.7644 21.4403 18.7098 21.4403 18.6553C21.4403 18.5974 21.4403 18.5394 21.4403 18.4781C21.4403 18.4167 21.4403 18.3588 21.4403 18.2975C21.4403 18.1714 21.4403 18.0453 21.4403 17.9158C21.4436 17.7556 21.4436 17.592 21.4436 17.4318C21.4436 17.3058 21.4436 17.1831 21.4436 17.057C21.4436 16.9956 21.4436 16.9377 21.4436 16.8764C21.4436 16.7946 21.4436 16.7094 21.4436 16.6276C21.4436 16.556 21.4436 16.556 21.4436 16.481C21.4501 16.3481 21.4501 16.3481 21.4728 16.2118C21.4989 16.0891 21.4989 16.0891 21.4501 15.9664C21.4436 15.8199 21.4468 15.6904 21.4728 15.5507C21.4989 15.4484 21.4989 15.4484 21.4501 15.3257C21.4273 14.7873 21.4631 14.2454 21.4891 13.707Z" fill="#92999F"/>
<path d="M14.2542 19.0336C14.2932 19.054 14.2932 19.054 14.3322 19.0745C14.137 19.2823 13.9419 19.4868 13.7434 19.6947C13.6784 19.7663 13.61 19.8344 13.5417 19.906C13.4474 20.0082 13.3498 20.1105 13.2522 20.2093C13.2229 20.24 13.1936 20.2707 13.1644 20.3047C13.0017 20.4751 12.8325 20.6387 12.6569 20.7989C12.5723 20.8739 12.4942 20.9556 12.4161 21.0374C12.3868 21.0681 12.3608 21.0988 12.3315 21.1295C12.3023 21.1567 12.2762 21.1874 12.247 21.2181C12.1917 21.2794 12.1331 21.3373 12.0778 21.3987C12.0518 21.4259 12.029 21.4498 12.003 21.4771C11.8468 21.6304 11.8468 21.6304 11.72 21.627C11.5671 21.5725 11.4825 21.4907 11.3654 21.3748C11.3654 21.3476 11.3654 21.3169 11.3654 21.2896C11.4564 21.3339 11.5183 21.3646 11.5833 21.4464C11.6516 21.5145 11.6516 21.5145 11.7622 21.4975C11.9249 21.4498 12.0095 21.3646 12.1233 21.2385C12.1429 21.2181 12.1656 21.1942 12.1852 21.1738C12.2502 21.1022 12.3153 21.0306 12.3803 20.9591C12.4487 20.8875 12.5137 20.8193 12.5788 20.7478C12.6178 20.7035 12.6601 20.6592 12.6992 20.6183C12.7967 20.5126 12.8943 20.4138 13.0017 20.3218C13.1058 20.2298 13.1416 20.1786 13.1936 20.056C13.2359 20.0389 13.275 20.0253 13.3173 20.0116C13.3888 19.9435 13.4539 19.8719 13.5189 19.7969C13.5808 19.7356 13.6393 19.6743 13.7011 19.6095C13.7337 19.5754 13.7662 19.5414 13.7987 19.5073C13.9484 19.3505 14.1013 19.1903 14.2542 19.0336Z" fill="#71787E"/>
<path d="M8.8864 24.1863C9.17268 24.4147 9.17268 24.4147 9.21172 24.6123C9.18894 24.7282 9.18894 24.7282 9.12713 24.827C8.91893 24.9463 8.70748 24.902 8.4765 24.8679C8.4765 24.9088 8.4765 24.9531 8.4765 24.9974C8.43747 24.9804 8.39843 24.9668 8.35614 24.9531C8.35614 24.9395 8.35614 24.9259 8.35614 24.9088C7.67297 24.8952 6.98656 24.8816 6.28387 24.8679C6.28387 24.8543 6.28387 24.8407 6.28387 24.827C6.31641 24.8236 6.35219 24.8236 6.38798 24.8236C6.71329 24.8202 7.03535 24.8168 7.36067 24.81C7.52983 24.81 7.69574 24.8066 7.86166 24.8032C8.02431 24.8032 8.18372 24.7998 8.34638 24.7964C8.40819 24.7964 8.47 24.7964 8.53181 24.7964C8.61639 24.793 8.70422 24.793 8.78881 24.793C8.8376 24.7895 8.8864 24.7895 8.93845 24.7895C9.04255 24.7964 9.04255 24.7964 9.0881 24.7384C9.07834 24.5714 9.07183 24.4726 8.96448 24.3431C8.93845 24.3192 8.91243 24.2954 8.8864 24.2715C8.8864 24.2443 8.8864 24.2136 8.8864 24.1863Z" fill="#434A4F"/>
<path d="M17.8326 9.78784C17.8586 9.80147 17.8847 9.81511 17.9107 9.83214C17.6439 10.0946 17.3739 10.3502 17.0844 10.5921C17.0128 10.6535 16.938 10.7148 16.8664 10.7796C16.8307 10.8102 16.7949 10.8409 16.7591 10.875C16.7266 10.9022 16.6973 10.9295 16.6647 10.9568C16.5606 11.0317 16.4923 11.0556 16.3687 11.0658C16.1052 10.9977 15.8872 10.8545 15.6758 10.6841C15.7018 10.6671 15.7311 10.6535 15.7571 10.6398C15.8417 10.6909 15.8417 10.6909 15.9458 10.7625C16.1377 10.8852 16.2646 10.9431 16.4891 10.9363C16.6745 10.8409 16.8241 10.6978 16.977 10.5546C17.0323 10.5035 17.0844 10.4558 17.1397 10.4047C17.1657 10.3808 17.1918 10.357 17.221 10.3297C17.3479 10.2138 17.4748 10.1014 17.6049 9.98891C17.6374 9.95824 17.6374 9.95824 17.6732 9.92757C17.7253 9.87986 17.7773 9.83555 17.8326 9.78784Z" fill="#6E757B"/>
<path d="M21.5315 24.3159C21.5575 24.3295 21.5868 24.3431 21.6128 24.3568C20.9784 24.7214 20.4156 24.8816 19.6934 24.902C19.547 24.8986 19.547 24.8986 19.4592 24.9531C19.4169 24.9395 19.3779 24.9259 19.3356 24.9088C19.3356 24.8816 19.3356 24.8543 19.3356 24.827C19.3844 24.8236 19.4364 24.8236 19.4885 24.8236C20.1781 24.7998 20.8418 24.7044 21.4566 24.3465C21.4827 24.3363 21.5054 24.3261 21.5315 24.3159Z" fill="#666C71"/>
<path d="M10.2657 16.8593C10.2885 16.9002 10.2885 16.9002 10.308 16.9445C9.98269 17.5136 9.98269 17.5136 9.78425 17.5818C9.6834 17.5784 9.59231 17.5682 9.49472 17.5409C9.49472 17.5136 9.49472 17.4864 9.49472 17.4557C9.46869 17.4557 9.43941 17.4557 9.41339 17.4557C9.41339 17.4284 9.41339 17.3978 9.41339 17.3705C9.38736 17.3705 9.36134 17.3705 9.33206 17.3705C9.33206 17.3432 9.33206 17.316 9.33206 17.2853C9.30603 17.2853 9.27676 17.2853 9.25073 17.2853C9.25073 17.258 9.25073 17.2274 9.25073 17.2001C9.22796 17.1899 9.20519 17.1797 9.17916 17.1694C9.0653 17.1013 9.00349 17.0127 8.92542 16.9002C8.98072 16.9309 9.03277 16.9581 9.08807 16.9888C9.1206 17.0024 9.15314 17.0195 9.18567 17.0365C9.28652 17.1115 9.33531 17.1694 9.40688 17.2683C9.50448 17.3944 9.52725 17.4114 9.68665 17.4523C9.75822 17.4557 9.82979 17.4557 9.90136 17.4557C9.91112 17.4318 9.92088 17.408 9.93389 17.3841C9.9892 17.2683 10.0575 17.166 10.1291 17.0604C10.1551 17.0229 10.1811 16.9854 10.2072 16.9479C10.2364 16.9036 10.2364 16.9036 10.2657 16.8593Z" fill="#6A7277"/>
<path d="M21.4891 8.46893C21.5737 8.55072 21.5737 8.55072 21.5802 8.69727C21.5802 8.76202 21.5802 8.82336 21.5802 8.88811C21.5802 8.91878 21.5802 8.95286 21.5802 8.98694C21.5802 9.09259 21.577 9.19823 21.577 9.30388C21.577 9.37544 21.577 9.44701 21.577 9.51858C21.5737 9.69238 21.5737 9.8696 21.5737 10.0434C21.5314 10.0161 21.4924 9.98887 21.4501 9.9582C21.4371 9.86619 21.4371 9.86619 21.4403 9.75713C21.4403 9.71624 21.4403 9.67875 21.4436 9.64126C21.4501 9.51858 21.4696 9.3993 21.4891 9.27661C21.4761 9.24935 21.4631 9.21868 21.4501 9.19142C21.4534 9.06873 21.4599 8.94605 21.4664 8.82336C21.4696 8.78928 21.4729 8.7552 21.4729 8.72112C21.4794 8.63592 21.4859 8.55072 21.4891 8.46893Z" fill="#7C8389"/>
<path d="M8.0731 17.8817C8.09262 17.9226 8.09262 17.9226 8.11214 17.9669C8.06009 17.9464 8.06009 17.9464 8.00804 17.926C7.74128 17.8442 7.41922 17.8203 7.15571 17.9226C7.07438 17.9737 7.00281 18.0282 6.9345 18.093C6.89546 18.1236 6.89546 18.1236 6.85967 18.1577C6.80112 18.2054 6.74581 18.2565 6.68726 18.3077C6.73605 18.0998 6.84991 18.0112 7.00932 17.8953C7.33789 17.684 7.74128 17.6908 8.0731 17.8817Z" fill="#72797E"/>
<path d="M24.2153 7.99866C24.5634 8.12134 24.7748 8.34286 24.9472 8.68025C25.0221 8.9188 25.0188 9.15736 24.9277 9.38569C24.9082 9.41977 24.8854 9.45385 24.8659 9.49133C24.8529 9.46066 24.8399 9.4334 24.8269 9.40273C24.8464 9.35161 24.8464 9.35161 24.8659 9.29367C24.9277 9.07557 24.9147 8.88472 24.8269 8.67343C24.726 8.4894 24.6024 8.35649 24.4462 8.22699C24.3617 8.15542 24.2901 8.07704 24.2153 7.99866Z" fill="#656C71"/>
<path d="M14.7812 18.5223C14.8202 18.536 14.8625 18.5496 14.9048 18.5632C14.7226 18.7847 14.5339 18.9995 14.3322 19.2039C14.3062 19.1733 14.2802 19.146 14.2542 19.1153C14.381 18.887 14.5437 18.7336 14.7421 18.5632C14.7551 18.5496 14.7681 18.536 14.7812 18.5223Z" fill="#A6AFB6"/>
<path d="M12.9919 16.3481C13.0179 16.3617 13.044 16.3753 13.0732 16.389C12.8715 16.6344 12.6666 16.8729 12.4551 17.1081C12.4259 17.1387 12.3998 17.1694 12.3706 17.2035C12.3413 17.2341 12.3153 17.2648 12.286 17.2955C12.26 17.3228 12.2372 17.3534 12.2112 17.3807C12.1363 17.4557 12.0583 17.5204 11.9769 17.5818C12.068 17.3671 12.2144 17.1898 12.3803 17.0297C12.4096 17.0297 12.4356 17.0297 12.4649 17.0297C12.4714 17.0058 12.4812 16.982 12.4909 16.9581C12.5592 16.8286 12.6503 16.7434 12.7512 16.6412C12.8878 16.5083 12.8878 16.5083 12.9919 16.3481Z" fill="#6D747A"/>
<path d="M8.4765 2.63116C8.50578 2.6448 8.53181 2.65843 8.56108 2.67547C8.0113 3.05716 8.0113 3.05716 7.46152 3.43885C7.43549 3.42521 7.40947 3.41158 7.38019 3.39795C7.66647 3.15939 7.97552 2.96173 8.28782 2.76067C8.35288 2.71977 8.41469 2.67547 8.4765 2.63116Z" fill="#676E74"/>
<path d="M12.3022 15.1553C12.3901 15.1417 12.3901 15.1417 12.5039 15.1553C12.5918 15.2439 12.5918 15.2439 12.6406 15.3018C12.7805 15.445 12.9529 15.554 13.1155 15.6665C12.826 15.6665 12.5235 15.3768 12.3022 15.1962C12.3022 15.1826 12.3022 15.1689 12.3022 15.1553Z" fill="#686E73"/>
<path d="M4.9826 7.14667C5.00863 7.1603 5.03465 7.17393 5.06068 7.18756C4.93381 7.38182 4.77765 7.51813 4.5727 7.61696C4.54668 7.59992 4.52065 7.58629 4.49463 7.57266C4.49463 7.5454 4.49463 7.51472 4.49463 7.48746C4.5727 7.42612 4.65403 7.36818 4.73536 7.31025C4.76139 7.29662 4.78416 7.27958 4.80693 7.26254C4.86549 7.22505 4.92405 7.18415 4.9826 7.14667Z" fill="#979FA6"/>
<path d="M8.92542 16.9002C9.14988 17.0161 9.3223 17.1354 9.49472 17.3296C9.4817 17.3569 9.46869 17.3841 9.45243 17.4114C9.41339 17.3978 9.37435 17.3841 9.33206 17.3705C9.33206 17.3432 9.33206 17.316 9.33206 17.2853C9.30603 17.2853 9.27676 17.2853 9.25073 17.2853C9.25073 17.258 9.25073 17.2274 9.25073 17.2001C9.22796 17.1899 9.20519 17.1797 9.17916 17.1694C9.0653 17.1013 9.00349 17.0127 8.92542 16.9002Z" fill="#90989F"/>
<path d="M13.3562 19.9265C13.3855 19.9537 13.4115 19.981 13.4408 20.0117C13.2651 20.1957 13.0895 20.3763 12.9106 20.5671C12.8845 20.5365 12.8552 20.5092 12.8292 20.4785C12.8487 20.4649 12.8683 20.4479 12.8878 20.4308C12.9138 20.407 12.9398 20.3865 12.9659 20.3627C12.9919 20.3422 13.0179 20.3184 13.0439 20.2979C13.1188 20.2298 13.1188 20.2298 13.1545 20.1343C13.1936 20.056 13.1936 20.056 13.3172 20.0117C13.3302 19.9844 13.3432 19.9537 13.3562 19.9265Z" fill="#858D94"/>
<path d="M15.7961 6.33557C15.9523 6.40373 16.0499 6.50938 16.1637 6.63547C16.1865 6.65933 16.2125 6.68659 16.2386 6.71385C16.2548 6.73089 16.2679 6.74452 16.2841 6.76497C16.2711 6.79224 16.2581 6.8195 16.2451 6.84676C16.1865 6.80246 16.1247 6.75816 16.0662 6.71385C16.0336 6.68659 16.0011 6.66273 15.9686 6.63547C15.871 6.54346 15.8384 6.46848 15.7961 6.33557Z" fill="#889097"/>
<path d="M17.7089 15.6256C17.735 15.6392 17.761 15.6529 17.7903 15.6665C17.6244 15.8471 17.465 16.0039 17.26 16.1368C17.3218 15.98 17.4097 15.8914 17.53 15.7824C17.5821 15.7381 17.5821 15.7381 17.6309 15.6938C17.6569 15.6699 17.6829 15.6461 17.7089 15.6256Z" fill="#CAD4DD"/>
<path d="M19.3356 24.827C19.6023 24.827 19.8723 24.827 20.1489 24.827C20.1489 24.8407 20.1489 24.8543 20.1489 24.8679C20.0838 24.8713 20.0838 24.8713 20.0187 24.8747C19.9634 24.8781 19.9049 24.8816 19.8496 24.885C19.8203 24.8884 19.791 24.8884 19.7617 24.8918C19.6056 24.8986 19.6056 24.8986 19.4592 24.9531C19.4169 24.9395 19.3779 24.9259 19.3356 24.9088C19.3356 24.8816 19.3356 24.8543 19.3356 24.827Z" fill="#5B6266"/>
<path d="M22.0194 24.0569C21.9121 24.1421 21.8047 24.2273 21.6941 24.3159C21.6681 24.2988 21.6388 24.2852 21.6128 24.2716C21.6128 24.2443 21.6128 24.2136 21.6128 24.1864C21.8275 24.0092 21.8275 24.0092 22.0194 24.0569Z" fill="#8D959D"/>
<path d="M11.3654 21.2896C11.4564 21.3305 11.5183 21.3612 11.5801 21.443C11.6907 21.5384 11.798 21.5111 11.9347 21.5009C11.8859 21.5691 11.8859 21.5691 11.8143 21.6304C11.6126 21.6304 11.502 21.5111 11.3654 21.3748C11.3654 21.3475 11.3654 21.3169 11.3654 21.2896Z" fill="#7D848A"/>
<path d="M16.1638 17.1149C16.1898 17.1558 16.2191 17.2001 16.2451 17.241C16.1247 17.3466 16.1247 17.3466 16.0011 17.4557C16.0011 17.2887 16.0629 17.2376 16.1638 17.1149Z" fill="#B3BCC5"/>
<path d="M8.27478 24.827C8.42117 24.827 8.57082 24.827 8.72372 24.827C8.72372 24.8407 8.72372 24.8543 8.72372 24.8679C8.64239 24.8679 8.56106 24.8679 8.47648 24.8679C8.47648 24.9088 8.47648 24.9531 8.47648 24.9974C8.35611 24.9531 8.35611 24.9531 8.27478 24.827Z" fill="#666B70"/>
<path d="M12.3022 15.1553C12.3673 15.1553 12.4356 15.1553 12.5039 15.1553C12.53 15.2099 12.556 15.2678 12.5853 15.3257C12.4519 15.3019 12.3901 15.261 12.3022 15.1553Z" fill="#8F979D"/>
<path d="M7.91046 24.9089C8.02432 24.9055 8.02432 24.9055 8.1512 24.9089C8.18047 24.9395 8.2065 24.9668 8.23578 24.9975C8.11866 25.0009 8.11866 25.0009 7.98854 24.9975C7.96251 24.9668 7.93649 24.9395 7.91046 24.9089Z" fill="#B8BFC6"/>
<path d="M0.668945 9.95819C0.779553 9.95819 0.883655 9.95819 0.994263 9.95819C0.981249 9.98545 0.968237 10.0161 0.955223 10.0434C0.860882 10.0298 0.76654 10.0161 0.668945 10.0025C0.668945 9.98545 0.668945 9.97182 0.668945 9.95819Z" fill="#B4BCC2"/>
<path d="M6.32288 24.9088C6.39119 24.9088 6.45626 24.9088 6.52457 24.9088C6.49855 24.9395 6.47252 24.9667 6.4465 24.9974C6.40421 24.9667 6.36517 24.9395 6.32288 24.9088Z" fill="#BBC3C9"/>
<path d="M13.1545 15.8369C13.1676 15.8369 13.1806 15.8369 13.1936 15.8369C13.1936 15.9221 13.1936 16.0073 13.1936 16.0925C13.1806 16.0925 13.1676 16.0925 13.1545 16.0925C13.1545 16.0073 13.1545 15.9255 13.1545 15.8369Z" fill="#BAC1C8"/>
<path d="M8.5611 24.9088C8.61315 24.9259 8.6652 24.9395 8.72375 24.9531C8.68146 24.9736 8.68146 24.9736 8.63917 24.9974C8.61315 24.9667 8.58712 24.9395 8.5611 24.9088Z" fill="#B8BFC6"/>
<path d="M18.6459 24.9088C18.8085 24.9531 18.8085 24.9531 18.8085 24.9531L18.6459 24.9088Z" fill="#BEC5CB"/>
<path d="M11.284 24.1863C11.31 24.2136 11.3393 24.2409 11.3653 24.2715C11.3263 24.2579 11.284 24.2443 11.2417 24.2272C11.258 24.2136 11.271 24.2 11.284 24.1863Z" fill="#B5BCC2"/>
<path d="M10.5911 23.5457C10.6334 23.5627 10.6724 23.5763 10.7147 23.59C10.6756 23.59 10.6334 23.59 10.5911 23.59C10.5911 23.5763 10.5911 23.5627 10.5911 23.5457Z" fill="#BFC8CF"/>
<path d="M14.6575 5.99475C14.8201 6.03905 14.8201 6.03905 14.8201 6.03905L14.6575 5.99475Z" fill="#B9C1C9"/>
<path d="M17.0583 24.9088C17.182 24.9531 17.182 24.9531 17.182 24.9531L17.0583 24.9088Z" fill="#BFC5CC"/>
<path d="M4.69635 24.9088C4.81997 24.9531 4.81997 24.9531 4.81997 24.9531L4.69635 24.9088Z" fill="#B5BDC2"/>
<path d="M19.1729 16.7741C19.2119 16.7946 19.2119 16.7946 19.2542 16.8184C19.2151 16.8389 19.2151 16.8389 19.1729 16.8593C19.1729 16.832 19.1729 16.8048 19.1729 16.7741Z" fill="#BBC4CB"/>
<path d="M12.9105 15.7074C13.0309 15.7517 13.0309 15.7517 13.0309 15.7517L12.9105 15.7074Z" fill="#C0C6CE"/>
<path d="M11.6516 14.9849C11.772 15.0258 11.772 15.0258 11.772 15.0258L11.6516 14.9849Z" fill="#BEC5CC"/>
<path d="M17.8716 11.6622C17.8846 11.6894 17.8976 11.7201 17.9107 11.7474C17.8846 11.7337 17.8586 11.7201 17.8326 11.7065C17.8456 11.6894 17.8586 11.6758 17.8716 11.6622Z" fill="#BFC7CE"/>
<path d="M11.6093 10.5955C11.6353 10.5955 11.6646 10.5955 11.6906 10.5955C11.6776 10.6262 11.6646 10.6535 11.6515 10.6841C11.6353 10.6535 11.6223 10.6262 11.6093 10.5955Z" fill="#BDC5CD"/>
<path d="M24.0135 9.95819C24.1339 10.0025 24.1339 10.0025 24.1339 10.0025L24.0135 9.95819Z" fill="#B6BEC5"/>
<path d="M16.1215 6.50598C16.1507 6.50598 16.1768 6.50598 16.206 6.50598C16.1898 6.53665 16.1768 6.56392 16.1638 6.59459C16.1507 6.56392 16.1377 6.53665 16.1215 6.50598Z" fill="#BAC0C8"/>
<path d="M20.0252 24.9088C20.1098 24.9531 20.1098 24.9531 20.1098 24.9531L20.0252 24.9088Z" fill="#B5BCC3"/>
<path d="M15.7571 24.9088C15.8384 24.9531 15.8384 24.9531 15.8384 24.9531L15.7571 24.9088Z" fill="#B9BFC5"/>
<path d="M7.58514 24.9088C7.66322 24.9531 7.66322 24.9531 7.66322 24.9531L7.58514 24.9088Z" fill="#BEC5CC"/>
<path d="M7.42249 24.9088C7.50056 24.9531 7.50056 24.9531 7.50056 24.9531L7.42249 24.9088Z" fill="#BDC4CA"/>
<path d="M7.29883 24.9088C7.38016 24.9531 7.38016 24.9531 7.38016 24.9531L7.29883 24.9088Z" fill="#BDC4CC"/>
<path d="M6.93451 24.9088C7.01259 24.9531 7.01259 24.9531 7.01259 24.9531L6.93451 24.9088Z" fill="#BCC3CA"/>
<path d="M5.7113 24.9088C5.79589 24.9531 5.79589 24.9531 5.79589 24.9531L5.7113 24.9088Z" fill="#BFC5CC"/>
<path d="M5.02167 24.9088C5.103 24.9531 5.103 24.9531 5.103 24.9531L5.02167 24.9088Z" fill="#BDC4CB"/>
<path d="M4.41003 24.8679C4.49462 24.9088 4.49462 24.9088 4.49462 24.9088L4.41003 24.8679Z" fill="#B4BAC2"/>
<path d="M6.19934 21.886C6.28392 21.9303 6.28392 21.9303 6.28392 21.9303L6.19934 21.886Z" fill="#B9C0C7"/>
<path d="M5.99756 20.7375C6.07889 20.7784 6.07889 20.7784 6.07889 20.7784L5.99756 20.7375Z" fill="#BAC1CA"/>
<path d="M12.4226 18.9893C12.5039 19.0336 12.5039 19.0336 12.5039 19.0336L12.4226 18.9893Z" fill="#BEC4CA"/>
<path d="M13.6815 17.8408C13.7661 17.8817 13.7661 17.8817 13.7661 17.8817L13.6815 17.8408Z" fill="#BDC1C9"/>
<path d="M15.4318 17.7112C15.5131 17.7521 15.5131 17.7521 15.5131 17.7521L15.4318 17.7112Z" fill="#BEC6CC"/>
<path d="M14.8624 12.8993C14.9438 12.9402 14.9438 12.9402 14.9438 12.9402L14.8624 12.8993Z" fill="#BBC1C8"/>
<path d="M14.1696 12.6403C14.2541 12.6846 14.2541 12.6846 14.2541 12.6846L14.1696 12.6403Z" fill="#BBC3CA"/>
<path d="M19.2119 10.3433C19.2965 10.3842 19.2965 10.3842 19.2965 10.3842L19.2119 10.3433Z" fill="#BCC3C9"/>
<path d="M24.3389 9.91388C24.4169 9.95818 24.4169 9.95818 24.4169 9.95818L24.3389 9.91388Z" fill="#B6BDC3"/>
<path d="M10.2267 8.85065C10.308 8.89154 10.308 8.89154 10.308 8.89154L10.2267 8.85065Z" fill="#BCC4CA"/>
<path d="M21.4111 5.95386C21.4891 5.99475 21.4891 5.99475 21.4891 5.99475L21.4111 5.95386Z" fill="#B4BCC4"/>
<path d="M8.11218 5.18707C8.19351 5.23138 8.19351 5.23138 8.19351 5.23138L8.11218 5.18707Z" fill="#BBC2C7"/>
<path d="M15.9197 4.5498C16.0011 4.5907 16.0011 4.5907 16.0011 4.5907L15.9197 4.5498Z" fill="#BCC2CA"/>
<path d="M12.9105 2.46075C12.9919 2.50506 12.9919 2.50506 12.9919 2.50506L12.9105 2.46075Z" fill="#BCC6CB"/>
<path d="M12.8292 2.41644C12.9106 2.46075 12.9106 2.46075 12.9106 2.46075L12.8292 2.41644Z" fill="#BDC6CD"/>
</svg>
