<svg width="25" height="25" viewBox="0 0 25 25" fill="none" xmlns="http://www.w3.org/2000/svg">
<path d="M9.80204 0C11.8098 0 13.8132 -7.63881e-07 15.8209 0.0131563C16.347 0.0131563 16.8774 0.0131563 17.4034 0.0131563C18.0961 0.0131563 18.7843 0.0197352 19.477 0.0197352C19.8145 0.0197352 20.1521 0.0263126 20.494 0.0263126C20.7745 0.0263126 21.0595 0.0263126 21.3444 0.0263126C21.4891 0.0263126 21.6338 0.0263126 21.7784 0.0263126C22.8831 0.0263126 22.8831 0.0263133 23.3346 0.328946C23.3741 0.355262 23.4179 0.381577 23.4574 0.407893C24.1193 0.86184 24.5665 1.68421 24.8251 2.69737C24.9698 3.30263 24.9785 3.89474 24.9785 4.53289C24.9785 4.64473 24.9829 4.75658 24.9829 4.86842C24.9829 5.17105 24.9873 5.47368 24.9873 5.76974C24.9873 6.02631 24.9873 6.28289 24.9917 6.54605C25.0049 9.35526 25.0005 12.1645 24.9917 14.9803C24.9917 15.5263 24.9873 16.0724 24.9873 16.6118C24.9873 17.1513 24.9829 17.6908 24.9829 18.2237C24.9829 18.5395 24.9785 18.8553 24.9785 19.1776C24.9785 19.4671 24.9785 19.7566 24.9785 20.0526C24.9785 20.1579 24.9742 20.2632 24.9742 20.3684C24.9742 20.9539 24.9522 21.4803 24.8251 22.0395C24.812 22.0987 24.7988 22.1513 24.79 22.2105C24.5752 23.1579 24.0448 23.9474 23.4662 24.4079C22.9445 24.7368 22.9445 24.7368 22.6771 24.7368C22.6639 24.7829 22.6464 24.8224 22.6332 24.8684C18.7887 24.9211 14.9442 24.9408 11.0996 24.9408C10.7796 24.9408 10.4596 24.9408 10.1396 24.9408C6.15915 24.9474 6.15915 24.9474 4.26976 24.9145C4.13387 24.9145 3.99359 24.9145 3.85769 24.9079C2.17872 24.8947 2.17872 24.8947 1.5913 24.4079C1.55184 24.375 1.50801 24.3421 1.46417 24.3092C0.806609 23.7763 0.412071 22.9803 0.144663 21.9408C0.0350702 21.3816 0 20.8355 0 20.25C0 20.1776 0 20.1118 0 20.0395C0 19.8026 0 19.5658 0 19.3355C0 19.1645 0 19 0 18.8289C0 18.4211 0 18.0132 0 17.5987C0 17.2697 0 16.9342 0 16.6053C0 16.5526 0 16.5066 0 16.4605C0 16.3618 0 16.2632 0 16.1711C0 15.2632 0 14.3618 0 13.4539C0.00438346 12.6842 0 11.9079 0 11.1316C0 10.2303 0 9.33552 0 8.43421C0 8.33552 0 8.23684 0 8.14474C0 8.09868 0 8.04605 0 8C0 7.67105 0 7.33552 0 7.00658C0 6.55263 0 6.10526 0 5.65789C0 5.49342 0 5.32895 0 5.17105C0 4.94079 0 4.7171 0 4.49342C0 4.42763 0 4.36842 0 4.30263C0.00438346 3.05921 0.263025 2.08553 0.828527 1.17763C1.56938 0.105263 2.42421 0.0263126 3.40178 0.0263126C3.5596 0.0263126 3.71741 0.0197352 3.87523 0.0197352C4.19086 0.0131567 4.51087 0.0131563 4.83088 0.0131563C5.09391 0.0131563 5.36131 0.0131559 5.62434 0.00657734C6.92631 -1.18503e-06 8.2239 0 9.52148 0C9.61354 0 9.70998 0 9.80204 0ZM2.07351 2.36842C2.08228 2.57895 2.12173 2.63816 2.23132 2.78289C2.27954 2.8421 2.32777 2.90131 2.38037 2.95395C2.40667 2.98684 2.43298 3.01974 2.46366 3.05263C2.52065 3.11842 2.58202 3.18421 2.63901 3.25C2.76176 3.38816 2.8845 3.53289 3.01163 3.67763C3.073 3.75 3.13437 3.82237 3.20013 3.89474C3.47192 4.20395 3.74371 4.52631 4.01551 4.84868C4.60293 5.54605 5.19473 6.23684 5.79092 6.92105C6.01011 7.17763 6.22929 7.43421 6.44848 7.69079C6.64137 7.92105 6.83425 8.14473 7.03152 8.36842C7.20248 8.56579 7.37345 8.76974 7.54442 8.9671C7.76799 9.23684 8.00032 9.5 8.22828 9.76316C8.52637 10.1053 8.8157 10.4474 9.10503 10.7961C9.33298 11.0724 9.5697 11.3487 9.80204 11.625C9.87656 11.7105 9.95109 11.7961 10.0256 11.8816C10.1527 12.0329 10.2799 12.1842 10.407 12.3355C10.464 12.4013 10.5254 12.4737 10.5823 12.5461C10.9243 12.9474 11.2662 13.3487 11.6169 13.7303C11.6607 13.7829 11.709 13.8289 11.7572 13.8816C12.0904 14.2039 12.3797 14.2895 12.7698 14.2105C13.1118 14.0395 13.3836 13.7303 13.6553 13.3816C13.7869 13.2171 13.9184 13.0526 14.0587 12.9013C14.0806 12.8684 14.1069 12.8421 14.1288 12.8158C14.177 12.7632 14.2252 12.7039 14.2735 12.6513C14.3918 12.5132 14.5102 12.375 14.6285 12.2434C14.6548 12.2171 14.6768 12.1842 14.7031 12.1579C14.9047 11.9276 15.102 11.6908 15.3036 11.4539C15.4702 11.2566 15.6412 11.0592 15.8121 10.8618C16.0182 10.625 16.2198 10.3882 16.4215 10.1447C16.6801 9.82895 16.9475 9.51973 17.2149 9.21052C17.7059 8.65131 18.1925 8.08553 18.6747 7.51316C19.0473 7.07237 19.4243 6.63158 19.797 6.19737C20.231 5.69079 20.6649 5.18421 21.0989 4.67105C21.4365 4.26974 21.7784 3.86842 22.1203 3.47368C22.3921 3.15131 22.6683 2.82895 22.9401 2.5C22.8963 2.39473 22.8963 2.39473 22.8086 2.30263C22.6946 2.28289 22.585 2.27631 22.471 2.27631C22.436 2.27631 22.4009 2.27631 22.3658 2.27631C22.2475 2.27631 22.1291 2.27631 22.0108 2.27631C21.9275 2.27631 21.8398 2.27631 21.7565 2.27631C21.5242 2.27631 21.2874 2.27631 21.0551 2.27631C20.8008 2.27631 20.5466 2.27631 20.2967 2.27631C19.8014 2.27631 19.306 2.27631 18.8106 2.28289C18.2364 2.28289 17.6621 2.28289 17.0834 2.28289C16.0576 2.28289 15.0318 2.28289 14.0017 2.28289C13.0066 2.28289 12.0071 2.28947 11.012 2.28947C10.9813 2.28947 10.9506 2.28947 10.9155 2.28947C10.7928 2.28947 10.67 2.28947 10.5473 2.28947C10.4859 2.28947 10.4201 2.28947 10.3588 2.28947C10.2974 2.28947 10.236 2.28947 10.1747 2.28947C9.19709 2.28947 8.21513 2.28947 7.23756 2.28947C6.89124 2.28947 6.54492 2.28947 6.20299 2.28947C5.65502 2.28947 5.10706 2.28947 4.56347 2.28947C4.3136 2.28947 4.06373 2.28947 3.81385 2.28947C3.5859 2.28947 3.35794 2.28947 3.12999 2.29605C3.0467 2.29605 2.96341 2.29605 2.88012 2.29605C2.76614 2.29605 2.65655 2.29605 2.54257 2.29605C2.49435 2.29605 2.49435 2.29605 2.44174 2.29605C2.31023 2.29605 2.20502 2.30263 2.07351 2.36842ZM23.3259 4.63158C23.1374 4.86842 22.9445 5.09868 22.7472 5.32237C22.5456 5.55921 22.3439 5.78947 22.1423 6.02631C22.1028 6.07237 22.1028 6.07237 22.0634 6.11842C21.9143 6.29605 21.7697 6.47368 21.6206 6.65131C21.4409 6.86842 21.2568 7.07894 21.0726 7.29605C20.6167 7.81579 20.1608 8.34868 19.7137 8.88816C19.4901 9.15131 19.2665 9.41447 19.0386 9.67105C18.666 10.0987 18.2977 10.5263 17.9339 10.9605C17.855 11.0526 17.7761 11.1447 17.6972 11.2434C17.3947 11.5921 17.0966 11.9474 16.8029 12.3026C16.9344 12.5461 17.0615 12.7632 17.2193 12.9671C17.4604 13.2763 17.684 13.6184 17.9076 13.9539C17.9514 14.0197 17.9909 14.0855 18.0347 14.1513C18.1136 14.2697 18.1925 14.3882 18.2714 14.5066C18.3109 14.5592 18.346 14.6184 18.381 14.6711C18.4161 14.7237 18.4512 14.7829 18.4906 14.8355C18.6002 15 18.7142 15.1579 18.8325 15.3158C19.0561 15.6184 19.2709 15.9342 19.4813 16.2566C19.512 16.3026 19.5427 16.3487 19.5734 16.3947C19.7005 16.5855 19.8277 16.7763 19.9504 16.9671C20.0468 17.1118 20.1389 17.25 20.231 17.3947C20.2616 17.4408 20.2879 17.4803 20.3186 17.5263C20.3581 17.5855 20.3581 17.5855 20.3975 17.6447C20.4238 17.6842 20.4458 17.7171 20.4677 17.7566C20.5291 17.8421 20.5291 17.8421 20.6167 17.8289C20.6299 17.8947 20.6474 17.9605 20.6606 18.0263C20.7263 18.125 20.7263 18.125 20.8096 18.2303C21.0332 18.5132 21.2392 18.8224 21.4453 19.1316C21.5066 19.2303 21.568 19.3224 21.6294 19.4145C21.7609 19.6118 21.888 19.8026 22.0195 20C22.1247 20.1579 22.2343 20.3224 22.3395 20.4803C22.4184 20.6053 22.4974 20.7237 22.5763 20.8421C22.7472 21.0987 22.9138 21.3487 23.0892 21.5855C23.1155 21.625 23.1418 21.6579 23.1681 21.6974C23.2557 21.8026 23.2557 21.8026 23.4223 21.7763C23.567 21.5461 23.6021 21.3355 23.6021 21.0263C23.6021 20.9671 23.6021 20.9079 23.6021 20.8487C23.6021 20.75 23.6021 20.75 23.6021 20.6447C23.6021 20.5789 23.6021 20.5066 23.6021 20.4342C23.6021 20.2039 23.6021 19.9671 23.6021 19.7368C23.6021 19.5658 23.6021 19.4013 23.6021 19.2303C23.6021 18.875 23.6021 18.5132 23.6021 18.1513C23.6021 17.6316 23.6021 17.1053 23.6021 16.5855C23.6021 15.7434 23.6021 14.8947 23.6021 14.0461C23.6021 13.2303 23.6021 12.4079 23.6021 11.5855C23.6021 11.5329 23.6021 11.4803 23.6021 11.4276C23.6021 11.1776 23.6021 10.921 23.6021 10.6645C23.5977 8.55921 23.5977 6.44737 23.5977 4.3421C23.5012 4.3421 23.3916 4.54605 23.3259 4.63158ZM1.45979 4.47368C1.39403 4.57237 1.41156 4.66447 1.41156 4.80263C1.41156 4.86184 1.41156 4.91447 1.41156 4.97368C1.41156 5.03947 1.41156 5.10526 1.41156 5.17105C1.41156 5.23684 1.41156 5.30263 1.41156 5.36842C1.41156 5.59868 1.41156 5.82237 1.41156 6.04605C1.41156 6.21053 1.40718 6.36842 1.40718 6.53289C1.40718 6.92105 1.40718 7.31579 1.40718 7.71052C1.40718 8.03289 1.40718 8.34868 1.40718 8.67105C1.40718 9.57895 1.40718 10.4868 1.40718 11.3882C1.40718 11.4408 1.40718 11.4868 1.40718 11.5395C1.40718 11.5855 1.40718 11.6382 1.40718 11.6842C1.40718 12.4803 1.40718 13.2763 1.40718 14.0658C1.40718 14.8816 1.40718 15.6974 1.40718 16.5066C1.40718 16.9671 1.40718 17.4211 1.40718 17.8816C1.4028 18.3092 1.4028 18.7434 1.40718 19.1711C1.40718 19.3289 1.40718 19.4868 1.4028 19.6447C1.4028 19.8618 1.4028 20.0789 1.40718 20.2895C1.4028 20.3553 1.4028 20.4145 1.4028 20.4803C1.40718 20.8553 1.41595 21.2237 1.50362 21.5789C1.60883 21.75 1.60883 21.75 1.72281 21.8421C1.7535 21.7961 1.7798 21.7566 1.81048 21.7105C2.09104 21.2895 2.36722 20.875 2.6434 20.4539C2.78806 20.2434 2.92834 20.0263 3.073 19.8092C3.2089 19.6053 3.34918 19.4013 3.48507 19.1908C3.53768 19.1118 3.59028 19.0329 3.64289 18.9539C3.71741 18.8421 3.78755 18.7303 3.86207 18.625C3.88399 18.5921 3.90591 18.5592 3.92783 18.5263C4.08126 18.2961 4.08126 18.2961 4.1777 18.2237C4.1777 18.1776 4.1777 18.1382 4.1777 18.0921C4.20839 18.0921 4.23469 18.0921 4.26538 18.0921C4.4495 17.8355 4.61608 17.5526 4.78266 17.2697C4.92294 17.0395 5.0676 16.8421 5.2298 16.6447C5.29117 16.5395 5.34816 16.4276 5.40515 16.3158C5.51913 16.1316 5.63749 15.9671 5.769 15.8092C5.82599 15.7368 5.82599 15.7368 5.88736 15.6579C5.88736 15.6118 5.88736 15.5724 5.88736 15.5263C5.94435 15.4803 6.00134 15.4408 6.06271 15.3947C6.06271 15.3487 6.06271 15.3092 6.06271 15.2632C6.08901 15.2434 6.11532 15.2303 6.14162 15.2105C6.25121 15.125 6.32135 15.0197 6.41341 14.8882C6.46163 14.8092 6.46163 14.8092 6.51424 14.7303C6.54931 14.6776 6.58438 14.625 6.62383 14.5658C6.6589 14.5132 6.69835 14.4539 6.73781 14.3947C6.85617 14.2171 6.97453 14.0395 7.09289 13.8553C7.1718 13.7368 7.25509 13.6184 7.334 13.4934C7.50935 13.2303 7.6847 12.9605 7.86443 12.6908C7.94772 12.5658 8.03539 12.4342 8.12307 12.3026C8.05293 12.1908 7.97841 12.0789 7.90388 11.9737C7.8732 11.9737 7.84689 11.9737 7.81621 11.9737C7.81621 11.9276 7.81621 11.8882 7.81621 11.8421C7.71538 11.7171 7.61456 11.6053 7.50496 11.4868C7.22879 11.1842 6.957 10.8684 6.6852 10.5395C6.52739 10.3421 6.36081 10.1579 6.19861 9.9671C6.04079 9.79605 5.88736 9.61184 5.72955 9.43421C5.69886 9.39473 5.66379 9.35526 5.62872 9.30921C5.38323 9.02631 5.13774 8.73026 4.89225 8.44079C4.69937 8.20395 4.5021 7.97368 4.30045 7.74342C4.05058 7.45395 3.8007 7.16447 3.55521 6.86842C3.4237 6.7171 3.29657 6.56579 3.16944 6.41447C3.11684 6.35526 3.06862 6.29605 3.01601 6.23026C2.98971 6.20395 2.96341 6.17105 2.94149 6.14474C2.70915 5.86842 2.70915 5.86842 2.63024 5.78289C2.58202 5.72368 2.52942 5.66447 2.4812 5.59868C2.3453 5.44737 2.21379 5.28289 2.07789 5.125C2.03844 5.07895 2.03844 5.07894 1.9946 5.02631C1.942 4.9671 1.88939 4.90132 1.83679 4.83552C1.71843 4.69079 1.60006 4.56579 1.45979 4.47368ZM8.92529 13.9737C8.69734 14.3355 8.69734 14.3355 8.60528 14.4079C8.60528 14.4539 8.60528 14.4934 8.60528 14.5395C8.57898 14.5526 8.55706 14.5724 8.53076 14.5855C8.40801 14.6908 8.32472 14.8158 8.2239 14.9605C8.20636 14.9934 8.18444 15.0263 8.16252 15.0526C8.09677 15.1513 8.03101 15.2566 7.96525 15.3553C7.91703 15.4276 7.86881 15.5 7.82059 15.5724C7.71977 15.7237 7.61456 15.8816 7.51373 16.0329C7.35153 16.2829 7.18933 16.5263 7.02714 16.7697C6.76849 17.1579 6.50985 17.5395 6.2556 17.9276C5.7953 18.625 5.33501 19.3158 4.87472 20.0066C4.71252 20.25 4.55032 20.4934 4.38812 20.7368C4.2873 20.8882 4.19086 21.0395 4.09003 21.1908C4.04181 21.2632 3.99359 21.3289 3.94975 21.4013C3.88399 21.5 3.82262 21.5921 3.75686 21.6908C3.72179 21.7434 3.68672 21.7961 3.65166 21.8487C3.56398 21.9737 3.56398 21.9737 3.47631 22.0395C3.47631 22.0855 3.47631 22.125 3.47631 22.1711C3.44562 22.1711 3.41932 22.1711 3.38863 22.1711C3.38863 22.2171 3.38863 22.2566 3.38863 22.3026C3.35794 22.3026 3.33164 22.3026 3.30096 22.3026C3.30096 22.3487 3.30096 22.3882 3.30096 22.4342C3.21328 22.5 3.21328 22.5 3.12561 22.5658C3.12561 22.6118 3.12561 22.6513 3.12561 22.6974C3.48507 22.7763 3.84454 22.7697 4.20839 22.7697C4.27853 22.7697 4.34867 22.7697 4.41881 22.7697C4.61169 22.7697 4.80019 22.7697 4.99308 22.7697C5.19912 22.7697 5.40953 22.7697 5.61557 22.7697C6.01887 22.7697 6.42656 22.7697 6.82987 22.7697C7.16303 22.7697 7.49181 22.7697 7.82059 22.7697C7.89073 22.7697 7.89073 22.7697 7.96525 22.7697C8.05731 22.7697 8.15376 22.7697 8.2502 22.7697C9.14886 22.7697 10.0431 22.7697 10.9418 22.7697C11.709 22.7697 12.4761 22.7697 13.2433 22.7697C14.1332 22.7697 15.0275 22.7697 15.9174 22.7697C16.0138 22.7697 16.1102 22.7697 16.2023 22.7697C16.2505 22.7697 16.2987 22.7697 16.347 22.7697C16.6757 22.7697 17.0045 22.7697 17.3333 22.7697C17.7366 22.7697 18.1355 22.7697 18.5388 22.7697C18.7449 22.7697 18.9465 22.7697 19.1526 22.7697C20.0512 22.7697 20.9455 22.7566 21.8442 22.6974C21.7565 22.4276 21.7565 22.4276 21.5811 22.3026C21.568 22.2368 21.5505 22.1711 21.5373 22.1053C21.5066 22.1053 21.4803 22.1053 21.4496 22.1053C21.4409 22.0658 21.4321 22.0329 21.4233 21.9934C21.3532 21.8224 21.2699 21.7237 21.1691 21.5987C21.0288 21.4276 20.9104 21.2434 20.8008 21.0263C20.7219 20.8816 20.6474 20.7763 20.551 20.6579C20.323 20.3618 20.1126 20.0395 19.9022 19.7171C19.8583 19.6513 19.8145 19.5855 19.775 19.5263C19.5953 19.2566 19.4156 18.9803 19.2358 18.7105C19.1263 18.5461 19.0167 18.3816 18.9071 18.2105C18.8632 18.1513 18.8238 18.0855 18.7799 18.0197C18.723 17.9342 18.666 17.8487 18.6046 17.7566C18.5739 17.7105 18.5388 17.6579 18.5081 17.6053C18.4336 17.4868 18.4336 17.4868 18.3372 17.5C18.3065 17.4145 18.2802 17.3289 18.2495 17.2368C18.2188 17.2368 18.1925 17.2368 18.1618 17.2368C18.1487 17.1974 18.1399 17.1579 18.1268 17.1184C18.0698 16.9605 18.0172 16.8816 17.9251 16.7697C17.6621 16.4408 17.4254 16.0658 17.1843 15.6974C17.1229 15.6053 17.0615 15.5132 17.0001 15.4145C16.9651 15.3618 16.93 15.3092 16.8905 15.25C16.8116 15.1184 16.8116 15.1184 16.7152 15.1316C16.6977 15.0724 16.6977 15.0724 16.6801 15.0132C16.6275 14.8684 16.5793 14.7763 16.496 14.6711C16.4653 14.6711 16.439 14.6711 16.4083 14.6711C16.4083 14.625 16.4083 14.5855 16.4083 14.5395C16.3426 14.4342 16.3426 14.4342 16.2549 14.3289C16.2242 14.2895 16.1935 14.25 16.1585 14.2105C16.1234 14.1645 16.0927 14.125 16.0576 14.0789C15.9919 13.9934 15.9261 13.9079 15.8604 13.8224C15.8297 13.7829 15.8034 13.7434 15.7727 13.7039C15.7508 13.6776 15.7289 13.6447 15.7069 13.6184C15.4965 13.7895 15.3124 13.9803 15.1327 14.2171C14.8916 14.5329 14.6461 14.8224 14.3918 15.1118C14.3129 15.2039 14.234 15.2961 14.1551 15.3947C13.6334 16.0461 12.9583 16.3816 12.2745 16.2961C11.332 16.1316 10.6437 15.1842 9.94671 14.2961C9.90287 14.2368 9.90287 14.2368 9.85465 14.1776C9.79327 14.1053 9.7319 14.0263 9.67491 13.9539C9.37682 13.5789 9.1927 13.5132 8.92529 13.9737Z" fill="#A0A7AD"/>
<path d="M22.7648 0.0658018C22.7779 0.111855 22.7954 0.151328 22.8086 0.197381C22.7648 0.197381 22.7209 0.197381 22.6771 0.197381C20.7658 0.203959 18.8588 0.20396 16.9475 0.21054C16.9037 0.21054 16.9037 0.21054 16.8599 0.21054C16.2286 0.21054 15.6017 0.217118 14.9749 0.217118C14.6636 0.217118 14.3567 0.217118 14.0499 0.217118C14.0192 0.217118 13.9885 0.217118 13.9578 0.217118C12.9627 0.223696 11.9676 0.223697 10.9725 0.223697C9.92479 0.230275 8.87269 0.230276 7.82059 0.230276C7.19372 0.236854 6.56246 0.236853 5.9312 0.236853C5.50159 0.236853 5.07199 0.236853 4.638 0.243433C4.38812 0.243433 4.14263 0.243433 3.89276 0.243433C3.66481 0.243433 3.43685 0.243433 3.2089 0.243433C3.12561 0.243433 3.04232 0.243433 2.95903 0.243433C2.56449 0.243433 2.19625 0.243433 1.81049 0.394748C1.81049 0.348696 1.81049 0.309223 1.81049 0.263172C2.14803 0.0986969 2.4549 0.0394861 2.80998 0.0394861C2.86258 0.0329075 2.9108 0.0329071 2.96341 0.0329071C3.10369 0.0329071 3.24835 0.0329071 3.38863 0.0329071C3.51138 0.0329071 3.63851 0.0263266 3.76125 0.0263266C4.11633 0.019748 4.46703 0.0197492 4.81773 0.0197492C5.08514 0.0197492 5.35255 0.0131703 5.61996 0.0131703C9.48641 -0.019724 13.3529 0.0131703 22.7648 0.0658018Z" fill="#8A8D90"/>
<path d="M2.59955 24.7368C9.14009 24.7368 15.6762 24.7368 22.4141 24.7368C22.4009 24.7829 22.3834 24.8223 22.3702 24.8684C18.6177 24.921 14.8653 24.9408 11.1128 24.9408C10.7928 24.9408 10.4727 24.9408 10.1527 24.9408C8.14498 24.9473 6.13723 24.9473 4.12947 24.9079C4.01988 24.9079 3.91467 24.9079 3.80946 24.9079C3.65165 24.9013 3.48945 24.9013 3.32725 24.8947C3.24396 24.8947 3.15628 24.8947 3.07299 24.8947C3.02039 24.8947 2.97217 24.8881 2.91956 24.8881C2.87572 24.8881 2.83189 24.8881 2.78805 24.8881C2.68722 24.8684 2.68722 24.8684 2.59955 24.7368Z" fill="#8D8F91"/>
<path d="M0.0569886 3.55261C0.0701401 3.55261 0.0876746 3.55261 0.100825 3.55261C0.100825 3.60524 0.100825 3.60524 0.100825 3.66446C0.100825 5.84867 0.10521 8.0263 0.109593 10.2105C0.109593 10.4737 0.109593 10.7368 0.109593 11C0.109593 11.0526 0.109593 11.1052 0.109593 11.1579C0.109593 12 0.113977 12.8487 0.113977 13.6908C0.113977 14.5592 0.113977 15.4276 0.118362 16.296C0.118362 16.8289 0.118362 17.3618 0.118362 17.8947C0.118362 18.2631 0.118362 18.6316 0.118362 19C0.118362 19.2105 0.122745 19.421 0.118362 19.6316C0.118362 21.1842 0.227954 22.4474 0.977573 23.6184C1.30197 24.0329 1.67897 24.3092 2.07351 24.5395C2.07351 24.5592 2.07351 24.5855 2.07351 24.6052C1.54746 24.5724 1.05648 23.9737 0.701398 23.421C0.188501 22.5131 2.80627e-07 21.421 0.00438374 20.25C0.00438374 20.1776 0 20.1052 0 20.0329C0 19.796 2.80627e-07 19.5592 0.00438374 19.3224C0.00438374 19.1579 0.00438374 18.9868 0.00438374 18.8158C2.80627e-07 18.4079 0.00438374 17.9934 0.00438374 17.5789C0.00438374 17.1052 0.00438374 16.625 0.00438374 16.1447C0.00438374 15.2895 0.00438374 14.4342 0.00438374 13.5789C0.00438374 12.75 0.00438374 11.921 0.00438374 11.0921C0.00438374 11.0395 0.00438374 10.9868 0.00438374 10.9342C0.00438374 10.8816 0.00438374 10.8289 0.00438374 10.7763C0.00438374 9.83551 0.00438374 8.88814 0.00438374 7.94077C0.00438374 7.61183 0.00438374 7.2763 0.00438374 6.94077C0.00438374 6.4934 0.00438402 6.03946 0.00876748 5.59209C0.00876748 5.42761 0.00876748 5.26314 0.00876748 5.09867C0.00876748 4.87498 0.00876748 4.64472 0.00876748 4.42104C0.00876748 4.35525 0.00876748 4.28946 0.00876748 4.22367C0.00876748 4.16446 0.00876748 4.10525 0.00876748 4.03946C0.00876748 3.98682 0.00876748 3.94077 0.00876748 3.88156C0.0131521 3.74998 0.0131518 3.74998 0.0569886 3.55261Z" fill="#909497"/>
<path d="M24.869 3.28949C24.9917 3.4737 24.9698 3.60528 24.9698 3.86844C24.9698 3.91449 24.9698 3.96054 24.9742 4.0066C24.9742 4.16449 24.9742 4.31581 24.9742 4.4737C24.9742 4.58555 24.9786 4.69739 24.9786 4.80923C24.9786 5.11844 24.9829 5.42107 24.9829 5.73028C24.9829 5.92107 24.9873 6.11844 24.9873 6.30923C25.0049 9.21055 25.0005 12.1119 24.9873 15.0132C24.9873 15.5592 24.9873 16.1119 24.9829 16.6645C24.9829 17.204 24.9786 17.7434 24.9786 18.2829C24.9786 18.5987 24.9742 18.9211 24.9742 19.2369C24.9742 19.5329 24.9742 19.8224 24.9742 20.1184C24.9698 20.2237 24.9698 20.3355 24.9698 20.4408C24.9698 20.5855 24.9698 20.7303 24.9698 20.8816C24.9698 20.9605 24.9698 21.0395 24.9698 21.125C24.9566 21.3158 24.9566 21.3158 24.869 21.4474C24.869 15.454 24.869 9.46054 24.869 3.28949Z" fill="#868B8E"/>
<path d="M1.32827 4.4079C1.37211 4.44079 1.37211 4.44079 1.41595 4.47369C1.41595 4.55921 1.41595 4.64474 1.41595 4.73027C1.42033 6.73685 1.42472 8.74343 1.4291 10.7566C1.4291 11 1.4291 11.25 1.4291 11.4934C1.4291 11.5461 1.4291 11.5921 1.4291 11.6447C1.43348 12.4408 1.43348 13.2368 1.43348 14.0329C1.43787 14.8553 1.43787 15.6711 1.43787 16.4868C1.44225 16.9934 1.44225 17.5 1.44225 18C1.44225 18.3882 1.44225 18.7763 1.44664 19.1645C1.44664 19.3224 1.44664 19.4803 1.44664 19.6382C1.44664 19.8553 1.44664 20.0724 1.44664 20.2895C1.44664 20.3487 1.44664 20.4145 1.44664 20.4803C1.44225 21.1447 1.44225 21.1447 1.63514 21.7105C1.62199 21.7763 1.60445 21.8421 1.5913 21.9079C1.31074 21.4605 1.31512 20.9408 1.31951 20.3553C1.31951 20.2895 1.31951 20.2237 1.31951 20.1513C1.31951 19.9211 1.31951 19.6908 1.31951 19.4671C1.31951 19.3026 1.31951 19.1382 1.31951 18.9737C1.31951 18.6184 1.31951 18.2697 1.31951 17.9145C1.31951 17.4013 1.31951 16.8947 1.31951 16.3816C1.31951 15.5592 1.31951 14.7303 1.31951 13.9013C1.32389 13.0987 1.32389 12.2961 1.32389 11.4934C1.32389 11.4408 1.32389 11.3882 1.32389 11.3421C1.32389 11.0921 1.32389 10.8421 1.32389 10.5921C1.32389 8.5329 1.32827 6.46711 1.32827 4.4079Z" fill="#8A8E91"/>
<path d="M3.78754 22.6908C3.84014 22.6908 3.89275 22.6908 3.94535 22.6908C4.03303 22.6908 4.03303 22.6908 4.1207 22.6908C4.18208 22.6908 4.24345 22.6908 4.30482 22.6908C4.4714 22.6908 4.6336 22.6908 4.80018 22.6908C4.97553 22.6908 5.15088 22.6908 5.32623 22.6908C5.61556 22.6908 5.90927 22.6908 6.20298 22.6908C6.54053 22.6908 6.87808 22.6908 7.21562 22.6908C7.50495 22.6908 7.79866 22.6908 8.08799 22.6908C8.25895 22.6908 8.4343 22.6908 8.60527 22.6908C8.77185 22.6908 8.93405 22.6908 9.09625 22.6908C9.18392 22.6908 9.2716 22.6908 9.35927 22.6908C9.72312 22.6908 10.0826 22.7171 10.4464 22.7632C10.4333 22.8092 10.4158 22.8487 10.4026 22.8947C8.01785 22.8947 5.62871 22.8947 3.16943 22.8947C3.33163 22.6513 3.56835 22.6908 3.78754 22.6908Z" fill="#989CA1"/>
<path d="M15.6193 13.4868C15.799 13.5197 15.8911 13.6644 16.0226 13.8487C16.0445 13.8816 16.0664 13.9079 16.0883 13.9408C16.3294 14.2829 16.5662 14.6381 16.7985 14.9934C16.9344 15.2039 17.0747 15.4144 17.2281 15.6052C17.4955 15.9539 17.741 16.3421 17.9909 16.7171C18.0917 16.8684 18.1925 17.0263 18.2934 17.1776C18.3153 17.2105 18.3372 17.2434 18.3635 17.2763C18.4731 17.4473 18.5827 17.5987 18.7054 17.7434C18.7405 17.796 18.78 17.8421 18.8194 17.8947C18.8194 17.9408 18.8194 17.9802 18.8194 18.0263C18.8413 18.0394 18.8676 18.0526 18.8895 18.0658C19.0386 18.1973 19.1482 18.3684 19.2665 18.546C19.2929 18.5855 19.3192 18.625 19.3455 18.671C19.4331 18.8026 19.5208 18.9342 19.6085 19.0658C19.6699 19.1579 19.7312 19.25 19.7926 19.3421C19.9548 19.5855 20.1126 19.8289 20.2748 20.0723C20.437 20.3158 20.5992 20.5592 20.7658 20.8092C21.0288 21.2039 21.2918 21.6052 21.5549 22C21.6951 22.2105 21.8354 22.421 21.9757 22.6316C21.9319 22.6513 21.888 22.6776 21.8442 22.6973C21.8179 22.6513 21.796 22.5987 21.7697 22.5526C21.6732 22.375 21.5724 22.25 21.4497 22.1052C21.3751 22 21.3006 21.8881 21.2305 21.7763C21.1954 21.7302 21.1647 21.6842 21.1296 21.6316C21.0551 21.5131 21.0551 21.5131 21.0551 21.3816C21.0157 21.3552 21.0157 21.3552 20.9762 21.3289C20.8666 21.2368 20.7877 21.1316 20.7044 20.9868C20.7044 20.9408 20.7044 20.9013 20.7044 20.8552C20.6781 20.8421 20.6562 20.8223 20.6299 20.8092C20.5071 20.7039 20.4195 20.5789 20.3186 20.421C20.3011 20.3947 20.2792 20.3618 20.2573 20.3355C20.1915 20.2302 20.1258 20.1316 20.06 20.0329C20.0162 19.9605 19.9679 19.8947 19.9241 19.8223C19.8014 19.6381 19.6786 19.4539 19.5559 19.2697C19.363 18.9737 19.1701 18.6842 18.9728 18.3881C18.9071 18.2829 18.8369 18.1842 18.7712 18.0789C18.5739 17.7829 18.3766 17.5 18.1618 17.2368C18.0873 17.1316 18.0128 17.0197 17.9427 16.9079C17.8988 16.8421 17.8594 16.7829 17.8155 16.7171C17.5218 16.2763 17.2237 15.8289 16.93 15.3881C16.9081 15.3552 16.8862 15.3223 16.8643 15.2894C16.8029 15.1973 16.7415 15.1052 16.6845 15.0131C16.5881 14.8684 16.5881 14.8684 16.4829 14.7566C16.4566 14.7302 16.4347 14.6973 16.4083 14.671C16.4083 14.625 16.4083 14.5855 16.4083 14.5394C16.382 14.5263 16.3601 14.5066 16.3338 14.4934C16.1629 14.3487 16.0401 14.1184 15.9042 13.9013C15.7946 13.75 15.7157 13.6842 15.5754 13.6184C15.5886 13.5723 15.6061 13.5329 15.6193 13.4868Z" fill="#94979B"/>
<path d="M9.13131 13.4211C9.20145 13.4408 9.27598 13.4671 9.3505 13.4869C9.3242 13.4934 9.2979 13.5 9.26721 13.5C9.17077 13.5395 9.17077 13.5395 9.1357 13.6711C9.07433 13.8553 8.99103 13.9803 8.89021 14.1316C8.85514 14.1777 8.82007 14.2303 8.785 14.2895C8.69294 14.4079 8.69294 14.4079 8.60527 14.4079C8.60527 14.454 8.60527 14.4934 8.60527 14.5395C8.54389 14.6316 8.54389 14.6316 8.45622 14.7434C8.24142 15.0132 8.04415 15.3027 7.84688 15.5987C7.80743 15.6579 7.77236 15.7171 7.72852 15.7763C7.62331 15.9408 7.5181 16.0987 7.41289 16.2566C7.3033 16.4211 7.1937 16.5856 7.07972 16.7566C6.8693 17.0724 6.66327 17.3816 6.45285 17.6974C6.21613 18.0592 5.97502 18.4145 5.7383 18.7763C5.24732 19.5132 4.75634 20.25 4.26536 20.9869C4.22153 20.9671 4.17769 20.9408 4.13385 20.9211C4.51962 20.3356 4.90977 19.7566 5.29554 19.1711C5.47528 18.9013 5.65501 18.6316 5.83474 18.3619C6.00571 18.0987 6.18106 17.8356 6.35641 17.5724C6.42216 17.4737 6.48792 17.375 6.55367 17.2763C6.64573 17.1382 6.73779 17 6.82985 16.8553C6.86054 16.8158 6.88684 16.7763 6.91314 16.7303C7.10603 16.4474 7.10603 16.4474 7.20247 16.4474C7.21562 16.3816 7.23315 16.3158 7.24631 16.25C7.29453 16.1711 7.34275 16.0987 7.39535 16.0263C7.51371 15.8487 7.63207 15.6711 7.74605 15.4934C7.83811 15.3619 7.92579 15.2435 8.01784 15.125C8.2458 14.829 8.45622 14.5066 8.66664 14.1908C8.70609 14.1316 8.74993 14.0724 8.78938 14.0066C8.82884 13.954 8.86391 13.8948 8.90336 13.8356C8.93843 13.7829 8.9735 13.7369 9.00857 13.6842C9.09186 13.5592 9.09186 13.5592 9.13131 13.4211Z" fill="#93979A"/>
<path d="M23.5538 4.21051C23.5977 4.2434 23.5977 4.2434 23.6415 4.2763C23.3697 4.66446 23.0804 5.01314 22.7779 5.34867C22.471 5.69077 22.1729 6.05919 21.8749 6.42103C21.7214 6.61182 21.5636 6.78946 21.4058 6.97367C21.3181 7.07235 21.2304 7.17103 21.1472 7.2763C21.1121 7.31577 21.1121 7.31577 21.0726 7.35525C20.4414 8.08551 20.4414 8.08551 19.8145 8.82893C19.4024 9.32893 18.986 9.80261 18.5564 10.2631C18.5257 10.2434 18.4994 10.2171 18.4687 10.1974C18.8019 9.78946 19.135 9.38814 19.4769 8.9934C19.5208 8.94077 19.569 8.88814 19.6172 8.82893C19.6523 8.78946 19.6523 8.78946 19.6918 8.74998C19.889 8.51972 20.0863 8.28288 20.2836 8.05261C20.4984 7.80261 20.7088 7.55261 20.9236 7.30261C21.1559 7.0263 21.3926 6.75656 21.625 6.48025C21.8573 6.20393 22.094 5.93419 22.3264 5.65788C22.5719 5.3684 22.8174 5.08551 23.0628 4.79603C23.0979 4.74998 23.0979 4.74998 23.1374 4.71051C23.2777 4.53946 23.4135 4.37498 23.5538 4.21051Z" fill="#8F9296"/>
<path d="M16.7152 12.2368C16.7459 12.2368 16.7722 12.2368 16.8029 12.2368C16.8555 12.3223 16.8555 12.3223 16.9169 12.4408C17.0133 12.6118 17.1054 12.7566 17.2193 12.9013C17.4604 13.2105 17.684 13.5526 17.9076 13.8881C17.9514 13.9539 17.9909 14.0197 18.0347 14.0855C18.1136 14.2039 18.1925 14.3223 18.2714 14.4408C18.3109 14.4934 18.346 14.5526 18.381 14.6052C18.4161 14.6579 18.4512 14.7171 18.4906 14.7697C18.6002 14.9342 18.7142 15.0921 18.8326 15.25C19.1833 15.7237 19.512 16.2302 19.8452 16.7368C19.9679 16.921 20.0907 17.1118 20.2134 17.296C20.2441 17.3355 20.2704 17.3816 20.2967 17.421C20.4195 17.6052 20.5422 17.7829 20.6781 17.9473C20.7921 18.0921 20.7921 18.0921 20.8315 18.2434C20.8315 18.2829 20.8359 18.3158 20.8359 18.3552C20.6913 18.2829 20.6606 18.2302 20.5641 18.0526C20.3537 17.6842 20.1345 17.3487 19.889 17.0329C19.6962 16.7829 19.5164 16.5131 19.3367 16.2434C19.306 16.1973 19.2753 16.1447 19.2402 16.0921C19.1 15.8881 18.9641 15.6776 18.8238 15.4671C18.723 15.3158 18.6221 15.1579 18.5213 15.0066C18.4906 14.9605 18.4599 14.9144 18.4249 14.8618C18.2539 14.6052 18.0742 14.3552 17.8901 14.1184C17.7848 13.9802 17.6884 13.8355 17.592 13.6908C17.5569 13.6381 17.5174 13.5789 17.478 13.5197C17.4429 13.4605 17.4035 13.4079 17.364 13.3487C17.3246 13.2894 17.2895 13.2302 17.25 13.171C17.1755 13.0592 17.101 12.9473 17.0308 12.8421C16.9519 12.7237 16.8774 12.6118 16.7985 12.5C16.7152 12.3684 16.7152 12.3684 16.7152 12.2368Z" fill="#929699"/>
<path d="M17.1098 9.27631C17.1536 9.29604 17.1974 9.32236 17.2413 9.3421C17.0002 9.64473 16.7591 9.9342 16.5092 10.2105C16.2944 10.4539 16.0883 10.6974 15.8823 10.9539C15.6368 11.2566 15.3913 11.546 15.1371 11.8289C14.9924 11.9868 14.8521 12.1513 14.7162 12.3158C14.6768 12.3618 14.6768 12.3618 14.6373 12.4079C14.5847 12.4671 14.5321 12.5329 14.4795 12.5921C13.2038 14.1053 13.2038 14.1053 12.9014 14.2105C12.9014 14.1645 12.9014 14.125 12.9014 14.0789C12.9803 14 12.9803 14 13.0943 13.9079C13.2959 13.7303 13.4756 13.5263 13.6598 13.3026C13.7913 13.1447 13.9228 12.9868 14.0543 12.8355C14.0894 12.796 14.0894 12.796 14.1288 12.7566C14.199 12.671 14.2735 12.5855 14.348 12.5C14.668 12.1316 14.988 11.7631 15.3037 11.3881C15.4702 11.1908 15.6412 10.9934 15.8122 10.796C16.027 10.5526 16.2374 10.3026 16.4434 10.0526C16.5267 9.95394 16.6056 9.85525 16.6889 9.75657C16.7503 9.6842 16.8117 9.60525 16.873 9.53289C16.9519 9.44078 17.0309 9.35525 17.1098 9.27631Z" fill="#92969A"/>
<path d="M8.16693 9.73682C8.3905 9.84208 8.54832 10.0526 8.72805 10.2763C8.78504 10.3487 8.84203 10.421 8.9034 10.4934C8.94724 10.5526 8.94724 10.5526 8.99546 10.6118C9.15327 10.8026 9.31985 10.9934 9.48205 11.1842C9.54342 11.2566 9.60918 11.3289 9.67055 11.4079C9.70124 11.4408 9.73193 11.4802 9.767 11.5131C10.0125 11.8026 10.2624 12.0921 10.5078 12.3816C10.7621 12.6842 11.0164 12.9868 11.275 13.2829C11.3057 13.3158 11.3364 13.3487 11.3671 13.3881C11.7134 13.796 11.7134 13.796 12.1123 14.0789C12.1123 14.125 12.1123 14.1644 12.1123 14.2105C11.6958 14.1118 11.3671 13.5987 11.0427 13.2171C10.8936 13.0329 10.7402 12.8618 10.5868 12.6842C10.4289 12.5 10.2667 12.3158 10.1089 12.1184C9.87221 11.8355 9.6311 11.5526 9.38999 11.2763C9.2278 11.0855 9.06998 10.9013 8.91217 10.7105C8.88586 10.6776 8.85518 10.6447 8.82888 10.6118C8.78066 10.5526 8.72805 10.4934 8.67983 10.4342C8.55708 10.2894 8.42996 10.1513 8.30283 10.0197C8.25899 9.97366 8.21515 9.92103 8.16693 9.8684C8.16693 9.82234 8.16693 9.78287 8.16693 9.73682Z" fill="#919699"/>
<path d="M4.83527 5.85529C5.03254 5.95397 5.1772 6.11844 5.33501 6.30923C5.392 6.37502 5.44461 6.44081 5.50159 6.5066C5.5279 6.54607 5.55858 6.57897 5.58489 6.61186C5.71201 6.76318 5.83914 6.9145 5.96627 7.05923C5.98819 7.09213 6.01449 7.11844 6.0408 7.15134C6.44848 7.6316 6.86055 8.11844 7.27701 8.59213C7.32523 8.64476 7.32523 8.64476 7.37784 8.70397C7.43921 8.77634 7.50058 8.84871 7.56634 8.92108C7.75484 9.13818 7.93896 9.36845 8.12307 9.60529C8.10115 9.67108 8.10115 9.67107 8.07923 9.73686C7.96087 9.59871 7.84251 9.46055 7.72415 9.32239C7.68908 9.28292 7.64963 9.23686 7.61456 9.19739C7.44798 9.00002 7.27701 8.80265 7.11043 8.59871C7.07974 8.56581 7.05344 8.53292 7.02714 8.50002C6.97453 8.44081 6.92631 8.3816 6.87371 8.32239C6.7685 8.19739 6.66767 8.08555 6.54931 7.98029C6.51862 7.95397 6.48794 7.92765 6.45725 7.89476C6.45725 7.84871 6.45725 7.80923 6.45725 7.76318C6.43533 7.75002 6.40903 7.73028 6.38711 7.71713C6.24683 7.60528 6.12847 7.46055 6.00134 7.30923C5.86106 7.13818 5.7164 6.97371 5.56297 6.82897C5.52351 6.7895 5.48845 6.75002 5.44899 6.71055C5.44899 6.6645 5.44899 6.62502 5.44899 6.57897C5.42269 6.55923 5.40077 6.54607 5.37447 6.52634C5.26049 6.44081 5.16843 6.33555 5.06761 6.21713C5.03254 6.17765 4.99747 6.13818 4.9624 6.09871C4.8791 5.98687 4.8791 5.98686 4.83527 5.85529Z" fill="#909599"/>
<path d="M15.5316 13.6842C15.479 13.9145 15.4395 13.9539 15.3168 14.0987C15.2554 14.171 15.2554 14.171 15.1984 14.2368C15.1721 14.2632 15.1502 14.2895 15.1283 14.3158C15.0362 14.421 14.9486 14.5263 14.8565 14.6316C14.6943 14.8289 14.5277 15.0197 14.3567 15.2171C14.291 15.296 14.2252 15.375 14.1551 15.4539C13.5808 16.1382 12.8882 16.4737 12.1517 16.3487C12.1254 16.3355 12.0947 16.3289 12.0684 16.3158C12.0553 16.2697 12.0377 16.2303 12.0246 16.1842C12.0509 16.1842 12.0728 16.1842 12.0991 16.1842C13.1951 16.1513 13.8263 15.6645 14.668 14.6316C14.7732 14.5 14.8784 14.375 14.988 14.25C15.1064 14.1053 15.2203 13.9605 15.3343 13.8158C15.4439 13.6842 15.4439 13.6842 15.5316 13.6842Z" fill="#919498"/>
<path d="M2.1612 2.17108C2.19189 2.19082 2.21819 2.21713 2.24888 2.23687C2.23573 2.28292 2.21819 2.3224 2.20504 2.36845C2.1612 2.36845 2.11737 2.36845 2.07353 2.36845C2.13052 2.62503 2.24011 2.73029 2.38039 2.88819C2.40669 2.92108 2.433 2.9474 2.46368 2.98029C2.55136 3.08556 2.64341 3.18424 2.73109 3.2895C2.79246 3.36187 2.85383 3.43424 2.91521 3.50003C3.01165 3.61187 3.10371 3.71713 3.20015 3.82898C3.44564 4.11187 3.69551 4.40134 3.941 4.69082C4.04621 4.81582 4.15142 4.94082 4.26101 5.06582C4.2917 5.09871 4.318 5.13161 4.34869 5.1645C4.40129 5.22371 4.4539 5.2895 4.51089 5.34871C4.63802 5.50003 4.73446 5.61845 4.79145 5.85529C4.61171 5.67766 4.43636 5.49345 4.2654 5.2895C4.23909 5.26319 4.21718 5.23687 4.19087 5.20398C3.84017 4.79608 3.48948 4.38819 3.14316 3.96056C2.99411 3.78292 2.84068 3.61187 2.68725 3.44082C2.6478 3.39477 2.60834 3.35529 2.56889 3.30924C2.4856 3.21714 2.40669 3.13161 2.32779 3.04608C2.28833 3.00661 2.25326 2.96055 2.21381 2.92108C2.18312 2.88161 2.14805 2.84871 2.11298 2.80924C2.02531 2.69082 1.98585 2.59213 1.94202 2.43424C2.01216 2.3224 2.06914 2.24345 2.1612 2.17108Z" fill="#92969A"/>
<path d="M8.1669 12.3026C8.1669 12.5 8.1669 12.5 8.10114 12.5987C8.0573 12.6579 8.0573 12.6579 8.01347 12.7105C7.82058 12.9539 7.64523 13.2105 7.46988 13.4802C7.43481 13.5263 7.40413 13.5723 7.37344 13.625C7.27261 13.7763 7.17179 13.9276 7.07096 14.0789C6.93945 14.2763 6.80794 14.4802 6.67204 14.6776C6.64574 14.7237 6.61505 14.7697 6.58437 14.8158C6.4134 15.0723 6.23367 15.3223 6.04955 15.5592C5.96188 15.6776 5.87858 15.796 5.79968 15.9145C5.76022 15.9737 5.76022 15.9737 5.72077 16.0329C5.69447 16.0789 5.69447 16.0789 5.66816 16.1184C5.64625 16.0197 5.64625 16.0197 5.62433 15.921C5.69008 15.8881 5.69008 15.8881 5.75584 15.8552C5.76899 15.7895 5.78653 15.7237 5.79968 15.6579C5.83036 15.6579 5.85667 15.6579 5.88735 15.6579C5.88735 15.6118 5.88735 15.5723 5.88735 15.5263C5.94872 15.4342 5.94872 15.4342 6.0364 15.3223C6.2512 15.0526 6.44409 14.7631 6.63697 14.4671C6.71588 14.3487 6.7904 14.2368 6.86493 14.125C6.98329 13.9408 7.10165 13.7631 7.22001 13.5855C7.33399 13.4145 7.44796 13.2368 7.56632 13.0658C7.61893 12.9868 7.61893 12.9868 7.67153 12.9013C7.70222 12.8487 7.73729 12.8026 7.77236 12.75C7.8162 12.6842 7.8162 12.6842 7.86003 12.6184C7.95648 12.4934 8.05292 12.3947 8.1669 12.3026Z" fill="#94999C"/>
<path d="M21.1866 18.8158C21.3225 18.9079 21.4145 19.0066 21.5154 19.1645C21.5461 19.2105 21.5767 19.2566 21.6074 19.3026C21.6381 19.3487 21.6688 19.3947 21.7039 19.4474C21.7346 19.5 21.7696 19.5461 21.8003 19.5987C21.9099 19.7566 22.0151 19.9211 22.1159 20.079C22.2211 20.2368 22.3264 20.3947 22.4316 20.5526C22.4973 20.6513 22.5631 20.75 22.6288 20.8487C22.7779 21.079 22.9269 21.2961 23.0847 21.5132C23.111 21.5526 23.1373 21.5921 23.168 21.6316C23.2557 21.7368 23.2557 21.7369 23.4223 21.7105C23.4661 21.579 23.51 21.4474 23.5538 21.3158C23.5845 21.4013 23.6108 21.4868 23.6415 21.579C23.5319 21.7763 23.5319 21.7763 23.4223 21.9737C23.2031 21.9474 23.0979 21.7829 22.9576 21.5526C22.8393 21.3618 22.734 21.1974 22.5894 21.0526C22.5894 21.0066 22.5894 20.9671 22.5894 20.9211C22.5587 20.9211 22.5324 20.9211 22.5017 20.9211C22.4272 20.8158 22.3527 20.704 22.2825 20.5921C22.2387 20.5329 22.1992 20.4671 22.1554 20.4079C22.037 20.2303 21.9187 20.0526 21.7959 19.875C21.7477 19.7961 21.6951 19.7171 21.6425 19.6447C21.568 19.5329 21.4934 19.4211 21.4189 19.3092C21.397 19.2763 21.3707 19.2368 21.3488 19.204C21.2918 19.1184 21.2392 19.0329 21.1866 18.9474C21.1866 18.9013 21.1866 18.8618 21.1866 18.8158Z" fill="#95999C"/>
<path d="M1.41595 4.27631C1.52555 4.34209 1.52555 4.34209 1.63514 4.40789C1.63514 4.45394 1.63514 4.49341 1.63514 4.53946C1.65706 4.55262 1.68336 4.57236 1.70528 4.58552C1.84118 4.69736 1.95954 4.83552 2.0779 4.98683C2.13489 5.04604 2.18749 5.11183 2.24448 5.17762C2.27078 5.2171 2.30147 5.24999 2.33216 5.28289C2.49874 5.48025 2.66532 5.67104 2.82752 5.86841C3.08177 6.15789 3.32726 6.45394 3.57275 6.74999C3.65166 6.84868 3.65166 6.84868 3.73934 6.90789C3.73934 6.95394 3.73934 6.99341 3.73934 7.03946C3.77002 7.05262 3.80071 7.06578 3.83139 7.07894C4.00236 7.20394 4.1251 7.37499 4.26538 7.56578C4.19963 7.59867 4.19963 7.59867 4.13387 7.63157C4.06373 7.57236 4.06373 7.57236 3.98921 7.47367C3.95852 7.44078 3.93222 7.40131 3.90153 7.36841C3.87085 7.32894 3.84016 7.28946 3.80948 7.24999C3.7481 7.17104 3.68235 7.0921 3.62097 7.01315C3.5859 6.9671 3.55522 6.92762 3.52453 6.88815C3.3974 6.73683 3.27028 6.58552 3.14315 6.44078C2.94588 6.2171 2.75299 5.98683 2.56011 5.76315C2.53381 5.73025 2.50751 5.70394 2.4812 5.67104C2.37599 5.54604 2.27078 5.42104 2.16557 5.29604C2.10858 5.23025 2.0516 5.15789 1.99461 5.0921C1.942 5.03289 1.88501 4.96709 1.83241 4.90131C1.7272 4.77631 1.61761 4.65131 1.50363 4.53946C1.50363 4.49341 1.50363 4.45394 1.50363 4.40789C1.47294 4.40789 1.44664 4.40789 1.41595 4.40789C1.41595 4.36183 1.41595 4.32236 1.41595 4.27631Z" fill="#919498"/>
<path d="M0.100843 21.1184C0.113995 21.1184 0.13153 21.1184 0.144682 21.1184C0.15345 21.1842 0.162216 21.2566 0.175368 21.3224C0.337566 22.4079 0.661962 23.3552 1.30199 23.9803C1.55186 24.1974 1.80612 24.3816 2.07353 24.5395C2.07353 24.5592 2.07353 24.5855 2.07353 24.6053C1.54748 24.5724 1.0565 23.9737 0.701417 23.421C0.350717 22.8026 0.0789253 22.0066 0.0570068 21.1842C0.0701583 21.1645 0.0876928 21.1381 0.100843 21.1184Z" fill="#8F9295"/>
<path d="M3.99796 22.704C4.06371 22.7106 4.06371 22.7106 4.13385 22.7106C4.27852 22.7172 4.42318 22.7237 4.56785 22.7237C4.66429 22.7303 4.76073 22.7303 4.86156 22.7369C5.10266 22.7435 5.33938 22.7566 5.58049 22.7632C5.58049 22.8093 5.58049 22.8487 5.58049 22.8948C4.78265 22.8948 3.98919 22.8948 3.16943 22.8948C3.37109 22.5922 3.73055 22.6974 3.99796 22.704Z" fill="#868A8E"/>
<path d="M22.8086 2.63159C22.8524 2.65133 22.8962 2.67764 22.9401 2.69738C22.9226 2.71712 22.9006 2.74343 22.8831 2.76317C22.5455 3.14475 22.2124 3.53291 21.8792 3.92106C21.8573 3.95396 21.831 3.98027 21.8047 4.01317C21.6732 4.16449 21.5417 4.32238 21.4145 4.48027C21.3839 4.51317 21.3576 4.54606 21.3269 4.57896C21.2743 4.63817 21.2217 4.70396 21.1691 4.76975C21.0507 4.91448 20.9323 5.03948 20.7921 5.13159C20.8622 4.84212 21.0112 4.6908 21.1691 4.51317C21.1954 4.4737 21.226 4.4408 21.2567 4.40791C21.3488 4.29606 21.4408 4.1908 21.5373 4.07896C21.568 4.03948 21.5987 4.00659 21.6337 3.96712C21.8178 3.75001 22.0063 3.53948 22.1948 3.32238C22.2781 3.23027 22.3614 3.13159 22.4403 3.03291C22.4798 2.99343 22.4798 2.99343 22.5149 2.94738C22.5806 2.87501 22.642 2.80264 22.7077 2.7237C22.756 2.67764 22.756 2.67764 22.8086 2.63159Z" fill="#929699"/>
<path d="M21.9757 22.7631C21.9757 22.8092 21.9757 22.8487 21.9757 22.8947C21.3532 22.8947 20.7307 22.8947 20.0907 22.8947C20.1959 22.7368 20.2266 22.7434 20.3713 22.7237C20.4107 22.7171 20.4502 22.7171 20.4896 22.7105C20.551 22.7039 20.551 22.7039 20.6167 22.6973C20.6606 22.6908 20.7044 22.6908 20.7483 22.6842C20.8798 22.671 21.0157 22.6644 21.1516 22.6513C21.1954 22.6513 21.2436 22.6447 21.2875 22.6381C21.5373 22.625 21.739 22.6316 21.9757 22.7631Z" fill="#92979B"/>
<path d="M1.76663 0.460576C1.72718 0.49347 1.68772 0.526365 1.64827 0.55926C0.93372 1.13821 0.486578 1.84215 0.232322 3.02636C0.197252 3.19084 0.157798 3.33558 0.100809 3.48689C0.0525884 2.73689 0.319996 2.079 0.626857 1.51321C1.37209 0.217155 1.37209 0.217155 1.76663 0.460576Z" fill="#8F9295"/>
<path d="M24.8251 21.5132C24.8383 21.5132 24.8558 21.5132 24.8689 21.5132C24.8952 22.3553 24.5226 23.0132 24.1763 23.625C23.9177 24.0461 23.5889 24.4079 23.2031 24.4737C23.2996 24.3158 23.3916 24.2237 23.5188 24.125C24.2202 23.5461 24.5972 22.6513 24.8251 21.5132Z" fill="#8F9396"/>
<path d="M22.8524 0.197388C23.3302 0.223703 23.7774 0.565809 24.1237 1.05265C24.3867 1.47371 24.6454 1.95397 24.7813 2.50002C24.7637 2.65133 24.7637 2.65133 24.7374 2.76318C24.7155 2.69739 24.698 2.63818 24.6761 2.57239C24.3254 1.53291 23.8738 0.789493 23.1242 0.394754C23.0365 0.348703 22.9445 0.302652 22.8524 0.263179C22.8524 0.243442 22.8524 0.217125 22.8524 0.197388Z" fill="#8F9295"/>
<path d="M19.0824 6.97369C19.1263 6.99343 19.1701 7.01975 19.2139 7.03948C18.9202 7.40133 18.6178 7.74343 18.3197 8.09211C18.1618 8.26975 18.004 8.44738 17.8506 8.63159C17.8243 8.67106 17.7936 8.70396 17.7673 8.73685C17.7147 8.79606 17.6621 8.86185 17.6095 8.92764C17.4999 9.05264 17.4166 9.14475 17.2851 9.21054C17.3465 8.98685 17.4166 8.87501 17.5481 8.73685C17.5832 8.69738 17.6183 8.6579 17.6577 8.61843C17.6972 8.57238 17.7322 8.53291 17.7717 8.49343C18.1005 8.13159 18.4205 7.75659 18.7361 7.36843C18.8501 7.23027 18.9597 7.09869 19.0824 6.97369Z" fill="#909498"/>
<path d="M3.6955 18.8158C3.73933 18.8355 3.78317 18.8618 3.82701 18.8816C3.36233 19.579 2.90204 20.2697 2.42421 20.9868C2.41106 20.9211 2.39352 20.8553 2.38037 20.7895C2.81436 20.1382 3.24835 19.4868 3.6955 18.8158Z" fill="#969A9D"/>
<path d="M5.58051 9.14471C5.84353 9.39471 6.08902 9.67103 6.32574 9.97366C6.51424 10.1973 6.70274 10.4145 6.89563 10.6316C7.02714 10.7895 7.15865 10.9539 7.29016 11.1184C7.24633 11.1381 7.20249 11.1645 7.15865 11.1842C7.07974 11.1118 7.07974 11.1118 6.99645 11.0066C6.96577 10.9671 6.93508 10.9276 6.90001 10.8881C6.85617 10.8223 6.85617 10.8223 6.80357 10.7631C6.7422 10.6776 6.67644 10.5987 6.61507 10.5197C6.58438 10.4802 6.55808 10.4473 6.52739 10.4079C6.46164 10.3158 6.46164 10.3158 6.36958 10.3289C6.29506 10.2237 6.22053 10.1118 6.15039 9.99998C6.0671 9.89471 5.98381 9.78945 5.90052 9.68419C5.86106 9.63814 5.81723 9.5855 5.77339 9.53287C5.67695 9.40787 5.67695 9.40787 5.58051 9.34208C5.58051 9.27629 5.58051 9.2105 5.58051 9.14471Z" fill="#919498"/>
<path d="M20.6168 5.19739C20.6474 5.21712 20.6737 5.24344 20.7044 5.26318C20.4107 5.67107 20.1039 6.03291 19.7838 6.3816C19.7356 6.43423 19.6918 6.48028 19.6436 6.53291C19.5296 6.65791 19.4156 6.78291 19.3016 6.90791C19.3016 6.71054 19.3016 6.71054 19.3674 6.61186C19.4112 6.55923 19.4112 6.55923 19.4551 6.51318C19.5033 6.45397 19.5033 6.45397 19.5559 6.39476C19.591 6.35528 19.626 6.31581 19.6611 6.27634C19.7006 6.23686 19.7356 6.19081 19.7707 6.15134C19.8759 6.03291 19.9855 5.90791 20.0907 5.78949C20.1477 5.7237 20.2047 5.66449 20.2617 5.5987C20.38 5.46055 20.4984 5.32897 20.6168 5.19739Z" fill="#919598"/>
<path d="M18.3372 10.3289C18.3372 10.3947 18.3372 10.4605 18.3372 10.5263C18.2407 10.6644 18.2407 10.6644 18.1092 10.8289C18.0741 10.8684 18.0741 10.8684 18.0391 10.9144C17.9645 11.0066 17.8856 11.0921 17.8111 11.1842C17.7848 11.2105 17.7629 11.2434 17.7366 11.2763C17.4736 11.5789 17.2061 11.8816 16.9344 12.171C16.9037 12.1513 16.8774 12.125 16.8467 12.1052C17.1229 11.7631 17.4034 11.4276 17.6884 11.0987C17.9075 10.8487 18.1223 10.5921 18.3372 10.3289Z" fill="#8F9295"/>
<path d="M9.43817 13.6184C9.65297 13.8224 9.84586 14.0526 10.0431 14.296C10.1045 14.375 10.1659 14.4474 10.2316 14.5263C10.2579 14.5592 10.2886 14.5987 10.3193 14.6381C10.4771 14.8289 10.6349 15.0131 10.7971 15.1974C10.7533 15.2171 10.7095 15.2434 10.6656 15.2631C10.5736 15.1645 10.4947 15.0658 10.4114 14.9474C10.3588 14.8816 10.3105 14.8158 10.2579 14.75C10.2185 14.6974 10.2185 14.6974 10.179 14.6447C10.0168 14.4408 9.84586 14.2434 9.67489 14.0526C9.48639 13.8355 9.48639 13.8355 9.43817 13.6184Z" fill="#919598"/>
<path d="M4.3092 7.69739C4.43633 7.78949 4.54154 7.88818 4.65552 8.01318C4.68621 8.05265 4.71689 8.08555 4.75196 8.12502C4.78265 8.16449 4.81334 8.20397 4.84841 8.23686C4.87909 8.27634 4.91416 8.31581 4.94485 8.3487C5.15088 8.58555 5.34377 8.82897 5.53665 9.07897C5.49281 9.0987 5.44898 9.12502 5.40514 9.14476C5.31308 9.03949 5.22979 8.94081 5.1465 8.82239C4.90539 8.5066 4.66429 8.2237 4.40565 7.94739C4.37496 7.90791 4.33989 7.86844 4.3092 7.82897C4.3092 7.78291 4.3092 7.74344 4.3092 7.69739Z" fill="#919599"/>
<path d="M4.04621 21.0526C4.05936 21.1184 4.0769 21.1842 4.09005 21.25C4.00237 21.3816 3.91908 21.5131 3.83141 21.6447C3.80949 21.6842 3.78319 21.7171 3.75688 21.7566C3.69551 21.8552 3.62976 21.9473 3.564 22.0395C3.53331 22.0395 3.50701 22.0395 3.47632 22.0395C3.47632 22.0855 3.47632 22.125 3.47632 22.171C3.44564 22.171 3.41934 22.171 3.38865 22.171C3.38865 22.2171 3.38865 22.2566 3.38865 22.3026C3.35796 22.3026 3.33166 22.3026 3.30098 22.3026C3.30098 22.3487 3.30098 22.3881 3.30098 22.4342C3.23084 22.4802 3.15631 22.5197 3.08179 22.5658C3.27906 22.2105 3.48948 21.875 3.71305 21.5526C3.74373 21.5 3.77442 21.4539 3.80949 21.4013C3.8884 21.2895 3.9673 21.171 4.04621 21.0526Z" fill="#929699"/>
<path d="M9.87659 22.6974C10.3237 22.6974 10.7753 22.6974 11.2355 22.6974C11.2355 22.7171 11.2355 22.7434 11.2355 22.7632C10.9594 22.9145 10.6963 22.9079 10.4026 22.8948C10.4026 22.875 10.4026 22.8487 10.4026 22.829C10.2273 22.8092 10.0563 22.7829 9.87659 22.7632C9.87659 22.7434 9.87659 22.7171 9.87659 22.6974Z" fill="#A2A6AA"/>
<path d="M4.61608 17.5C4.64677 17.5197 4.67307 17.5461 4.70376 17.5658C4.55033 17.8487 4.39251 18.0987 4.2084 18.3289C4.10319 18.4605 4.01113 18.6053 3.91469 18.75C3.90153 18.6842 3.884 18.6184 3.87085 18.5526C3.94099 18.4408 4.01551 18.3289 4.09004 18.2237C4.12072 18.2237 4.14702 18.2237 4.17771 18.2237C4.17771 18.1776 4.17771 18.1382 4.17771 18.0921C4.2084 18.0921 4.2347 18.0921 4.26539 18.0921C4.27854 18.0263 4.29607 17.9605 4.30922 17.8947C4.37936 17.7895 4.37936 17.7895 4.46704 17.6842C4.49334 17.6513 4.51964 17.6184 4.55033 17.5789C4.57225 17.5526 4.59417 17.5263 4.61608 17.5Z" fill="#989DA0"/>
<path d="M4.00234 22.6974C4.00234 22.7434 4.00234 22.7829 4.00234 22.8289C3.85768 22.9408 3.69548 22.9013 3.53767 22.9013C3.5026 22.9013 3.46753 22.9013 3.42807 22.8947C3.34478 22.8947 3.25711 22.8947 3.16943 22.8947C3.37109 22.5921 3.73494 22.6908 4.00234 22.6974Z" fill="#929699"/>
<path d="M5.36133 16.3158C5.40517 16.3355 5.449 16.3618 5.49284 16.3816C5.27365 16.7105 5.05447 17.0395 4.83528 17.3684C4.82213 17.3026 4.80459 17.2368 4.79144 17.1711C4.81775 17.1382 4.84405 17.1053 4.87035 17.0658C5.05008 16.8355 5.22105 16.6053 5.36133 16.3158Z" fill="#909598"/>
<path d="M7.33398 11.25C7.54002 11.3355 7.66715 11.5197 7.82058 11.7303C7.91264 11.8553 8.01785 11.9408 8.12306 12.0395C8.12306 12.0855 8.12306 12.125 8.12306 12.1711C7.91264 12.0461 7.91264 12.0461 7.81619 11.9737C7.81619 11.9276 7.81619 11.8882 7.81619 11.8421C7.79428 11.8289 7.77236 11.8092 7.74605 11.7961C7.60139 11.6776 7.46111 11.5461 7.33398 11.3816C7.33398 11.3355 7.33398 11.2961 7.33398 11.25Z" fill="#909498"/>
<path d="M2.20505 21.0526C2.24889 21.0723 2.29273 21.0987 2.33656 21.1184C2.24889 21.25 2.1656 21.3816 2.07792 21.5131C2.056 21.5526 2.0297 21.5855 2.0034 21.625C1.94203 21.7237 1.87627 21.8158 1.81051 21.9079C1.77983 21.9079 1.75353 21.9079 1.72284 21.9079C1.7886 21.6645 1.88942 21.5131 2.01217 21.3289C2.04724 21.2829 2.08669 21.2302 2.12176 21.171C2.16121 21.1118 2.16121 21.1118 2.20505 21.0526Z" fill="#94989B"/>
<path d="M1.32825 20.8553C1.37209 20.875 1.41592 20.9013 1.45976 20.9211C1.46414 20.9671 1.46853 21.0132 1.4773 21.0592C1.48168 21.1184 1.49045 21.1777 1.49921 21.2434C1.5036 21.3027 1.51237 21.3619 1.52113 21.4211C1.53867 21.5921 1.53867 21.5921 1.63511 21.7105C1.62196 21.7763 1.60442 21.8421 1.59127 21.9079C1.394 21.5921 1.32825 21.2829 1.32825 20.8553Z" fill="#96999D"/>
<path d="M21.3181 21.7105C21.3488 21.75 21.3488 21.75 21.3795 21.7895C21.4058 21.8224 21.4321 21.8552 21.4584 21.8947C21.4847 21.9276 21.5154 21.9671 21.5417 22C21.6074 22.0855 21.6776 22.1645 21.7477 22.2434C21.8529 22.3816 21.9099 22.5131 21.9757 22.6974C21.8266 22.6579 21.7653 22.5987 21.6732 22.421C21.5899 22.2631 21.5066 22.125 21.4102 21.9868C21.3181 21.8421 21.3181 21.8421 21.3181 21.7105Z" fill="#909497"/>
<path d="M23.773 23.8816C23.8037 23.8816 23.83 23.8816 23.8607 23.8816C23.8607 23.9276 23.8607 23.9671 23.8607 24.0132C23.6634 24.2632 23.4661 24.454 23.2031 24.4737C23.304 24.3092 23.4048 24.2105 23.5363 24.1053C23.6634 24.0066 23.6634 24.0066 23.773 23.8816Z" fill="#8D9194"/>
<path d="M11.4985 22.7632C11.4854 22.8092 11.4679 22.8487 11.4547 22.8948C11.2793 22.8948 11.1084 22.8948 10.9286 22.8948C10.9418 22.8487 10.9593 22.8092 10.9725 22.7632C11.161 22.704 11.31 22.6842 11.4985 22.7632Z" fill="#8F9397"/>
<path d="M4.61609 17.5C4.64678 17.5197 4.67308 17.5461 4.70377 17.5658C4.5591 17.8355 4.43198 18.0658 4.22156 18.2237C4.28293 17.875 4.43636 17.7105 4.61609 17.5Z" fill="#909497"/>
<path d="M3.03792 22.5658C3.0686 22.5658 3.0949 22.5658 3.12559 22.5658C3.12559 22.6118 3.12559 22.6513 3.12559 22.6974C3.19573 22.6974 3.27025 22.6974 3.34478 22.6974C3.26587 22.8026 3.26587 22.8026 3.16943 22.8947C3.07299 22.875 3.07299 22.875 2.99408 22.829C2.99408 22.6316 2.99408 22.6316 3.03792 22.5658Z" fill="#9BA0A4"/>
<path d="M4.35303 5.32892C4.54591 5.36181 4.65112 5.53944 4.7914 5.72366C4.77825 5.76971 4.76072 5.80918 4.74756 5.85523C4.68181 5.78287 4.61605 5.70392 4.5503 5.63155C4.51523 5.5855 4.47577 5.54602 4.4407 5.49997C4.41002 5.46708 4.38371 5.43418 4.35303 5.39471C4.35303 5.37497 4.35303 5.34866 4.35303 5.32892Z" fill="#8D9396"/>
<path d="M0.188558 2.76318C0.258698 3.02634 0.201708 3.22371 0.14472 3.48687C0.131568 3.48687 0.114033 3.48687 0.100881 3.48687C0.0921143 2.98687 0.0921154 2.98687 0.188558 2.76318Z" fill="#8C9093"/>
<path d="M5.05447 16.9079C4.9931 17.1316 4.92296 17.2368 4.79144 17.3684C4.81775 17.1316 4.87473 16.9079 5.05447 16.9079Z" fill="#969B9E"/>
<path d="M21.625 24.9342C21.7258 24.9342 21.8267 24.9342 21.9319 24.9342C21.9319 24.9539 21.9319 24.9803 21.9319 25C21.831 25 21.7302 25 21.625 25C21.625 24.9803 21.625 24.9539 21.625 24.9342Z" fill="#A6AAAC"/>
<path d="M18.8194 24.9342C18.9202 24.9342 19.021 24.9342 19.1263 24.9342C19.1263 24.9539 19.1263 24.9803 19.1263 25C19.0254 25 18.9246 25 18.8194 25C18.8194 24.9803 18.8194 24.9539 18.8194 24.9342Z" fill="#A6ABAD"/>
<path d="M11.1478 24.9342C11.2355 24.9342 11.3232 24.9342 11.4109 24.9342C11.4109 24.9539 11.4109 24.9803 11.4109 25C11.3232 25 11.2355 25 11.1478 25C11.1478 24.9803 11.1478 24.9539 11.1478 24.9342Z" fill="#A7ABAE"/>
<path d="M10.4903 24.9342C10.578 24.9342 10.6656 24.9342 10.7533 24.9342C10.7533 24.9539 10.7533 24.9803 10.7533 25C10.6656 25 10.578 25 10.4903 25C10.4903 24.9803 10.4903 24.9539 10.4903 24.9342Z" fill="#A7AAAD"/>
<path d="M19.8715 24.9342C19.9416 24.9342 20.0161 24.9342 20.0906 24.9342C20.0906 24.9539 20.0906 24.9803 20.0906 25C20.0205 25 19.946 25 19.8715 25C19.8715 24.9803 19.8715 24.9539 19.8715 24.9342Z" fill="#A8ACAE"/>
<path d="M18.1618 24.9342C18.2319 24.9342 18.3065 24.9342 18.381 24.9342C18.381 24.9539 18.381 24.9803 18.381 25C18.3109 25 18.2363 25 18.1618 25C18.1618 24.9803 18.1618 24.9539 18.1618 24.9342Z" fill="#A6AAAD"/>
<path d="M16.0576 24.9342C16.1278 24.9342 16.2023 24.9342 16.2768 24.9342C16.2768 24.9539 16.2768 24.9803 16.2768 25C16.2067 25 16.1321 25 16.0576 25C16.0576 24.9803 16.0576 24.9539 16.0576 24.9342Z" fill="#A7ABAD"/>
<path d="M11.8931 24.9342C11.9632 24.9342 12.0377 24.9342 12.1123 24.9342C12.1123 24.9539 12.1123 24.9803 12.1123 25C12.0421 25 11.9676 25 11.8931 25C11.8931 24.9803 11.8931 24.9539 11.8931 24.9342Z" fill="#A6ABAD"/>
<path d="M6.28192 24.9342C6.35206 24.9342 6.42659 24.9342 6.50111 24.9342C6.50111 24.9539 6.50111 24.9803 6.50111 25C6.43097 25 6.35644 25 6.28192 25C6.28192 24.9803 6.28192 24.9539 6.28192 24.9342Z" fill="#A6AAAC"/>
<path d="M22.0195 24.9342C22.1949 25 22.1949 25 22.1949 25L22.0195 24.9342Z" fill="#A4A9AB"/>
<path d="M19.5646 24.9342C19.74 25 19.74 25 19.74 25L19.5646 24.9342Z" fill="#A7ACAD"/>
<path d="M16.4083 24.9342C16.5837 25 16.5837 25 16.5837 25L16.4083 24.9342Z" fill="#A7ABAD"/>
<path d="M15.4439 24.9342C15.6193 25 15.6193 25 15.6193 25L15.4439 24.9342Z" fill="#A7AAAD"/>
<path d="M15.0932 24.9342C15.2686 25 15.2686 25 15.2686 25L15.0932 24.9342Z" fill="#A7ABAD"/>
<path d="M12.2 24.9342C12.3753 25 12.3753 25 12.3753 25L12.2 24.9342Z" fill="#A7ACAF"/>
<path d="M4.48456 24.9342C4.65991 25 4.65991 25 4.65991 25L4.48456 24.9342Z" fill="#A6AAAC"/>
<path d="M19.3016 24.9342C19.4331 25 19.4331 25 19.4331 25L19.3016 24.9342Z" fill="#A6ABAD"/>
<path d="M8.38611 24.9342C8.51762 25 8.51762 25 8.51762 25L8.38611 24.9342Z" fill="#A7AAAD"/>
<path d="M2.20502 24.8026C2.33653 24.8684 2.33653 24.8684 2.33653 24.8684L2.20502 24.8026Z" fill="#A4A7AB"/>
<path d="M21.4058 24.9342C21.4935 25 21.4935 25 21.4935 25L21.4058 24.9342Z" fill="#A6AAAC"/>
<path d="M21.2743 24.9342C21.362 25 21.362 25 21.362 25L21.2743 24.9342Z" fill="#A6ABAC"/>
<path d="M21.0551 24.9342C21.1428 25 21.1428 25 21.1428 25L21.0551 24.9342Z" fill="#A6ABAE"/>
<path d="M20.9236 24.9342C21.0113 25 21.0113 25 21.0113 25L20.9236 24.9342Z" fill="#A7ABAE"/>
<path d="M20.7044 24.9342C20.7921 25 20.7921 25 20.7921 25L20.7044 24.9342Z" fill="#A6AAAC"/>
<path d="M20.3537 24.9342C20.4414 25 20.4414 25 20.4414 25L20.3537 24.9342Z" fill="#A7ACAD"/>
<path d="M18.6002 24.9342C18.6879 25 18.6879 25 18.6879 25L18.6002 24.9342Z" fill="#A7AAAD"/>
<path d="M18.4687 24.9342C18.5564 25 18.5564 25 18.5564 25L18.4687 24.9342Z" fill="#A8ACAE"/>
<path d="M17.5481 24.9342C17.6358 25 17.6358 25 17.6358 25L17.5481 24.9342Z" fill="#A8ABAD"/>
<path d="M17.1974 24.9342C17.2851 25 17.2851 25 17.2851 25L17.1974 24.9342Z" fill="#A7ABAD"/>
<path d="M16.8467 24.9342C16.9344 25 16.9344 25 16.9344 25L16.8467 24.9342Z" fill="#A7ABAF"/>
<path d="M15.7946 24.9342C15.8823 25 15.8823 25 15.8823 25L15.7946 24.9342Z" fill="#A7ABAE"/>
<path d="M14.3918 24.9342C14.4795 25 14.4795 25 14.4795 25L14.3918 24.9342Z" fill="#A6AAAC"/>
<path d="M14.0411 24.9342C14.1288 25 14.1288 25 14.1288 25L14.0411 24.9342Z" fill="#A7ABAF"/>
<path d="M13.6904 24.9342C13.7781 25 13.7781 25 13.7781 25L13.6904 24.9342Z" fill="#A7ABAE"/>
<path d="M13.3397 24.9342C13.4274 25 13.4274 25 13.4274 25L13.3397 24.9342Z" fill="#A6ABAE"/>
<path d="M12.989 24.9342C13.0767 25 13.0767 25 13.0767 25L12.989 24.9342Z" fill="#A6A9AD"/>
<path d="M10.8848 24.9342C10.9725 25 10.9725 25 10.9725 25L10.8848 24.9342Z" fill="#A8ACAE"/>
<path d="M9.8327 24.9342C9.92038 25 9.92038 25 9.92038 25L9.8327 24.9342Z" fill="#A7AAAE"/>
<path d="M9.13135 24.9342C9.21902 25 9.21902 25 9.21902 25L9.13135 24.9342Z" fill="#A6ABAD"/>
<path d="M8.78064 24.9342C8.86831 25 8.86831 25 8.86831 25L8.78064 24.9342Z" fill="#A7ABAD"/>
<path d="M7.94769 24.9342C8.03537 25 8.03537 25 8.03537 25L7.94769 24.9342Z" fill="#A8AEAF"/>
<path d="M7.72852 24.9342C7.81619 25 7.81619 25 7.81619 25L7.72852 24.9342Z" fill="#A7ABAE"/>
<path d="M7.59705 24.9342C7.68472 25 7.68472 25 7.68472 25L7.59705 24.9342Z" fill="#A7ABAE"/>
<path d="M5.97504 24.9342C6.06271 25 6.06271 25 6.06271 25L5.97504 24.9342Z" fill="#A7AAAD"/>
<path d="M5.62433 24.9342C5.712 25 5.712 25 5.712 25L5.62433 24.9342Z" fill="#A6AAAD"/>
<path d="M5.27362 24.9342C5.36129 25 5.36129 25 5.36129 25L5.27362 24.9342Z" fill="#A6AAAD"/>
<path d="M5.14215 24.9342C5.22983 25 5.22983 25 5.22983 25L5.14215 24.9342Z" fill="#A7ABAD"/>
<path d="M4.92291 24.9342C5.01059 25 5.01059 25 5.01059 25L4.92291 24.9342Z" fill="#A5A9AC"/>
<path d="M4.22156 24.9342C4.30923 25 4.30923 25 4.30923 25L4.22156 24.9342Z" fill="#A6AAAC"/>
<path d="M3.52014 24.9342C3.60782 25 3.60781 25 3.60781 25L3.52014 24.9342Z" fill="#A6A9AC"/>
<path d="M3.82703 7.36841C3.9147 7.4342 3.9147 7.4342 3.9147 7.4342L3.82703 7.36841Z" fill="#A9ABB1"/>
</svg>
