<svg width="25" height="25" viewBox="0 0 25 25" fill="none" xmlns="http://www.w3.org/2000/svg">
<path d="M23.75 18.7608H22.5V10.0058C22.5 7.35208 21.4464 4.80707 19.5711 2.93062C17.6957 1.05418 15.1522 0 12.5 0C9.8478 0 7.3043 1.05418 5.42893 2.93062C3.55357 4.80707 2.5 7.35208 2.5 10.0058V18.7608H1.25C0.91848 18.7608 0.60054 18.8926 0.366116 19.1271C0.131696 19.3617 0 19.6798 0 20.0115C0 20.3432 0.131696 20.6614 0.366116 20.8959C0.60054 21.1305 0.91848 21.2622 1.25 21.2622H7.6625C7.94216 22.3329 8.56868 23.2805 9.44401 23.9568C10.3193 24.6332 11.3941 25 12.5 25C13.6059 25 14.6807 24.6332 15.556 23.9568C16.4313 23.2805 17.0578 22.3329 17.3375 21.2622H23.75C24.0815 21.2622 24.3995 21.1305 24.6339 20.8959C24.8683 20.6614 25 20.3432 25 20.0115C25 19.6798 24.8683 19.3617 24.6339 19.1271C24.3995 18.8926 24.0815 18.7608 23.75 18.7608ZM12.5 22.513C12.0616 22.5126 11.631 22.3967 11.2515 22.1772C10.8719 21.9576 10.5567 21.6422 10.3375 21.2622H14.6625C14.4433 21.6422 14.1281 21.9576 13.7485 22.1772C13.369 22.3967 12.9384 22.5126 12.5 22.513Z" fill="#C1C6C8"/>
</svg>
