<svg width="25" height="25" viewBox="0 0 25 25" fill="none" xmlns="http://www.w3.org/2000/svg">
<path d="M6.63168 14.338C6.6664 14.338 6.69765 14.338 6.73237 14.338C7.21847 14.3349 7.61428 14.5164 8.04135 14.7041C8.7809 15.024 9.49615 15.2824 10.2947 15.4639C10.3746 15.4823 10.3746 15.4823 10.4544 15.5008C12.7148 15.9745 15.0584 15.5008 17.0618 14.538C17.6694 14.255 18.3916 14.2796 19.0374 14.4549C19.1312 14.4826 19.2284 14.5103 19.3222 14.541C19.3673 14.5564 19.3673 14.5564 19.4159 14.5687C20.3534 14.8702 21.2006 15.3716 21.947 15.953C22.0095 15.9991 22.072 16.0484 22.1345 16.0945C22.1727 16.1222 22.2075 16.1499 22.2422 16.1776C22.2908 16.2145 22.2908 16.2145 22.3394 16.2514C22.4019 16.3098 22.4019 16.3098 22.4019 16.3867C22.447 16.399 22.4887 16.4114 22.5338 16.4237C22.6033 16.4852 22.6033 16.4852 22.6762 16.5621C22.7179 16.6051 22.7179 16.6051 22.756 16.6451C23.1449 17.0635 23.4956 17.4911 23.7907 17.9617C23.8081 17.9863 23.822 18.0079 23.8359 18.0325C24.8011 19.5214 25.2768 21.4624 24.8324 23.1543C24.6275 23.7849 24.2178 24.3171 23.5755 24.6555C23.1762 24.8431 22.7942 24.9354 22.3429 24.9323C22.3081 24.9323 22.2734 24.9323 22.2352 24.9323C22.1207 24.9323 22.0026 24.9323 21.888 24.9323C21.8047 24.9323 21.7214 24.9323 21.6346 24.9323C21.4054 24.9354 21.1728 24.9354 20.9436 24.9323C20.6936 24.9323 20.4436 24.9354 20.1936 24.9354C19.7041 24.9354 19.218 24.9354 18.7284 24.9354C18.3326 24.9354 17.9333 24.9354 17.5375 24.9354C17.4542 24.9354 17.4542 24.9354 17.3674 24.9354C17.2528 24.9354 17.1347 24.9354 17.0202 24.9354C16.2494 24.9354 15.4786 24.9354 14.7078 24.9354C14.68 24.9354 14.6487 24.9354 14.6175 24.9354C14.4647 24.9354 14.3119 24.9354 14.1592 24.9354C14.1279 24.9354 14.1001 24.9354 14.0689 24.9354C14.0064 24.9354 13.9439 24.9354 13.8849 24.9354C12.93 24.9354 11.9752 24.9354 11.0204 24.9354C9.94752 24.9354 8.87465 24.9385 7.80178 24.9385C7.23583 24.9385 6.6664 24.9385 6.10045 24.9385C5.61436 24.9385 5.13174 24.9385 4.64912 24.9385C4.40261 24.9385 4.15609 24.9385 3.90957 24.9385C3.68388 24.9385 3.4582 24.9385 3.23251 24.9385C3.14918 24.9385 3.06932 24.9385 2.98599 24.9385C2.08672 24.9416 1.42008 24.7877 0.746499 24.231C0.0694432 23.6157 0 22.7175 0 21.9054C0 21.8777 0 21.85 0 21.8223C0.00347275 21.4163 0.0104173 21.0164 0.0972201 20.6165C0.100692 20.5826 0.107635 20.5519 0.11458 20.518C0.225686 19.9982 0.385402 19.506 0.58331 19.0076C0.628448 18.8907 0.666641 18.7738 0.701362 18.657C0.732611 18.657 0.760388 18.657 0.791637 18.657C0.805525 18.6077 0.805524 18.6077 0.822885 18.5585C0.885382 18.4047 0.961769 18.2632 1.04857 18.1186C1.06593 18.0909 1.08329 18.0633 1.10065 18.0325C1.68396 17.085 2.54157 16.1837 3.52417 15.5408C3.55889 15.5193 3.59014 15.4977 3.62486 15.4731C4.46857 14.9348 5.56575 14.3442 6.63168 14.338ZM17.2771 15.873C15.1244 16.9958 12.3259 17.245 9.92669 16.7159C9.53087 16.6205 9.14547 16.5036 8.76007 16.3837C8.68716 16.3591 8.61077 16.3375 8.53786 16.3191C8.32953 16.2606 8.17329 16.1899 7.99274 16.0791C7.79483 15.9807 7.58651 15.8946 7.38165 15.8053C7.31568 15.7777 7.24971 15.7469 7.18722 15.7161C6.86779 15.5716 6.56571 15.5716 6.22198 15.6608C6.04143 15.7161 5.86783 15.7807 5.69422 15.8484C5.65256 15.8638 5.65256 15.8638 5.61436 15.8792C4.83314 16.1929 4.18734 16.679 3.56931 17.1927C3.53806 17.2173 3.50681 17.2419 3.47556 17.2665C2.16658 18.3555 1.46175 20.0597 1.38189 21.6224C1.35411 22.4683 1.35411 22.4683 1.70132 23.2312C1.93048 23.4404 2.12839 23.6034 2.46518 23.625C2.52768 23.625 2.59018 23.625 2.65267 23.625C2.6874 23.625 2.72212 23.625 2.75684 23.625C2.87142 23.628 2.98599 23.625 3.10404 23.625C3.18737 23.625 3.27071 23.628 3.35404 23.628C3.58319 23.628 3.81582 23.628 4.04498 23.628C4.2915 23.628 4.54149 23.628 4.78801 23.628C5.33312 23.628 5.87477 23.6311 6.41989 23.6311C6.75668 23.6311 7.09694 23.6311 7.43374 23.6311C8.37467 23.6311 9.31213 23.6311 10.2496 23.6311C10.2808 23.6311 10.3086 23.6311 10.3399 23.6311C10.4614 23.6311 10.5829 23.6311 10.7044 23.6311C10.7982 23.6311 10.8885 23.6311 10.9787 23.6311C11.0239 23.6311 11.0239 23.6311 11.0725 23.6311C12.0204 23.6311 12.9717 23.6342 13.9231 23.6342C14.989 23.6373 16.0549 23.6373 17.1243 23.6373C17.6903 23.6373 18.2562 23.6373 18.8187 23.6373C19.3013 23.6403 19.7839 23.6403 20.2631 23.6403C20.5096 23.6373 20.7561 23.6403 20.9992 23.6403C21.2249 23.6403 21.4505 23.6403 21.6762 23.6403C21.7561 23.6403 21.8359 23.6403 21.9193 23.6403C22.579 23.6465 22.579 23.6465 23.138 23.3573C23.3949 23.1235 23.4644 22.8098 23.5199 22.4991C23.5268 22.4499 23.5268 22.4499 23.5338 22.4006C23.7768 20.8933 23.1623 19.1891 22.1415 17.9833C22.1137 17.9525 22.0859 17.9187 22.0547 17.8879C22.0165 17.8387 22.0165 17.8387 21.9748 17.7925C21.9019 17.7064 21.829 17.6234 21.7526 17.5403C21.7318 17.5157 21.7109 17.4942 21.6866 17.4696C21.5512 17.3219 21.4054 17.1988 21.2422 17.0758C21.1728 17.0235 21.1068 16.9681 21.0408 16.9128C20.7249 16.6482 20.3881 16.436 20.0166 16.2329C19.9853 16.2176 19.9541 16.1991 19.9228 16.1837C19.0548 15.7161 18.2146 15.3778 17.2771 15.873Z" fill="#929191"/>
<path d="M14.68 0.313796C14.7078 0.323024 14.7355 0.329177 14.7668 0.338405C15.5133 0.550661 16.2251 0.895191 16.8466 1.31355C16.8709 1.32893 16.8952 1.34431 16.9195 1.35969C18.5548 2.42097 19.652 4.04211 19.9645 5.8109C20.2284 7.48742 19.7874 9.21007 18.659 10.579C17.8153 11.548 16.8362 12.2493 15.5897 12.7723C15.5168 12.803 15.5168 12.803 15.4438 12.8338C13.8328 13.489 11.9787 13.4736 10.2947 13.0799C10.2496 13.0707 10.2496 13.0707 10.2045 13.0584C9.17673 12.8092 8.27746 12.3016 7.47194 11.6956C7.44069 11.671 7.40944 11.6495 7.37819 11.6249C7.30528 11.5726 7.23931 11.5203 7.16986 11.4649C7.16986 11.4403 7.16986 11.4157 7.16986 11.388C7.14556 11.3788 7.11778 11.3695 7.09348 11.3572C6.92335 11.2742 6.81571 11.1357 6.69419 11.0035C6.66641 10.9758 6.63864 10.945 6.61086 10.9173C5.30188 9.52076 4.82274 7.77042 4.96856 5.98625C5.06578 5.11877 5.38868 4.26359 5.86783 3.50378C5.89561 3.45764 5.92339 3.4115 5.95463 3.36535C6.2324 2.907 6.58308 2.51633 6.98237 2.14104C7.08654 2.04568 7.08653 2.04568 7.16986 1.92878C7.19764 1.92878 7.22889 1.92878 7.25667 1.92878C7.27056 1.89187 7.28444 1.85188 7.29833 1.81189C7.36777 1.75037 7.36777 1.75037 7.45458 1.68577C7.48583 1.66423 7.51707 1.63962 7.55179 1.61502C9.57255 0.138455 12.1454 -0.390647 14.68 0.313796ZM7.80526 3.14079C7.20111 3.76833 6.79488 4.52199 6.52753 5.30641C6.51711 5.33102 6.51017 5.35563 6.49975 5.38024C6.15949 6.43844 6.28448 7.64122 6.73585 8.65943C6.74627 8.68404 6.76016 8.71173 6.77058 8.73941C7.07959 9.42848 7.52749 10.0222 8.12469 10.542C8.15594 10.5697 8.15594 10.5697 8.18719 10.5974C9.21145 11.5141 10.7114 12.0401 12.1593 12.0801C12.2148 12.0832 12.2704 12.0832 12.3259 12.0863C13.0377 12.1047 13.7425 12.0094 14.4161 11.8094C14.4751 11.794 14.5342 11.7787 14.5897 11.7633C15.305 11.5603 15.9299 11.2373 16.4994 10.8128C16.5584 10.7697 16.5584 10.7697 16.6174 10.7235C17.6938 9.89298 18.3361 8.78248 18.5826 7.54279C18.593 7.5028 18.6 7.45973 18.6104 7.41974C18.725 6.50919 18.5861 5.61711 18.1937 4.77424C18.1521 4.77424 18.1069 4.77424 18.0618 4.77424C18.093 4.76193 18.1208 4.74963 18.1521 4.73425C18.0826 4.52199 18.0132 4.36818 17.8465 4.19899C17.8431 4.17439 17.8361 4.15285 17.8326 4.13132C17.7875 3.99904 17.7007 3.89138 17.6174 3.77756C17.5965 3.75295 17.5792 3.72526 17.5583 3.70065C17.3813 3.47302 17.1799 3.27307 16.9646 3.07619C16.8605 2.97776 16.7667 2.87932 16.673 2.77473C15.5306 1.76882 13.9404 1.27356 12.3502 1.26126C10.5656 1.27356 8.98229 1.96262 7.80526 3.14079Z" fill="#929191"/>
<path d="M12.4023 0C12.4405 0 12.4787 0 12.5169 0C12.7634 0 13.0029 0.0184572 13.246 0.0461425C13.246 0.0584472 13.246 0.0707518 13.246 0.0830565C13.1314 0.0953611 13.0168 0.107666 12.8988 0.11997C12.8988 0.135351 12.8988 0.147656 12.8988 0.159961C12.5967 0.159961 12.2981 0.159961 11.9856 0.159961C11.9856 0.147656 11.9856 0.135351 11.9856 0.11997C11.8294 0.107666 11.6731 0.0953611 11.5099 0.0830565C11.5099 0.0707518 11.5099 0.0584472 11.5099 0.0461425C11.8085 0.0123045 12.1037 0 12.4023 0Z" fill="#969595"/>
<path d="M1.44094 20.8102C1.45483 20.8102 1.46872 20.8102 1.48608 20.8102C1.4826 20.841 1.47913 20.8718 1.47566 20.9025C1.42011 21.5239 1.40969 22.1514 1.48608 22.7698C1.46872 22.7698 1.45483 22.7698 1.44094 22.7698C1.35414 22.3852 1.32983 22.0069 1.31247 21.6162C1.29511 21.6162 1.28122 21.6162 1.26733 21.6162C1.26733 21.4778 1.26733 21.3363 1.26733 21.1917C1.29511 21.1917 1.32636 21.1917 1.35414 21.1917C1.35414 21.1179 1.35414 21.041 1.35414 20.964C1.38191 20.964 1.40969 20.964 1.44094 20.964C1.44094 20.9118 1.44094 20.8595 1.44094 20.8102Z" fill="#AEAEAE"/>
<path d="M23.0547 19.4629C23.4644 19.7982 23.4818 20.3796 23.5338 20.8472C23.5338 20.9241 23.5338 21.001 23.5338 21.0779C23.5165 21.0779 23.5026 21.0779 23.4887 21.0779C23.4818 21.041 23.4818 21.041 23.4713 21.001C23.3741 20.5519 23.2734 20.112 23.0929 19.6844C23.0547 19.5798 23.0547 19.5798 23.0547 19.4629Z" fill="#A3A3A3"/>
<path d="M6.82265 4.46661C6.88167 4.62657 6.81223 4.73116 6.74279 4.87882C6.65599 5.07262 6.5796 5.26642 6.52057 5.46637C6.50321 5.46637 6.48933 5.46637 6.47544 5.46637C6.46155 5.22643 6.50321 5.05416 6.6039 4.83268C6.61779 4.80499 6.63168 4.77731 6.6421 4.74654C6.67335 4.67887 6.70459 4.61119 6.73584 4.54352C6.76362 4.54352 6.7914 4.54352 6.82265 4.54352C6.82265 4.51891 6.82265 4.4943 6.82265 4.46661Z" fill="#979796"/>
<path d="M8.08301 14.8118C8.32605 14.8302 8.51007 14.8887 8.72882 14.9871C8.77395 15.0056 8.77395 15.0056 8.81909 15.024C8.892 15.0548 8.96492 15.0855 9.03436 15.1194C8.80173 15.1871 8.5691 15.0825 8.3573 14.9902C8.26356 14.944 8.17328 14.8979 8.08301 14.8487C8.08301 14.8364 8.08301 14.8241 8.08301 14.8118Z" fill="#9A9A99"/>
<path d="M11.944 0.00612867C12.0863 0.00612867 12.2322 0.00305176 12.3745 0.00305176C12.4162 0.00305176 12.4544 0.00305176 12.496 0.00305176C12.7495 0.00305176 12.996 0.0153576 13.246 0.0461188C13.246 0.0584235 13.246 0.0707282 13.246 0.0830328C12.8155 0.101489 12.8155 0.101489 12.378 0.119947C12.378 0.107642 12.378 0.0953375 12.378 0.0830328C12.2356 0.0707282 12.0898 0.0584235 11.944 0.0461188C11.944 0.0307382 11.944 0.0184333 11.944 0.00612867Z" fill="#AAA9A8"/>
<path d="M15.5896 16.5036C15.5618 16.5036 15.5341 16.5036 15.5028 16.5036C15.5028 16.5282 15.5028 16.5528 15.5028 16.5774C15.232 16.6605 14.9646 16.679 14.6799 16.6943C14.8258 16.6082 14.9646 16.5713 15.1348 16.5344C15.1626 16.5251 15.1938 16.519 15.2216 16.5098C15.3674 16.4759 15.4438 16.4605 15.5896 16.5036Z" fill="#858583"/>
<path d="M8.25663 1.27663C8.06914 1.41506 7.88165 1.55349 7.69068 1.69807C7.66291 1.68576 7.63166 1.67346 7.60388 1.65808C7.64902 1.61193 7.69763 1.56271 7.74624 1.5135C7.77054 1.48581 7.79832 1.45812 7.82262 1.43044C8.04136 1.22741 8.04137 1.22741 8.25663 1.27663Z" fill="#878786"/>
<path d="M13.3328 13.2336C13.3328 13.2459 13.3328 13.2583 13.3328 13.2736C12.9266 13.3536 12.5689 13.3475 12.1592 13.3105C12.1592 13.2982 12.1592 13.2859 12.1592 13.2736C12.5516 13.2306 12.9405 13.2306 13.3328 13.2336Z" fill="#727272"/>
<path d="M1.52771 20.2319C1.5416 20.2319 1.55549 20.2319 1.56938 20.2319C1.5798 20.638 1.5798 20.638 1.52771 20.8103C1.49994 20.8103 1.47216 20.8103 1.44091 20.8103C1.42702 20.8595 1.41314 20.9087 1.39578 20.9641C1.37842 20.7057 1.45133 20.478 1.52771 20.2319Z" fill="#898887"/>
<path d="M6.69765 15.5346C6.76709 15.5439 6.76709 15.5439 6.83653 15.5531C6.95111 15.5808 6.95111 15.5808 7.04138 15.6546C6.76709 15.6423 6.49627 15.63 6.21503 15.6177C6.25669 15.5408 6.25669 15.5408 6.32961 15.5162C6.46155 15.4977 6.56918 15.5131 6.69765 15.5346Z" fill="#9C9B9B"/>
<path d="M18.1937 4.6604C18.3291 4.71885 18.35 4.83882 18.3986 4.95879C18.409 4.9834 18.4194 5.00801 18.4298 5.03262C18.4819 5.16489 18.5166 5.25718 18.4541 5.38945C18.4402 5.31255 18.4264 5.23872 18.409 5.15874C18.3812 5.15874 18.3534 5.15874 18.3257 5.15874C18.2354 4.99263 18.2146 4.83882 18.1937 4.6604Z" fill="#848381"/>
<path d="M10.7288 13.0798C11.0378 13.1014 11.3364 13.1414 11.6384 13.1937C11.6384 13.209 11.6384 13.2213 11.6384 13.2336C11.3676 13.2213 11.0968 13.209 10.8156 13.1937C10.8156 13.169 10.8156 13.1444 10.8156 13.1198C10.7878 13.1044 10.7565 13.0921 10.7288 13.0798Z" fill="#807F7F"/>
<path d="M3.69781 15.427C3.72559 15.4393 3.75684 15.4516 3.78462 15.4639C3.74642 15.4916 3.70476 15.5193 3.66657 15.547C3.54157 15.6393 3.44435 15.7346 3.35061 15.8484C3.29158 15.8361 3.23603 15.8238 3.177 15.8084C3.34713 15.6823 3.52074 15.5562 3.69781 15.427Z" fill="#A5A4A4"/>
<path d="M9.03436 15.1562C9.29824 15.1809 9.53087 15.267 9.77392 15.347C9.77392 15.3624 9.77392 15.3747 9.77392 15.387C9.58642 15.3931 9.45796 15.3962 9.29824 15.3101C9.24963 15.2885 9.20449 15.2701 9.15589 15.2485C9.11769 15.2301 9.07603 15.2116 9.03436 15.1932C9.03436 15.1809 9.03436 15.1686 9.03436 15.1562Z" fill="#A7A6A6"/>
<path d="M19.2354 3.96515C19.2631 4.01744 19.2909 4.06974 19.3222 4.11896C19.3499 4.11896 19.3812 4.11896 19.409 4.11896C19.4819 4.23585 19.5096 4.32814 19.5235 4.45734C19.527 4.4881 19.5305 4.51886 19.534 4.54962C19.5374 4.58346 19.5374 4.58346 19.5409 4.62037C19.4333 4.52501 19.3951 4.43888 19.3395 4.31583C19.3083 4.25431 19.3083 4.25431 19.2805 4.19279C19.2354 4.08204 19.2354 4.08204 19.2354 3.96515Z" fill="#868685"/>
<path d="M8.55872 16.3098C8.62816 16.316 8.70107 16.3221 8.77051 16.3252C8.80871 16.3283 8.85037 16.3313 8.88856 16.3375C8.99273 16.3498 8.99273 16.3498 9.07953 16.3867C9.07953 16.4113 9.07953 16.4359 9.07953 16.4636C9.15244 16.4759 9.22188 16.4882 9.29827 16.5036C9.12119 16.5682 8.99967 16.5098 8.82954 16.4482C8.77746 16.4298 8.72885 16.4113 8.67677 16.3929C8.63857 16.3775 8.59691 16.3621 8.55872 16.3498C8.55872 16.3344 8.55872 16.3221 8.55872 16.3098Z" fill="#A9A8A8"/>
<path d="M18.3673 8.38873C18.4264 8.53024 18.3951 8.60714 18.3257 8.74557C18.3118 8.77941 18.2944 8.81324 18.2771 8.84708C18.2632 8.87477 18.2493 8.89938 18.2354 8.92706C18.2215 8.92706 18.2076 8.92706 18.1937 8.92706C18.1868 8.75172 18.1937 8.6256 18.2805 8.46564C18.3083 8.46564 18.3396 8.46564 18.3673 8.46564C18.3673 8.44103 18.3673 8.41334 18.3673 8.38873Z" fill="#8B8B8A"/>
<path d="M2.35411 16.5036C2.35411 16.6605 2.28814 16.7251 2.18051 16.8481C2.0937 16.9066 2.01037 16.9527 1.91663 17.0019C1.9826 16.8697 2.07287 16.7743 2.18398 16.6666C2.21523 16.6359 2.24647 16.6051 2.2812 16.5713C2.31592 16.5374 2.31592 16.5374 2.35411 16.5036Z" fill="#A1A0A0"/>
<path d="M6.47545 8.11798C6.48934 8.14567 6.50323 8.17028 6.52059 8.19796C6.54836 8.19796 6.57614 8.19796 6.60392 8.19796C6.656 8.33639 6.65253 8.47174 6.64905 8.6194C6.51364 8.49943 6.47892 8.36715 6.46851 8.20104C6.47198 8.17335 6.47198 8.14874 6.47545 8.11798Z" fill="#898987"/>
<path d="M19.4958 4.38971C19.5895 4.47277 19.6138 4.52506 19.6555 4.6358C19.6659 4.66349 19.6798 4.69425 19.6902 4.72501C19.7145 4.82037 19.7041 4.87574 19.6694 4.96803C19.6694 4.92804 19.6694 4.89112 19.6694 4.85113C19.6416 4.85113 19.6104 4.85113 19.5826 4.85113C19.5131 4.69117 19.4854 4.56197 19.4958 4.38971Z" fill="#A4A4A3"/>
<path d="M15.6313 0.698303C15.8015 0.741369 15.9299 0.787511 16.0688 0.889025C15.9438 0.913634 15.9438 0.913634 15.805 0.929016C15.6765 0.852112 15.6765 0.852112 15.6452 0.769055C15.6418 0.747522 15.6383 0.722913 15.6313 0.698303Z" fill="#9B9A9A"/>
<path d="M0.444438 19.386C0.458328 19.386 0.472216 19.386 0.486105 19.386C0.493049 19.6782 0.493048 19.6782 0.444438 19.8074C0.41319 19.8074 0.385414 19.8074 0.354165 19.8074C0.340277 19.8351 0.326388 19.8597 0.3125 19.8874C0.336805 19.709 0.374998 19.5521 0.444438 19.386Z" fill="#A0A1A0"/>
<path d="M1.61453 17.3096C1.64578 17.3711 1.64578 17.3711 1.65967 17.4634C1.52079 17.6818 1.52079 17.6818 1.35413 17.7341C1.41662 17.5741 1.5069 17.448 1.61453 17.3096Z" fill="#9A9999"/>
<path d="M20.1034 14.8856C20.2805 14.9348 20.4298 14.9871 20.5825 15.0794C20.5825 15.0917 20.5825 15.104 20.5825 15.1193C20.395 15.1317 20.2944 15.1009 20.1451 15.0025C20.1312 14.9655 20.1173 14.9255 20.1034 14.8856Z" fill="#999898"/>
<path d="M7.51709 14.5779C7.8643 14.6149 7.8643 14.6149 7.99277 14.6948C8.01013 14.7318 8.02401 14.7717 8.0379 14.8117C7.85388 14.7594 7.68722 14.6979 7.51709 14.6179C7.51709 14.6056 7.51709 14.5933 7.51709 14.5779Z" fill="#8B8B89"/>
<path d="M19.6693 8.57941C19.7318 8.72706 19.6902 8.81319 19.6277 8.9547C19.6138 8.99469 19.5964 9.0316 19.579 9.07159C19.5652 9.09928 19.5513 9.12696 19.5409 9.15773C19.4853 9.01622 19.5096 8.91779 19.5409 8.77321C19.5686 8.77321 19.5964 8.77321 19.6242 8.77321C19.6415 8.70861 19.6554 8.64708 19.6693 8.57941Z" fill="#ABABAA"/>
<path d="M17.5861 1.9657C17.7563 2.01799 17.8639 2.07336 17.9785 2.19949C17.9785 2.2364 17.9785 2.27332 17.9785 2.3133C17.9472 2.3133 17.9194 2.3133 17.8882 2.3133C17.8153 2.2364 17.7458 2.1595 17.6729 2.08259C17.6451 2.07029 17.6174 2.05798 17.5861 2.04568C17.5861 2.01799 17.5861 1.99338 17.5861 1.9657Z" fill="#8A8A89"/>
<path d="M24.6171 19.8474C24.7108 20.0166 24.7247 20.1243 24.749 20.3088C24.7039 20.3088 24.6622 20.3088 24.6171 20.3088C24.6171 20.1581 24.6171 20.0043 24.6171 19.8474Z" fill="#9E9E9D"/>
<path d="M18.409 8.08112C18.468 8.09342 18.5271 8.10573 18.5826 8.11803C18.5687 8.18263 18.5548 8.24723 18.5409 8.31183C18.4993 8.29952 18.4541 8.28722 18.409 8.27184C18.3951 8.33644 18.3812 8.40104 18.3673 8.46564C18.3118 8.3149 18.3569 8.22877 18.409 8.08112Z" fill="#A0A09F"/>
<path d="M6.43031 5.27563C6.44768 5.27563 6.46156 5.27563 6.47545 5.27563C6.47892 5.32793 6.4824 5.3833 6.4824 5.43867C6.48587 5.46636 6.48587 5.49712 6.48934 5.53096C6.47198 5.63862 6.42684 5.69092 6.34698 5.77397C6.35046 5.71245 6.3574 5.65093 6.36435 5.5894C6.36782 5.55557 6.37129 5.52173 6.37476 5.48481C6.38865 5.38945 6.38865 5.38945 6.43031 5.27563Z" fill="#848382"/>
<path d="M8.60384 0.929016C8.63162 0.941321 8.6594 0.953626 8.68717 0.969006C8.62468 1.06129 8.62468 1.06129 8.55871 1.15973C8.48579 1.14742 8.41635 1.13512 8.33997 1.12282C8.50315 0.972083 8.50315 0.972082 8.60384 0.929016Z" fill="#9F9E9D"/>
<path d="M5.2602 15.9253C5.30187 15.9499 5.347 15.9745 5.38867 16.0022C5.33312 16.036 5.27756 16.0668 5.22201 16.1006C5.19076 16.1191 5.15951 16.1375 5.12826 16.156C5.10049 16.1683 5.07271 16.1806 5.04146 16.196C5.01368 16.1806 4.98591 16.1683 4.95813 16.156C5.05535 16.0668 5.14215 15.996 5.2602 15.9253Z" fill="#999898"/>
<path d="M8.77747 11.0403C8.90941 11.0988 9.03787 11.1634 9.16634 11.2341C9.02746 11.2957 8.91635 11.2341 8.77747 11.1942C8.77747 11.1449 8.77747 11.0957 8.77747 11.0403Z" fill="#A1A2A1"/>
<path d="M15.3744 1.92877C15.6973 1.98107 15.6973 1.98107 15.8049 2.10719C15.8292 2.15333 15.8292 2.15333 15.8501 2.19947C15.6869 2.12872 15.5306 2.04874 15.3744 1.96569C15.3744 1.95338 15.3744 1.94108 15.3744 1.92877Z" fill="#A4A3A2"/>
<path d="M14.3328 1.43042C14.4022 1.44273 14.4751 1.45503 14.548 1.46734C14.548 1.49194 14.548 1.51655 14.548 1.54424C14.5758 1.54424 14.6036 1.54424 14.6348 1.54424C14.6348 1.56885 14.6348 1.59653 14.6348 1.62114C14.4404 1.58423 14.4404 1.58423 14.2425 1.54424C14.2737 1.50732 14.3015 1.46733 14.3328 1.43042Z" fill="#9D9D9D"/>
<path d="M1.39582 22.576C1.41318 22.576 1.42707 22.576 1.44096 22.576C1.44096 22.6406 1.44096 22.7052 1.44096 22.7698C1.46874 22.7698 1.49999 22.7698 1.52776 22.7698C1.52776 22.8467 1.52776 22.9205 1.52776 23.0005C1.49999 23.0005 1.47221 23.0005 1.44096 23.0005C1.4236 22.9451 1.40971 22.8898 1.39582 22.8313C1.38194 22.7852 1.38194 22.7852 1.36805 22.739C1.35416 22.656 1.35416 22.656 1.39582 22.576Z" fill="#888786"/>
<path d="M15.8952 12.6184C15.7459 12.7322 15.6035 12.7691 15.416 12.8122C15.4577 12.6953 15.4577 12.6953 15.5584 12.6492C15.6764 12.6184 15.7702 12.6123 15.8952 12.6184Z" fill="#A09F9F"/>
<path d="M6.17333 3.04236C6.20111 3.11003 6.20111 3.11003 6.215 3.19617C6.15944 3.30076 6.15944 3.30075 6.08306 3.38996C6.04139 3.40227 5.99973 3.41457 5.95459 3.42995C6.01362 3.29153 6.08306 3.16848 6.17333 3.04236Z" fill="#9A9A99"/>
<path d="M24.0095 18.6569C24.0685 18.6569 24.124 18.6569 24.1831 18.6569C24.2282 18.7246 24.2282 18.7246 24.2699 18.8107C24.256 18.8476 24.2421 18.8846 24.2282 18.9245C24.2108 18.8999 24.197 18.8723 24.1831 18.8476C24.1414 18.8661 24.1414 18.8661 24.0963 18.8846C24.0095 18.7707 24.0095 18.7707 24.0095 18.6569Z" fill="#A0A0A0"/>
<path d="M7.25665 15.6946C7.43373 15.7407 7.57956 15.7992 7.7358 15.8884C7.64553 15.9253 7.64553 15.9253 7.56567 15.9068C7.53442 15.8976 7.50317 15.8884 7.47192 15.8761C7.44067 15.8668 7.40942 15.8576 7.37818 15.8484C7.29832 15.8084 7.29832 15.8084 7.25665 15.6946Z" fill="#818180"/>
<path d="M16.5445 10.7327C16.5723 10.7481 16.6035 10.7604 16.6313 10.7727C16.5584 10.8496 16.489 10.9234 16.416 11.0034C16.357 10.9911 16.298 10.9788 16.2424 10.9665C16.3397 10.8896 16.4403 10.8127 16.5445 10.7327Z" fill="#A7A7A6"/>
<path d="M9.86071 1.73804C9.7253 1.83955 9.59683 1.88569 9.4267 1.92876C9.47183 1.81186 9.47183 1.81186 9.54475 1.7688C9.65585 1.73188 9.74266 1.73188 9.86071 1.73804Z" fill="#9C9C9C"/>
<path d="M15.1556 0.507568C15.3605 0.535254 15.3605 0.535253 15.4577 0.621386C15.3848 0.664452 15.3848 0.664452 15.2841 0.69829C15.1869 0.664452 15.1869 0.664452 15.1105 0.621386C15.1278 0.584472 15.1417 0.544482 15.1556 0.507568Z" fill="#A2A1A1"/>
<path d="M9.81907 0.507584C9.69061 0.618325 9.55867 0.624477 9.38159 0.661391C9.39895 0.621401 9.41284 0.584487 9.42673 0.544496C9.5552 0.489125 9.67672 0.504507 9.81907 0.507584Z" fill="#8C8B8A"/>
<path d="M9.99266 0.427562C10.0204 0.455247 10.0482 0.479856 10.076 0.507543C9.91627 0.54138 9.80516 0.54138 9.64545 0.507543C9.76697 0.3968 9.82252 0.378343 9.99266 0.427562Z" fill="#9F9E9E"/>
<path d="M23.7074 24.5755C23.4783 24.7016 23.4783 24.7016 23.4019 24.7293C23.3741 24.717 23.3463 24.7047 23.3151 24.6924C23.4539 24.5663 23.5095 24.5263 23.7074 24.5755Z" fill="#9B9B9A"/>
<path d="M23.1866 23.2712C23.1866 23.385 23.1866 23.385 23.0824 23.4865C22.9678 23.5788 22.9678 23.5788 22.881 23.6157C22.888 23.5234 22.9123 23.4742 22.9852 23.4096C23.0512 23.3604 23.1171 23.3142 23.1866 23.2712Z" fill="#989897"/>
<path d="M17.7597 15.6546C17.6243 15.7592 17.4958 15.8053 17.3257 15.8484C17.3673 15.7346 17.3673 15.7346 17.4437 15.6884C17.5548 15.6515 17.6416 15.6515 17.7597 15.6546Z" fill="#A1A09F"/>
<path d="M7.25665 14.4241C7.42331 14.4457 7.52053 14.4826 7.64553 14.5779C7.5622 14.5933 7.47539 14.6056 7.38859 14.6179C7.38165 14.5933 7.3747 14.5687 7.37123 14.5441C7.35734 14.5041 7.35734 14.5041 7.34345 14.4641C7.31568 14.4518 7.28443 14.4395 7.25665 14.4241Z" fill="#A0A1A0"/>
<path d="M15.0688 11.6556C14.93 11.7664 14.8188 11.794 14.6348 11.8094C14.6626 11.7971 14.6939 11.7848 14.7216 11.7725C14.7216 11.7479 14.7216 11.7233 14.7216 11.6956C14.8397 11.6433 14.9404 11.6556 15.0688 11.6556Z" fill="#898988"/>
<path d="M17.7146 9.54224C17.7528 9.60684 17.7528 9.60684 17.7598 9.69604C17.6556 9.80063 17.6556 9.80063 17.541 9.88984C17.541 9.73604 17.6174 9.66528 17.7146 9.54224Z" fill="#A2A2A2"/>
<path d="M18.1069 4.46661C18.1347 4.47892 18.1659 4.49122 18.1937 4.5066C18.2111 4.58351 18.2111 4.58351 18.2215 4.68195C18.225 4.71271 18.2284 4.74347 18.2319 4.77731C18.2354 4.81422 18.2354 4.81422 18.2354 4.85113C18.2215 4.82652 18.2076 4.80192 18.1937 4.77423C18.152 4.77423 18.1069 4.77423 18.0618 4.77423C18.0791 4.73732 18.093 4.69733 18.1069 4.66041C18.1069 4.59581 18.1104 4.53121 18.1069 4.46661Z" fill="#9D9C9B"/>
<path d="M14.6799 0.35376C14.7424 0.362988 14.8049 0.375293 14.8674 0.384522C14.9021 0.390674 14.9369 0.396826 14.9751 0.406055C15.0688 0.427588 15.0688 0.427588 15.1556 0.507569C14.864 0.510645 14.864 0.510645 14.7633 0.467578C14.7633 0.442969 14.7633 0.415283 14.7633 0.390674C14.7355 0.378369 14.7077 0.366064 14.6799 0.35376Z" fill="#A4A4A4"/>
<path d="M7.25665 24.9631C7.51359 24.9631 7.77052 24.9631 8.03787 24.9631C8.03787 24.9754 8.03787 24.9877 8.03787 25C7.78094 25 7.52053 25 7.25665 25C7.25665 24.9877 7.25665 24.9754 7.25665 24.9631Z" fill="#989798"/>
<path d="M1.87494 17.002C1.88883 17.0512 1.90271 17.1035 1.9166 17.1558C1.83327 17.205 1.74647 17.2573 1.65967 17.3096C1.71869 17.1958 1.78814 17.1004 1.87494 17.002Z" fill="#A09FA0"/>
<path d="M9.29822 11.348C9.47529 11.3972 9.57598 11.4402 9.72876 11.5418C9.5864 11.5172 9.44404 11.4895 9.29822 11.4649C9.29822 11.4279 9.29822 11.388 9.29822 11.348Z" fill="#ACADAD"/>
<path d="M6.82265 4.46661C6.88168 4.62657 6.81571 4.70348 6.73585 4.85113C6.68724 4.78346 6.68724 4.78346 6.64905 4.69733C6.68724 4.61119 6.68724 4.61119 6.73585 4.54352C6.76363 4.54352 6.7914 4.54352 6.82265 4.54352C6.82265 4.51891 6.82265 4.4943 6.82265 4.46661Z" fill="#A1A1A0"/>
<path d="M18.2354 2.58093C18.343 2.62708 18.343 2.62708 18.4541 2.69783C18.4888 2.80242 18.4888 2.80242 18.4992 2.88855C18.2874 2.71321 18.2874 2.71321 18.2354 2.58093Z" fill="#878786"/>
<path d="M20.7561 16.6174C20.9193 16.6759 20.9991 16.762 21.1033 16.8851C21.0269 16.882 21.0269 16.882 20.9297 16.8481C20.829 16.7312 20.829 16.7312 20.7561 16.6174Z" fill="#807F7E"/>
<path d="M9.60034 15.387C9.71492 15.387 9.8295 15.387 9.94755 15.387C9.94755 15.4116 9.94755 15.4393 9.94755 15.4639C9.97533 15.4762 10.0066 15.4885 10.0344 15.5008C9.74617 15.4731 9.74617 15.4731 9.60034 15.387Z" fill="#838382"/>
<path d="M5.99976 10.0806C6.08309 10.1052 6.08309 10.1052 6.17336 10.1575C6.20461 10.2774 6.20461 10.2774 6.21503 10.3882C6.09697 10.299 6.04837 10.2098 5.99976 10.0806Z" fill="#9C9C9B"/>
<path d="M5.78101 9.61914C5.90253 9.74219 5.93378 9.84062 5.95461 10.0037C5.83309 9.92368 5.82267 9.88369 5.79489 9.74526C5.79142 9.70527 5.78448 9.66221 5.78101 9.61914Z" fill="#999898"/>
<path d="M7.29833 1.81189C7.35735 1.82727 7.41638 1.83957 7.47193 1.85188C7.40249 1.91648 7.32958 1.978 7.25666 2.04568C7.22889 2.0303 7.20111 2.01799 7.16986 2.00569C7.21153 1.94109 7.25666 1.87956 7.29833 1.81189Z" fill="#868584"/>
<path d="M12.944 24.9631C13.1002 24.9631 13.2565 24.9631 13.4196 24.9631C13.4196 24.9754 13.4196 24.9877 13.4196 25C13.2634 25 13.1037 25 12.944 25C12.944 24.9877 12.944 24.9754 12.944 24.9631Z" fill="#999898"/>
<path d="M16.6313 24.9631C16.7736 24.9631 16.916 24.9631 17.0653 24.9631C17.0653 24.9754 17.0653 24.9877 17.0653 25C16.9229 25 16.7771 25 16.6313 25C16.6313 24.9877 16.6313 24.9754 16.6313 24.9631Z" fill="#989696"/>
<path d="M6.21503 24.9631C6.35738 24.9631 6.49974 24.9631 6.64904 24.9631C6.64904 24.9754 6.64904 24.9877 6.64904 25C6.50668 25 6.36085 25 6.21503 25C6.21503 24.9877 6.21503 24.9754 6.21503 24.9631Z" fill="#989797"/>
<path d="M18.3673 24.9631C18.4958 24.9631 18.6242 24.9631 18.7562 24.9631C18.7562 24.9754 18.7562 24.9877 18.7562 25C18.6277 25 18.4992 25 18.3673 25C18.3673 24.9877 18.3673 24.9754 18.3673 24.9631Z" fill="#989797"/>
<path d="M10.1663 24.9631C10.2635 24.9631 10.3642 24.9631 10.4683 24.9631C10.4683 24.9754 10.4683 24.9877 10.4683 25C10.3676 25 10.267 25 10.1663 25C10.1663 24.9877 10.1663 24.9754 10.1663 24.9631Z" fill="#989898"/>
<path d="M5.8678 24.9631C5.96849 24.9631 6.06918 24.9631 6.17334 24.9631C6.17334 24.9754 6.17334 24.9877 6.17334 25C6.07265 25 5.97196 25 5.8678 25C5.8678 24.9877 5.8678 24.9754 5.8678 24.9631Z" fill="#999798"/>
<path d="M5.52063 24.9631C5.62132 24.9631 5.72201 24.9631 5.82617 24.9631C5.82617 24.9754 5.82617 24.9877 5.82617 25C5.72548 25 5.62479 25 5.52063 25C5.52063 24.9877 5.52063 24.9754 5.52063 24.9631Z" fill="#999898"/>
<path d="M4.13177 24.9631C4.23247 24.9631 4.33316 24.9631 4.43732 24.9631C4.43732 24.9754 4.43732 24.9877 4.43732 25C4.33663 25 4.23594 25 4.13177 25C4.13177 24.9877 4.13177 24.9754 4.13177 24.9631Z" fill="#999898"/>
<path d="M22.1866 24.9631C22.2734 24.9631 22.3602 24.9631 22.4471 24.9631C22.4471 24.9754 22.4471 24.9877 22.4471 25C22.3602 25 22.2769 25 22.1866 25C22.1866 24.9877 22.1866 24.9754 22.1866 24.9631Z" fill="#959595"/>
<path d="M20.1034 24.9631C20.1902 24.9631 20.277 24.9631 20.3638 24.9631C20.3638 24.9754 20.3638 24.9877 20.3638 25C20.277 25 20.1937 25 20.1034 25C20.1034 24.9877 20.1034 24.9754 20.1034 24.9631Z" fill="#999998"/>
<path d="M18.0201 24.9631C18.1069 24.9631 18.1937 24.9631 18.2805 24.9631C18.2805 24.9754 18.2805 24.9877 18.2805 25C18.1937 25 18.1104 25 18.0201 25C18.0201 24.9877 18.0201 24.9754 18.0201 24.9631Z" fill="#999898"/>
<path d="M17.3257 24.9631C17.4125 24.9631 17.4993 24.9631 17.5861 24.9631C17.5861 24.9754 17.5861 24.9877 17.5861 25C17.4993 25 17.416 25 17.3257 25C17.3257 24.9877 17.3257 24.9754 17.3257 24.9631Z" fill="#999897"/>
<path d="M16.2841 24.9631C16.3709 24.9631 16.4577 24.9631 16.5445 24.9631C16.5445 24.9754 16.5445 24.9877 16.5445 25C16.4577 25 16.3743 25 16.2841 25C16.2841 24.9877 16.2841 24.9754 16.2841 24.9631Z" fill="#989897"/>
<path d="M11.0759 24.9631C11.1627 24.9631 11.2495 24.9631 11.3363 24.9631C11.3363 24.9754 11.3363 24.9877 11.3363 25C11.2495 25 11.1662 25 11.0759 25C11.0759 24.9877 11.0759 24.9754 11.0759 24.9631Z" fill="#979797"/>
<path d="M15.7633 24.9631C15.8362 24.9631 15.9057 24.9631 15.9786 24.9631C15.9786 24.9754 15.9786 24.9877 15.9786 25C15.9091 25 15.8362 25 15.7633 25C15.7633 24.9877 15.7633 24.9754 15.7633 24.9631Z" fill="#9A9899"/>
<path d="M14.2876 24.9631C14.3605 24.9631 14.43 24.9631 14.5063 24.9631C14.5063 24.9754 14.5063 24.9877 14.5063 25C14.4334 25 14.3605 25 14.2876 25C14.2876 24.9877 14.2876 24.9754 14.2876 24.9631Z" fill="#9A9999"/>
<path d="M12.6801 24.9631C12.753 24.9631 12.8259 24.9631 12.8988 24.9631C12.8988 24.9754 12.8988 24.9877 12.8988 25C12.8259 25 12.7564 25 12.6801 25C12.6801 24.9877 12.6801 24.9754 12.6801 24.9631Z" fill="#999898"/>
<path d="M9.90234 24.9631C9.97526 24.9631 10.0482 24.9631 10.1211 24.9631C10.1211 24.9754 10.1211 24.9877 10.1211 25C10.0482 25 9.97873 25 9.90234 25C9.90234 24.9877 9.90234 24.9754 9.90234 24.9631Z" fill="#999899"/>
<path d="M21.6241 24.9631C21.7977 25 21.7977 25 21.7977 25L21.6241 24.9631Z" fill="#999899"/>
<path d="M21.3602 24.9631C21.5338 25 21.5338 25 21.5338 25L21.3602 24.9631Z" fill="#9A9999"/>
<path d="M20.7978 24.9631C20.9714 25 20.9714 25 20.9714 25L20.7978 24.9631Z" fill="#999998"/>
<path d="M18.9298 24.9631C19.1034 25 19.1034 25 19.1034 25L18.9298 24.9631Z" fill="#9A9898"/>
<path d="M3.9165 24.9631C4.09011 25 4.09011 25 4.09011 25L3.9165 24.9631Z" fill="#989798"/>
<path d="M4.91296 7.50275C4.9581 7.65655 4.9581 7.65655 4.9581 7.65655L4.91296 7.50275Z" fill="#979797"/>
<path d="M4.82617 7.19513C4.85395 7.22281 4.88173 7.24742 4.91297 7.27511C4.87131 7.29357 4.87131 7.29357 4.82617 7.31202C4.82617 7.27511 4.82617 7.23512 4.82617 7.19513Z" fill="#979797"/>
<path d="M10.7288 0.0830688C10.9024 0.119983 10.9024 0.119983 10.9024 0.119983L10.7288 0.0830688Z" fill="#9A9A99"/>
<path d="M19.9298 24.9631C20.0617 25 20.0617 25 20.0617 25L19.9298 24.9631Z" fill="#9B9A99"/>
<path d="M19.1937 24.9631C19.3222 25 19.3222 25 19.3222 25L19.1937 24.9631Z" fill="#999797"/>
<path d="M15.2008 24.9631C15.3293 25 15.3293 25 15.3293 25L15.2008 24.9631Z" fill="#999897"/>
<path d="M15.0272 24.9631C15.1557 25 15.1557 25 15.1557 25L15.0272 24.9631Z" fill="#999797"/>
<path d="M13.4647 24.9631C13.5932 25 13.5932 25 13.5932 25L13.4647 24.9631Z" fill="#999898"/>
<path d="M11.7704 24.9631C11.9023 25 11.9023 25 11.9023 25L11.7704 24.9631Z" fill="#989898"/>
<path d="M10.5135 24.9631C10.642 25 10.642 25 10.642 25L10.5135 24.9631Z" fill="#999898"/>
<path d="M7.04138 24.9631C7.16985 25 7.16985 25 7.16985 25L7.04138 24.9631Z" fill="#989697"/>
<path d="M6.69421 24.9631C6.82268 25 6.82268 25 6.82268 25L6.69421 24.9631Z" fill="#999897"/>
<path d="M3.22211 24.9631C3.35057 25 3.35057 25 3.35057 25L3.22211 24.9631Z" fill="#999798"/>
<path d="M10.0343 16.8112C10.1662 16.8481 10.1662 16.8481 10.1662 16.8481L10.0343 16.8112Z" fill="#9D9C9C"/>
<path d="M10.5968 11.7725C10.7287 11.8094 10.7287 11.8094 10.7287 11.8094L10.5968 11.7725Z" fill="#9A9A99"/>
<path d="M21.8394 24.9631C21.9262 25 21.9262 25 21.9262 25L21.8394 24.9631Z" fill="#989897"/>
<path d="M21.0131 24.9631C21.1033 25 21.1033 25 21.1033 25L21.0131 24.9631Z" fill="#999999"/>
<path d="M20.5825 24.9631C20.6658 25 20.6658 25 20.6658 25L20.5825 24.9631Z" fill="#9B999A"/>
<path d="M20.4506 24.9631C20.5374 25 20.5374 25 20.5374 25L20.4506 24.9631Z" fill="#9A9A9A"/>
<path d="M19.7562 24.9631C19.843 25 19.843 25 19.843 25L19.7562 24.9631Z" fill="#9A9999"/>
<path d="M19.4089 24.9631C19.4957 25 19.4957 25 19.4957 25L19.4089 24.9631Z" fill="#9B9998"/>
<path d="M17.6729 24.9631C17.7597 25 17.7597 25 17.7597 25L17.6729 24.9631Z" fill="#979696"/>
<path d="M17.1521 24.9631C17.2389 25 17.2389 25 17.2389 25L17.1521 24.9631Z" fill="#9A9899"/>
<path d="M16.1105 24.9631C16.1973 25 16.1973 25 16.1973 25L16.1105 24.9631Z" fill="#999898"/>
<path d="M15.548 24.9631C15.6313 25 15.6313 25 15.6313 25L15.548 24.9631Z" fill="#999898"/>
<path d="M15.416 24.9631C15.5028 25 15.5028 25 15.5028 25L15.416 24.9631Z" fill="#999898"/>
<path d="M14.8953 24.9631C14.9821 25 14.9821 25 14.9821 25L14.8953 24.9631Z" fill="#989897"/>
<path d="M14.548 24.9631C14.6348 25 14.6348 25 14.6348 25L14.548 24.9631Z" fill="#9A9898"/>
<path d="M14.0272 24.9631C14.114 25 14.114 25 14.114 25L14.0272 24.9631Z" fill="#9B999A"/>
<path d="M13.7217 24.9631C13.812 25 13.812 25 13.812 25L13.7217 24.9631Z" fill="#989898"/>
<path d="M11.5968 24.9631C11.6836 25 11.6836 25 11.6836 25L11.5968 24.9631Z" fill="#9A9898"/>
<path d="M11.4232 24.9631C11.51 25 11.51 25 11.51 25L11.4232 24.9631Z" fill="#999997"/>
<path d="M10.7288 24.9631C10.8156 25 10.8156 25 10.8156 25L10.7288 24.9631Z" fill="#989898"/>
<path d="M8.81909 24.9631C8.90589 25 8.90589 25 8.90589 25L8.81909 24.9631Z" fill="#9A9999"/>
<path d="M8.47192 24.9631C8.55873 25 8.55873 25 8.55873 25L8.47192 24.9631Z" fill="#9A9999"/>
<path d="M4.99982 24.9631C5.08662 25 5.08662 25 5.08662 25L4.99982 24.9631Z" fill="#9A9798"/>
<path d="M4.82617 24.9631C4.91297 25 4.91297 25 4.91297 25L4.82617 24.9631Z" fill="#999898"/>
<path d="M4.479 24.9631C4.56581 25 4.56581 25 4.56581 25L4.479 24.9631Z" fill="#9A9999"/>
<path d="M3.61096 24.9631C3.69776 25 3.69776 25 3.69776 25L3.61096 24.9631Z" fill="#9B9899"/>
<path d="M3.43738 24.9631C3.52418 25 3.52418 25 3.52418 25L3.43738 24.9631Z" fill="#9A989A"/>
<path d="M10.4683 16.8851C10.5551 16.9251 10.5551 16.9251 10.5551 16.9251L10.4683 16.8851Z" fill="#9D9C9D"/>
<path d="M3.95819 15.1932C4.04499 15.2332 4.04499 15.2332 4.04499 15.2332L3.95819 15.1932Z" fill="#969797"/>
<path d="M16.1521 14.8486C16.2424 14.8855 16.2424 14.8855 16.2424 14.8855L16.1521 14.8486Z" fill="#9F9F9E"/>
<path d="M8.47192 14.8486C8.55873 14.8855 8.55873 14.8855 8.55873 14.8855L8.47192 14.8486Z" fill="#9E9D9D"/>
<path d="M10.8607 13.2336C10.944 13.2736 10.944 13.2736 10.944 13.2736L10.8607 13.2336Z" fill="#9D9C9C"/>
<path d="M18.0201 8.81323C18.1069 8.85015 18.1069 8.85015 18.1069 8.85015L18.0201 8.81323Z" fill="#9D9C9C"/>
<path d="M6.38867 2.58093C6.47547 2.62092 6.47547 2.62092 6.47547 2.62092L6.38867 2.58093Z" fill="#969694"/>
</svg>
