<svg width="80" height="80" viewBox="0 0 80 80" fill="none" xmlns="http://www.w3.org/2000/svg">
<path d="M40.6094 16.4531C40.7657 16.4492 40.9258 16.4453 41.0821 16.4414C42.004 16.4375 42.8321 16.6875 43.5118 17.332C44.1915 18.043 44.4454 18.9297 44.7423 19.8476C45.0274 20.7344 45.3399 21.6015 45.6876 22.4648C46.0626 23.4219 46.2852 24.2734 45.8868 25.2617C45.711 25.6055 45.4844 25.8828 45.2344 26.1719C45.1876 26.2305 45.1407 26.289 45.0899 26.3476C44.836 26.6562 44.6719 26.8086 44.2969 26.9531C44.1758 27.0351 44.0587 27.1211 43.9454 27.207C43.4923 27.5312 43.0157 27.7578 42.5001 27.9687C42.4376 27.9961 42.3751 28.0234 42.3087 28.0508C41.6251 28.2969 40.6758 28.3594 39.9962 28.0781C39.7618 27.9531 39.5743 27.7969 39.3751 27.6289C39.1641 27.4609 39.1641 27.4609 38.9063 27.414C38.7188 27.457 38.543 27.5156 38.3594 27.5781C38.168 27.6328 37.9805 27.6875 37.7891 27.7383C37.6954 27.7656 37.6055 27.793 37.5118 27.8203C37.3243 27.875 37.1407 27.9258 36.9532 27.9687C36.9532 27.918 36.9532 27.8672 36.9532 27.8125C36.8829 27.8203 36.8829 27.8203 36.8126 27.8281C35.9649 27.8711 35.1485 27.5898 34.3751 27.2656C33.9024 28.7265 33.5274 30.1875 33.3008 31.7031C33.2891 31.793 33.2891 31.793 33.2735 31.8828C33.1094 33.0859 33.1173 34.2969 33.129 35.5078C33.1368 36.8594 33.1329 38.1914 32.9688 39.5312C33.0313 39.4687 33.0977 39.4101 33.1641 39.3437C33.8751 38.6719 34.5977 38.1133 35.4688 37.6562C35.4688 37.6055 35.4688 37.5547 35.4688 37.5C35.5274 37.4922 35.5899 37.4883 35.6485 37.4805C35.8946 37.4297 36.0938 37.3672 36.3243 37.2773C37.8594 36.6992 39.4649 36.7031 41.0469 37.0547C41.1173 37.0703 41.1876 37.0859 41.2579 37.1015C41.6837 37.2031 42.0782 37.3398 42.4766 37.5156C42.6758 37.5859 42.836 37.5898 43.0469 37.5781C43.0469 37.6289 43.0469 37.6797 43.0469 37.7344C43.0899 37.7539 43.1329 37.7773 43.1758 37.7969C44.2227 38.3164 45.1719 38.8906 46.0938 39.6094C46.1563 39.6601 46.1563 39.6601 46.2227 39.7109C46.4727 39.9062 46.7149 40.1055 46.9532 40.3125C47.0313 40.3789 47.1133 40.4414 47.1915 40.5117C47.2735 40.5781 47.3516 40.6445 47.4337 40.7148C47.504 40.7734 47.5743 40.832 47.6485 40.8945C47.8555 41.1484 47.8829 41.3164 47.8907 41.6406C47.8087 41.9101 47.6563 42.125 47.4337 42.3008C47.1329 42.3789 46.9219 42.4062 46.6368 42.2617C46.3282 42.0625 46.0548 41.8437 45.7852 41.5976C43.8399 39.8281 41.3321 38.539 38.6641 38.5781C38.3633 38.5976 38.0977 38.6562 37.8126 38.75C37.7227 38.7578 37.6368 38.7617 37.543 38.7695C35.7774 38.9805 34.1563 40.625 33.1055 41.9375C32.3985 42.8594 31.8165 43.8398 31.254 44.8515C31.129 45.082 31.0001 45.3086 30.8712 45.539C30.8282 45.6094 30.7852 45.6836 30.7423 45.7617C30.6251 45.9375 30.6251 45.9375 30.3907 46.0937C30.0313 46.1523 29.7657 46.1406 29.4532 45.9492C29.2227 45.7031 29.1876 45.5273 29.1915 45.1875C29.2462 44.8008 29.4376 44.4609 29.6094 44.1133C29.6837 43.957 29.7579 43.8047 29.8282 43.6523C29.879 43.5508 29.879 43.5508 29.9298 43.4453C30.0118 43.289 30.0118 43.289 30.0001 43.125C30.0508 43.125 30.1016 43.125 30.1563 43.125C30.1719 43.0781 30.1837 43.0312 30.1993 42.9844C30.2188 42.9219 30.2383 42.8555 30.2579 42.789C30.2774 42.7187 30.3008 42.6484 30.3204 42.5742C30.3673 42.4258 30.4102 42.2773 30.4571 42.1289C31.1094 40.0508 31.1094 40.0508 31.2501 37.8906C31.2774 37.8906 31.3008 37.8906 31.3282 37.8906C31.3282 37.6055 31.3282 37.3242 31.3282 37.0312C31.3008 37.0312 31.2774 37.0312 31.2501 37.0312C31.2501 36.9023 31.2501 36.7734 31.2501 36.6406C31.2774 36.6406 31.3008 36.6406 31.3282 36.6406C31.3282 36.5625 31.3321 36.4805 31.3321 36.3984C31.4024 33.0351 31.6954 29.8476 32.7462 26.625C32.7696 26.5469 32.793 26.4687 32.8204 26.3867C32.9493 26.0039 33.0626 25.6797 33.3594 25.3906C33.9337 25.1992 34.3516 25.375 34.8751 25.6172C35.9298 26.0976 36.8477 26.2578 37.9688 25.8594C38.9532 25.4765 39.5977 24.7422 40.1954 23.8984C40.3907 23.6406 40.5313 23.4844 40.8594 23.4219C41.1954 23.4101 41.3868 23.5273 41.6407 23.75C41.8008 23.9531 41.7969 24.0547 41.7891 24.3164C41.5977 25.1289 41.0587 25.7539 40.4688 26.3281C40.418 26.3789 40.3673 26.4297 40.3126 26.4844C41.7423 26.4492 42.836 26.0508 43.918 25.0781C44.2383 24.7344 44.336 24.4765 44.3204 24.0117C44.2813 23.7031 44.1837 23.4297 44.0743 23.1406C44.0235 23.0039 43.9727 22.8672 43.9219 22.7305C43.8946 22.6562 43.8673 22.582 43.8399 22.5078C43.7071 22.1445 43.5782 21.7812 43.4493 21.418C43.3477 21.1406 43.2501 20.8633 43.1524 20.5859C43.1055 20.457 43.1055 20.457 43.0587 20.3281C42.9454 20.0117 42.8282 19.6992 42.711 19.3867C42.6563 19.2187 42.6563 19.2187 42.6563 19.0625C42.6055 19.0351 42.5548 19.0117 42.5001 18.9844C42.4766 18.9219 42.4532 18.8633 42.4337 18.8008C42.3282 18.5625 42.2462 18.4961 42.0313 18.3594C41.0235 17.9922 39.7735 18.2031 38.7305 18.3359C38.6446 18.3437 38.6446 18.3437 38.5587 18.3555C37.418 18.4961 36.2852 18.6797 35.1563 18.9062C35.0821 18.9219 35.004 18.9375 34.9258 18.9531C34.7266 18.9922 34.5235 19.0351 34.3204 19.0781C34.2618 19.0898 34.2071 19.1015 34.1446 19.1133C34.0118 19.1445 33.879 19.1797 33.7501 19.2187C33.7227 19.2695 33.6993 19.3203 33.6719 19.375C33.5235 19.3906 33.3712 19.4062 33.2227 19.4219C32.9298 19.4726 32.6837 19.6015 32.4219 19.7422C32.3673 19.7695 32.3126 19.7969 32.2579 19.8281C31.586 20.1797 31.0977 20.582 30.6251 21.1719C30.5665 21.2422 30.5079 21.3164 30.4493 21.3867C29.4415 22.664 28.586 24.0586 27.7579 25.4609C27.7305 25.5039 27.7032 25.5508 27.6758 25.5976C27.2032 26.3945 26.7423 27.1992 26.2852 28.0078C26.1719 28.2031 26.0587 28.4023 25.9454 28.5976C24.4102 31.2539 22.9493 33.9883 21.7188 36.7969C21.7696 36.8242 21.8204 36.8476 21.8751 36.875C21.7969 36.875 21.7188 36.875 21.6407 36.875C21.5938 37.0195 21.5938 37.0195 21.5469 37.164C21.418 37.5469 21.2774 37.9258 21.1368 38.3047C20.6055 39.7226 20.1173 41.1289 19.7423 42.5937C19.7266 42.6445 19.7149 42.6953 19.6993 42.75C19.4102 43.7812 19.4102 43.7812 19.2969 44.8398C19.2969 45.0781 19.2969 45.0781 19.1407 45.3125C19.0899 45.5195 19.0899 45.5195 19.0587 45.7578C19.0391 45.8906 19.0391 45.8906 19.0196 46.0273C19.0079 46.125 18.9923 46.2187 18.9805 46.3203C18.9649 46.418 18.9532 46.5156 18.9376 46.6172C18.6094 48.7031 18.6094 48.7031 19.3204 50.6172C19.8048 51.207 20.3321 51.6094 21.0157 51.9531C21.0899 52.0195 21.0899 52.0195 21.168 52.0859C21.5079 52.3398 21.8751 52.5273 22.2501 52.7187C22.3321 52.7617 22.4102 52.8008 22.4923 52.8437C22.961 53.0859 23.4298 53.3203 23.9102 53.5351C23.961 53.5586 24.0079 53.5781 24.0587 53.6015C24.3555 53.7344 24.5977 53.7734 24.9219 53.75C24.9219 53.8008 24.9219 53.8515 24.9219 53.9062C25.7032 54.2305 26.4844 54.543 27.2891 54.8047C27.3516 54.8242 27.4102 54.8437 27.4727 54.8633C27.8321 54.9765 28.1368 55.0195 28.5157 55C28.5157 55.0781 28.5157 55.1562 28.5157 55.2344C28.6055 55.2422 28.6954 55.2539 28.7852 55.2617C29.1329 55.3047 29.461 55.3867 29.8008 55.4726C30.2696 55.5898 30.6876 55.6601 31.1719 55.625C31.1719 55.6758 31.1719 55.7265 31.1719 55.7812C31.5235 55.8359 31.879 55.8906 32.2305 55.9453C32.3516 55.9609 32.4688 55.9805 32.5899 56C33.8321 56.1953 33.8321 56.1953 35.0899 56.2539C35.2188 56.2539 35.2188 56.2539 35.3516 56.2539C35.418 56.25 35.4805 56.25 35.5469 56.25C35.5469 56.3008 35.5469 56.3515 35.5469 56.4062C35.9883 56.3984 36.4298 56.3867 36.8712 56.3789C37.0196 56.375 37.168 56.3711 37.3204 56.3672C37.5352 56.3633 37.7501 56.3594 37.9649 56.3515C38.0665 56.3515 38.0665 56.3515 38.168 56.3476C38.2305 56.3476 38.293 56.3476 38.3594 56.3437C38.4415 56.3437 38.4415 56.3437 38.5235 56.3398C38.6915 56.332 38.6915 56.332 38.9063 56.25C39.0782 56.2422 39.2501 56.2344 39.4258 56.2305C42.4102 56.082 45.3516 54.8515 47.3985 52.6601C47.6563 52.4297 47.8594 52.3398 48.2032 52.3476C48.5782 52.4648 48.7696 52.7148 48.9649 53.043C49.0079 53.1289 49.0469 53.2148 49.0899 53.3047C49.1133 53.3515 49.1368 53.3984 49.1602 53.4453C49.2071 53.5469 49.2579 53.6445 49.3048 53.7461C49.4337 54.0117 49.5626 54.2734 49.6915 54.5351C49.7188 54.5898 49.7462 54.6406 49.7696 54.6953C50.0079 55.1758 50.2579 55.6484 50.5118 56.1172C50.5508 56.1836 50.586 56.2539 50.6212 56.3203C51.0274 57.0742 51.0274 57.0742 51.5626 57.7344C51.5626 57.8125 51.5626 57.8906 51.5626 57.9687C51.6602 58.1484 51.7657 58.3203 51.8751 58.4922C51.9102 58.543 51.9415 58.5976 51.9766 58.6523C52.3087 59.1719 52.6524 59.6914 52.9923 60.207C53.0743 60.3242 53.0743 60.3242 53.1563 60.4492C53.4141 60.8398 53.6798 61.207 53.9844 61.5625C54.254 61.9219 54.4962 62.2539 54.4727 62.7187C54.4219 62.9609 54.3477 63.1172 54.1758 63.293C53.8868 63.4492 53.7618 63.4687 53.4493 63.4297C52.8399 63.1758 52.5196 62.5781 52.168 62.0547C52.0587 61.8906 51.9454 61.7305 51.836 61.5664C51.7852 61.4961 51.7383 61.4219 51.6876 61.3476C51.5665 61.168 51.5665 61.168 51.4063 61.0156C51.3477 60.914 51.2891 60.8125 51.2344 60.707C50.836 59.957 50.836 59.957 50.3126 59.2969C50.2344 59.164 50.1602 59.0273 50.0899 58.8906C49.9063 58.5547 49.7227 58.2226 49.5313 57.8906C49.4805 57.8906 49.4298 57.8906 49.3751 57.8906C49.3633 57.8125 49.3633 57.8125 49.3555 57.7344C49.2774 57.4258 49.1407 57.1758 48.9883 56.8984C48.961 56.8476 48.9337 56.793 48.9024 56.7383C48.7891 56.5273 48.6876 56.3437 48.5157 56.1719C48.4962 56.1055 48.4727 56.039 48.4532 55.9726C48.3751 55.7461 48.2891 55.543 48.1798 55.332C48.1485 55.2734 48.1173 55.2148 48.086 55.1523C47.9415 54.9609 47.8048 54.914 47.5782 54.8437C47.5391 54.8789 47.504 54.918 47.4649 54.957C46.6251 55.75 45.3985 56.5078 44.2969 56.875C44.1719 56.9219 44.1719 56.9219 44.043 56.9687C43.9454 57.0039 43.8516 57.039 43.7501 57.0742C43.6524 57.1094 43.5587 57.1445 43.4571 57.1836C43.2032 57.2656 43.2032 57.2656 42.9688 57.2656C42.9962 57.3437 43.0196 57.4219 43.0469 57.5C42.9923 57.4844 42.9337 57.4726 42.8751 57.457C42.6407 57.418 42.4923 57.4414 42.2618 57.4961C42.1876 57.5117 42.1133 57.5273 42.0391 57.5469C41.961 57.5664 41.8829 57.582 41.8008 57.6015C40.836 57.8242 39.9024 58.0039 38.9063 57.9687C38.879 58.0195 38.8555 58.0703 38.8282 58.125C38.3594 58.1172 37.8868 58.1055 37.418 58.0976C37.2579 58.0937 37.0977 58.0898 36.9376 58.0859C35.8477 58.0625 34.7618 58.0273 33.6719 57.9687C33.6719 57.918 33.6719 57.8672 33.6719 57.8125C33.2852 57.8125 32.8985 57.8125 32.5001 57.8125C32.5001 57.7617 32.5001 57.7109 32.5001 57.6562C32.4337 57.6523 32.3712 57.6523 32.3008 57.6484C31.5899 57.6094 30.918 57.4961 30.2266 57.3398C30.1719 57.3281 30.1173 57.3164 30.0626 57.3047C29.0899 57.0859 28.1329 56.8242 27.1798 56.539C26.8907 56.4531 26.6055 56.3789 26.3165 56.3164C26.0157 56.25 26.0157 56.25 25.8594 56.1719C25.7188 56.1133 25.5821 56.0547 25.4415 55.9961C25.1055 55.8555 24.7696 55.7148 24.4298 55.5742C24.3126 55.5234 24.3126 55.5234 24.1876 55.4726C24.0235 55.4023 23.8594 55.3359 23.6954 55.2656C23.6173 55.2305 23.5352 55.1992 23.4532 55.164C23.3829 55.1367 23.3126 55.1055 23.2383 55.0742C23.0548 55 23.0548 55 22.8829 54.9609C22.7188 54.918 22.5821 54.8515 22.4298 54.7734C22.3438 54.7265 22.3438 54.7265 22.254 54.6797C22.1602 54.6328 22.1602 54.6328 22.0665 54.582C21.9688 54.5273 21.9688 54.5273 21.8673 54.4765C20.7696 53.8867 19.711 53.2969 18.7501 52.5C18.6719 52.4375 18.5899 52.3711 18.5079 52.3086C17.6329 51.543 17.1368 50.4414 17.0313 49.2969C17.004 48.6015 17.0508 47.914 17.1251 47.2226C17.1329 47.125 17.1446 47.0273 17.1563 46.9258C17.3243 45.4101 17.6173 43.918 17.9766 42.4336C17.9962 42.3555 18.0157 42.2773 18.0352 42.1953C18.0548 42.125 18.0704 42.0547 18.0899 41.9844C18.1368 41.7773 18.1368 41.7773 18.1251 41.4844C18.1758 41.4844 18.2266 41.4844 18.2813 41.4844C18.293 41.418 18.293 41.418 18.3048 41.3476C18.4063 40.7812 18.5743 40.2461 18.7618 39.7031C18.793 39.6094 18.8243 39.5156 18.8555 39.4219C19.6016 37.2265 20.543 35.1289 21.5626 33.0469C21.6055 32.957 21.6485 32.8672 21.6954 32.7773C22.2774 31.5859 22.8907 30.418 23.5548 29.2695C23.7383 28.9453 23.918 28.6133 24.0977 28.2851C24.586 27.3867 25.1055 26.5078 25.6251 25.625C25.6602 25.5703 25.6915 25.5117 25.7266 25.4531C25.9258 25.1211 26.1251 24.7851 26.3282 24.4531C26.3633 24.3945 26.4024 24.332 26.4376 24.2695C29.9102 18.5703 29.9102 18.5703 32.8907 17.6562C32.9688 17.6562 33.0469 17.6562 33.1251 17.6562C33.1524 17.6055 33.1758 17.5547 33.2032 17.5C33.3477 17.4609 33.3477 17.4609 33.5469 17.4336C33.9844 17.3594 34.418 17.2773 34.8555 17.1875C34.9219 17.1758 34.9883 17.1601 35.0548 17.1484C35.2188 17.1133 35.3829 17.0742 35.5469 17.0312C35.5743 16.9805 35.5977 16.9297 35.6251 16.875C35.668 16.8789 35.711 16.8789 35.754 16.8828C36.2696 16.8984 36.7618 16.8437 37.2696 16.7695C37.3438 16.7578 37.4141 16.7461 37.4883 16.7344C37.7579 16.6953 38.0274 16.6562 38.2969 16.6133C39.0665 16.5 39.836 16.4648 40.6094 16.4531Z" fill="#1AFCC2"/>
<path d="M56.1015 33.7969C56.3125 33.8242 56.4414 33.8203 56.6406 33.75C56.6406 33.8281 56.6406 33.9062 56.6406 33.9844C56.6836 33.9844 56.7265 33.9883 56.7734 33.9883C57.3984 34.0312 57.9609 34.2109 58.5508 34.4141C58.6015 34.4297 58.6523 34.4492 58.7031 34.4648C59.3633 34.6875 60.0117 34.9297 60.6406 35.2266C60.6992 35.2539 60.7578 35.2812 60.8203 35.3086C61.1758 35.4844 61.3906 35.6406 61.5469 36.0078C61.5742 36.3242 61.4609 36.5664 61.2812 36.8203C61.0156 37.0078 60.7851 37.0508 60.4687 37.0312C60.125 36.9258 59.8047 36.7812 59.4765 36.6367C58.5703 36.25 57.6758 35.9336 56.7187 35.7031C56.6562 35.6875 56.5937 35.6719 56.5273 35.6562C54.7851 35.2422 52.4453 34.8672 50.7031 35.4687C50.6758 35.5195 50.6523 35.5703 50.625 35.625C50.5078 35.6211 50.5078 35.6211 50.3867 35.6133C50.0664 35.625 49.8047 35.6914 49.5078 35.8047C49.4531 35.8242 49.3984 35.8476 49.3437 35.8672C48.1562 36.3476 47.0742 37.1172 46.1914 38.043C45.9062 38.3359 45.7265 38.4844 45.3125 38.5156C45.0078 38.4219 44.8672 38.3086 44.6523 38.0703C44.5039 37.7539 44.5117 37.5156 44.6094 37.1875C44.75 36.9961 44.8711 36.8555 45.043 36.6992C45.0898 36.6562 45.1328 36.6133 45.1797 36.5703C46.0703 35.7383 47.0508 35.0976 48.125 34.5312C48.125 34.4805 48.125 34.4297 48.125 34.375C48.2031 34.3672 48.2812 34.3594 48.3633 34.3476C48.6719 34.3047 48.9453 34.207 49.2344 34.0976C49.5469 33.9766 49.7422 33.9062 50.0781 33.9062C50.1055 33.8555 50.1289 33.8047 50.1562 33.75C50.3476 33.7148 50.5312 33.6875 50.7226 33.668C50.8086 33.6562 50.8086 33.6562 50.8945 33.6484C51.0664 33.6289 51.2344 33.6094 51.4062 33.5937C51.5351 33.582 51.5351 33.582 51.664 33.5664C53.168 33.4297 54.6133 33.5703 56.1015 33.7969Z" fill="#1AFCC2"/>
<path d="M43.7502 48.6719C44.0158 48.8086 44.176 48.9141 44.3322 49.1719C44.3947 49.4727 44.3556 49.7266 44.2189 50C44.1681 50 44.1174 50 44.0627 50C44.0353 50.0782 44.0119 50.1563 43.9845 50.2344C43.8713 50.3282 43.8713 50.3282 43.7306 50.4219C43.6799 50.4532 43.6291 50.4883 43.5783 50.5196C43.5236 50.5547 43.4689 50.5899 43.4142 50.625C43.3088 50.6914 43.2033 50.7617 43.0978 50.8282C43.047 50.8633 42.9963 50.8946 42.9455 50.9258C42.8049 51.0196 42.8049 51.0196 42.6486 51.1485C42.4533 51.2813 42.258 51.336 42.0314 51.4063C41.8713 51.4766 41.7072 51.5508 41.547 51.625C39.4728 52.543 37.172 52.5782 34.9455 52.4453C34.7892 52.4375 34.633 52.4297 34.4767 52.4219C34.3791 52.4141 34.2814 52.4063 34.1799 52.4024C34.0939 52.3946 34.008 52.3907 33.9181 52.3828C33.5822 52.3282 33.3166 52.2071 33.0549 51.9844C32.9181 51.6875 32.9181 51.4102 32.9689 51.0938C33.1174 50.8282 33.215 50.7305 33.4963 50.6133C33.7658 50.543 33.9494 50.5469 34.2228 50.5782C34.676 50.6211 35.1174 50.6289 35.5705 50.6211C35.7814 50.625 35.7814 50.625 36.0158 50.7032C36.1291 50.711 36.2424 50.7149 36.3556 50.7149C36.422 50.7149 36.4845 50.7149 36.551 50.7149C36.6525 50.7149 36.6525 50.7149 36.758 50.711C36.8244 50.7149 36.8947 50.7149 36.965 50.7149C37.0275 50.7149 37.0939 50.7149 37.1603 50.7149C37.2502 50.7149 37.2502 50.7149 37.34 50.7149C37.5158 50.7071 37.5158 50.7071 37.7345 50.625C37.84 50.6211 37.9494 50.625 38.0549 50.6289C39.7306 50.6446 41.5783 49.9258 42.8752 48.8867C43.1564 48.6641 43.3986 48.6367 43.7502 48.6719Z" fill="#1AFDC2"/>
<path d="M35.6251 16.875C36.1407 16.875 36.6563 16.875 37.1876 16.875C36.9024 17.0195 36.7227 17.0664 36.4141 17.1172C36.3243 17.1289 36.2305 17.1445 36.1368 17.1602C36.0391 17.1758 35.9415 17.1914 35.8399 17.207C35.0821 17.332 34.3321 17.4727 33.586 17.6562C33.5118 17.6719 33.4376 17.6914 33.3633 17.7109C31.8438 18.0977 30.254 18.9922 29.3751 20.3125C29.3243 20.3125 29.2735 20.3125 29.2188 20.3125C29.1915 20.375 29.1915 20.375 29.1602 20.4375C29.0352 20.6758 28.8868 20.8867 28.7305 21.1094C28.4844 21.457 28.2462 21.8086 28.0118 22.1641C27.8946 22.3398 27.7735 22.5156 27.6563 22.6914C27.2696 23.2617 26.8907 23.8242 26.5782 24.4414C26.4805 24.6133 26.3712 24.7656 26.2501 24.9219C26.1915 25.0234 26.1329 25.1211 26.0782 25.2266C25.7423 25.8359 25.3946 26.4414 25.043 27.0469C23.9571 28.9062 22.9141 30.793 21.9571 32.7266C21.8555 32.9297 21.754 33.1328 21.6524 33.332C21.3008 34.0312 20.9649 34.7305 20.6407 35.4414C20.5665 35.6055 20.4883 35.7734 20.4141 35.9375C20.1602 36.4883 19.9298 37.0352 19.7501 37.6133C19.6876 37.8164 19.6133 38.0078 19.5313 38.2031C19.3829 38.5625 19.2618 38.9336 19.1407 39.3047C19.0704 39.5078 18.9923 39.7031 18.9063 39.9023C18.7266 40.3359 18.6251 40.7891 18.5157 41.2461C18.4493 41.5273 18.3673 41.8047 18.2852 42.0781C17.5313 44.6992 16.4649 48.6094 17.8165 51.1719C18.7501 52.6328 20.3633 53.4961 21.8829 54.2266C22.1094 54.3359 22.3282 54.4492 22.5469 54.5664C23.6368 55.1094 24.7852 55.5469 25.9376 55.9375C26.0235 55.9648 26.0235 55.9648 26.1055 55.9961C26.7774 56.2227 27.4454 56.4453 28.1251 56.6406C27.8633 56.7266 27.711 56.707 27.4532 56.625C27.3868 56.6016 27.3204 56.582 27.2501 56.5586C27.1798 56.5352 27.1094 56.5117 27.0352 56.4883C26.8985 56.4453 26.7579 56.3984 26.6173 56.3555C26.5587 56.3359 26.4962 56.3164 26.4337 56.293C26.2344 56.2461 26.0626 56.2422 25.8594 56.25C25.8321 56.1992 25.8087 56.1484 25.7813 56.0938C25.6094 56.0156 25.4376 55.9453 25.2618 55.8789C25.2071 55.8594 25.1563 55.8398 25.1016 55.8164C24.9337 55.7539 24.7618 55.6875 24.5938 55.625C24.4805 55.582 24.3712 55.5391 24.2579 55.4961C23.6798 55.2734 23.6798 55.2734 23.0977 55.0703C21.5743 54.5586 19.9805 53.5195 18.7501 52.5C18.6719 52.4375 18.5899 52.3711 18.5079 52.3086C17.6329 51.543 17.1368 50.4414 17.0313 49.2969C17.004 48.6016 17.0508 47.9141 17.1251 47.2227C17.1329 47.125 17.1446 47.0273 17.1563 46.9258C17.3243 45.4102 17.6173 43.918 17.9766 42.4336C17.9962 42.3555 18.0157 42.2773 18.0352 42.1953C18.0548 42.125 18.0704 42.0547 18.0899 41.9844C18.1368 41.7773 18.1368 41.7773 18.1251 41.4844C18.1758 41.4844 18.2266 41.4844 18.2813 41.4844C18.293 41.418 18.293 41.418 18.3048 41.3477C18.4063 40.7812 18.5743 40.2461 18.7579 39.7031C18.793 39.6094 18.8243 39.5156 18.8555 39.4219C19.6016 37.2266 20.543 35.1289 21.5626 33.0469C21.6055 32.957 21.6485 32.8672 21.6954 32.7773C22.2774 31.5859 22.8907 30.418 23.5548 29.2695C23.7383 28.9453 23.918 28.6133 24.0977 28.2852C24.586 27.3867 25.1055 26.5078 25.6251 25.625C25.6602 25.5703 25.6915 25.5117 25.7266 25.4531C25.9258 25.1211 26.1251 24.7852 26.3282 24.4531C26.3633 24.3945 26.4024 24.332 26.4376 24.2695C29.9102 18.5703 29.9102 18.5703 32.8907 17.6562C32.9688 17.6562 33.0469 17.6562 33.1251 17.6562C33.1524 17.6055 33.1758 17.5547 33.2032 17.5C33.3477 17.4609 33.3477 17.4609 33.5469 17.4297C33.9844 17.3594 34.418 17.2773 34.8516 17.1875C34.9219 17.1758 34.9883 17.1602 35.0548 17.1484C35.2188 17.1133 35.3829 17.0742 35.5469 17.0312C35.5743 16.9805 35.5977 16.9297 35.6251 16.875Z" fill="#27E987"/>
<path d="M30.625 20.8594C30.6758 20.8594 30.7265 20.8594 30.7812 20.8594C30.6562 21.1445 30.4765 21.3672 30.2812 21.6094C29.3359 22.8164 28.5351 24.1406 27.7578 25.4609C27.7305 25.5039 27.7031 25.5508 27.6758 25.5977C27.2031 26.3945 26.7422 27.1992 26.2851 28.0078C26.1719 28.2031 26.0586 28.4023 25.9453 28.5977C24.4101 31.2539 22.9492 33.9883 21.7187 36.7969C21.7695 36.8242 21.8203 36.8477 21.875 36.875C21.7969 36.875 21.7187 36.875 21.6406 36.875C21.6094 36.9688 21.5781 37.0664 21.5469 37.1641C21.418 37.5469 21.2773 37.9258 21.1367 38.3047C20.6055 39.7227 20.1172 41.1289 19.7422 42.5938C19.7265 42.6445 19.7148 42.6953 19.6992 42.75C19.4101 43.7812 19.4101 43.7812 19.2969 44.8398C19.2969 45.0781 19.2969 45.0781 19.1406 45.3125C19.0898 45.5195 19.0898 45.5195 19.0586 45.7578C19.039 45.8906 19.039 45.8906 19.0195 46.0273C19.0078 46.125 18.9922 46.2188 18.9805 46.3203C18.9648 46.418 18.9531 46.5156 18.9375 46.6172C18.6094 48.7031 18.6094 48.7031 19.3203 50.6172C19.8047 51.207 20.332 51.6094 21.0156 51.9531C21.0898 52.0195 21.0898 52.0195 21.168 52.0859C21.5078 52.3398 21.875 52.5273 22.25 52.7188C22.332 52.7617 22.4101 52.8008 22.4922 52.8438C22.9609 53.0859 23.4297 53.3203 23.9101 53.5352C23.9609 53.5586 24.0078 53.5781 24.0586 53.6016C24.3555 53.7344 24.5976 53.7734 24.9219 53.75C24.9219 53.8008 24.9219 53.8516 24.9219 53.9062C25.7031 54.2305 26.4844 54.543 27.289 54.8047C27.3515 54.8242 27.4101 54.8438 27.4726 54.8633C27.832 54.9766 28.1367 55.0195 28.5156 55C28.5156 55.0781 28.5156 55.1562 28.5156 55.2344C28.6055 55.2422 28.6953 55.2539 28.7851 55.2617C29.1328 55.3047 29.4609 55.3867 29.8008 55.4727C30.2695 55.5898 30.6875 55.6602 31.1719 55.625C31.0781 55.7422 31.0781 55.7422 30.9375 55.8594C30.414 55.8984 29.8515 55.7266 29.3437 55.6016C29.2734 55.582 29.2031 55.5664 29.1289 55.5469C28.6758 55.4375 28.2305 55.3086 27.789 55.1523C27.5664 55.0742 27.3437 55.0078 27.1172 54.9414C25.207 54.3516 23.3906 53.5469 21.6406 52.5781C21.5625 52.5391 21.4883 52.5 21.4101 52.457C20.875 52.1797 20.3945 51.8555 19.9219 51.4844C19.8594 51.4336 19.793 51.3828 19.7265 51.332C19.1406 50.8438 18.7617 50.2812 18.5937 49.5312C18.5703 49.2617 18.5703 48.9922 18.5742 48.7188C18.5742 48.6445 18.5742 48.5664 18.5742 48.4883C18.5859 47.8125 18.6484 47.1523 18.75 46.4844C18.7656 46.375 18.7656 46.375 18.7812 46.2656C18.9453 45.1211 19.164 44.0078 19.4531 42.8906C19.4687 42.8242 19.4883 42.7578 19.5039 42.6914C20.1484 40.1445 21.082 37.6953 22.1875 35.3125C22.2383 35.1992 22.293 35.0859 22.3437 34.9727C22.6992 34.1992 23.0898 33.4453 23.4883 32.6953C23.5976 32.4961 23.7031 32.293 23.8086 32.0898C24.2422 31.2539 24.6914 30.4258 25.1523 29.6016C25.2617 29.4023 25.3711 29.2031 25.4765 29.0039C26.0781 27.9023 26.7148 26.8203 27.3633 25.75C27.4297 25.6406 27.4297 25.6406 27.4961 25.5352C27.5781 25.3945 27.664 25.2578 27.7461 25.1172C27.7851 25.0547 27.8242 24.9922 27.8633 24.9258C27.914 24.8438 27.914 24.8438 27.9648 24.7578C28.0586 24.6016 28.0586 24.6016 28.125 24.375C28.1758 24.375 28.2265 24.375 28.2812 24.375C28.3008 24.3164 28.3242 24.2617 28.3437 24.1992C28.4336 23.9922 28.5351 23.8281 28.664 23.6406C28.8047 23.4375 28.9297 23.2383 29.0508 23.0195C29.2226 22.7148 29.4258 22.4375 29.6328 22.1562C29.6719 22.1094 29.7109 22.0586 29.7461 22.0039C29.8594 21.8555 29.9687 21.7109 30.0781 21.5625C30.1367 21.4844 30.1914 21.4102 30.25 21.332C30.3203 21.2344 30.3203 21.2344 30.3945 21.1367C30.457 21.0547 30.457 21.0547 30.5195 20.9727C30.5547 20.9336 30.5898 20.8984 30.625 20.8594Z" fill="#26EE8E"/>
<path d="M48.4375 52.4219C48.7383 52.6875 48.918 52.9414 49.0898 53.3047C49.1133 53.3515 49.1367 53.3984 49.1602 53.4453C49.207 53.5469 49.2578 53.6445 49.3047 53.7461C49.4336 54.0117 49.5625 54.2734 49.6914 54.5351C49.7188 54.5898 49.7461 54.6406 49.7695 54.6953C50.0078 55.1758 50.2578 55.6484 50.5117 56.1172C50.5508 56.1836 50.5859 56.2539 50.6211 56.3203C51.0273 57.0742 51.0273 57.0742 51.5625 57.7344C51.5625 57.8125 51.5625 57.8906 51.5625 57.9687C51.6602 58.1484 51.7656 58.3203 51.875 58.4922C51.9102 58.5429 51.9414 58.5976 51.9766 58.6523C52.3086 59.1719 52.6523 59.6914 52.9922 60.2031C53.0742 60.3242 53.0742 60.3242 53.1562 60.4492C53.4141 60.8398 53.6797 61.207 53.9844 61.5625C54.2539 61.9219 54.4961 62.2539 54.4727 62.7187C54.4219 62.9609 54.3477 63.1172 54.1758 63.289C53.8867 63.4492 53.7617 63.4687 53.4453 63.4297C52.8398 63.1758 52.5195 62.5781 52.168 62.0547C52.0586 61.8906 51.9453 61.7304 51.8359 61.5664C51.7852 61.4961 51.7383 61.4219 51.6875 61.3476C51.5664 61.1679 51.5664 61.1679 51.4062 61.0156C51.3477 60.914 51.2891 60.8125 51.2344 60.707C50.8359 59.957 50.8359 59.957 50.3125 59.2969C50.2344 59.164 50.1602 59.0273 50.0859 58.8906C49.9062 58.5547 49.7227 58.2226 49.5312 57.8906C49.4805 57.8906 49.4297 57.8906 49.375 57.8906C49.3672 57.8398 49.3633 57.7851 49.3555 57.7344C49.2773 57.4258 49.1406 57.1758 48.9883 56.8984C48.9609 56.8476 48.9336 56.7929 48.9023 56.7383C48.7891 56.5273 48.6875 56.3437 48.5156 56.1719C48.4922 56.1015 48.4688 56.0351 48.4453 55.9609C48.375 55.75 48.3047 55.6015 48.1875 55.414C48.1406 55.3281 48.0938 55.2461 48.0469 55.1562C48.0742 55.0781 48.0977 55 48.125 54.9219C48.3438 55.3047 48.5547 55.6875 48.7578 56.0781C49.2695 57.0469 49.7852 58.0117 50.3867 58.9297C50.543 59.1679 50.6875 59.4023 50.8203 59.6523C51.0508 60.082 51.3359 60.4726 51.6172 60.8711C51.8008 61.1328 51.9805 61.3945 52.1562 61.6562C52.2305 61.7617 52.3047 61.8672 52.375 61.9726C52.5 62.1523 52.625 62.332 52.7461 62.5117C52.793 62.582 52.8398 62.6523 52.8906 62.7265C52.9297 62.7851 52.9727 62.8437 53.0117 62.9062C53.1523 63.082 53.2852 63.1914 53.5117 63.2304C53.8477 63.2383 53.8477 63.2383 54.1406 63.0859C54.25 62.8125 54.2617 62.5547 54.2188 62.2656C54.1016 62.0625 53.9961 61.9062 53.8477 61.7265C53.7695 61.625 53.6875 61.5234 53.6094 61.4219C53.5469 61.3398 53.5469 61.3398 53.4844 61.2578C53.2734 60.9804 53.082 60.6914 52.8906 60.3984C52.8516 60.3398 52.8125 60.2812 52.7734 60.2226C52.6562 60.0429 52.5391 59.8672 52.4219 59.6875C52.3828 59.6289 52.3438 59.5703 52.3047 59.5078C51.9258 58.9336 51.5469 58.3594 51.2266 57.7461C51.0781 57.4726 50.9219 57.2031 50.7656 56.9297C50.0977 55.7695 49.457 54.5976 48.9102 53.3711C48.7656 53.0547 48.6406 52.7929 48.3594 52.5781C48.0898 52.5195 48.0898 52.5195 47.8125 52.5781C47.6406 52.7148 47.6406 52.7148 47.5391 52.8359C46.3008 54.2304 44.4727 55.3398 42.668 55.8164C42.5391 55.8476 42.4102 55.8906 42.2852 55.9336C39.9883 56.6797 35.1641 57.3867 32.8906 56.25C32.7695 56.2304 32.6484 56.2109 32.5234 56.1953C32.4531 56.1875 32.3789 56.1758 32.3047 56.1679C32.1523 56.1484 32 56.1289 31.8477 56.1094C31.7734 56.0976 31.6992 56.0898 31.625 56.0781C31.5586 56.0703 31.4922 56.0625 31.4258 56.0547C31.25 56.0156 31.25 56.0156 31.0156 55.8594C31.6016 55.8398 32.1523 55.914 32.7305 56.0117C33.5156 56.1406 34.2891 56.2617 35.0859 56.2539C35.1758 56.2539 35.2617 56.2539 35.3516 56.2539C35.418 56.25 35.4805 56.25 35.5469 56.25C35.5469 56.3008 35.5469 56.3515 35.5469 56.4062C35.9883 56.3984 36.4297 56.3867 36.8711 56.3789C37.0195 56.375 37.168 56.3711 37.3203 56.3672C37.5352 56.3633 37.75 56.3594 37.9648 56.3515C38.0312 56.3515 38.1016 56.3515 38.168 56.3476C38.2617 56.3476 38.2617 56.3476 38.3594 56.3437C38.4141 56.3437 38.4687 56.3398 38.5234 56.3398C38.6914 56.332 38.6914 56.332 38.9062 56.25C39.0781 56.2422 39.25 56.2344 39.4219 56.2304C42.4102 56.082 45.3516 54.8515 47.3984 52.6601C47.7305 52.3633 48.0078 52.289 48.4375 52.4219Z" fill="#26E484"/>
<path d="M56.1015 33.7969C56.3125 33.8242 56.4414 33.8203 56.6406 33.75C56.6406 33.8281 56.6406 33.9062 56.6406 33.9844C56.6836 33.9844 56.7265 33.9883 56.7734 33.9883C57.3984 34.0312 57.9609 34.2109 58.5508 34.4141C58.6015 34.4297 58.6523 34.4492 58.7031 34.4648C59.3633 34.6875 60.0117 34.9297 60.6406 35.2266C60.6992 35.2539 60.7578 35.2812 60.8203 35.3086C61.1758 35.4844 61.3906 35.6406 61.5469 36.0078C61.5742 36.3242 61.4609 36.5664 61.2812 36.8203C61.0156 37.0078 60.7851 37.0508 60.4687 37.0312C60.125 36.9258 59.8047 36.7812 59.4765 36.6367C58.5703 36.25 57.6758 35.9336 56.7187 35.7031C56.6562 35.6875 56.5937 35.6719 56.5273 35.6562C54.7851 35.2422 52.4453 34.8672 50.7031 35.4687C50.6758 35.5195 50.6523 35.5703 50.625 35.625C50.5078 35.6211 50.5078 35.6211 50.3867 35.6133C50.0664 35.625 49.8047 35.6914 49.5078 35.8047C49.4531 35.8242 49.3984 35.8476 49.3437 35.8672C48.1562 36.3476 47.0742 37.1172 46.1914 38.043C45.9062 38.3359 45.7265 38.4844 45.3125 38.5156C45.0078 38.4219 44.8672 38.3086 44.6523 38.0703C44.5039 37.7539 44.5117 37.5156 44.6094 37.1875C44.75 36.9961 44.8711 36.8555 45.043 36.6992C45.0898 36.6562 45.1328 36.6133 45.1797 36.5703C46.0703 35.7383 47.0508 35.0976 48.125 34.5312C48.125 34.4805 48.125 34.4297 48.125 34.375C48.2031 34.3672 48.2812 34.3594 48.3633 34.3476C48.6719 34.3047 48.9453 34.207 49.2344 34.0976C49.5469 33.9766 49.7422 33.9062 50.0781 33.9062C50.1055 33.8555 50.1289 33.8047 50.1562 33.75C50.3476 33.7148 50.5312 33.6875 50.7226 33.668C50.8086 33.6562 50.8086 33.6562 50.8945 33.6484C51.0664 33.6289 51.2344 33.6094 51.4062 33.5937C51.5351 33.582 51.5351 33.582 51.664 33.5664C53.168 33.4297 54.6133 33.5703 56.1015 33.7969ZM46.1719 35.9141C46.125 35.9492 46.0742 35.9844 46.0234 36.0195C45.7383 36.2344 45.4844 36.457 45.2344 36.7187C45.1836 36.7695 45.1289 36.8203 45.0781 36.875C44.8359 37.1289 44.6992 37.2812 44.6289 37.6328C44.7031 37.9687 44.793 38.0859 45.0781 38.2812C45.3555 38.3476 45.4453 38.3672 45.7031 38.2812C45.9922 38.0742 46.2344 37.8242 46.4844 37.5781C47.1367 36.9726 47.8086 36.5078 48.5937 36.0937C48.6562 36.0586 48.7226 36.0195 48.7851 35.9805C50.0586 35.2773 51.5898 35.125 53.0117 35.1328C53.0703 35.1328 53.1289 35.1328 53.1914 35.1328C54.0976 35.1367 54.9726 35.1875 55.8594 35.3906C55.9609 35.4141 55.9609 35.4141 56.0664 35.4375C56.7344 35.582 57.3906 35.7383 58.039 35.9609C58.1914 36.0117 58.3437 36.0586 58.4961 36.1094C58.9805 36.2617 59.4258 36.4219 59.8789 36.6641C60.2656 36.8672 60.5039 36.9375 60.9375 36.875C61.2031 36.7851 61.2422 36.7305 61.4062 36.4844C61.4531 36.2187 61.4531 36.2187 61.4062 35.9375C61.1015 35.5586 60.7383 35.3906 60.3047 35.1992C60.1992 35.1562 60.1992 35.1562 60.0937 35.1094C59.4023 34.8086 58.6953 34.5781 57.9687 34.375C57.914 34.3594 57.8594 34.3437 57.8047 34.3281C53.7187 33.207 49.664 33.3789 46.1719 35.9141Z" fill="#27EC91"/>
<path d="M41.3282 23.5156C41.5899 23.7109 41.6993 23.8477 41.8047 24.1563C41.7813 24.9688 41.1407 25.625 40.6172 26.1953C40.5664 26.2383 40.5196 26.2813 40.4688 26.3281C40.293 26.3086 40.293 26.3086 40.1563 26.25C40.4493 26.0156 40.4493 26.0156 40.625 26.0156C40.6524 25.9531 40.6524 25.9531 40.6797 25.8906C40.7813 25.7031 40.7813 25.7031 40.9805 25.4648C41.1836 25.25 41.1836 25.25 41.25 25C41.3008 25 41.3516 25 41.4063 25C41.4375 24.8633 41.4649 24.7266 41.4922 24.5898C41.5118 24.5156 41.5274 24.4375 41.543 24.3594C41.5625 24.1211 41.543 24.0234 41.4063 23.8281C41.3282 23.7891 41.3282 23.7891 41.25 23.75C41.25 23.6992 41.25 23.6484 41.25 23.5938C40.8008 23.6406 40.8008 23.6406 40.418 23.8633C40.3086 24.0078 40.211 24.1523 40.1172 24.3047C40.043 24.4141 39.9727 24.5195 39.8985 24.625C39.8438 24.7031 39.8438 24.7031 39.7891 24.7813C39.25 25.5156 38.3243 26.1094 37.4219 26.25C36.3203 26.3594 35.4532 26.1523 34.4571 25.6797C34.1211 25.5234 33.8828 25.4922 33.5157 25.5469C33.2539 25.8164 33.1407 26.0664 33.043 26.4258C33.0157 26.5156 32.9883 26.6055 32.9649 26.6992C32.9414 26.7813 32.9141 26.8672 32.8907 26.9531C32.8516 27.0703 32.8125 27.1836 32.7735 27.3008C32.3125 28.6797 31.9766 30.1211 31.7969 31.5625C31.7891 31.6133 31.7852 31.6641 31.7774 31.7148C31.6328 32.9063 31.6133 34.0938 31.6016 35.293C31.5703 38.9648 31.5703 38.9648 31.2032 40.3555C31.1797 40.4375 31.1602 40.5156 31.1407 40.5977C30.8008 41.8984 30.3555 43.125 29.7266 44.3125C29.5039 44.7461 29.3555 45.1328 29.4532 45.625C29.5977 45.8477 29.5977 45.8477 29.8438 45.9375C30.1211 45.9414 30.375 45.9062 30.625 45.7812C30.5469 46.0156 30.5469 46.0156 30.3907 46.0938C30.0274 46.1367 29.7657 46.1445 29.4532 45.9453C29.2227 45.7031 29.1875 45.5273 29.1914 45.1875C29.2461 44.8008 29.4375 44.4609 29.6094 44.1094C29.6836 43.957 29.7578 43.8047 29.8282 43.6523C29.8789 43.5508 29.8789 43.5508 29.9297 43.4453C30.0118 43.2891 30.0118 43.2891 30 43.125C30.0508 43.125 30.1016 43.125 30.1563 43.125C30.1758 43.0547 30.1758 43.0547 30.1993 42.9844C30.2188 42.9219 30.2383 42.8555 30.2578 42.7891C30.2891 42.6836 30.2891 42.6836 30.3203 42.5742C30.3672 42.4258 30.4102 42.2773 30.4571 42.1289C31.1094 40.0508 31.1094 40.0508 31.25 37.8906C31.2774 37.8906 31.3008 37.8906 31.3282 37.8906C31.3282 37.6055 31.3282 37.3242 31.3282 37.0313C31.3008 37.0313 31.2774 37.0313 31.25 37.0313C31.25 36.9023 31.25 36.7734 31.25 36.6406C31.2774 36.6406 31.3008 36.6406 31.3282 36.6406C31.3282 36.5625 31.3321 36.4805 31.3321 36.3984C31.4024 33.0352 31.6953 29.8477 32.7422 26.625C32.7813 26.5078 32.7813 26.5078 32.8203 26.3867C32.9493 26.0039 33.0625 25.6797 33.3594 25.3906C33.9336 25.1992 34.3516 25.375 34.875 25.6172C35.9297 26.0977 36.8477 26.2578 37.9688 25.8594C38.8907 25.5 39.5 24.8398 40.0782 24.0625C40.1602 23.957 40.2461 23.8516 40.3321 23.75C40.3672 23.707 40.4024 23.6641 40.4414 23.6172C40.7071 23.3633 41 23.4375 41.3282 23.5156Z" fill="#26F193"/>
<path d="M34.2969 27.0312C34.3633 27.0586 34.4297 27.0859 34.4961 27.1094C34.5859 27.1445 34.6758 27.1797 34.7656 27.2188C34.8516 27.25 34.9414 27.2852 35.0312 27.3203C35.6094 27.5273 36.1172 27.6094 36.7266 27.6094C36.8008 27.6094 36.8711 27.6094 36.9453 27.6094C37.9141 27.5938 37.9141 27.5938 38.75 27.1875C38.9844 27.1602 39.1016 27.1602 39.2969 27.3008C39.3438 27.3477 39.3945 27.3945 39.4453 27.4453C39.9336 27.9375 40.4258 28.0039 41.0898 28.0234C41.1914 28.0273 41.1914 28.0273 41.2969 28.0312C41.4609 28.0352 41.6289 28.043 41.7969 28.0469C41.7695 28.0977 41.7461 28.1484 41.7188 28.2031C40.7852 28.2422 40.1133 28.2578 39.375 27.625C39.1641 27.4609 39.1641 27.4609 38.9062 27.4141C38.7188 27.457 38.543 27.5156 38.3594 27.5781C38.168 27.6328 37.9805 27.6875 37.7891 27.7383C37.6523 27.7773 37.6523 27.7773 37.5117 27.8203C37.3242 27.875 37.1406 27.9258 36.9531 27.9688C36.9531 27.918 36.9531 27.8672 36.9531 27.8125C36.9062 27.8164 36.8594 27.8203 36.8125 27.8281C35.9648 27.8711 35.1484 27.5898 34.375 27.2656C33.9023 28.7266 33.5273 30.1875 33.3008 31.7031C33.293 31.7617 33.2812 31.8242 33.2734 31.8828C33.1094 33.0859 33.1172 34.2969 33.1289 35.5078C33.1367 36.8594 33.1328 38.1914 32.9688 39.5312C33.0312 39.4688 33.0977 39.4102 33.1641 39.3438C33.6719 38.8672 34.1758 38.4219 34.7656 38.0469C34.8203 38.0117 34.8711 37.9766 34.9258 37.9414C35.0742 37.8516 35.0742 37.8516 35.3125 37.7344C35.3906 37.7617 35.4688 37.7852 35.5469 37.8125C35.4258 37.8828 35.4258 37.8828 35.3047 37.957C34.5195 38.4258 33.8672 38.9258 33.2344 39.5898C33.0469 39.7656 33.0469 39.7656 32.8125 39.8438C32.8203 39.125 32.8281 38.4102 32.8359 37.6914C32.8398 37.3594 32.8438 37.0234 32.8438 36.6914C32.8828 32.5781 32.8828 32.5781 33.2266 30.8203C33.2539 30.6836 33.2539 30.6836 33.2773 30.5469C33.875 27.4531 33.875 27.4531 34.2969 27.0312Z" fill="#24F299"/>
<path d="M43.7502 48.6719C44.0158 48.8086 44.176 48.9141 44.3322 49.1719C44.3947 49.4727 44.3556 49.7266 44.2189 50C44.1681 50 44.1174 50 44.0627 50C44.0353 50.0782 44.0119 50.1563 43.9845 50.2344C43.8713 50.3282 43.8713 50.3282 43.7306 50.4219C43.6799 50.4532 43.6291 50.4883 43.5783 50.5196C43.5236 50.5547 43.4689 50.5899 43.4142 50.625C43.3088 50.6914 43.2033 50.7617 43.0978 50.8282C43.047 50.8633 42.9963 50.8946 42.9455 50.9258C42.8049 51.0196 42.8049 51.0196 42.6486 51.1485C42.4533 51.2813 42.258 51.336 42.0314 51.4063C41.8713 51.4766 41.7072 51.5508 41.547 51.625C39.4728 52.543 37.172 52.5782 34.9455 52.4453C34.7892 52.4375 34.633 52.4297 34.4767 52.4219C34.3791 52.4141 34.2814 52.4063 34.1799 52.4024C34.0939 52.3946 34.008 52.3907 33.9181 52.3828C33.5822 52.3282 33.3166 52.2071 33.0549 51.9844C32.9181 51.6875 32.9181 51.4102 32.9689 51.0938C33.1174 50.8282 33.215 50.7305 33.4963 50.6133C33.7658 50.543 33.9494 50.5469 34.2228 50.5782C34.676 50.6211 35.1174 50.6289 35.5705 50.6211C35.7814 50.625 35.7814 50.625 36.0158 50.7032C36.1291 50.711 36.2424 50.7149 36.3556 50.7149C36.422 50.7149 36.4845 50.7149 36.551 50.7149C36.6525 50.7149 36.6525 50.7149 36.758 50.711C36.8244 50.7149 36.8947 50.7149 36.965 50.7149C37.0275 50.7149 37.0939 50.7149 37.1603 50.7149C37.2502 50.7149 37.2502 50.7149 37.34 50.7149C37.5158 50.7071 37.5158 50.7071 37.7345 50.625C37.84 50.6211 37.9494 50.625 38.0549 50.6289C39.7306 50.6446 41.5783 49.9258 42.8752 48.8867C43.1564 48.6641 43.3986 48.6367 43.7502 48.6719ZM42.6525 49.1836C42.0822 49.5899 41.5041 49.8907 40.8595 50.1563C40.7736 50.1914 40.6916 50.2266 40.6017 50.2657C38.7463 50.9688 36.5822 51.0157 34.6369 50.7383C34.1564 50.6719 33.7658 50.6289 33.3166 50.8203C33.0431 51.0977 33.047 51.2539 33.047 51.6407C33.1095 51.875 33.176 51.9336 33.3791 52.0742C33.6056 52.1953 33.758 52.2266 34.0119 52.2461C34.09 52.25 34.172 52.2578 34.2541 52.2657C34.34 52.2696 34.426 52.2735 34.5158 52.2813C34.6056 52.2852 34.6955 52.293 34.7892 52.3008C35.6252 52.3516 36.4611 52.3672 37.297 52.3477C37.422 52.3438 37.547 52.3438 37.6681 52.3438C39.5236 52.336 41.383 51.7188 42.9689 50.7813C42.9689 50.7305 42.9689 50.6797 42.9689 50.625C43.0549 50.6133 43.0549 50.6133 43.1408 50.6016C43.3908 50.5391 43.5275 50.4453 43.7267 50.2891C43.7853 50.2422 43.8439 50.1953 43.9064 50.1485C44.0666 49.9961 44.1447 49.8907 44.2189 49.6875C44.2072 49.3907 44.1799 49.1992 44.0197 48.9492C43.508 48.625 43.0744 48.8633 42.6525 49.1836Z" fill="#28EF94"/>
<path d="M47.6562 54.5312C47.6562 54.7656 47.6562 54.7656 47.5273 54.918C46.6406 55.7187 45.4375 56.4961 44.2969 56.875C44.2148 56.9062 44.1289 56.9375 44.043 56.9688C43.9453 57.0039 43.8516 57.0391 43.75 57.0742C43.6523 57.1094 43.5547 57.1445 43.457 57.1836C43.2031 57.2656 43.2031 57.2656 42.9688 57.2656C42.9961 57.3438 43.0195 57.4219 43.0469 57.5C42.9922 57.4844 42.9336 57.4727 42.875 57.457C42.6406 57.418 42.4922 57.4414 42.2617 57.4961C42.1875 57.5117 42.1133 57.5273 42.0391 57.5469C41.9609 57.5664 41.8828 57.582 41.8008 57.6016C40.8359 57.8242 39.9023 58.0039 38.9062 57.9688C38.8789 58.0195 38.8555 58.0703 38.8281 58.125C38.3594 58.1172 37.8867 58.1055 37.418 58.0977C37.2578 58.0938 37.0977 58.0898 36.9375 58.0859C35.8477 58.0625 34.7617 58.0273 33.6719 57.9688C33.6719 57.918 33.6719 57.8672 33.6719 57.8125C33.2852 57.8125 32.8984 57.8125 32.5 57.8125C32.5 57.7617 32.5 57.7109 32.5 57.6562C32.4375 57.6523 32.3711 57.6523 32.3047 57.6484C31.6172 57.6094 30.9688 57.5039 30.2969 57.3516C30.1367 57.3125 29.9727 57.2773 29.8086 57.2422C29.2422 57.1172 28.6797 56.9766 28.125 56.7969C28.125 56.7695 28.125 56.7461 28.125 56.7188C28.6094 56.7656 29.0703 56.8672 29.543 56.9766C30.6367 57.2344 31.7266 57.4258 32.8438 57.5703C32.9062 57.5781 32.9688 57.5859 33.0352 57.5938C33.4297 57.6406 33.8242 57.6914 34.2188 57.7344C34.2773 57.7422 34.3398 57.75 34.3984 57.7539C34.9062 57.8125 35.4062 57.8281 35.918 57.8281C36.0039 57.8281 36.0898 57.8281 36.1797 57.8281C36.3594 57.832 36.543 57.832 36.7266 57.832C36.9961 57.832 37.2695 57.8359 37.543 57.8359C40.8164 57.8516 44.1211 57.1953 46.8125 55.2344C47.0312 55.0781 47.0312 55.0781 47.1875 55.0781C47.1875 55.0273 47.1875 54.9766 47.1875 54.9219C47.3398 54.7891 47.4961 54.6562 47.6562 54.5312Z" fill="#24EC92"/>
<path d="M40.6602 16.4492C40.8125 16.4453 40.9648 16.4414 41.1172 16.4375C42.0195 16.4375 42.8477 16.6992 43.5117 17.332C44.1914 18.043 44.4453 18.9297 44.7422 19.8477C45.0273 20.7344 45.3398 21.6016 45.6875 22.4648C46.0625 23.4219 46.2852 24.2734 45.8867 25.2617C45.7109 25.6055 45.4844 25.8828 45.2344 26.1719C45.1875 26.2305 45.1406 26.2891 45.0898 26.3477C44.8359 26.6563 44.6719 26.8086 44.2969 26.9531C44.1758 27.0352 44.0586 27.1211 43.9453 27.207C43.3242 27.6523 42.6484 28.0156 41.875 28.0469C42.0664 27.8555 42.2266 27.8125 42.4805 27.7227C43.7461 27.2422 45.125 26.4414 45.7031 25.1563C45.7305 25.0938 45.7617 25.0313 45.7891 24.9688C46.1797 23.8281 45.5039 22.5117 45.0977 21.4531C44.7734 20.6094 44.4648 19.7617 44.207 18.8906C43.9414 18.043 43.457 17.3711 42.6641 16.9531C42.0273 16.6641 41.3711 16.7031 40.6875 16.7031C40.6328 16.7031 40.5742 16.7031 40.5195 16.7031C39.7578 16.7031 39.0117 16.7305 38.2578 16.8398C37.9258 16.8789 37.6016 16.8828 37.2656 16.875C37.875 16.2656 39.7813 16.457 40.6602 16.4492Z" fill="#26EB90"/>
<path d="M47.7344 52.4219C47.7617 52.4727 47.7852 52.5234 47.8125 52.5781C46.3906 54.0469 44.668 55.2891 42.668 55.8164C42.5391 55.8477 42.4102 55.8906 42.2852 55.9336C39.9883 56.6797 35.1641 57.3867 32.8906 56.25C32.7695 56.2305 32.6484 56.2109 32.5234 56.1953C32.4531 56.1875 32.3789 56.1758 32.3047 56.168C32.1523 56.1484 32 56.1289 31.8477 56.1094C31.7734 56.0977 31.6992 56.0898 31.625 56.0781C31.5586 56.0703 31.4922 56.0625 31.4258 56.0547C31.25 56.0156 31.25 56.0156 31.0156 55.8594C31.6016 55.8398 32.1523 55.9141 32.7305 56.0117C33.5156 56.1406 34.2891 56.2617 35.0859 56.2539C35.1758 56.2539 35.2617 56.2539 35.3516 56.2539C35.418 56.25 35.4805 56.25 35.5469 56.25C35.5469 56.3008 35.5469 56.3516 35.5469 56.4062C35.9883 56.3984 36.4297 56.3867 36.8711 56.3789C37.0195 56.375 37.168 56.3711 37.3203 56.3672C37.5352 56.3633 37.75 56.3594 37.9648 56.3516C38.0312 56.3516 38.1016 56.3516 38.168 56.3477C38.2617 56.3477 38.2617 56.3477 38.3594 56.3438C38.4141 56.3438 38.4687 56.3398 38.5234 56.3398C38.6914 56.332 38.6914 56.332 38.9062 56.25C39.0781 56.2422 39.25 56.2344 39.4219 56.2305C42.4453 56.082 45.3242 54.8281 47.4219 52.6523C47.5781 52.5 47.5781 52.5 47.7344 52.4219Z" fill="#27F196"/>
<path d="M40.5312 18.0312C40.6328 18.0312 40.7305 18.0312 40.832 18.0312C41.9492 18.0273 41.9492 18.0273 42.3906 18.3555C42.8672 18.9648 43.082 19.75 43.3242 20.4727C43.5273 21.0781 43.7422 21.6758 43.9844 22.2656C44.0547 22.4414 44.1289 22.6211 44.1992 22.7969C44.2344 22.8789 44.2656 22.9648 44.3008 23.0469C44.3711 23.2734 44.3906 23.4375 44.375 23.6719C44.1211 23.3828 44.0156 23.0586 43.8906 22.6992C43.8711 22.6367 43.8477 22.5703 43.8242 22.5039C43.75 22.2969 43.6758 22.0898 43.6016 21.8828C43.5547 21.75 43.5078 21.6133 43.457 21.4766C43.3633 21.2109 43.2695 20.9492 43.1797 20.6836C43.0937 20.4453 43.0117 20.2109 42.9258 19.9766C42.9062 19.9258 42.8867 19.875 42.8711 19.8203C42.8203 19.6875 42.7695 19.5508 42.7227 19.418C42.6562 19.2187 42.6562 19.2187 42.6562 19.0625C42.5781 19.0234 42.5781 19.0234 42.5 18.9844C42.4648 18.8906 42.4648 18.8906 42.4297 18.7969C42.3281 18.5625 42.2461 18.4961 42.0312 18.3594C41.0234 17.9922 39.7734 18.2031 38.7305 18.3359C38.6719 18.3437 38.6172 18.3477 38.5586 18.3555C37.418 18.4961 36.2852 18.6797 35.1562 18.9062C35.082 18.9219 35.0039 18.9375 34.9258 18.9531C34.7266 18.9922 34.5234 19.0352 34.3203 19.0781C34.2617 19.0898 34.207 19.1016 34.1445 19.1133C34.0117 19.1445 33.8789 19.1797 33.75 19.2187C33.7227 19.2695 33.6992 19.3203 33.6719 19.375C33.5234 19.3906 33.3711 19.4062 33.2227 19.4219C32.9297 19.4727 32.6836 19.6016 32.4219 19.7422C32.3672 19.7695 32.3125 19.7969 32.2578 19.8242C31.7305 20.1016 31.2656 20.418 30.8594 20.8594C30.8594 20.625 30.8594 20.625 30.9844 20.4805C32.75 18.9336 35.0391 18.6719 37.2812 18.3164C37.4297 18.293 37.582 18.2656 37.7305 18.2422C38.6641 18.0742 39.582 18.0312 40.5312 18.0312Z" fill="#24F096"/>
<path d="M40.2656 38.4961C40.3398 38.5078 40.418 38.5195 40.4961 38.5352C41.0156 38.625 41.4727 38.7695 41.9531 38.9844C42.0195 39.0117 42.082 39.0391 42.1484 39.0703C45.2188 40.4375 45.2188 40.4375 45.7031 41.4063C45.4844 41.3047 45.2969 41.1875 45.1016 41.0391C43.1523 39.582 40.9414 38.418 38.4375 38.5938C38.2188 38.6289 38.0234 38.6797 37.8125 38.75C37.7227 38.7578 37.6367 38.7617 37.543 38.7695C35.7773 38.9805 34.1562 40.625 33.1055 41.9375C32.4336 42.8164 31.8711 43.7422 31.3359 44.707C31.1328 45.0703 30.9219 45.4258 30.7031 45.7813C30.6758 45.7305 30.6523 45.6797 30.625 45.625C30.6797 45.4883 30.6797 45.4883 30.7656 45.3203C30.7969 45.2578 30.832 45.1992 30.8633 45.1367C30.8984 45.0703 30.9336 45.0039 30.9727 44.9375C31.0078 44.8672 31.043 44.8008 31.082 44.7305C31.9336 43.1524 32.9453 41.7383 34.2188 40.4688C34.2891 40.3984 34.3555 40.332 34.4297 40.2578C35.2578 39.4727 36.293 38.8086 37.4219 38.5781C37.4805 38.5664 37.5391 38.5547 37.6016 38.5391C38.5195 38.3438 39.3398 38.3359 40.2656 38.4961Z" fill="#25EE90"/>
<path d="M41.0469 37.0547C41.1172 37.0703 41.1875 37.0859 41.2578 37.1015C41.6836 37.2031 42.0781 37.3398 42.4766 37.5156C42.6758 37.5859 42.8359 37.5898 43.0469 37.5781C43.0469 37.6289 43.0469 37.6797 43.0469 37.7344C43.0898 37.7539 43.1328 37.7773 43.1758 37.7969C44.2227 38.3164 45.1719 38.8906 46.0938 39.6094C46.1562 39.6601 46.1563 39.6601 46.2227 39.7109C46.4727 39.9062 46.7148 40.1055 46.9531 40.3125C47.0703 40.4101 47.0703 40.4101 47.1914 40.5117C47.2734 40.5781 47.3516 40.6445 47.4297 40.7109C47.5391 40.8008 47.5391 40.8008 47.6484 40.8945C47.8555 41.1445 47.8789 41.3203 47.8906 41.6406C47.8164 41.832 47.8164 41.832 47.7344 41.9531C47.6562 41.7969 47.6562 41.7969 47.7031 41.5234C47.707 41.2695 47.668 41.1836 47.5039 40.9883C47.2773 40.7773 47.0391 40.582 46.7969 40.3906C46.707 40.3203 46.6211 40.2461 46.5312 40.1758C45.5352 39.3047 45.5352 39.3047 44.375 38.75C44.3398 38.7148 44.3086 38.6797 44.2734 38.6445C44.0039 38.3828 43.6367 38.2539 43.3047 38.0937C43.2266 38.0586 43.1445 38.0195 43.0625 37.9805C41.8789 37.4297 40.7031 37.1289 39.4062 37.0234C39.3242 37.0156 39.2461 37.0078 39.168 37C38.9766 36.9844 38.7852 36.9687 38.5938 36.9531C39.2852 36.5742 40.3164 36.8906 41.0469 37.0547Z" fill="#27F095"/>
<path d="M48.0469 54.9219C48.3281 55.168 48.4766 55.4375 48.6328 55.7734C49.1836 56.9062 49.7813 58.0195 50.4766 59.0703C50.6016 59.2617 50.7148 59.4531 50.8203 59.6523C51.0039 59.9961 51.2266 60.3086 51.4492 60.6289C51.7344 61.0352 52.0039 61.4531 52.2656 61.875C52.1875 61.875 52.1094 61.875 52.0312 61.875C51.9102 61.7266 51.9102 61.7266 51.793 61.5312C51.6719 61.3398 51.5703 61.1797 51.4062 61.0156C51.3477 60.9141 51.2891 60.8125 51.2344 60.707C50.8359 59.957 50.8359 59.957 50.3125 59.2969C50.2344 59.1641 50.1602 59.0273 50.0859 58.8906C49.9062 58.5547 49.7227 58.2227 49.5312 57.8906C49.4805 57.8906 49.4297 57.8906 49.375 57.8906C49.3672 57.8398 49.3633 57.7852 49.3555 57.7344C49.2773 57.4258 49.1406 57.1758 48.9883 56.8984C48.9609 56.8477 48.9336 56.793 48.9023 56.7383C48.7891 56.5273 48.6875 56.3438 48.5156 56.1719C48.4922 56.1016 48.4688 56.0352 48.4453 55.9609C48.375 55.7539 48.3047 55.6016 48.1953 55.4141C48.0469 55.1563 48.0469 55.1562 48.0469 54.9219Z" fill="#24EB8E"/>
<path d="M35.625 16.875C36.1406 16.875 36.6562 16.875 37.1875 16.875C36.9023 17.0195 36.7227 17.0664 36.4141 17.1172C36.3242 17.1289 36.2305 17.1445 36.1367 17.1602C36.0391 17.1758 35.9414 17.1914 35.8398 17.207C35.082 17.332 34.332 17.4727 33.5859 17.6562C33.4727 17.6836 33.4727 17.6836 33.3633 17.7109C32.6172 17.8984 31.9453 18.2227 31.2852 18.6094C31.2383 18.6367 31.1914 18.6602 31.1406 18.6875C30.9492 18.8008 30.7852 18.9023 30.625 19.0625C30.5469 19.0352 30.4688 19.0117 30.3906 18.9844C31.2148 18.3242 32.082 17.8555 33.125 17.6562C33.1523 17.6055 33.1758 17.5547 33.2031 17.5C33.3477 17.4609 33.3477 17.4609 33.5469 17.4297C33.9844 17.3594 34.418 17.2773 34.8516 17.1875C34.9219 17.1758 34.9883 17.1602 35.0547 17.1484C35.2187 17.1133 35.3828 17.0742 35.5469 17.0312C35.5742 16.9805 35.5977 16.9297 35.625 16.875Z" fill="#26EA94"/>
<path d="M30.5469 41.9531C30.7149 42.4102 30.4219 42.8633 30.2344 43.2812C30.168 43.418 30.1016 43.5547 30.0352 43.6875C30 43.7578 29.9649 43.832 29.9258 43.9062C29.8555 44.0469 29.7852 44.1875 29.711 44.3281C29.4961 44.7578 29.3594 45.1406 29.4532 45.625C29.5977 45.8477 29.5977 45.8477 29.8438 45.9375C30.1211 45.9414 30.375 45.9062 30.625 45.7812C30.5469 46.0156 30.5469 46.0156 30.3907 46.0938C30.0274 46.1367 29.7657 46.1445 29.4532 45.9453C29.2227 45.7031 29.1875 45.5273 29.1914 45.1875C29.2461 44.8008 29.4375 44.4609 29.6094 44.1094C29.6836 43.957 29.7578 43.8047 29.8282 43.6523C29.8633 43.582 29.8946 43.5156 29.9297 43.4453C30.0118 43.2891 30.0118 43.2891 30 43.125C30.0508 43.125 30.1016 43.125 30.1563 43.125C30.1797 43.0469 30.1797 43.0469 30.2032 42.9688C30.4024 42.2812 30.4024 42.2812 30.5469 41.9531Z" fill="#28EC8C"/>
<path d="M44.4531 23.9062C44.4805 23.9062 44.5039 23.9062 44.5312 23.9062C44.582 24.4102 44.4492 24.6836 44.1406 25.0781C43.4844 25.8711 42.4258 26.4883 41.4062 26.6406C41.2695 26.6445 41.1289 26.6484 40.9922 26.6445C40.9219 26.6445 40.8516 26.6445 40.7812 26.6445C40.7305 26.6406 40.6797 26.6406 40.625 26.6406C40.625 26.6133 40.625 26.5898 40.625 26.5625C40.6992 26.5547 40.7773 26.543 40.8555 26.5312C42.0547 26.3555 43.2617 25.8555 44.0547 24.8984C44.2852 24.5781 44.4336 24.3086 44.4531 23.9062Z" fill="#27F190"/>
<path d="M43.75 48.6719C44.0156 48.8086 44.1758 48.914 44.332 49.1719C44.3945 49.4726 44.3555 49.7265 44.2188 50C44.168 50 44.1172 50 44.0625 50C44.0703 49.9531 44.082 49.9062 44.0898 49.8594C44.1406 49.543 44.168 49.3555 44.0273 49.0586C43.8008 48.8867 43.6562 48.8711 43.3711 48.8789C43.0703 48.9297 42.8594 49.0976 42.6172 49.2773C42.2266 49.5586 41.8477 49.8047 41.4062 50C41.3555 49.9726 41.3047 49.9492 41.25 49.9219C41.2891 49.8984 41.332 49.875 41.3711 49.8476C41.5586 49.7344 41.7422 49.625 41.9297 49.5117C41.9922 49.4726 42.0547 49.4336 42.1211 49.3945C42.4492 49.1953 42.75 48.9922 43.0469 48.75C43.3086 48.664 43.4766 48.6445 43.75 48.6719Z" fill="#29ED8B"/>
<path d="M47.9688 52.3438C48.2695 52.3516 48.4063 52.3945 48.6328 52.5938C48.832 52.8164 48.957 53.0234 49.0898 53.2891C49.1367 53.3789 49.1797 53.4688 49.2266 53.5625C49.25 53.6094 49.2734 53.6523 49.2969 53.7031C49.3672 53.8438 49.4375 53.9844 49.5078 54.1289C49.7656 54.6445 49.7656 54.6445 49.8438 54.8438C49.8164 54.8945 49.793 54.9453 49.7656 55C49.5469 54.6016 49.3281 54.1992 49.1172 53.7969C49.0859 53.7383 49.0547 53.6758 49.0234 53.6172C48.9609 53.5 48.9023 53.3789 48.8398 53.2617C48.7969 53.1797 48.7969 53.1797 48.7539 53.0938C48.7305 53.0469 48.7031 52.9961 48.6758 52.9492C48.5859 52.7969 48.4961 52.6914 48.3594 52.5781C48.0781 52.5195 48.0781 52.5195 47.8125 52.5C47.8633 52.4492 47.9141 52.3984 47.9688 52.3438Z" fill="#2BE679"/>
<path d="M35.5469 37.8125C35.4258 37.8828 35.4258 37.8828 35.3047 37.957C34.6797 38.3281 34.1328 38.707 33.6133 39.2149C33.4531 39.3594 33.3203 39.4492 33.125 39.5313C33.2461 39.2109 33.4766 39.0234 33.7344 38.8086C33.7812 38.7695 33.8242 38.7344 33.8711 38.6953C35.1211 37.6719 35.1211 37.6719 35.5469 37.8125Z" fill="#27F18C"/>
<path d="M43.668 17.5039C43.8125 17.6641 43.8125 17.6641 43.9062 17.8125C43.8672 17.9297 43.8672 17.9297 43.8281 18.0469C43.8008 18.0078 43.7734 17.9649 43.7461 17.9258C43.3047 17.3008 42.7812 16.9024 42.0234 16.75C41.793 16.707 41.5586 16.6719 41.3281 16.6406C41.3281 16.6133 41.3281 16.5899 41.3281 16.5625C42.1758 16.3086 43.1094 16.9063 43.668 17.5039Z" fill="#27E383"/>
<path d="M46.3281 39.9219C46.7266 40.043 46.9844 40.2852 47.2852 40.5625C47.3359 40.6055 47.3828 40.6484 47.4375 40.6914C47.6875 40.9258 47.8008 41.0469 47.8906 41.3867C47.8906 41.6367 47.8711 41.7539 47.7344 41.9531C47.6562 41.7969 47.6562 41.7969 47.7031 41.5234C47.7109 41.2539 47.6602 41.1797 47.4805 40.9727C47.2578 40.7695 47.0312 40.5781 46.7969 40.3906C46.6406 40.2617 46.4844 40.1289 46.3281 40C46.3281 39.9727 46.3281 39.9492 46.3281 39.9219Z" fill="#29E887"/>
<path d="M45.7031 41.4062C45.957 41.5195 46.1406 41.6641 46.3477 41.8438C46.5898 42.0391 46.7461 42.1484 47.0625 42.1484C47.3398 42.1172 47.3398 42.1172 47.5781 42.0312C47.5781 42.082 47.5781 42.1328 47.5781 42.1875C47.3086 42.3555 47.1133 42.3906 46.7969 42.3438C46.3438 42.1094 46.0039 41.8164 45.7031 41.4062Z" fill="#26E68A"/>
<path d="M43.2812 48.6719C43.582 48.6445 43.7344 48.6641 44.0039 48.8047C44.2305 48.9961 44.3125 49.0859 44.375 49.375C44.3516 49.6094 44.3242 49.7891 44.2188 50C44.168 50 44.1172 50 44.0625 50C44.0703 49.9531 44.082 49.9063 44.0898 49.8594C44.1562 49.4531 44.1562 49.4531 44.0234 49.0664C43.7852 48.8711 43.5781 48.8125 43.2812 48.75C43.2812 48.7227 43.2812 48.6992 43.2812 48.6719Z" fill="#25E288"/>
<path d="M47.7344 52.4219C47.7617 52.4727 47.7852 52.5234 47.8125 52.5781C47.5586 52.8398 47.293 53.0937 47.0234 53.3398C46.957 53.4023 46.8906 53.4609 46.8203 53.5234C46.6406 53.6719 46.6406 53.6719 46.4062 53.75C46.4062 53.6992 46.4062 53.6484 46.4062 53.5938C46.5234 53.4766 46.5234 53.4766 46.6836 53.3438C46.9609 53.1133 47.2148 52.8672 47.4648 52.6094C47.5781 52.5 47.5781 52.5 47.7344 52.4219Z" fill="#2BED89"/>
<path d="M38.4375 36.875C38.1523 37.043 37.8516 37.1016 37.5352 37.1641C37.4805 37.1758 37.4297 37.1836 37.375 37.1953C37.1172 37.25 36.9727 37.2734 36.7188 37.1875C37.293 36.9805 37.8203 36.8594 38.4375 36.875Z" fill="#29F092"/>
<path d="M31.4062 37.5C31.4336 37.5 31.457 37.5 31.4844 37.5C31.4883 37.7031 31.4922 37.9023 31.4922 38.1055C31.4961 38.1641 31.4961 38.2187 31.5 38.2773C31.5 38.6055 31.4766 38.7617 31.3281 39.0625C31.3008 38.6758 31.2773 38.2891 31.25 37.8906C31.2773 37.8906 31.3008 37.8906 31.3281 37.8906C31.3555 37.7617 31.3789 37.6328 31.4062 37.5Z" fill="#24F09B"/>
<path d="M47.9688 52.3438C48.2852 52.3516 48.4141 52.4023 48.6562 52.6094C48.8281 52.8125 48.8281 52.8125 48.9062 53.0469C48.8555 53.0469 48.8047 53.0469 48.75 53.0469C48.6953 52.9727 48.6367 52.8945 48.5781 52.8164C48.4023 52.5898 48.3633 52.5781 48.0625 52.5078C47.9375 52.5039 47.9375 52.5039 47.8125 52.5C47.8633 52.4492 47.9141 52.3984 47.9688 52.3438Z" fill="#2ADE83"/>
<path d="M47.6563 54.375C47.7345 54.375 47.8126 54.375 47.8907 54.375C47.9688 54.5547 48.047 54.7344 48.1251 54.9219C48.0235 54.9492 47.918 54.9727 47.8126 55C47.6446 54.7461 47.6407 54.6641 47.6563 54.375Z" fill="#1FF5B4"/>
<path d="M33.0469 51.6406C33.0977 51.6992 33.1484 51.7617 33.1992 51.8203C33.4609 52.0898 33.7852 52.1719 34.1406 52.2656C34.1406 52.293 34.1406 52.3164 34.1406 52.3438C33.6875 52.3242 33.3711 52.3008 33.0469 51.9531C33.0195 51.875 32.9961 51.7969 32.9688 51.7188C32.9961 51.6914 33.0195 51.668 33.0469 51.6406Z" fill="#27EE99"/>
<path d="M18.2812 41.25C18.4062 41.4453 18.4414 41.5312 18.4023 41.7656C18.3789 41.832 18.3555 41.9023 18.3281 41.9727C18.3086 42.043 18.2852 42.1133 18.2617 42.1836C18.2422 42.2383 18.2227 42.2891 18.2031 42.3438C18.1523 42.3164 18.1016 42.293 18.0469 42.2656C18.0742 42.0078 18.0977 41.75 18.125 41.4844C18.1758 41.4844 18.2266 41.4844 18.2812 41.4844C18.2812 41.4062 18.2812 41.3281 18.2812 41.25Z" fill="#24E992"/>
<path d="M34.2969 27.0312C34.5039 27.1094 34.7109 27.1875 34.9219 27.2656C34.9219 27.3164 34.9219 27.3672 34.9219 27.4219C34.7422 27.3711 34.5625 27.3203 34.375 27.2656C34.3242 27.3438 34.2734 27.4219 34.2188 27.5C34.1914 27.4219 34.168 27.3438 34.1406 27.2656C34.1914 27.1875 34.2422 27.1094 34.2969 27.0312Z" fill="#22F49F"/>
<path d="M40.0781 26.25C40.1562 26.2773 40.2344 26.3008 40.3125 26.3281C40.3125 26.3789 40.3125 26.4297 40.3125 26.4844C40.6211 26.4844 40.9297 26.4844 41.25 26.4844C41.25 26.5117 41.25 26.5352 41.25 26.5625C40.4258 26.6797 40.4258 26.6797 40.0781 26.4844C40.0781 26.4062 40.0781 26.3281 40.0781 26.25Z" fill="#20F5AF"/>
<path d="M39.0625 27.1875C39.2227 27.2812 39.2227 27.2812 39.3906 27.418C39.4453 27.4609 39.5 27.5039 39.5586 27.5508C39.6211 27.6016 39.6211 27.6016 39.6875 27.6562C39.6367 27.707 39.5859 27.7578 39.5312 27.8125C39.418 27.7148 39.3008 27.6211 39.1875 27.5234C39.0742 27.4297 38.9492 27.3477 38.8281 27.2656C38.9062 27.2383 38.9844 27.2148 39.0625 27.1875Z" fill="#22F2A0"/>
<path d="M48.0469 54.9219C48.332 55.1641 48.4023 55.332 48.4375 55.7031C48.2539 55.5352 48.1406 55.3867 48.0469 55.1562C48.0469 55.0781 48.0469 55 48.0469 54.9219Z" fill="#21F19C"/>
<path d="M19.6094 37.3438C19.6367 37.3438 19.6602 37.3438 19.6875 37.3438C19.7031 37.6523 19.6953 37.8594 19.5312 38.125C19.4805 38.125 19.4297 38.125 19.375 38.125C19.4531 37.8672 19.5312 37.6094 19.6094 37.3438Z" fill="#24EA95"/>
<path d="M36.25 50.625C36.6094 50.625 36.9727 50.625 37.3438 50.625C37.3438 50.6523 37.3438 50.6758 37.3438 50.7031C36.9844 50.7031 36.6211 50.7031 36.25 50.7031C36.25 50.6758 36.25 50.6523 36.25 50.625Z" fill="#1DEFC0"/>
<path d="M31.25 37.1094C31.2773 37.1094 31.3008 37.1094 31.3281 37.1094C31.3281 37.3398 31.3281 37.5742 31.3281 37.8125C31.3008 37.8125 31.2773 37.8125 31.25 37.8125C31.25 37.582 31.25 37.3477 31.25 37.1094Z" fill="#1DF1BD"/>
<path d="M39.9219 58.0469C39.8438 58.125 39.8437 58.125 39.6055 58.1289C39.4922 58.1289 39.4922 58.1289 39.375 58.125C39.375 58.0977 39.375 58.0742 39.375 58.0469C39.7461 57.9609 39.7461 57.9609 39.9219 58.0469Z" fill="#1BE3B4"/>
<path d="M34.375 58.0469C34.5547 58.0469 34.7344 58.0469 34.9219 58.0469C34.9219 58.0742 34.9219 58.0977 34.9219 58.125C34.7422 58.125 34.5625 58.125 34.375 58.125C34.375 58.0977 34.375 58.0742 34.375 58.0469Z" fill="#1DE5B7"/>
<path d="M35.7031 56.25C35.8828 56.25 36.0625 56.25 36.25 56.25C36.25 56.2773 36.25 56.3008 36.25 56.3281C36.0703 56.3281 35.8906 56.3281 35.7031 56.3281C35.7031 56.3008 35.7031 56.2773 35.7031 56.25Z" fill="#1BF2C0"/>
<path d="M38.75 38.5938C38.9297 38.5938 39.1094 38.5938 39.2969 38.5938C39.2969 38.6211 39.2969 38.6445 39.2969 38.6719C39.1172 38.6719 38.9375 38.6719 38.75 38.6719C38.75 38.6445 38.75 38.6211 38.75 38.5938Z" fill="#1DF4C1"/>
<path d="M52.3438 58.8281C52.3945 58.8789 52.4453 58.9297 52.5 58.9844C52.4492 59.0352 52.3984 59.0859 52.3438 59.1406C52.3164 59.0625 52.293 58.9844 52.2656 58.9062C52.293 58.8789 52.3164 58.8555 52.3438 58.8281Z" fill="#1EE1AE"/>
<path d="M40 57.9688C40.1562 57.9688 40.3086 57.9688 40.4688 57.9688C40.4688 57.9961 40.4688 58.0195 40.4688 58.0469C40.3125 58.0469 40.1602 58.0469 40 58.0469C40 58.0195 40 57.9961 40 57.9688Z" fill="#1CE5B3"/>
<path d="M38.9844 52.3438C39.1133 52.3438 39.2422 52.3438 39.375 52.3438C39.2188 52.4219 39.2188 52.4219 39.0625 52.5C39.0352 52.4492 39.0117 52.3984 38.9844 52.3438Z" fill="#1EF4C2"/>
<path d="M33.9844 57.9688C34.0859 57.9961 34.1914 58.0195 34.2969 58.0469C34.2188 58.0742 34.1406 58.0977 34.0625 58.125C34.0352 58.0742 34.0117 58.0234 33.9844 57.9688Z" fill="#1CE6B7"/>
<path d="M46.25 42.1094C46.3008 42.1094 46.3516 42.1094 46.4062 42.1094C46.4062 42.1875 46.4062 42.2656 46.4062 42.3438C46.3555 42.3164 46.3047 42.293 46.25 42.2656C46.25 42.2148 46.25 42.1641 46.25 42.1094Z" fill="#23E0B3"/>
<path d="M41.1719 36.875C41.1992 36.9258 41.2227 36.9766 41.25 37.0312C41.1484 37.0039 41.043 36.9805 40.9375 36.9531C41.0156 36.9258 41.0938 36.9023 41.1719 36.875Z" fill="#1CEEBC"/>
<path d="M31.25 35.3906C31.2773 35.3906 31.3008 35.3906 31.3281 35.3906C31.3281 35.5195 31.3281 35.6484 31.3281 35.7812C31.3008 35.7812 31.2773 35.7812 31.25 35.7812C31.25 35.6523 31.25 35.5234 31.25 35.3906Z" fill="#1BF2BF"/>
<path d="M33.125 57.8906C33.4375 57.9688 33.4375 57.9688 33.4375 57.9688L33.125 57.8906Z" fill="#1CE7B5"/>
<path d="M37.5781 56.25C37.8906 56.3281 37.8906 56.3281 37.8906 56.3281L37.5781 56.25Z" fill="#1EF3BE"/>
<path d="M48.3594 55.9375C48.4375 56.0547 48.4375 56.0547 48.5156 56.1719C48.4648 56.1719 48.4141 56.1719 48.3594 56.1719C48.3594 56.0938 48.3594 56.0156 48.3594 55.9375Z" fill="#1CEFBA"/>
<path d="M33.9844 52.4219C34.2969 52.5 34.2969 52.5 34.2969 52.5L33.9844 52.4219Z" fill="#20EDBC"/>
<path d="M39.6094 38.6719C39.9219 38.75 39.9219 38.75 39.9219 38.75L39.6094 38.6719Z" fill="#1EF1C1"/>
<path d="M31.25 35.8594C31.3281 36.1719 31.3281 36.1719 31.3281 36.1719L31.25 35.8594Z" fill="#1BF3BF"/>
<path d="M31.25 34.1406C31.3281 34.4531 31.3281 34.4531 31.3281 34.4531L31.25 34.1406Z" fill="#1AF2C1"/>
<path d="M26.9531 23.125C27.0039 23.1523 27.0547 23.1758 27.1094 23.2031C27.0312 23.2031 26.9531 23.2031 26.875 23.2031C26.9023 23.1758 26.9258 23.1523 26.9531 23.125Z" fill="#1DDFB3"/>
<path d="M36.4844 18.6719C36.7969 18.75 36.7969 18.75 36.7969 18.75L36.4844 18.6719Z" fill="#1DF2C1"/>
<path d="M40.5469 16.3281C40.8594 16.4062 40.8594 16.4062 40.8594 16.4062L40.5469 16.3281Z" fill="#1DDDAE"/>
<path d="M52.2656 62.3438C52.3164 62.3945 52.3672 62.4453 52.4219 62.5C52.3711 62.5 52.3203 62.5 52.2656 62.5C52.2656 62.4492 52.2656 62.3984 52.2656 62.3438Z" fill="#1FDAA7"/>
<path d="M54.2188 61.875C54.2695 61.875 54.3203 61.875 54.375 61.875C54.3477 61.9258 54.3242 61.9766 54.2969 62.0312C54.2695 61.9805 54.2461 61.9297 54.2188 61.875Z" fill="#1ED3A7"/>
<path d="M39.0625 58.0469C39.2969 58.125 39.2969 58.125 39.2969 58.125L39.0625 58.0469Z" fill="#1EE6B9"/>
<path d="M38.125 56.25C38.3594 56.3281 38.3594 56.3281 38.3594 56.3281L38.125 56.25Z" fill="#1EF2C3"/>
<path d="M41.7969 55.625C41.875 55.6641 41.875 55.6641 41.9531 55.7031C41.875 55.7422 41.875 55.7422 41.7969 55.7812C41.7969 55.7305 41.7969 55.6797 41.7969 55.625Z" fill="#1FF4C3"/>
<path d="M43.8281 55C44.0625 55.0781 44.0625 55.0781 44.0625 55.0781L43.8281 55Z" fill="#20F4C1"/>
<path d="M22.5 54.8438C22.5781 54.8828 22.5781 54.8828 22.6562 54.9219C22.5781 54.9609 22.5781 54.9609 22.5 55C22.5 54.9492 22.5 54.8984 22.5 54.8438Z" fill="#1DE4B5"/>
<path d="M23.2031 53.125C23.4375 53.2031 23.4375 53.2031 23.4375 53.2031L23.2031 53.125Z" fill="#1DE9BC"/>
<path d="M46.4844 42.2656C46.5625 42.3047 46.5625 42.3047 46.6406 42.3438C46.5625 42.3828 46.5625 42.3828 46.4844 42.4219C46.4844 42.3711 46.4844 42.3203 46.4844 42.2656Z" fill="#21DDB3"/>
<path d="M42.1875 28.0469C42.4219 28.125 42.4219 28.125 42.4219 28.125L42.1875 28.0469Z" fill="#1FEDB7"/>
<path d="M42.7344 19.8438C42.7852 19.8438 42.8359 19.8438 42.8906 19.8438C42.8633 19.8945 42.8398 19.9453 42.8125 20C42.7852 19.9492 42.7617 19.8984 42.7344 19.8438Z" fill="#1CF3BE"/>
<path d="M37.0312 16.6406C37.2656 16.7188 37.2656 16.7188 37.2656 16.7188L37.0312 16.6406Z" fill="#1EE4B2"/>
<path d="M39.7656 16.3281C40 16.4062 40 16.4062 40 16.4062L39.7656 16.3281Z" fill="#1EE0AF"/>
<path d="M53.125 63.3594C53.2812 63.4375 53.2812 63.4375 53.2812 63.4375L53.125 63.3594Z" fill="#21C395"/>
<path d="M51.25 61.1719C51.4062 61.25 51.4062 61.25 51.4062 61.25L51.25 61.1719Z" fill="#1DE3B2"/>
<path d="M41.0156 57.9688C41.1719 58.0469 41.1719 58.0469 41.1719 58.0469L41.0156 57.9688Z" fill="#1EE2B1"/>
<path d="M40.8594 57.8906C41.0156 57.9688 41.0156 57.9688 41.0156 57.9688L40.8594 57.8906Z" fill="#1FE4B2"/>
<path d="M40.625 57.8906C40.7812 57.9688 40.7812 57.9688 40.7812 57.9688L40.625 57.8906Z" fill="#1DE6B4"/>
<path d="M32.5781 57.8125C32.7344 57.8906 32.7344 57.8906 32.7344 57.8906L32.5781 57.8125Z" fill="#1CE9B4"/>
<path d="M30.3906 57.4219C30.5469 57.5 30.5469 57.5 30.5469 57.5L30.3906 57.4219Z" fill="#1DE6B7"/>
<path d="M44.6094 56.7188C44.7656 56.7969 44.7656 56.7969 44.7656 56.7969L44.6094 56.7188Z" fill="#1EEBB8"/>
<path d="M27.5 56.7188C27.6562 56.7969 27.6562 56.7969 27.6562 56.7969L27.5 56.7188Z" fill="#1DE4B3"/>
<path d="M36.6406 56.25C36.7969 56.3281 36.7969 56.3281 36.7969 56.3281L36.6406 56.25Z" fill="#1AEFBE"/>
<path d="M45.8594 56.0938C46.0156 56.1719 46.0156 56.1719 46.0156 56.1719L45.8594 56.0938Z" fill="#1FEFB8"/>
<path d="M32.8125 55.9375C32.9688 56.0156 32.9688 56.0156 32.9688 56.0156L32.8125 55.9375Z" fill="#1DF3BF"/>
<path d="M46.7188 55.5469C46.875 55.625 46.875 55.625 46.875 55.625L46.7188 55.5469Z" fill="#23EEBC"/>
<path d="M23.9844 55.4688C24.1406 55.5469 24.1406 55.5469 24.1406 55.5469L23.9844 55.4688Z" fill="#1DE4B3"/>
<path d="M28.5938 55.0781C28.75 55.1562 28.75 55.1562 28.75 55.1562L28.5938 55.0781Z" fill="#1DEEBB"/>
<path d="M45.0781 54.375C45.2344 54.4531 45.2344 54.4531 45.2344 54.4531L45.0781 54.375Z" fill="#21F2BF"/>
<path d="M26.3281 54.375C26.4844 54.4531 26.4844 54.4531 26.4844 54.4531L26.3281 54.375Z" fill="#20EEBB"/>
<path d="M20.2344 53.6719C20.3906 53.75 20.3906 53.75 20.3906 53.75L20.2344 53.6719Z" fill="#1FE0AF"/>
<path d="M38.4375 52.4219C38.5938 52.5 38.5938 52.5 38.5938 52.5L38.4375 52.4219Z" fill="#1EF2C4"/>
<path d="M47.7344 52.2656C47.8906 52.3438 47.8906 52.3438 47.8906 52.3438L47.7344 52.2656Z" fill="#23DBAE"/>
<path d="M36.0156 50.625C36.1719 50.7031 36.1719 50.7031 36.1719 50.7031L36.0156 50.625Z" fill="#1EECBE"/>
<path d="M47.2656 42.3438C47.4219 42.4219 47.4219 42.4219 47.4219 42.4219L47.2656 42.3438Z" fill="#1FCEA6"/>
<path d="M43.2812 39.9219C43.4375 40 43.4375 40 43.4375 40L43.2812 39.9219Z" fill="#1FF0C3"/>
<path d="M43.125 39.8438C43.2812 39.9219 43.2812 39.9219 43.2812 39.9219L43.125 39.8438Z" fill="#1EF0C0"/>
<path d="M38.4375 38.6719C38.5938 38.75 38.5938 38.75 38.5938 38.75L38.4375 38.6719Z" fill="#1DF3C4"/>
<path d="M21.0156 38.6719C21.1719 38.75 21.1719 38.75 21.1719 38.75L21.0156 38.6719Z" fill="#1CECBB"/>
<path d="M44.1406 38.2031C44.2969 38.2812 44.2969 38.2812 44.2969 38.2812L44.1406 38.2031Z" fill="#1DF4C1"/>
<path d="M43.9844 38.125C44.1406 38.2031 44.1406 38.2031 44.1406 38.2031L43.9844 38.125Z" fill="#1DF2BD"/>
<path d="M42.6562 37.5C42.8125 37.5781 42.8125 37.5781 42.8125 37.5781L42.6562 37.5Z" fill="#1FF1C2"/>
<path d="M47.0312 37.2656C47.1875 37.3438 47.1875 37.3438 47.1875 37.3438L47.0312 37.2656Z" fill="#20F2BB"/>
<path d="M57.8125 36.0938C57.9688 36.1719 57.9688 36.1719 57.9688 36.1719L57.8125 36.0938Z" fill="#1DEBB5"/>
<path d="M57.6562 36.0156C57.8125 36.0938 57.8125 36.0938 57.8125 36.0938L57.6562 36.0156Z" fill="#1DEAB7"/>
<path d="M55.2344 35.4688C55.3906 35.5469 55.3906 35.5469 55.3906 35.5469L55.2344 35.4688Z" fill="#1CEDBC"/>
<path d="M55 35.4688C55.1562 35.5469 55.1562 35.5469 55.1562 35.5469L55 35.4688Z" fill="#1EEEBB"/>
<path d="M60.3125 35C60.4688 35.0781 60.4688 35.0781 60.4688 35.0781L60.3125 35Z" fill="#1EDBAC"/>
<path d="M58.6719 34.375C58.8281 34.4531 58.8281 34.4531 58.8281 34.4531L58.6719 34.375Z" fill="#1DE3B3"/>
<path d="M56.7188 33.8281C56.875 33.9062 56.875 33.9062 56.875 33.9062L56.7188 33.8281Z" fill="#1EE3B5"/>
<path d="M36.3281 27.8906C36.4844 27.9688 36.4844 27.9688 36.4844 27.9688L36.3281 27.8906Z" fill="#1CF3BD"/>
<path d="M41.6406 26.25C41.7969 26.3281 41.7969 26.3281 41.7969 26.3281L41.6406 26.25Z" fill="#19F3C2"/>
<path d="M32.6562 26.25C32.8125 26.3281 32.8125 26.3281 32.8125 26.3281L32.6562 26.25Z" fill="#1EF2BE"/>
<path d="M37.0312 18.5938C37.1875 18.6719 37.1875 18.6719 37.1875 18.6719L37.0312 18.5938Z" fill="#1DF5C0"/>
<path d="M40.9375 16.3281C41.0938 16.4062 41.0938 16.4062 41.0938 16.4062L40.9375 16.3281Z" fill="#1DDCAD"/>
<path d="M40.3125 16.3281C40.4688 16.4062 40.4688 16.4062 40.4688 16.4062L40.3125 16.3281Z" fill="#1CDEB1"/>
</svg>
