<svg width="80" height="80" viewBox="0 0 80 80" fill="none" xmlns="http://www.w3.org/2000/svg">
<path d="M33.5156 13.5938C33.5664 13.6211 33.6172 13.6484 33.6679 13.6758C34.957 14.3477 36.0976 15.2148 37.1875 16.1719C37.2422 16.2148 37.2929 16.2617 37.3476 16.3047C38.1328 16.9688 38.875 17.7266 39.5312 18.5156C39.6211 18.6211 39.7109 18.7227 39.8008 18.8281C39.8672 18.9063 39.9336 18.9844 40 19.0625C40.3008 18.7656 40.5898 18.4648 40.875 18.1563C40.9375 18.0859 40.9375 18.0859 41 18.0195C41.1797 17.8281 41.3398 17.6406 41.4844 17.4219C41.5351 17.4219 41.5859 17.4219 41.6406 17.4219C41.6719 17.3516 41.6719 17.3516 41.7031 17.2813C41.8047 17.0977 41.8984 17.0039 42.0625 16.8711C42.3281 16.6445 42.5781 16.4141 42.832 16.1719C43.5273 15.5234 44.3125 14.8945 45.1289 14.4102C45.3203 14.3047 45.3203 14.3047 45.4687 14.1406C45.5976 14.0703 45.7304 14.0039 45.8633 13.9414C46.1445 13.8047 46.4258 13.6641 46.6992 13.5078C47.8281 12.8789 49.3867 12.0313 50.7031 12.0313C50.7304 11.9805 50.7539 11.9297 50.7812 11.875C50.9297 11.8516 51.0742 11.832 51.2226 11.8164C51.4062 11.7969 51.5859 11.7695 51.7695 11.7422C56.0351 11.0742 60.4883 11.8086 64.0508 14.3516C64.9297 14.9922 65.8203 15.6836 66.5625 16.4844C66.5625 16.5352 66.5625 16.5859 66.5625 16.6406C66.6133 16.6406 66.664 16.6406 66.7187 16.6406C69.3476 19.418 70.8789 23.3398 71.1719 27.1094C71.1758 27.168 71.1797 27.2305 71.1875 27.293C71.5703 32.4063 70.0781 37.2852 67.4375 41.6328C67.4101 41.6758 67.3789 41.7227 67.3515 41.7695C67.0039 42.3398 66.6406 42.8945 66.25 43.4375C66.1719 43.5469 66.0937 43.6602 66.0156 43.7695C65.5586 44.4258 65.0937 45.0703 64.6094 45.7031C64.5469 45.7852 64.4844 45.8672 64.4219 45.9492C64.0508 46.4414 63.664 46.918 63.2617 47.3828C63.0742 47.6055 62.8945 47.8281 62.7304 48.0703C62.6562 48.1758 62.6562 48.1758 62.5781 48.2813C62.5273 48.2813 62.4765 48.2813 62.4219 48.2813C62.4023 48.3242 62.3828 48.3711 62.3633 48.4141C62.25 48.625 62.1094 48.7773 61.9492 48.9492C61.5234 49.4141 61.125 49.8984 60.7344 50.3945C60.6484 50.5 60.5586 50.6016 60.4687 50.7031C60.4179 50.7031 60.3672 50.7031 60.3125 50.7031C60.2929 50.75 60.2734 50.793 60.2539 50.8398C60.1445 51.0352 60.0273 51.1563 59.8672 51.3086C59.664 51.5039 59.4726 51.707 59.289 51.9219C58.9804 52.2773 58.6523 52.6094 58.3203 52.9414C58.2578 53 58.1953 53.0625 58.1328 53.1289C58.0039 53.2578 57.8711 53.3867 57.7422 53.5195C57.5429 53.7148 57.3476 53.9141 57.1484 54.1094C57.0234 54.2383 56.8945 54.3672 56.7695 54.4922C56.7109 54.5508 56.6523 54.6094 56.5898 54.668C56.2734 54.9883 55.9492 55.293 55.6054 55.582C55.3945 55.7695 55.1953 55.9688 55 56.1719C54.707 56.4688 54.4101 56.7539 54.0898 57.0273C53.9258 57.168 53.7695 57.3164 53.6133 57.4648C53.5351 57.5391 53.5351 57.5391 53.4531 57.6133C53.3476 57.7148 53.2383 57.8164 53.1328 57.9219C53.082 57.9648 53.0351 58.0117 52.9844 58.0625C52.9414 58.1055 52.8945 58.1445 52.8515 58.1914C52.7344 58.2813 52.7344 58.2813 52.5781 58.2813C52.5781 58.332 52.5781 58.3828 52.5781 58.4375C52.4804 58.5391 52.4804 58.5391 52.3359 58.6641C52.2773 58.7109 52.2187 58.7578 52.1601 58.8086C52.0937 58.8672 52.0234 58.9258 51.9531 58.9844C51.7773 59.1328 51.6054 59.2813 51.4297 59.4297C51.3828 59.4688 51.3359 59.5078 51.289 59.5508C50.914 59.8711 50.5508 60.2031 50.1914 60.5391C49.4297 61.25 49.4297 61.25 49.2187 61.25C49.2187 61.3008 49.2187 61.3516 49.2187 61.4063C48.789 61.7969 48.789 61.7969 48.5937 61.7969C48.5937 61.8477 48.5937 61.8984 48.5937 61.9531C48.4531 62.082 48.4531 62.082 48.2461 62.2461C48.1679 62.3086 48.0898 62.3711 48.0078 62.4375C47.9648 62.4727 47.9219 62.5078 47.875 62.543C47.6094 62.7539 47.3476 62.9727 47.0859 63.1875C47.0273 63.2344 46.9726 63.2813 46.914 63.3281C46.5039 63.668 46.0976 64.0117 45.6953 64.3594C45.2851 64.7109 44.8711 65.0508 44.4531 65.3906C44.3164 65.5 44.1836 65.6133 44.0469 65.7227C43.8984 65.8477 43.7461 65.9688 43.5937 66.0938C43.5234 66.1523 43.5234 66.1523 43.4492 66.2109C42.75 66.7813 42.0469 67.3477 41.3281 67.8906C41.2734 67.9336 41.2187 67.9766 41.164 68.0195C40.6914 68.3789 40.2422 68.4922 39.6601 68.4141C38.8554 68.1992 38.1406 67.4727 37.5 66.9531C37.4492 66.9102 37.3945 66.8711 37.3437 66.8281C36.9765 66.5313 36.6133 66.2344 36.25 65.9375C36.1719 65.8711 36.0898 65.8086 36.0117 65.7422C35.8711 65.6289 35.7304 65.5117 35.5898 65.3984C35.457 65.2891 35.3203 65.1797 35.1875 65.0664C34.7304 64.6992 34.2851 64.3242 33.8437 63.9414C33.5664 63.7031 33.289 63.4727 33.0078 63.2422C32.539 62.8633 32.082 62.4688 31.625 62.0742C31.4844 61.9531 31.3437 61.832 31.2031 61.7109C30.7773 61.3516 30.3554 60.9883 29.9453 60.6094C29.4844 60.1875 29.0039 59.793 28.5156 59.4063C28.4062 59.3203 28.3047 59.2305 28.2031 59.1406C28.2031 59.0898 28.2031 59.0391 28.2031 58.9844C28.1328 58.9531 28.1328 58.9531 28.0625 58.9219C27.8867 58.8281 27.7656 58.7266 27.6211 58.5898C27.5469 58.5195 27.5469 58.5195 27.4687 58.4453C27.4179 58.3945 27.3633 58.3438 27.3086 58.2891C27.1953 58.1836 27.0859 58.0781 26.9726 57.9727C26.9179 57.918 26.8594 57.8633 26.8047 57.8086C26.5703 57.5898 26.3398 57.3789 26.1015 57.1641C25.7344 56.8242 25.375 56.4727 25.0234 56.1133C24.8047 55.9023 24.582 55.7031 24.3515 55.5039C24.1953 55.3711 24.0429 55.2344 23.9062 55.0781C23.9062 55.0273 23.9062 54.9766 23.9062 54.9219C23.8633 54.9063 23.8203 54.8867 23.7773 54.8672C23.539 54.7344 23.3633 54.5547 23.1719 54.3633C23.1133 54.3008 23.1133 54.3008 23.0508 54.2422C22.9687 54.1563 22.8828 54.0703 22.8008 53.9883C22.6719 53.8594 22.5469 53.7305 22.4179 53.6055C22.0312 53.2148 21.6484 52.8203 21.2929 52.4023C21.0937 52.1758 20.8789 51.9688 20.664 51.7578C20.3515 51.4492 20.0508 51.1367 19.7656 50.8047C19.539 50.5469 19.3047 50.3008 19.0703 50.0547C18.6797 49.6367 18.3047 49.2109 17.9492 48.7617C17.8203 48.5938 17.8203 48.5938 17.6758 48.4648C17.5781 48.3594 17.5781 48.3594 17.5781 48.2031C17.5273 48.2031 17.4765 48.2031 17.4219 48.2031C17.3047 48.0781 17.3047 48.0781 17.164 47.8906C17.0781 47.7852 17.0781 47.7852 16.9961 47.6758C16.9648 47.6328 16.9336 47.5938 16.8984 47.5508C16.75 47.3594 16.5937 47.1719 16.4375 46.9844C15.5429 45.8906 14.707 44.7578 13.9062 43.5938C13.8633 43.5313 13.8203 43.4727 13.7773 43.4063C12.7734 41.9531 11.8437 40.4336 11.0937 38.8359C11.0351 38.7188 10.9804 38.6016 10.9258 38.4844C10.5234 37.6523 10.1719 36.8164 9.87888 35.9414C9.83982 35.8242 9.83982 35.8242 9.79685 35.707C9.69529 35.3906 9.60154 35.0859 9.56248 34.7539C9.54685 34.6445 9.54685 34.6445 9.53123 34.5313C9.48045 34.5039 9.42967 34.4805 9.37498 34.4531C9.33201 34.2852 9.33201 34.2852 9.29685 34.0703C9.28513 33.9922 9.26951 33.9141 9.25779 33.832C9.23826 33.7148 9.23826 33.7148 9.21873 33.5938C9.19138 33.457 9.16795 33.3242 9.1406 33.1875C8.7656 31.1719 8.68748 29.1523 8.8281 27.1094C8.83201 27.043 8.83592 26.9766 8.83982 26.9102C9.09763 22.9023 10.9023 19.1914 13.6719 16.3281C13.7578 16.2383 13.7578 16.2383 13.8476 16.1445C13.9687 16.0195 14.0937 15.8984 14.2187 15.7813C14.2695 15.7813 14.3203 15.7813 14.375 15.7813C14.375 15.7305 14.375 15.6797 14.375 15.625C14.4883 15.5078 14.4883 15.5078 14.6406 15.3828C14.6875 15.3398 14.7383 15.2969 14.7851 15.2539C14.9219 15.1563 14.9219 15.1563 15.0781 15.1563C15.0781 15.1055 15.0781 15.0547 15.0781 15C15.2617 14.8594 15.4453 14.7266 15.6406 14.6016C15.6953 14.5625 15.7539 14.5234 15.8125 14.4844C15.9844 14.3672 16.1562 14.2539 16.3281 14.1406C16.375 14.1094 16.4179 14.082 16.4687 14.0508C21.5976 10.707 28.1797 10.7813 33.5156 13.5938ZM15.7812 18.5938C15.7422 18.6289 15.7031 18.6641 15.664 18.7031C12.957 21.2734 11.9101 25.1328 11.8008 28.7461C11.7461 31.8359 12.5469 34.9219 13.9765 37.6523C14.0703 37.8242 14.1562 38 14.2461 38.1719C14.6523 38.9688 15.1054 39.7227 15.5976 40.4648C15.7344 40.6719 15.8594 40.8789 15.9844 41.0859C16.5976 42.0938 17.3047 43.0391 18.0508 43.9492C18.1679 44.0977 18.2851 44.2422 18.3984 44.3906C18.875 45.0039 19.3672 45.6016 19.8789 46.1875C20.0039 46.332 20.1289 46.4766 20.2539 46.6211C20.7031 47.1445 21.1601 47.6641 21.6328 48.168C21.9804 48.543 22.3203 48.9258 22.6484 49.3164C22.6992 49.375 22.7461 49.4336 22.7969 49.4922C22.8437 49.543 22.8867 49.5977 22.9297 49.6523C23.039 49.7852 23.039 49.7852 23.2031 49.7656C23.2226 49.8086 23.2383 49.8516 23.2578 49.8984C23.3906 50.1289 23.5586 50.2891 23.75 50.4727C23.9609 50.6758 24.1367 50.8516 24.2969 51.0938C24.3476 51.0938 24.3984 51.0938 24.4531 51.0938C24.4687 51.1367 24.4883 51.1797 24.5078 51.2227C24.6406 51.4609 24.8203 51.6367 25.0117 51.8281C25.0508 51.8672 25.0937 51.9063 25.1328 51.9492C25.2187 52.0313 25.3047 52.1172 25.3867 52.1992C25.5156 52.3281 25.6445 52.4531 25.7695 52.582C26.1601 52.9727 26.5586 53.3555 26.9765 53.7148C27.2422 53.9453 27.4804 54.2031 27.7265 54.457C27.8711 54.6289 27.8711 54.6289 28.0469 54.6094C28.0469 54.6602 28.0469 54.7109 28.0469 54.7656C28.164 54.8867 28.164 54.8867 28.3203 55.0078C28.5508 55.207 28.7734 55.4063 28.9844 55.625C29.2265 55.8711 29.4765 56.0977 29.7383 56.3242C29.9726 56.5313 30.2031 56.7422 30.4297 56.9531C30.7539 57.2539 31.0781 57.5469 31.4101 57.8359C31.5859 57.9883 31.7539 58.1406 31.9219 58.2969C32.289 58.625 32.6601 58.9453 33.0312 59.2617C33.3086 59.4961 33.5781 59.7344 33.8437 59.9766C34.1679 60.2695 34.5039 60.5469 34.8476 60.8242C35.1054 61.0391 35.3594 61.2539 35.6094 61.4766C36.0156 61.8281 36.4336 62.1641 36.8594 62.4922C37.2383 62.7852 37.6015 63.0938 37.9609 63.4102C38.1679 63.6094 38.1679 63.6094 38.4375 63.6719C38.4375 63.7227 38.4375 63.7734 38.4375 63.8281C38.5898 63.9688 38.5898 63.9688 38.7851 64.1172C38.8554 64.1719 38.9258 64.2266 39 64.2813C39.1054 64.3672 39.1054 64.3672 39.2187 64.4531C39.3515 64.5586 39.4844 64.6602 39.6172 64.7656C39.7187 64.8438 39.8203 64.9219 39.9219 65C40.2851 64.8008 40.5898 64.5508 40.9062 64.2891C40.9648 64.2422 41.0195 64.1953 41.0742 64.1484C41.1875 64.0586 41.2969 63.9688 41.4101 63.875C41.539 63.7695 41.6719 63.6602 41.8047 63.5508C42.0117 63.3828 42.2148 63.2148 42.4219 63.0469C42.4883 62.9922 42.5508 62.9414 42.6172 62.8867C42.7969 62.7422 42.9765 62.5938 43.1523 62.4492C43.2461 62.375 43.3398 62.2969 43.4297 62.2227C44.0664 61.6992 44.6992 61.1758 45.3203 60.6406C45.5898 60.4102 45.8594 60.1836 46.1328 59.9609C46.8906 59.3438 47.6289 58.707 48.3437 58.043C48.5156 57.8906 48.5156 57.8906 48.75 57.7344C48.75 57.6836 48.75 57.6328 48.75 57.5781C48.7929 57.5586 48.8359 57.543 48.8789 57.5234C49.1172 57.3906 49.3008 57.2148 49.4961 57.0313C49.582 56.9531 49.664 56.875 49.7461 56.7969C49.789 56.7578 49.832 56.7188 49.875 56.6797C50.3008 56.2852 50.7304 55.8945 51.1679 55.5117C51.4765 55.2461 51.7773 54.9688 52.0781 54.6914C52.289 54.4961 52.5039 54.3047 52.7265 54.1172C53.0898 53.8008 53.4258 53.4531 53.7617 53.1094C53.8086 53.0625 53.8554 53.0156 53.9023 52.9688C53.9414 52.9297 53.9804 52.8867 54.0234 52.8438C54.1406 52.7344 54.1406 52.7344 54.375 52.5781C54.375 52.5273 54.375 52.4766 54.375 52.4219C54.4765 52.3711 54.582 52.3203 54.6875 52.2656C54.6875 52.2148 54.6875 52.1641 54.6875 52.1094C54.7344 52.0898 54.7773 52.0703 54.8242 52.0508C55.0273 51.9375 55.1601 51.8125 55.3125 51.6406C55.3125 51.5898 55.3125 51.5391 55.3125 51.4844C55.3594 51.4648 55.4062 51.4414 55.4531 51.4219C55.8437 51.207 56.1328 50.8281 56.4219 50.4922C56.7031 50.168 57.0039 49.8672 57.3125 49.5664C57.582 49.2969 57.8359 49.0234 58.082 48.7344C58.207 48.5898 58.3398 48.4531 58.4765 48.3203C58.7656 48.0352 59.0508 47.7461 59.2969 47.4219C59.2969 47.3711 59.2969 47.3203 59.2969 47.2656C59.3476 47.2656 59.3984 47.2656 59.4531 47.2656C59.5586 47.1484 59.6601 47.0234 59.7617 46.8984C59.8554 46.7813 59.8554 46.7813 59.9531 46.6602C59.9844 46.6172 60.0195 46.5781 60.0547 46.5313C60.2226 46.3281 60.3945 46.125 60.5664 45.9219C61.5351 44.7852 62.4648 43.6211 63.3281 42.4023C63.3711 42.3438 63.414 42.2852 63.457 42.2227C63.4961 42.168 63.5312 42.1172 63.5742 42.0586C63.6054 42.0117 63.6406 41.9609 63.6758 41.9102C63.7578 41.8086 63.7578 41.8086 63.75 41.7188C63.6914 41.7188 63.6328 41.7188 63.5703 41.7188C62.1367 41.7109 60.6992 41.7031 59.2656 41.6953C58.5703 41.6914 57.875 41.6875 57.1797 41.6875C56.5742 41.6836 55.9687 41.6797 55.3633 41.6758C55.0429 41.6758 54.7226 41.6719 54.4023 41.6719C54.1015 41.6719 53.8008 41.668 53.4961 41.668C53.3867 41.6641 53.2773 41.6641 53.164 41.6641C51.7578 41.6641 51.7578 41.6641 51.2265 41.3164C50.9844 41.0625 50.8476 40.8203 50.7031 40.5039C50.6601 40.4219 50.6601 40.4219 50.6211 40.3359C50.5351 40.1602 50.4531 39.9805 50.3711 39.8047C50.3125 39.6836 50.2578 39.5664 50.1992 39.4492C49.7695 38.5391 49.7695 38.5391 49.6094 38.125C49.5586 38.125 49.5078 38.125 49.4531 38.125C49.2734 38.582 49.0937 39.0352 48.9101 39.4922C48.8515 39.6445 48.789 39.8008 48.7265 39.9531C48.3633 40.8789 48 41.8047 47.6562 42.7344C47.5625 42.9844 47.4687 43.2344 47.375 43.4805C47.3476 43.5508 47.3203 43.6172 47.2929 43.6875C47.0547 44.3203 46.8086 44.9492 46.5664 45.582C46.2773 46.3242 45.9883 47.0703 45.7031 47.8164C45.6679 47.9023 45.6328 47.9922 45.5976 48.0859C45.4258 48.5352 45.2539 48.9844 45.082 49.4336C44.9258 49.8398 44.7695 50.2422 44.6133 50.6484C44.539 50.8438 44.4648 51.0352 44.3906 51.2305C44.3476 51.3359 44.3086 51.4414 44.2656 51.5469C44.2344 51.6367 44.1992 51.7227 44.164 51.8164C43.9687 52.2266 43.6914 52.4063 43.3008 52.6133C42.8164 52.6953 42.3047 52.6875 41.8789 52.418C41.4179 52.0195 41.2656 51.4102 41.1054 50.8438C41.0859 50.7734 41.0664 50.7031 41.0429 50.6328C40.9765 50.3984 40.9101 50.168 40.8437 49.9375C40.7969 49.7695 40.75 49.6055 40.6992 49.4375C40.5976 49.082 40.4961 48.7266 40.3945 48.3711C40.2344 47.8086 40.0703 47.2461 39.9101 46.6836C39.6836 45.9063 39.4609 45.1289 39.2383 44.3555C39.0234 43.6094 38.8086 42.8672 38.5937 42.1211C38.5586 41.9922 38.5586 41.9922 38.5195 41.8594C38.4922 41.7734 38.4687 41.6875 38.4453 41.6016C37.9961 40.0469 37.5469 38.4922 37.1054 36.9375C37.0195 36.6367 36.9336 36.3359 36.8476 36.0352C36.7929 35.8516 36.7422 35.6641 36.6914 35.4805C36.6562 35.3555 36.6211 35.2344 36.5859 35.1133C36.5703 35.0586 36.5547 35 36.539 34.9414C36.4492 34.6289 36.4492 34.6289 36.25 34.375C36.2148 34.4688 36.2148 34.4688 36.1797 34.5625C35.6679 35.8906 35.1445 37.2148 34.5976 38.5313C34.4531 38.875 34.3086 39.2227 34.1719 39.5703C34.1406 39.6484 34.1094 39.7266 34.0742 39.8086C34.0156 39.9531 33.957 40.0977 33.9023 40.2461C33.5078 41.2266 33.5078 41.2266 33.0508 41.4297C33 41.4531 32.9492 41.4766 32.8984 41.5039C32.5703 41.6211 32.2539 41.6523 31.9062 41.6523C31.8203 41.6523 31.7304 41.6523 31.6445 41.6523C31.5469 41.6523 31.4531 41.6523 31.3554 41.6523C31.2539 41.6523 31.1562 41.6523 31.0508 41.6523C30.7773 41.6523 30.5 41.6523 30.2265 41.6523C30.0547 41.6523 29.8828 41.6523 29.7109 41.6523C29.1094 41.6563 28.5078 41.6563 27.9101 41.6563C27.3515 41.6563 26.7929 41.6563 26.2344 41.6563C25.7539 41.6563 25.2734 41.6602 24.7929 41.6602C24.5039 41.6602 24.2187 41.6602 23.9297 41.6602C23.6133 41.6602 23.2929 41.6602 22.9726 41.6602C22.832 41.6602 22.832 41.6602 22.6875 41.6602C22.2031 41.6602 21.789 41.625 21.3281 41.4844C21.2539 41.4609 21.1797 41.4375 21.1015 41.4141C20.8945 41.3047 20.8633 41.2383 20.7812 41.0156C20.7617 40.9727 20.7383 40.9258 20.7187 40.8828C20.5078 40.4102 20.5117 40.0195 20.6758 39.5352C20.875 39.1133 21.2187 38.9141 21.6406 38.75C21.9609 38.6953 22.2773 38.6953 22.6015 38.6992C22.6953 38.6992 22.789 38.6953 22.8867 38.6953C23.1406 38.6953 23.3984 38.6953 23.6523 38.6953C23.9179 38.6953 24.1875 38.6914 24.4531 38.6914C24.9609 38.6875 25.4648 38.6875 25.9726 38.6875C26.5469 38.6875 27.1211 38.6836 27.6992 38.6797C28.8828 38.6758 30.0664 38.6719 31.25 38.6719C31.2812 38.5938 31.3164 38.5117 31.3515 38.4297C31.4765 38.1289 31.6015 37.832 31.7265 37.5313C31.7812 37.4023 31.832 37.2734 31.8867 37.1445C32.3008 36.1484 32.7187 35.1523 33.1328 34.1563C33.2109 33.9688 33.2851 33.7813 33.3594 33.5938C33.8359 32.4102 34.3164 31.2266 34.8047 30.0469C34.8359 29.9766 34.8633 29.9023 34.8945 29.8281C35.5039 28.3594 35.5039 28.3594 35.9375 28.125C36.4414 27.9336 36.914 27.9375 37.4219 28.125C37.9648 28.5508 38.1211 29.1016 38.3008 29.7383C38.3242 29.8203 38.3476 29.9063 38.3711 29.9883C38.4453 30.2539 38.5195 30.5156 38.5937 30.7813C38.6406 30.9492 38.6875 31.1172 38.7383 31.2891C38.8828 31.8047 39.0273 32.3242 39.1719 32.8438C39.1953 32.9336 39.2226 33.0273 39.2461 33.1211C39.5664 34.2656 39.8789 35.4102 40.1758 36.5586C40.4219 37.5 40.6875 38.4375 40.9531 39.375C41.2109 40.2734 41.457 41.1758 41.6953 42.0781C41.707 42.1328 41.7226 42.1875 41.7383 42.2422C41.7578 42.3242 41.7578 42.3242 41.7812 42.4063C41.9726 43.1406 42.1719 43.875 42.375 44.6094C42.3984 44.6992 42.4219 44.793 42.4492 44.8867C42.5156 45.1328 42.5859 45.3789 42.6562 45.625C42.6758 45.7031 42.6992 45.7773 42.7187 45.8594C42.7422 45.9297 42.7617 46 42.7812 46.0742C42.7969 46.1367 42.8164 46.1992 42.8359 46.2617C42.8789 46.4219 42.8789 46.4219 43.0469 46.4844C43.6836 44.8516 44.3203 43.2188 44.9531 41.5859C45.0508 41.3438 45.1445 41.0977 45.2383 40.8555C45.4961 40.1875 45.7578 39.5156 46.0156 38.8477C46.5429 37.4805 47.0781 36.1172 47.6406 34.7617C47.707 34.5977 47.7734 34.4375 47.8398 34.2734C47.8711 34.1875 47.9062 34.1055 47.9414 34.0195C47.9726 33.9414 48.0039 33.8672 48.0351 33.7891C48.207 33.418 48.4258 33.2539 48.7734 33.0625C49.2265 32.9141 49.5781 32.8984 50.0078 33.0898C50.5195 33.375 50.7656 33.75 50.9375 34.2969C51.0508 34.4961 51.1719 34.6875 51.2929 34.8789C51.4179 35.0977 51.4844 35.3086 51.5625 35.5469C51.6523 35.7383 51.7461 35.9297 51.8398 36.1172C51.8672 36.1719 51.8945 36.2266 51.9219 36.2813C52.1601 36.7461 52.4023 37.207 52.6523 37.668C52.6797 37.7188 52.707 37.7734 52.7344 37.8242C52.7617 37.8711 52.7851 37.9141 52.8086 37.9609C52.9258 38.1914 53.0234 38.4336 53.125 38.6719C57.2226 38.6719 61.3242 38.6719 65.5469 38.6719C66.0976 37.707 66.0976 37.707 66.5664 36.7148C66.6015 36.6367 66.6328 36.5625 66.6679 36.4805C67.5859 34.3008 68.1172 31.9766 68.2031 29.6094C68.207 29.5586 68.207 29.5078 68.2109 29.4531C68.2812 27.5234 68.039 25.4844 67.3437 23.6719C67.3164 23.6445 67.2929 23.6211 67.2656 23.5938C67.2304 23.4766 67.1953 23.3594 67.164 23.2422C66.7031 21.6758 65.7461 20.2852 64.6875 19.0625C64.6445 19.0117 64.6054 18.9609 64.5625 18.9102C64.2734 18.5547 63.9414 18.2656 63.5937 17.9688C63.4883 17.875 63.3867 17.7852 63.2812 17.6914C62.9804 17.4258 62.6679 17.1875 62.3437 16.9531C62.2656 16.8945 62.2656 16.8945 62.1875 16.832C59.4726 14.8008 56.0078 14.2539 52.7148 14.6836C51.3476 14.8828 50.0742 15.2695 48.8281 15.8594C48.7734 15.8828 48.7187 15.9102 48.664 15.9375C47.1992 16.6133 45.8437 17.5547 44.7226 18.7188C44.6094 18.8281 44.6094 18.8281 44.4531 18.9063C44.4531 18.957 44.4531 19.0078 44.4531 19.0625C44.3359 19.1016 44.3359 19.1016 44.2187 19.1406C44.2187 19.1914 44.2187 19.2422 44.2187 19.2969C44.1679 19.2969 44.1172 19.2969 44.0625 19.2969C44.0625 19.3477 44.0625 19.3984 44.0625 19.4531C44.0117 19.4531 43.9609 19.4531 43.9062 19.4531C43.7929 19.5625 43.7929 19.5625 43.6719 19.7109C43.4453 19.9766 43.2148 20.2383 42.9765 20.4922C42.7226 20.7734 42.4726 21.0625 42.2304 21.3594C42.1758 21.4258 42.1172 21.4961 42.0586 21.5703C41.9609 21.6875 41.8672 21.8086 41.7734 21.9297C40.9101 23.0313 40.9101 23.0313 40.1328 23.1523C39.6914 23.1797 39.3398 23.0781 38.9844 22.8125C38.5 22.3516 38.0937 21.8203 37.6875 21.2891C37.3203 20.8164 36.914 20.3906 36.5039 19.957C36.332 19.7774 36.164 19.5899 36 19.3945C35.8398 19.207 35.6797 19.0352 35.4883 18.875C35.2539 18.6797 35.0273 18.4766 34.8047 18.2656C33.3047 16.9219 31.3554 15.6406 29.375 15.1563C29.3125 15.1406 29.2461 15.125 29.1836 15.1055C24.2617 13.8477 19.3945 14.8828 15.7812 18.5938Z" fill="#13B99E"/>
<path d="M37.6522 28.1797C38.0741 28.6523 38.2265 29.1914 38.3944 29.7891C38.4179 29.8711 38.4413 29.9531 38.4647 30.0391C38.5116 30.207 38.5585 30.375 38.6054 30.543C38.6679 30.7617 38.7304 30.9844 38.7929 31.2031C38.828 31.3281 38.8671 31.4531 38.9022 31.5781C38.9179 31.6328 38.9335 31.6914 38.953 31.75C39.0312 32.0312 39.0819 32.2851 39.0624 32.5781C38.8983 32.3359 38.8437 32.1523 38.7694 31.8711C38.7421 31.7734 38.7147 31.6797 38.6913 31.582C38.6757 31.5312 38.664 31.4805 38.6483 31.4297C38.5819 31.1719 38.5116 30.9141 38.4413 30.6562C38.4179 30.582 38.4179 30.582 38.3983 30.5039C38.2929 30.1133 38.1796 29.7226 38.0624 29.3359C38.0351 29.2461 38.0038 29.1523 37.9765 29.0586C37.8202 28.6445 37.6718 28.3984 37.2655 28.2031C36.8632 28.0859 36.4765 28.0703 36.0858 28.2187C35.6288 28.5039 35.4022 28.832 35.2108 29.3281C35.1757 29.4141 35.1757 29.4141 35.1405 29.5039C35.0624 29.6914 34.9882 29.8828 34.914 30.0742C34.8593 30.207 34.8046 30.3437 34.7499 30.4766C34.664 30.6914 34.578 30.9023 34.4921 31.1172C34.1796 31.9023 33.8554 32.6797 33.5351 33.4609C33.4413 33.6836 33.3476 33.9101 33.2538 34.1367C32.9491 34.8789 32.6366 35.6211 32.328 36.3594C32.1757 36.7148 32.0272 37.0703 31.8788 37.4258C31.8476 37.5078 31.8124 37.5859 31.7812 37.668C31.7147 37.8281 31.6483 37.9883 31.5819 38.1484C31.5507 38.2266 31.5194 38.3047 31.4843 38.3828C31.4569 38.4531 31.4296 38.5234 31.3983 38.5937C31.328 38.75 31.328 38.75 31.2499 38.8281C31.1249 38.8359 31.0038 38.8398 30.8788 38.8398C30.8007 38.8398 30.7187 38.8398 30.6366 38.8398C30.5038 38.8398 30.5038 38.8398 30.3671 38.8398C30.2772 38.8398 30.1835 38.8398 30.0897 38.8398C29.8866 38.8398 29.6835 38.8398 29.4804 38.8398C29.1601 38.8398 28.8397 38.8437 28.5194 38.8437C28.4101 38.8437 28.3007 38.8437 28.1913 38.8476C28.1366 38.8476 28.0819 38.8476 28.0272 38.8476C27.2812 38.8516 26.5351 38.8516 25.789 38.8555C25.2851 38.8555 24.7851 38.8555 24.2812 38.8594C24.0155 38.8594 23.7499 38.8633 23.4843 38.8594C23.1874 38.8594 22.8905 38.8633 22.5937 38.8633C22.5038 38.8633 22.4179 38.8633 22.328 38.8633C21.8358 38.8711 21.414 38.9101 21.0155 39.2187C20.7421 39.5781 20.6562 39.9336 20.6757 40.3828C20.7147 40.6172 20.8202 40.8086 20.9374 41.0156C20.8983 41.0937 20.8983 41.0937 20.8593 41.1719C20.5663 40.8242 20.4452 40.4961 20.4765 40.043C20.5429 39.6211 20.664 39.2891 21.0116 39.0234C21.3593 38.8008 21.6093 38.6601 22.0233 38.6641C22.1054 38.6641 22.1874 38.6641 22.2694 38.6641C22.4022 38.6641 22.4022 38.6641 22.539 38.6641C22.6796 38.6641 22.6796 38.6641 22.8241 38.6641C23.0819 38.6641 23.3397 38.6641 23.5976 38.6641C23.8671 38.6641 24.1327 38.6641 24.4022 38.6641C24.914 38.6641 25.4218 38.6641 25.9335 38.668C26.5116 38.668 27.0897 38.668 27.6718 38.668C28.8632 38.668 30.0585 38.6719 31.2499 38.6719C31.2616 38.6094 31.2733 38.5508 31.2851 38.4883C31.3241 38.293 31.3827 38.1289 31.4608 37.9453C31.4882 37.8789 31.5116 37.8164 31.5429 37.75C31.5858 37.6445 31.5858 37.6445 31.6288 37.543C31.6601 37.4687 31.6913 37.3984 31.7226 37.3242C31.8163 37.0937 31.914 36.8633 32.0116 36.6367C32.0741 36.4844 32.1405 36.332 32.203 36.1797C32.2655 36.0312 32.328 35.8828 32.3905 35.7344C32.4218 35.6641 32.453 35.5898 32.4843 35.5156C32.6093 35.2148 32.7382 34.9141 32.8671 34.6133C32.9218 34.4883 32.9218 34.4883 32.9765 34.3594C33.0038 34.293 33.0351 34.2226 33.0663 34.1523C33.1366 33.9766 33.1366 33.9766 33.1249 33.75C33.1757 33.75 33.2265 33.75 33.2812 33.75C33.2929 33.7031 33.3085 33.6562 33.3202 33.6094C33.4687 33.0898 33.6601 32.5976 33.871 32.1016C33.9413 31.9336 34.0116 31.7695 34.0819 31.6055C34.1171 31.5195 34.1522 31.4375 34.1874 31.3516C34.2968 31.0937 34.4022 30.8398 34.5077 30.582C34.5429 30.5 34.578 30.418 34.6132 30.332C34.6757 30.1758 34.7421 30.0156 34.8046 29.8594C35.4608 28.2734 35.4608 28.2734 35.9452 28.0508C36.539 27.832 37.0976 27.8594 37.6522 28.1797Z" fill="#0E8468"/>
<path d="M50.3125 33.2031C50.4609 33.3516 50.5781 33.5 50.7031 33.6719C50.7812 33.75 50.7812 33.75 50.8593 33.8281C50.8828 33.8984 50.9062 33.9648 50.9297 34.0391C51 34.2461 51.0703 34.4023 51.1797 34.5898C51.3281 34.8437 51.3281 34.8437 51.3281 35C51.3789 35.0273 51.4297 35.0508 51.4843 35.0781C51.539 35.2344 51.5898 35.3906 51.6406 35.5469C51.7304 35.7422 51.8242 35.9336 51.9218 36.125C51.9492 36.1758 51.9765 36.2305 52.0039 36.2851C52.1523 36.5742 52.3008 36.8633 52.4492 37.1523C52.4765 37.207 52.5078 37.2656 52.5351 37.3242C52.5937 37.4336 52.6484 37.543 52.707 37.6523C52.7734 37.7812 52.832 37.9141 52.8906 38.0469C52.8633 38.0976 52.8398 38.1484 52.8125 38.2031C52.4062 37.4414 52.0078 36.6797 51.6289 35.9023C51.5976 35.8359 51.5625 35.7695 51.5312 35.6992C51.3945 35.4258 51.2617 35.1523 51.1289 34.875C51.0312 34.6719 50.9297 34.4687 50.8281 34.2617C50.8008 34.2031 50.7695 34.1406 50.7383 34.0781C50.5234 33.6406 50.289 33.3476 49.8437 33.125C49.4023 33.0859 49.0273 33.0625 48.6289 33.2656C48.5664 33.3242 48.5039 33.3789 48.4375 33.4375C48.3984 33.4687 48.3633 33.5 48.3242 33.5312C48.1445 33.7383 48.0586 33.9844 47.9609 34.2383C47.9375 34.2969 47.914 34.3555 47.8906 34.4141C47.8125 34.6094 47.7383 34.8047 47.6601 35C47.6054 35.1406 47.5508 35.2773 47.4961 35.418C47.3476 35.7969 47.1953 36.1758 47.0468 36.5547C46.9531 36.8008 46.8554 37.043 46.7617 37.2851C46.0937 38.9766 45.4297 40.6719 44.7812 42.3672C44.4062 43.3437 44.0312 44.3203 43.6484 45.2969C43.5976 45.4297 43.5429 45.5625 43.4922 45.6953C43.4218 45.8789 43.3476 46.0625 43.2773 46.2461C43.2578 46.3008 43.2343 46.3555 43.2148 46.4141C43.0664 46.7891 43.0664 46.7891 42.8906 46.875C42.7539 46.4023 42.6211 45.9297 42.4843 45.457C42.4414 45.2969 42.3945 45.1367 42.3476 44.9726C42.2812 44.7422 42.2148 44.5117 42.1523 44.2812C42.1289 44.2109 42.1093 44.1367 42.0859 44.0625C42.0703 43.9961 42.0508 43.9297 42.0312 43.8594C42.0117 43.8008 41.9961 43.7422 41.9804 43.6797C41.9492 43.4961 41.9726 43.3789 42.0312 43.2031C42.375 44.2617 42.6836 45.3281 42.9687 46.4062C43.2539 45.7344 43.5234 45.0586 43.7851 44.3789C43.8789 44.1328 43.9726 43.8906 44.0703 43.6445C44.1211 43.5156 44.1718 43.3867 44.2226 43.2539C44.5312 42.4531 44.8437 41.6523 45.1562 40.8516C45.4375 40.1367 45.7187 39.418 45.9961 38.6992C46.5039 37.3828 47.0195 36.0664 47.5625 34.7578C47.6289 34.6016 47.6914 34.4375 47.7578 34.2773C47.789 34.1953 47.8203 34.1133 47.8554 34.0273C47.8867 33.9531 47.914 33.8789 47.9453 33.8047C48.1601 33.3633 48.4336 33.0898 48.8906 32.9141C49.4492 32.8359 49.8476 32.875 50.3125 33.2031Z" fill="#0D8367"/>
<path d="M62.1875 16.7969C62.543 16.9102 62.7969 17.1172 63.0781 17.3594C63.1211 17.3984 63.1641 17.4336 63.2109 17.4766C63.5352 17.7578 63.8438 18.0508 64.1406 18.3594C64.2031 18.4219 64.2656 18.4844 64.3281 18.5469C66.9883 21.207 68.3086 24.9805 68.3125 28.7148C68.3125 28.7695 68.3125 28.8242 68.3125 28.8828C68.3125 28.9414 68.3125 28.9961 68.3125 29.0586C68.3086 32.0977 68.3086 32.0977 67.8125 32.9688C67.7969 32.5 67.8555 32.0586 67.9258 31.5977C68.0195 30.9336 68.1016 30.2773 68.125 29.6094C68.1289 29.5586 68.1289 29.5078 68.1328 29.4531C68.1992 27.5664 68.0039 25.5039 67.2656 23.75C67.1875 23.7109 67.1875 23.7109 67.1094 23.6719C67.1484 23.5547 67.1484 23.5547 67.1875 23.4375C67.1523 23.2891 67.1523 23.2891 67.082 23.1328C67.0586 23.0742 67.0352 23.0156 67.0078 22.9531C66.9805 22.8867 66.9531 22.8242 66.9219 22.7578C66.8945 22.6914 66.8672 22.625 66.8398 22.5586C66.2695 21.2617 65.5039 20.1602 64.6094 19.0625C64.5742 19.0195 64.5391 18.9727 64.5039 18.9297C64.2813 18.6484 64.0312 18.418 63.7617 18.1875C63.5352 17.9961 63.3164 17.7969 63.0977 17.6016C62.9766 17.4844 62.9766 17.4844 62.8125 17.5C62.707 17.3711 62.6016 17.2422 62.5 17.1094C62.3984 17.0039 62.293 16.8984 62.1875 16.7969Z" fill="#0C7D61"/>
<path d="M21.6406 52.6562C21.6914 52.6562 21.7422 52.6562 21.7969 52.6562C21.9258 52.7852 22.0586 52.918 22.1875 53.0469C22.2383 53.0469 22.2891 53.0469 22.3438 53.0469C22.4492 53.1523 22.4492 53.1523 22.5742 53.3047C22.9375 53.7344 23.332 54.1211 23.7305 54.5156C23.8047 54.5898 23.8789 54.6641 23.9531 54.7383C24.0898 54.875 24.2266 55.0117 24.3633 55.1445C24.418 55.1992 24.4727 55.2539 24.5312 55.3125C24.5742 55.3555 24.6172 55.3984 24.6641 55.4453C24.7813 55.5625 24.8867 55.6875 24.9961 55.8164C25.5312 56.4297 26.1133 57.0039 26.7344 57.5352C26.9258 57.7031 27.1016 57.8828 27.2812 58.0664C27.4844 58.2617 27.6992 58.4453 27.9141 58.625C28.0469 58.75 28.0469 58.75 28.2031 58.9844C27.9727 58.8789 27.8047 58.7656 27.6211 58.5898C27.5703 58.543 27.5234 58.4961 27.4688 58.4453C27.3906 58.3672 27.3906 58.3672 27.3086 58.2891C27.1953 58.1836 27.0859 58.0781 26.9727 57.9727C26.8867 57.8906 26.8867 57.8906 26.8047 57.8086C26.5703 57.5898 26.3398 57.3789 26.1016 57.1641C25.7344 56.8242 25.375 56.4727 25.0234 56.1133C24.8047 55.9023 24.582 55.7031 24.3516 55.5039C24.1953 55.3711 24.043 55.2344 23.9062 55.0781C23.9062 55.0273 23.9062 54.9766 23.9062 54.9219C23.8633 54.9062 23.8203 54.8867 23.7773 54.8711C23.5352 54.7305 23.3516 54.5469 23.1562 54.3477C23.1133 54.3086 23.0742 54.2656 23.0312 54.2266C22.9453 54.1367 22.8594 54.0508 22.7734 53.9648C22.6406 53.832 22.5078 53.7031 22.375 53.5703C22.293 53.4844 22.2109 53.4023 22.125 53.3164C22.0859 53.2773 22.0469 53.2383 22.0039 53.1992C21.8281 53.0195 21.7227 52.9023 21.6406 52.6562Z" fill="#109176"/>
<path d="M14.2188 15.7812C14.2969 15.8203 14.2969 15.8203 14.375 15.8594C14.3047 15.9258 14.2383 15.9922 14.1641 16.0586C13.5665 16.6406 13.0235 17.2383 12.5274 17.9062C12.418 18.0508 12.3125 18.1914 12.2032 18.332C11.6875 19.0117 11.25 19.7109 10.8594 20.4688C10.8321 20.5195 10.8047 20.5703 10.7774 20.6211C9.83599 22.4414 9.32427 24.4609 9.06255 26.4844C9.0352 26.4844 9.01177 26.4844 8.98442 26.4844C8.95317 25.8359 9.03911 25.25 9.18364 24.6172C9.20708 24.5273 9.22661 24.4336 9.25005 24.3398C10.043 20.9844 11.7657 18.1797 14.2188 15.7812Z" fill="#0F8065"/>
<path d="M48.5156 57.8125C48.5938 57.8516 48.5938 57.8516 48.6719 57.8906C48.2461 58.3359 47.8047 58.7383 47.3242 59.1211C47.1172 59.293 46.918 59.4687 46.7188 59.6484C46.3906 59.9492 46.0469 60.2305 45.7031 60.5117C45.4375 60.7305 45.1758 60.9531 44.918 61.1758C44.5547 61.4883 44.1875 61.7969 43.8086 62.0938C43.5234 62.3242 43.2344 62.5547 42.9492 62.7891C42.8984 62.832 42.8438 62.875 42.7891 62.918C42.4844 63.168 42.1797 63.418 41.875 63.6719C41.8242 63.6445 41.7734 63.6211 41.7188 63.5938C42.1523 63.1953 42.5898 62.8125 43.0508 62.4492C43.8203 61.8359 44.5742 61.2031 45.3203 60.5625C45.5898 60.332 45.8594 60.1055 46.1328 59.8828C46.9492 59.2188 47.7422 58.5273 48.5156 57.8125Z" fill="#0C8065"/>
<path d="M54.1406 52.6562C54.1914 52.6836 54.2422 52.707 54.2969 52.7344C54.0625 52.9688 53.832 53.2031 53.5977 53.4375C53.5195 53.5195 53.4375 53.5977 53.3594 53.6758C52.9492 54.0938 52.5352 54.5 52.0898 54.8828C51.8789 55.0625 51.6758 55.2539 51.4766 55.4453C51.0625 55.8281 50.6406 56.1992 50.207 56.5625C49.9727 56.7617 49.7461 56.9648 49.5312 57.1875C49.4805 57.1602 49.4297 57.1367 49.375 57.1094C49.7773 56.6992 50.1836 56.293 50.6211 55.918C51.1641 55.4492 51.6914 54.9609 52.2227 54.4766C52.3867 54.332 52.5508 54.1875 52.7188 54.043C53.2188 53.6094 53.6758 53.125 54.1406 52.6562Z" fill="#0C8266"/>
<path d="M46.0938 13.8281C46.1445 13.8555 46.1953 13.8789 46.25 13.9062C46.207 13.9336 46.1602 13.9648 46.1172 13.9961C45.25 14.5625 44.3945 15.1289 43.5938 15.7812C43.5312 15.832 43.5312 15.832 43.4648 15.8867C42.9531 16.3047 42.4688 16.7305 42.0156 17.2109C41.875 17.3437 41.875 17.3438 41.6406 17.4219C41.7461 17.1797 41.8555 17.0391 42.0625 16.8711C42.3281 16.6445 42.5781 16.4141 42.832 16.1719C43.5273 15.5234 44.3125 14.8945 45.1289 14.4102C45.3203 14.3047 45.3203 14.3047 45.4688 14.1406C45.5703 14.082 45.6758 14.0234 45.7812 13.9688C45.8633 13.9258 45.8633 13.9258 45.9453 13.8828C45.9961 13.8633 46.043 13.8477 46.0938 13.8281Z" fill="#0D8368"/>
<path d="M62.8125 43.0469C62.8125 43.3633 62.6562 43.5156 62.4648 43.75C62.4297 43.7969 62.3945 43.8398 62.3594 43.8867C62.0195 44.3164 61.6758 44.7344 61.3281 45.1562C61.2148 45.293 61.1016 45.4336 60.9922 45.5703C60.707 45.918 60.418 46.2656 60.125 46.6055C60.0859 46.6523 60.0469 46.7031 60.0039 46.75C59.832 46.957 59.6797 47.1172 59.4531 47.2656C59.5703 46.9922 59.7344 46.8047 59.9375 46.5859C60.2109 46.2852 60.4687 45.9805 60.7148 45.6562C60.8828 45.4375 61.0586 45.2305 61.2344 45.0195C61.582 44.6055 61.9141 44.1797 62.2422 43.75C62.4258 43.5117 62.6172 43.2773 62.8125 43.0469Z" fill="#0C8166"/>
<path d="M49.4531 37.8125C49.5039 37.8906 49.5547 37.9688 49.6094 38.0469C49.5586 38.2109 49.5586 38.2109 49.457 38.4102C49.2773 38.7773 49.1172 39.1445 48.9688 39.5234C48.9492 39.5781 48.9258 39.6328 48.9062 39.6875C48.8594 39.8008 48.8164 39.9141 48.7734 40.0234C48.707 40.1953 48.6406 40.3633 48.5742 40.5352C48.5273 40.6445 48.4844 40.7578 48.4414 40.8672C48.4219 40.9219 48.3984 40.9727 48.3789 41.0273C48.2266 41.4141 48.0898 41.8008 47.957 42.1953C47.8906 42.3438 47.8906 42.3438 47.7344 42.4219C47.8906 41.8789 48.0703 41.3516 48.2773 40.8242C48.3203 40.7148 48.3203 40.7148 48.3633 40.6016C48.4531 40.3672 48.5469 40.1328 48.6367 39.8984C48.6992 39.7383 48.7617 39.5781 48.8242 39.4219C49.2852 38.2266 49.2852 38.2266 49.4531 37.8125Z" fill="#0E8365"/>
<path d="M11.9531 25.9375C11.9805 25.9375 12.0039 25.9375 12.0312 25.9375C12.0352 26.043 12.0352 26.1445 12.0352 26.25C12.0352 26.3086 12.0391 26.3672 12.0391 26.4258C12.0312 26.6484 12 26.8633 11.9727 27.0859C11.9336 27.4414 11.9258 27.8008 11.9141 28.1602C11.8945 28.6992 11.8633 29.2305 11.7969 29.7656C11.7695 29.7656 11.7461 29.7656 11.7187 29.7656C11.7187 29.3281 11.7148 28.8906 11.7148 28.4531C11.7148 28.3047 11.7148 28.1523 11.7109 28.0039C11.7109 27.7891 11.7109 27.5781 11.7109 27.3633C11.7109 27.2969 11.7109 27.2305 11.7109 27.1602C11.7109 26.7109 11.7305 26.3359 11.9531 25.9375Z" fill="#0A7C61"/>
<path d="M59.2969 47.2656C59.3477 47.293 59.3984 47.3164 59.4531 47.3438C59.043 47.8633 58.625 48.3398 58.1523 48.8008C57.9922 48.9609 57.8438 49.125 57.6953 49.2969C57.3672 49.6836 57.0039 50.0352 56.6406 50.3906C56.6406 50.1562 56.6406 50.1562 56.8281 49.9492C56.9102 49.8711 56.9922 49.7891 57.0742 49.7109C57.1602 49.6289 57.25 49.543 57.3359 49.457C57.3984 49.3984 57.3984 49.3984 57.4609 49.3359C57.6523 49.1445 57.8281 48.9375 58.0039 48.7344C58.125 48.5898 58.2578 48.4609 58.3945 48.3281C58.7266 48.0039 59.0117 47.6367 59.2969 47.2656Z" fill="#0C8166"/>
<path d="M32.8906 16.7969C33.9766 17.1875 34.9961 18.2383 35.7812 19.0625C35.5469 19.0625 35.5469 19.0625 35.4336 18.9688C35.3945 18.9219 35.3555 18.8789 35.3125 18.832C34.7578 18.2539 34.1016 17.7773 33.4648 17.293C33.2578 17.1406 33.0664 16.9844 32.8906 16.7969Z" fill="#0C7E63"/>
<path d="M38.4375 63.8281C38.6602 63.9336 38.8438 64.0508 39.0352 64.2031C39.0898 64.2461 39.1406 64.2891 39.1953 64.332C39.2461 64.375 39.3008 64.418 39.3555 64.4609C39.4102 64.5078 39.4648 64.5508 39.5195 64.5977C39.6563 64.7031 39.7891 64.8125 39.9219 64.9219C40.1523 64.7891 40.3672 64.6523 40.5703 64.4766C40.6406 64.418 40.7109 64.3594 40.7812 64.2969C40.832 64.3242 40.8828 64.3477 40.9375 64.375C40.8281 64.4766 40.7188 64.582 40.6094 64.6836C40.5508 64.7383 40.4883 64.7969 40.4258 64.8555C40.2148 65.0156 40.1094 65.0781 39.8438 65.0781C39.6367 64.9492 39.6367 64.9492 39.4219 64.7617C39.3477 64.6953 39.2734 64.6328 39.1992 64.5664C39.1289 64.5039 39.0586 64.4414 38.9844 64.375C38.875 64.2852 38.7656 64.1914 38.6562 64.1016C38.5859 64.0391 38.5117 63.9727 38.4375 63.9062C38.4375 63.8789 38.4375 63.8555 38.4375 63.8281Z" fill="#0B7F63"/>
<path d="M56.25 50.5469C56.3008 50.5469 56.3516 50.5469 56.4062 50.5469C56.2852 50.832 56.1172 51.0156 55.8984 51.2305C55.8359 51.293 55.7734 51.3555 55.7109 51.418C55.5469 51.5625 55.5469 51.5625 55.3906 51.5625C55.375 51.6055 55.3555 51.6484 55.3359 51.6914C55.2031 51.9297 55.0273 52.0938 54.8359 52.2852C54.7617 52.3555 54.6914 52.4258 54.6172 52.4961C54.5625 52.5508 54.5078 52.6016 54.4531 52.6562C54.4023 52.6289 54.3516 52.6055 54.2969 52.5781C54.543 52.2656 54.7969 52.0078 55.1016 51.75C55.4805 51.4336 55.793 51.0586 56.1133 50.6875C56.1563 50.6406 56.2031 50.5938 56.25 50.5469Z" fill="#0B8266"/>
<path d="M34.375 64.2969C35.125 64.4648 35.7188 65.1953 36.1719 65.7812C35.7969 65.6094 35.5039 65.3477 35.1875 65.082C35.125 65.0352 35.0625 64.9844 35 64.9336C34.9141 64.8594 34.9141 64.8594 34.8242 64.7891C34.7734 64.7461 34.7188 64.6992 34.6641 64.6562C34.5313 64.5312 34.5312 64.5312 34.375 64.2969Z" fill="#109276"/>
<path d="M37.1875 16.25C37.4648 16.3672 37.6445 16.5312 37.8555 16.7461C37.9219 16.8125 37.9883 16.8789 38.0547 16.9492C38.1562 17.0508 38.1562 17.0508 38.2617 17.1562C38.332 17.2266 38.4023 17.2969 38.4727 17.3711C38.6445 17.543 38.8125 17.7188 38.9844 17.8906C38.957 17.9414 38.9336 17.9922 38.9062 18.0469C38.8633 18.0039 38.8203 17.957 38.7734 17.9141C38.5742 17.7148 38.3789 17.5156 38.1797 17.3125C38.1094 17.2461 38.043 17.1758 37.9688 17.1055C37.9023 17.0391 37.8359 16.9727 37.7695 16.9023C37.707 16.8398 37.6484 16.7812 37.5859 16.7148C37.418 16.5508 37.418 16.5508 37.1875 16.4062C37.1875 16.3555 37.1875 16.3047 37.1875 16.25Z" fill="#0E8469"/>
<path d="M11.953 25.9375C11.9804 25.9375 12.0038 25.9375 12.0312 25.9375C12.039 26.3906 12.0194 26.8203 11.953 27.2656C11.8319 27.1523 11.8319 27.1523 11.7187 26.9531C11.7108 26.5781 11.7733 26.2656 11.953 25.9375Z" fill="#119A7D"/>
<path d="M34.4531 17.9688C35.0039 18.2188 35.4141 18.6719 35.7812 19.1406C35.5625 19.0391 35.3945 18.9297 35.2148 18.7656C35.1484 18.7031 35.1484 18.7031 35.082 18.6406C35.0352 18.5977 34.9883 18.5547 34.9414 18.5117C34.8945 18.4687 34.8477 18.4258 34.8008 18.3789C34.6836 18.2695 34.5664 18.1602 34.4531 18.0469C34.4531 18.0195 34.4531 17.9961 34.4531 17.9688Z" fill="#0F856A"/>
<path d="M41.4844 17.4219C41.5352 17.4219 41.5859 17.4219 41.6406 17.4219C41.5273 17.6797 41.3906 17.8477 41.1875 18.043C41.1328 18.0977 41.0742 18.1484 41.0195 18.207C40.9648 18.2578 40.9141 18.3086 40.8594 18.3594C40.7812 18.4375 40.7031 18.5156 40.625 18.5938C40.5742 18.6445 40.5234 18.6953 40.4688 18.75C40.5781 18.5078 40.7109 18.3281 40.8906 18.1289C41.0508 17.9492 41.2031 17.7695 41.3516 17.5781C41.3945 17.5273 41.4414 17.4766 41.4844 17.4219Z" fill="#0D8165"/>
<path d="M43.2812 45.7031C43.332 45.7539 43.3828 45.8047 43.4375 45.8594C43.375 46.0156 43.3125 46.168 43.25 46.3242C43.2188 46.4102 43.1836 46.4961 43.1484 46.5859C43.0469 46.7969 43.0469 46.7969 42.8906 46.875C42.8906 46.7188 42.8906 46.5664 42.8906 46.4062C42.9414 46.3789 42.9922 46.3555 43.0469 46.3281C43.1172 46.1797 43.1172 46.1797 43.1719 46.0117C43.1953 45.9531 43.2148 45.8945 43.2344 45.8359C43.25 45.793 43.2656 45.75 43.2812 45.7031Z" fill="#0E9277"/>
<path d="M42.0312 17.1094C42.0312 17.3438 42.0313 17.3438 41.8789 17.5195C41.8125 17.582 41.7461 17.6445 41.6797 17.7109C41.6133 17.7734 41.5508 17.8359 41.4805 17.9023C41.4297 17.9492 41.3789 17.9961 41.3281 18.0469C41.2773 18.0195 41.2266 17.9961 41.1719 17.9688C41.2578 17.8672 41.3398 17.7695 41.4258 17.6719C41.4727 17.6172 41.5195 17.5586 41.5703 17.5039C41.7109 17.3516 41.8594 17.2305 42.0312 17.1094Z" fill="#14C7AA"/>
<path d="M42.8906 62.7344C42.9414 62.7617 42.9922 62.7852 43.0469 62.8125C42.9648 62.9023 42.8789 62.9922 42.793 63.082C42.7461 63.1328 42.6992 63.1797 42.6484 63.2305C42.4922 63.3672 42.3906 63.4062 42.1875 63.4375C42.4062 63.1641 42.5977 62.9297 42.8906 62.7344Z" fill="#14C8A9"/>
<path d="M42.5 20.9375C42.5 21.2188 42.4492 21.2578 42.2656 21.4609C42.2227 21.5078 42.1797 21.5586 42.1328 21.6055C42.1016 21.6445 42.0664 21.6797 42.0312 21.7188C42.0312 21.4609 42.0703 21.3203 42.1875 21.0938C42.3516 20.9922 42.3516 20.9922 42.5 20.9375Z" fill="#109176"/>
<path d="M38.9844 44.2188C39.0625 44.2578 39.0625 44.2578 39.1406 44.2969C39.1133 44.3477 39.0898 44.3984 39.0625 44.4531C39.0352 44.375 39.0117 44.2969 38.9844 44.2188Z" fill="#18B699"/>
<path d="M38.8281 43.75C38.9844 43.8281 38.9844 43.8281 38.9844 43.8281L38.8281 43.75Z" fill="#16B89B"/>
<path d="M10 37.2656C10.1562 37.3438 10.1562 37.3438 10.1562 37.3438L10 37.2656Z" fill="#1DAF93"/>
<path d="M58.8281 11.875C58.9844 11.9531 58.9844 11.9531 58.9844 11.9531L58.8281 11.875Z" fill="#1CB298"/>
</svg>
