<svg width="80" height="76" viewBox="0 0 80 76" fill="none" xmlns="http://www.w3.org/2000/svg">
<path d="M21.6406 22.3355C21.7187 22.3355 21.7968 22.3355 21.875 22.3355C21.875 22.3867 21.875 22.4306 21.875 22.4817C21.9531 22.4598 22.0312 22.4305 22.1093 22.4086C22.2265 22.4013 22.3359 22.4013 22.4531 22.4086C22.5234 22.4086 22.5859 22.4086 22.6562 22.4086C22.7343 22.4159 22.8047 22.4159 22.8828 22.4159C22.9609 22.4159 23.039 22.4232 23.1172 22.4232C23.3593 22.4306 23.6015 22.4379 23.8437 22.4379C24.0078 22.4452 24.1718 22.4452 24.3359 22.4525C24.7422 22.4598 25.1406 22.4744 25.5468 22.4817C25.5703 22.4306 25.6015 22.3867 25.625 22.3355C26.6562 22.5256 26.6562 22.5256 27.0312 22.9205C27.2422 23.2496 27.3047 23.5055 27.2343 23.8785C27.125 24.2076 26.9609 24.405 26.6562 24.5878C26.2187 24.7414 25.7812 24.756 25.3203 24.756C25.2734 24.756 25.2187 24.756 25.1718 24.7634C25.0625 24.7634 24.9531 24.7634 24.8437 24.7634C24.6718 24.7634 24.5 24.7634 24.3281 24.7634C23.8359 24.7707 23.3437 24.7707 22.8515 24.7707C22.5468 24.7707 22.25 24.778 21.9453 24.778C21.8359 24.778 21.7187 24.778 21.6015 24.778C20.5234 24.778 19.5625 25.0047 18.7343 25.6994C17.7578 26.6574 17.6328 27.7324 17.6328 28.9902C17.6328 29.1218 17.6328 29.2461 17.6328 29.3705C17.6328 29.7215 17.6328 30.0725 17.6328 30.4162C17.6328 30.7965 17.6328 31.1694 17.6328 31.5497C17.6328 32.2883 17.6328 33.0196 17.6328 33.7582C17.6328 34.3578 17.6328 34.9575 17.6328 35.5571C17.6328 35.6449 17.6328 35.7253 17.6328 35.8131C17.6328 35.9886 17.6328 36.1641 17.6328 36.3396C17.6328 37.9631 17.6328 39.5865 17.6328 41.21C17.6406 42.6067 17.6328 43.9962 17.6328 45.3929C17.6328 47.0091 17.6328 48.6325 17.6328 50.2487C17.6328 50.4242 17.6328 50.5924 17.6328 50.7679C17.6328 50.8556 17.6328 50.9361 17.6328 51.0238C17.6328 51.6235 17.6328 52.2232 17.6328 52.8228C17.6328 53.5468 17.6328 54.2781 17.6328 55.0094C17.6328 55.3823 17.6328 55.7553 17.6328 56.1209C17.6328 56.4646 17.6328 56.8083 17.6328 57.1447C17.6328 57.269 17.6328 57.3933 17.6328 57.5177C17.625 58.8047 17.625 58.8047 18.0781 60.004C18.125 60.0772 18.1718 60.1576 18.2187 60.238C18.3359 60.3989 18.4453 60.5159 18.5937 60.6549C18.5937 60.7061 18.5937 60.75 18.5937 60.8011C18.6406 60.8231 18.6797 60.8377 18.7265 60.8596C18.9843 60.984 19.2187 61.1302 19.4609 61.2765C20.2031 61.6421 20.9218 61.6421 21.7422 61.6567C21.875 61.6567 22.0078 61.6567 22.1484 61.6641C23.6562 61.686 25.164 61.686 26.6718 61.686C27.0937 61.686 27.5078 61.686 27.9218 61.686C28.7343 61.686 29.5468 61.686 30.3593 61.686C31.0156 61.686 31.6797 61.686 32.3359 61.686C32.4297 61.686 32.5234 61.686 32.625 61.686C32.8125 61.686 33.0078 61.686 33.2031 61.686C34.9922 61.686 36.789 61.686 38.5781 61.686C40.1093 61.686 41.6484 61.686 43.1797 61.686C44.9687 61.686 46.7578 61.686 48.5468 61.686C48.7422 61.686 48.9297 61.686 49.125 61.686C49.2187 61.686 49.3125 61.686 49.4062 61.686C50.0625 61.686 50.7265 61.686 51.3828 61.686C52.1875 61.686 52.9843 61.686 53.789 61.686C54.2031 61.686 54.6093 61.686 55.0156 61.686C55.3906 61.686 55.7656 61.686 56.1406 61.686C56.2734 61.686 56.414 61.686 56.5468 61.686C57.4687 61.686 58.3828 61.6567 59.2968 61.6056C59.3203 61.5544 59.3515 61.5105 59.375 61.4593C59.4765 61.4666 59.4765 61.4666 59.5859 61.4739C60.0937 61.4447 60.539 61.1522 60.9218 60.845C60.9765 60.7792 61.039 60.7207 61.0937 60.6549C61.1328 60.6183 61.1718 60.5818 61.2109 60.5379C61.9843 59.7627 62.0547 58.8047 62.0468 57.7882C62.0547 57.642 62.0547 57.642 62.0547 57.4957C62.0547 57.2398 62.0547 56.9765 62.0468 56.7132C62.0468 56.428 62.0468 56.1428 62.0468 55.865C62.0547 55.3092 62.0468 54.7534 62.0468 54.1976C62.0468 53.5541 62.0468 52.9032 62.0468 52.2597C62.0468 51.1116 62.0468 49.9562 62.0468 48.808C62.0468 47.6892 62.0468 46.5703 62.0468 45.4514C62.0468 45.3491 62.0468 45.3491 62.0468 45.2467C62.0468 45.1736 62.0468 45.1077 62.0468 45.0346C62.0468 43.7622 62.0468 42.4897 62.0468 41.2173C62.0468 40.7639 62.0468 40.3178 62.0468 39.8644C62.0468 39.3159 62.0468 38.7675 62.0468 38.219C62.039 37.9411 62.039 37.6632 62.039 37.3854C62.039 37.0782 62.039 36.7784 62.039 36.4712C62.039 36.3835 62.039 36.2957 62.039 36.2007C62.039 36.0837 62.039 36.0837 62.039 35.9593C62.039 35.8862 62.039 35.8204 62.039 35.7473C62.039 35.5645 62.039 35.5645 61.9531 35.3524C62.0078 35.3524 62.0547 35.3524 62.1093 35.3524C62.1015 34.3871 62.0937 33.4145 62.0859 32.4492C62.0859 31.9958 62.0781 31.5497 62.0781 31.0963C62.0703 30.6648 62.0703 30.2334 62.0625 29.7946C62.0625 29.6337 62.0625 29.4655 62.0625 29.2973C62.0625 29.0706 62.0625 28.8366 62.0547 28.6026C62.0547 28.5368 62.0547 28.471 62.0547 28.3978C62.039 27.3302 61.7734 26.5038 60.9687 25.7213C60.1484 25.012 59.1797 24.778 58.0859 24.7853C57.914 24.7853 57.7422 24.7853 57.5703 24.7853C57.2656 24.778 56.9609 24.778 56.6562 24.778C56.1718 24.778 55.6875 24.778 55.2031 24.778C55.0312 24.778 54.8672 24.778 54.6953 24.778C53.4297 24.778 53.4297 24.778 52.9375 24.3758C52.7422 24.0467 52.6172 23.7249 52.6797 23.3447C52.7812 23.0521 52.9297 22.8108 53.2031 22.628C53.8906 22.3209 54.7812 22.3867 55.5234 22.394C55.625 22.4013 55.7343 22.4013 55.8437 22.4013C56.0703 22.4013 56.289 22.4086 56.5156 22.4086C56.7422 22.4086 56.9687 22.4159 57.1953 22.4159C59.3515 22.4232 61.1093 22.6792 62.7265 24.1491C64.0703 25.4215 64.4765 26.928 64.4765 28.6684C64.4765 28.8001 64.4765 28.9317 64.4765 29.0633C64.4765 29.4216 64.4765 29.78 64.4765 30.1383C64.4765 30.5259 64.4765 30.9135 64.4765 31.3011C64.4765 32.0616 64.4765 32.8148 64.4765 33.5754C64.4765 34.1969 64.4765 34.8112 64.4765 35.4255C64.4843 37.1806 64.4843 38.9284 64.4843 40.6761C64.4843 40.8224 64.4843 40.8224 64.4843 40.9613C64.4843 41.0564 64.4843 41.1515 64.4843 41.2465C64.4843 42.7822 64.4843 44.3106 64.4843 45.839C64.4843 47.4113 64.4922 48.9836 64.4922 50.5558C64.4922 51.4334 64.4922 52.3182 64.4922 53.2031C64.4922 53.949 64.4922 54.7022 64.4922 55.4554C64.4922 55.8357 64.4922 56.216 64.4922 56.6036C64.4922 56.9546 64.4922 57.3056 64.4922 57.6566C64.4922 57.7809 64.4922 57.9052 64.4922 58.0369C64.5078 59.7408 63.9765 61.2033 62.6953 62.4465C61.5625 63.5069 60.0703 64.07 58.4922 64.1431C58.2656 64.1504 58.0547 64.1651 57.8359 64.2089C57.6484 64.2382 57.5156 64.2309 57.3359 64.2016C57.039 64.1431 57.039 64.1431 56.7968 64.2382C56.7968 64.187 56.7968 64.1431 56.7968 64.0919C56.7422 64.1066 56.6875 64.1139 56.6328 64.1285C56.3672 64.1724 56.1406 64.1577 55.875 64.1358C55.7812 64.1285 55.6953 64.1212 55.6015 64.1139C55.5312 64.1066 55.4609 64.0992 55.3906 64.0919C55.3906 64.1651 55.3906 64.2382 55.3906 64.3113C55.3359 64.2894 55.289 64.2601 55.2343 64.2382C55.2578 64.187 55.289 64.1431 55.3125 64.0919C55.2578 64.1431 55.2109 64.187 55.1562 64.2382C55.0547 64.2162 54.9453 64.1943 54.8437 64.1651C54.789 64.1797 54.7422 64.187 54.6875 64.2016C54.5 64.2455 54.3984 64.2089 54.2187 64.1651C54.1953 64.187 54.164 64.2162 54.1406 64.2382C53.875 64.2455 53.6875 64.2455 53.4375 64.1651C53.2343 64.1943 53.2343 64.1943 53.0468 64.2382C53.0468 64.187 53.0468 64.1431 53.0468 64.0919C52.8828 64.0992 52.7187 64.1139 52.5547 64.1212C52.4609 64.1285 52.3672 64.1358 52.2734 64.1431C52.0312 64.1577 52.0312 64.1577 51.7968 64.2382C51.5625 64.2382 51.3515 64.2309 51.1172 64.2016C50.7109 64.1504 50.3125 64.1139 49.9218 64.2382C49.9218 64.187 49.9218 64.1431 49.9218 64.0919C49.8672 64.0992 49.8125 64.0992 49.7578 64.1066C49.6875 64.1139 49.6172 64.1212 49.5468 64.1285C49.4765 64.1358 49.4062 64.1431 49.3359 64.1504C49.0937 64.1724 48.8593 64.1651 48.6172 64.1651C48.5078 64.1651 48.3906 64.1577 48.2812 64.1577C48.2265 64.1577 48.1718 64.1577 48.1093 64.1577C47.8593 64.1577 47.664 64.1651 47.4218 64.2382C47.3984 64.2162 47.3672 64.187 47.3437 64.1651C47.3203 64.2162 47.289 64.2601 47.2656 64.3113C47.2109 64.3113 47.164 64.3113 47.1093 64.3113C47.0859 64.2894 47.0547 64.2601 47.0312 64.2382C46.8047 64.1724 46.6484 64.1651 46.4062 64.1651C46.2812 64.1651 46.2812 64.1651 46.1562 64.1577C46.0703 64.1577 45.9843 64.1577 45.8906 64.1577C45.7578 64.1504 45.7578 64.1504 45.6172 64.1504C45.3828 64.1431 45.3828 64.1431 45.2343 64.3113C45.0703 64.2821 45.0703 64.2821 44.9218 64.2382C44.9218 64.187 44.9218 64.1431 44.9218 64.0919C44.8672 64.0919 44.8203 64.0919 44.7656 64.0919C44.7656 64.1431 44.7656 64.187 44.7656 64.2382C44.4843 64.2455 44.25 64.2382 43.9843 64.1651C43.8281 64.1431 43.6718 64.1139 43.5156 64.0919C43.4922 64.1431 43.4609 64.187 43.4375 64.2382C43.4375 64.187 43.4375 64.1431 43.4375 64.0919C43.3593 64.0992 43.289 64.0992 43.2109 64.1066C43.1093 64.1139 43.0156 64.1212 42.9062 64.1285C42.8125 64.1358 42.7109 64.1431 42.6172 64.1504C42.2422 64.1724 41.875 64.1577 41.5 64.1285C41.414 64.1212 41.3203 64.1139 41.2265 64.1066C41.1562 64.0992 41.0859 64.0992 41.0156 64.0919C41.0156 64.1431 41.0156 64.187 41.0156 64.2382C40.9609 64.2162 40.914 64.187 40.8593 64.1651C40.6875 64.1651 40.5078 64.1651 40.3359 64.1651C39.7265 64.1724 39.125 64.1358 38.5156 64.0919C38.4922 64.1431 38.4609 64.187 38.4375 64.2382C38.4375 64.187 38.4375 64.1431 38.4375 64.0919C38.3672 64.0919 38.289 64.0992 38.2187 64.0992C37.9453 64.1066 37.6718 64.1212 37.3984 64.1285C37.2812 64.1285 37.164 64.1358 37.0468 64.1358C36.875 64.1431 36.7109 64.1504 36.539 64.1577C36.4375 64.1577 36.3359 64.1651 36.2265 64.1651C35.9375 64.1651 35.6797 64.1358 35.3906 64.0919C35.3672 64.1431 35.3359 64.187 35.3125 64.2382C35.3125 64.187 35.3125 64.1431 35.3125 64.0919C35.1328 64.0919 34.9531 64.0919 34.7656 64.0919C34.7656 64.1431 34.7656 64.187 34.7656 64.2382C34.7109 64.2162 34.664 64.187 34.6093 64.1651C34.5 64.1577 34.3906 64.1577 34.289 64.1577C34.2187 64.1577 34.1484 64.1651 34.0781 64.1651C34.0078 64.1651 33.9297 64.1651 33.8515 64.1651C33.0625 64.1724 32.2812 64.1504 31.4922 64.1285C31.4375 64.1285 31.3828 64.1285 31.3203 64.1212C31.0156 64.1139 30.7031 64.0992 30.3906 64.0919C30.3672 64.1431 30.3359 64.187 30.3125 64.2382C30.3125 64.187 30.3125 64.1431 30.3125 64.0919C29.7187 64.0919 29.125 64.0919 28.5156 64.0919C28.5156 64.1651 28.5156 64.2382 28.5156 64.3113C28.25 64.2747 28.1172 64.2309 27.8906 64.0919C27.8906 64.1431 27.8906 64.187 27.8906 64.2382C27.7343 64.2382 27.5781 64.2382 27.4218 64.2382C27.4218 64.2162 27.4218 64.187 27.4218 64.1651C27.164 64.1431 26.9062 64.1139 26.6406 64.0919C26.6172 64.1431 26.5859 64.187 26.5625 64.2382C26.5625 64.187 26.5625 64.1431 26.5625 64.0919C26.1718 64.0919 25.789 64.0919 25.3906 64.0919C25.3672 64.1431 25.3359 64.187 25.3125 64.2382C25.3125 64.187 25.3125 64.1431 25.3125 64.0919C25.2422 64.0919 25.1718 64.0992 25.1015 64.0992C24.8359 64.1066 24.5781 64.1139 24.3125 64.1212C24.2031 64.1285 24.0859 64.1285 23.9765 64.1358C22.2734 64.187 20.6797 64.2089 19.039 63.7482C18.8984 63.7117 18.8984 63.7117 18.75 63.7994C18.75 63.7263 18.75 63.6532 18.75 63.58C18.6953 63.5581 18.6406 63.5435 18.5781 63.5215C17.125 62.9438 16.1484 61.7664 15.5468 60.4355C15.2734 59.6823 15.2187 58.9656 15.2109 58.1758C15.2109 58.0808 15.2031 57.993 15.2031 57.8979C15.2031 57.6127 15.1953 57.3275 15.1875 57.0423C15.1875 56.8449 15.1875 56.6474 15.1797 56.4573C15.1718 55.9746 15.164 55.4993 15.1562 55.024C15.1328 55.024 15.1015 55.024 15.0781 55.024C15.0781 54.8997 15.0781 54.7827 15.0781 54.6583C15.1015 54.6364 15.1328 54.6071 15.1562 54.5852C15.1328 54.5852 15.1015 54.5852 15.0781 54.5852C15.0781 54.3951 15.0781 54.1976 15.0781 54.0002C15.1015 54.0002 15.1328 54.0002 15.1562 54.0002C15.1562 52.4352 15.1562 50.863 15.1562 49.2468C15.1328 49.2468 15.1015 49.2468 15.0781 49.2468C15.0781 49.1006 15.0781 48.9543 15.0781 48.808C15.1328 48.808 15.1797 48.808 15.2343 48.808C15.2265 47.9232 15.2187 47.0456 15.2109 46.1608C15.2031 45.7513 15.2031 45.3417 15.1953 44.9322C15.1953 44.5373 15.1875 44.1351 15.1797 43.7402C15.1797 43.594 15.1797 43.4404 15.1797 43.2868C15.1797 43.0821 15.1718 42.87 15.1718 42.6579C15.1718 42.5921 15.1718 42.5336 15.1718 42.4678C15.164 42.2192 15.164 42.0217 15.0781 41.7877C15.1328 41.7877 15.1797 41.7877 15.2343 41.7877C15.2109 40.0034 15.1797 38.219 15.1562 36.3762C15.1328 36.3762 15.1015 36.3762 15.0781 36.3762C15.0078 36.0398 14.9843 35.7034 14.9922 35.3597C14.9922 35.3085 14.9922 35.2573 14.9922 35.2061C14.9922 34.8551 15.0156 34.526 15.0781 34.1823C15.1015 34.1823 15.1328 34.1823 15.1562 34.1823C15.1562 34.1019 15.1562 34.0214 15.1562 33.9337C15.164 33.1731 15.164 32.4053 15.1718 31.6374C15.1797 31.2425 15.1797 30.8477 15.1797 30.4528C15.1875 30.0725 15.1875 29.6922 15.1953 29.312C15.1953 29.1657 15.1953 29.0194 15.1953 28.8732C15.2031 26.9718 15.6328 25.4215 17.0937 24.0248C18.2734 22.9351 19.8359 22.4013 21.4843 22.4086C21.5625 22.4452 21.5625 22.4452 21.6406 22.4817C21.6406 22.4306 21.6406 22.3867 21.6406 22.3355ZM15.1562 34.8405C15.1562 35.0087 15.1562 35.1769 15.1562 35.3524C15.1797 35.3524 15.2109 35.3524 15.2343 35.3524C15.2343 35.1842 15.2343 35.016 15.2343 34.8405C15.2109 34.8405 15.1797 34.8405 15.1562 34.8405ZM15.1562 35.4255C15.1562 35.5937 15.1562 35.7619 15.1562 35.9374C15.1797 35.9374 15.2109 35.9374 15.2343 35.9374C15.2343 35.7692 15.2343 35.601 15.2343 35.4255C15.2109 35.4255 15.1797 35.4255 15.1562 35.4255ZM45 64.0919C45.3125 64.1651 45.3125 64.1651 45.3125 64.1651L45 64.0919Z" fill="#78DE70"/>
<path d="M38.3671 10.0279C38.4921 10.0279 38.6092 10.0279 38.7264 10.0279C38.9842 10.0279 39.2342 10.0279 39.4842 10.0279C39.7967 10.0279 40.1171 10.0279 40.4296 10.0206C40.6796 10.0206 40.9296 10.0206 41.1717 10.0206C41.2889 10.0206 41.4061 10.0206 41.5233 10.0206C42.5624 10.0133 43.6483 10.0718 44.578 10.5544C44.6249 10.5764 44.6718 10.5983 44.7264 10.6276C45.0702 10.7958 45.3905 10.9932 45.703 11.2199C45.703 11.2711 45.703 11.315 45.703 11.3662C45.7811 11.3881 45.8592 11.4174 45.9374 11.4393C46.7342 12.2657 47.2264 13.2675 47.1717 14.401C47.0858 15.1177 46.8358 15.7685 46.4842 16.4121C46.5311 16.434 46.5702 16.4486 46.6171 16.4706C47.8983 17.0995 48.7967 18.3207 49.2264 19.5858C49.3046 19.8491 49.3671 20.105 49.4374 20.3683C49.4608 20.4634 49.4921 20.5658 49.5155 20.6608C49.5858 20.9168 49.6483 21.1727 49.7186 21.4287C49.7811 21.6919 49.8514 21.9552 49.9217 22.2258C50.0155 22.5841 50.1092 22.9498 50.2108 23.3154C50.3358 23.82 50.4686 24.3173 50.6092 24.8218C50.6483 24.9827 50.6952 25.1436 50.7342 25.3045C50.7733 25.4361 50.8124 25.5751 50.8514 25.7067C51.2108 27.0815 51.1249 28.2881 50.4061 29.546C49.6952 30.6429 48.4764 31.4766 47.1796 31.8349C46.2342 32.047 45.2655 32.0396 44.2967 32.0616C44.2967 32.0835 44.2967 32.1128 44.2967 32.1347C44.1171 32.1347 43.9296 32.1347 43.7499 32.1347C43.7264 32.1128 43.6952 32.0835 43.6717 32.0616C43.6717 32.0835 43.6717 32.1128 43.6717 32.1347C42.4452 32.1347 41.2264 32.1347 39.9999 32.1347C39.9764 32.1128 39.9452 32.0835 39.9217 32.0616C39.9217 32.0835 39.9217 32.1128 39.9217 32.1347C39.5311 32.1347 39.1483 32.1347 38.7499 32.1347C38.7499 32.0835 38.7499 32.0396 38.7499 31.9885C38.6874 31.9885 38.6249 31.9885 38.5624 31.9885C37.9608 31.9958 37.3671 32.0031 36.7655 32.0031C36.4608 32.0031 36.1561 32.0104 35.8436 32.0104C35.5467 32.0104 35.2499 32.0177 34.953 32.0177C34.8436 32.0177 34.7264 32.0177 34.6171 32.0177C33.0233 32.0396 31.578 31.6228 30.3905 30.599C29.7342 29.9994 29.3358 29.2608 28.9842 28.4783C28.9608 28.4271 28.9296 28.3832 28.9061 28.332C28.8905 28.1858 28.8749 28.0468 28.8671 27.9006C28.8514 27.608 28.8514 27.608 28.7811 27.3155C28.7421 27.1181 28.7733 26.9865 28.8202 26.789C28.8358 26.7159 28.8514 26.6354 28.8749 26.555C28.9061 26.4307 28.9061 26.4307 28.9374 26.3064C28.9686 26.1674 28.9686 26.1674 28.9999 26.0358C29.0702 25.7286 29.1405 25.4215 29.2186 25.1144C29.2342 25.0559 29.2421 25.0047 29.2577 24.9462C29.4374 24.2149 29.6171 23.4763 29.8046 22.745C29.8905 22.4232 29.9686 22.1015 30.0467 21.7797C30.1249 21.4652 30.203 21.1435 30.2889 20.829C30.3202 20.7047 30.3436 20.5877 30.3749 20.4707C30.8124 18.6864 31.7811 17.3554 33.3592 16.2658C33.328 16.2073 33.3046 16.1561 33.2733 16.0976C33.2342 16.0245 33.203 15.9513 33.1639 15.8782C33.1249 15.8051 33.0936 15.732 33.0546 15.6588C32.9686 15.4614 32.9686 15.4614 32.9686 15.242C32.8905 15.2054 32.8905 15.2054 32.8124 15.1689C32.7577 13.5673 32.9139 12.5216 34.1092 11.3223C35.3046 10.2181 36.7655 10.0279 38.3671 10.0279ZM35.6249 13.0481C35.2733 13.4357 35.1327 13.8525 35.1639 14.3571C35.2264 14.8325 35.453 15.1616 35.8202 15.4906C36.2499 15.7466 36.5936 15.7758 37.0936 15.7758C37.1952 15.7758 37.1952 15.7758 37.2967 15.7758C37.5233 15.7758 37.7499 15.7758 37.9764 15.7758C38.1327 15.7758 38.2889 15.7758 38.453 15.7831C38.7811 15.7831 39.1092 15.7831 39.4374 15.7831C39.8592 15.7831 40.2811 15.7831 40.703 15.7831C41.0311 15.7905 41.3514 15.7905 41.6796 15.7905C41.8358 15.7905 41.9921 15.7905 42.1483 15.7905C42.3592 15.7905 42.578 15.7905 42.7967 15.7905C42.8905 15.7905 42.8905 15.7905 42.9921 15.7905C43.4999 15.7831 43.9061 15.6515 44.2967 15.3371C44.6874 14.8763 44.8358 14.518 44.7655 13.9257C44.6171 13.3553 44.3046 13.0043 43.7811 12.6898C43.3202 12.4924 42.8671 12.4412 42.3671 12.4412C42.2889 12.4412 42.2889 12.4412 42.203 12.4412C42.0155 12.4412 41.8358 12.4412 41.6483 12.4412C41.5233 12.4412 41.3905 12.4412 41.2655 12.4412C40.9921 12.4412 40.7264 12.4412 40.453 12.4412C40.1171 12.4485 39.7733 12.4412 39.4296 12.4412C39.1639 12.4412 38.8983 12.4412 38.6327 12.4412C38.4999 12.4412 38.3749 12.4412 38.2499 12.4412C37.2655 12.4412 36.4374 12.4704 35.6249 13.0481ZM33.5233 19.0447C32.9608 19.7028 32.7811 20.4926 32.578 21.297C32.5467 21.414 32.5155 21.5311 32.4921 21.6481C32.4217 21.904 32.3592 22.16 32.2967 22.4159C32.1952 22.8035 32.1014 23.1911 31.9999 23.586C31.9139 23.9224 31.828 24.2661 31.7421 24.6025C31.6952 24.7707 31.6561 24.9389 31.6092 25.107C31.1405 26.7378 31.1405 26.7378 31.5624 28.332C32.0624 29.0852 32.6796 29.4801 33.5936 29.7215C34.0155 29.7727 34.4296 29.7727 34.8592 29.7653C34.9764 29.7653 35.1014 29.7653 35.2264 29.7727C35.5546 29.7727 35.8905 29.7727 36.2186 29.7653C36.5702 29.7653 36.9217 29.7653 37.2655 29.7653C37.8514 29.7653 38.4374 29.7653 39.0233 29.7653C39.703 29.7653 40.3749 29.7653 41.0546 29.7653C41.703 29.7653 42.3592 29.7653 43.0077 29.7653C43.2889 29.7653 43.5624 29.7653 43.8358 29.7653C44.1639 29.7653 44.4921 29.7653 44.8124 29.758C44.9374 29.758 45.0546 29.758 45.1717 29.758C46.2186 29.7653 47.1171 29.6191 47.8905 28.917C48.4842 28.332 48.7108 27.6519 48.6874 26.8475C48.6717 26.6574 48.6405 26.4746 48.5936 26.2844C48.5155 26.2844 48.4374 26.2844 48.3592 26.2844C48.4139 26.2625 48.4608 26.2332 48.5155 26.2113C48.4296 25.6775 48.2967 25.1509 48.1561 24.6317C48.1405 24.5659 48.1249 24.5001 48.1092 24.4269C48.0936 24.3684 48.0702 24.3099 48.0546 24.2441C48.0389 24.1856 48.0233 24.1344 48.0077 24.0759C47.9764 23.9443 47.9764 23.9443 47.8905 23.8712C47.8749 23.7542 47.8592 23.6445 47.8436 23.5275C47.7811 23.1618 47.6717 22.8108 47.578 22.4525C47.5467 22.3355 47.5467 22.3355 47.5155 22.2112C47.4921 22.1307 47.4686 22.0576 47.453 21.9771C47.4296 21.904 47.4139 21.8382 47.3905 21.7651C47.3592 21.6042 47.3592 21.6042 47.2655 21.5311C47.2421 21.4067 47.2264 21.2751 47.203 21.1508C47.0155 20.0392 46.578 19.1909 45.6014 18.5182C44.5624 17.8746 43.4764 17.9843 42.2655 18.0209C42.1014 18.0209 41.9296 18.0209 41.7655 18.0209C41.0389 18.0136 40.3202 18.0063 39.6014 18.0063C39.203 18.0063 38.8046 17.9989 38.4061 17.9989C38.0233 17.9989 37.6327 17.9916 37.2499 17.9916C37.1014 17.9916 36.953 17.9916 36.8124 17.9916C35.5233 17.977 34.4608 18.1233 33.5233 19.0447ZM42.0311 31.9885C42.0311 32.0104 42.0311 32.0396 42.0311 32.0616C42.2108 32.0616 42.3905 32.0616 42.578 32.0616C42.578 32.0396 42.578 32.0104 42.578 31.9885C42.3983 31.9885 42.2186 31.9885 42.0311 31.9885ZM42.6561 31.9885C42.6561 32.0104 42.6561 32.0396 42.6561 32.0616C42.8124 32.0616 42.9686 32.0616 43.1249 32.0616C43.1249 32.0396 43.1249 32.0104 43.1249 31.9885C42.9686 31.9885 42.8124 31.9885 42.6561 31.9885Z" fill="#77DF6F"/>
<path d="M45.2188 35.6595C45.3829 35.718 45.3829 35.718 45.5313 35.7473C45.8829 35.835 46.1954 36.0252 46.5079 36.186C46.586 36.2299 46.6641 36.2665 46.7423 36.3104C47.711 36.815 48.6094 37.3707 49.4532 38.0581C49.5626 38.1459 49.5626 38.1459 49.6798 38.241C51.3126 39.5646 52.5782 41.4294 52.7501 43.477C52.8204 45.2101 51.9376 46.7605 50.711 48.0036C50.4219 48.2815 50.2344 48.4278 49.8204 48.4643C49.3907 48.4278 49.0938 48.3327 48.7969 48.0329C48.5626 47.7038 48.5469 47.4479 48.5938 47.053C48.7579 46.6873 49.0079 46.4241 49.2891 46.1242C50.0001 45.3491 50.3594 44.5081 50.336 43.4843C50.1798 41.934 49.0157 40.5884 47.7891 39.6012C45.6876 38.0581 43.0782 37.1075 40.3907 37.0343C40.3048 37.0343 40.2266 37.027 40.1407 37.027C37.0001 36.9685 33.8985 37.9777 31.6251 40.0253C31.1798 40.4348 30.7969 40.8517 30.4688 41.3489C30.4219 41.4221 30.3751 41.4879 30.3204 41.561C29.7579 42.4239 29.4923 43.2722 29.6954 44.2814C29.9219 45.137 30.3751 45.7659 31.0157 46.4021C31.3438 46.7312 31.5079 46.9652 31.5626 47.4186C31.4923 47.7989 31.2969 48.0256 31.0157 48.2962C30.6641 48.4936 30.3204 48.5009 29.9219 48.4424C29.1251 48.0914 28.5704 47.2724 28.1251 46.5923C27.961 46.3436 27.961 46.3436 27.7579 46.1242C27.6251 45.9999 27.6094 45.9122 27.5782 45.7366C27.5235 45.4807 27.461 45.2394 27.3751 44.9907C26.9298 43.4404 27.3594 41.8755 28.1876 40.5153C28.6641 39.762 29.2813 39.1258 29.9219 38.4969C30.0001 38.4165 30.0001 38.4165 30.086 38.3287C31.5001 36.932 33.4063 35.9447 35.3438 35.3524C35.5548 35.3012 35.5548 35.3012 35.6251 35.133C35.7657 35.1111 35.7657 35.1111 35.9532 35.1037C36.4063 35.0745 36.8282 35.0014 37.2735 34.9136C39.9298 34.4237 42.6954 34.7527 45.2188 35.6595Z" fill="#78DF70"/>
<path d="M45.1719 43.221C45.4219 43.4038 45.5625 43.6232 45.625 43.9084C45.6094 44.3911 45.4688 44.669 45.1641 45.0565C45.125 45.1077 45.086 45.1589 45.0469 45.2101C44.9297 45.3637 44.8047 45.5099 44.6875 45.6635C44.6563 45.7074 44.625 45.744 44.586 45.7878C44.1407 46.3582 43.6641 46.8994 43.1719 47.4405C43.1329 47.4917 43.086 47.5356 43.0391 47.5868C42.9766 47.6599 42.9766 47.6599 42.9219 47.7257C42.8047 47.8647 42.7266 47.989 42.6563 48.1499C42.7188 48.2815 42.7188 48.2815 42.8282 48.4131C43.2032 48.9324 43.3672 49.5686 43.2813 50.1975C43.0938 51.0823 42.711 51.8283 41.9219 52.3767C41.1407 52.8374 40.25 53.0934 39.3282 52.9398C38.4219 52.7424 37.625 52.2743 37.125 51.5211C36.6407 50.6582 36.5235 49.8977 36.7969 48.9543C37.1016 48.1206 37.6719 47.5502 38.5079 47.1553C39 46.9433 39.5235 46.8628 40.0625 46.7897C40.4688 46.7312 40.7032 46.6654 41.0157 46.3948C41.0704 46.3948 41.1172 46.3948 41.1719 46.3948C41.1954 46.3509 41.2188 46.307 41.2344 46.2632C41.3204 46.1096 41.4141 45.9926 41.5313 45.861C41.5704 45.8171 41.6094 45.7732 41.6485 45.7293C41.6954 45.6781 41.7344 45.6343 41.7813 45.5831C42.2188 45.0931 42.625 44.5812 43.0157 44.062C43.586 43.3161 44.125 42.6799 45.1719 43.221ZM39.2032 49.2176C39.0079 49.4589 38.9219 49.6783 38.9063 49.9781C39.0235 50.3584 39.1641 50.5851 39.5313 50.7825C39.8594 50.8703 40.086 50.8776 40.4063 50.7752C40.6563 50.6143 40.7891 50.5119 40.9375 50.2706C41 49.9269 40.9688 49.6783 40.8125 49.3638C40.5782 49.1225 40.4063 49.0567 40.0782 48.9543C39.7344 48.9543 39.4766 49.0347 39.2032 49.2176Z" fill="#78DF6F"/>
<path d="M40.4844 38.592C40.6719 38.6944 40.8047 38.7821 40.9375 38.9357C40.9375 38.9869 40.9375 39.0308 40.9375 39.082C40.9922 39.1039 41.0391 39.1331 41.0938 39.1551C41.2578 39.4622 41.1641 39.8644 41.1562 40.1935C41.1484 40.2813 41.1484 40.3617 41.1484 40.4495C41.1172 41.2173 41.1172 41.2173 40.8594 41.5683C40.5703 41.8023 40.3047 41.9193 39.9297 41.9486C39.5547 41.9193 39.25 41.7438 38.9922 41.4952C38.8281 41.2173 38.8125 40.9394 38.8047 40.625C38.7969 40.5445 38.7969 40.4641 38.7969 40.3836C38.7891 40.2959 38.7891 40.2081 38.7812 40.1204C38.7812 40.0399 38.7812 39.9522 38.7734 39.8644C38.7656 39.6524 38.7578 39.4403 38.75 39.2282C38.8047 39.2282 38.8516 39.2282 38.9062 39.2282C38.9219 39.177 38.9453 39.1185 38.9609 39.0673C39.0859 38.8187 39.2188 38.7236 39.4531 38.5701C39.8281 38.453 40.125 38.453 40.4844 38.592Z" fill="#78DF70"/>
<path d="M34.4061 41.5683C34.703 41.7804 34.8436 42.0437 35.0155 42.3435C35.0546 42.3947 35.0858 42.4532 35.1249 42.5117C35.5077 43.1479 35.5077 43.1479 35.4686 43.6159C35.2889 43.9304 35.0936 44.1571 34.7655 44.3472C34.3358 44.4496 34.0546 44.4496 33.6717 44.2448C33.3671 44.0108 33.1718 43.7037 32.9686 43.3965C32.9296 43.3453 32.8827 43.2942 32.8436 43.243C32.5936 42.9285 32.5624 42.5629 32.6249 42.1826C32.7811 41.8243 33.0311 41.6634 33.3905 41.4659C33.7499 41.3855 34.0702 41.4367 34.4061 41.5683Z" fill="#78DF70"/>
<path d="M20.3906 64.0188C33.2266 64.0188 46.0703 64.0188 59.2969 64.0188C59.2969 64.0407 59.2969 64.07 59.2969 64.0919C59.1719 64.0992 59.1719 64.0992 59.0391 64.1066C58.9219 64.1139 58.8125 64.1212 58.6953 64.1212C58.6406 64.1285 58.5859 64.1285 58.5234 64.1358C58.2891 64.1431 58.0625 64.1651 57.8281 64.2089C57.6484 64.2382 57.5156 64.2309 57.3359 64.2016C57.0391 64.1431 57.0391 64.1431 56.7969 64.2382C56.7969 64.187 56.7969 64.1431 56.7969 64.0919C56.7422 64.1066 56.6875 64.1139 56.6328 64.1285C56.3672 64.1724 56.1406 64.1577 55.875 64.1358C55.7812 64.1285 55.6953 64.1212 55.6016 64.1139C55.5312 64.1066 55.4609 64.0992 55.3906 64.0919C55.3906 64.1651 55.3906 64.2382 55.3906 64.3113C55.3359 64.2894 55.2891 64.2601 55.2344 64.2382C55.2578 64.187 55.2891 64.1431 55.3125 64.0919C55.2578 64.1431 55.2109 64.187 55.1562 64.2382C55.0547 64.2162 54.9453 64.1943 54.8438 64.1651C54.7891 64.1797 54.7422 64.187 54.6875 64.2016C54.5 64.2455 54.3984 64.2089 54.2188 64.1651C54.1953 64.187 54.1641 64.2162 54.1406 64.2382C53.875 64.2455 53.6875 64.2455 53.4375 64.1651C53.2344 64.1943 53.2344 64.1943 53.0469 64.2382C53.0469 64.187 53.0469 64.1431 53.0469 64.0919C52.8828 64.0992 52.7188 64.1139 52.5547 64.1212C52.4141 64.1358 52.4141 64.1358 52.2734 64.1431C52.0313 64.1577 52.0312 64.1577 51.7969 64.2382C51.5625 64.2382 51.3516 64.2309 51.1172 64.2016C50.7109 64.1504 50.3125 64.1139 49.9219 64.2382C49.9219 64.187 49.9219 64.1431 49.9219 64.0919C49.8672 64.0992 49.8125 64.0992 49.7578 64.1066C49.6563 64.1212 49.6562 64.1212 49.5469 64.1285C49.4375 64.1358 49.4375 64.1358 49.3359 64.1504C49.0938 64.1724 48.8594 64.1651 48.6172 64.1651C48.5078 64.1651 48.3906 64.1577 48.2813 64.1577C48.2266 64.1577 48.1719 64.1577 48.1094 64.1577C47.8594 64.1577 47.6641 64.1651 47.4219 64.2382C47.3984 64.2162 47.3672 64.187 47.3438 64.1651C47.3203 64.2162 47.2891 64.2601 47.2656 64.3113C47.2109 64.3113 47.1641 64.3113 47.1094 64.3113C47.0859 64.2894 47.0547 64.2601 47.0313 64.2382C46.8047 64.1724 46.6484 64.1651 46.4063 64.1651C46.3281 64.1651 46.2422 64.1651 46.1563 64.1577C46.0703 64.1577 45.9844 64.1577 45.8906 64.1577C45.7969 64.1577 45.7109 64.1504 45.6172 64.1504C45.3828 64.1431 45.3828 64.1431 45.2344 64.3113C45.0703 64.2821 45.0703 64.2821 44.9219 64.2382C44.9219 64.187 44.9219 64.1431 44.9219 64.0919C44.8672 64.0919 44.8203 64.0919 44.7656 64.0919C44.7656 64.1431 44.7656 64.187 44.7656 64.2382C44.4844 64.2455 44.25 64.2382 43.9844 64.1651C43.8281 64.1431 43.6719 64.1139 43.5156 64.0919C43.4922 64.1431 43.4609 64.187 43.4375 64.2382C43.4375 64.187 43.4375 64.1431 43.4375 64.0919C43.3594 64.0992 43.2891 64.0992 43.2109 64.1066C43.1094 64.1139 43.0156 64.1212 42.9063 64.1285C42.8125 64.1358 42.7109 64.1431 42.6172 64.1504C42.2422 64.1724 41.875 64.1577 41.5 64.1285C41.4141 64.1212 41.3203 64.1139 41.2266 64.1066C41.1563 64.0992 41.0859 64.0992 41.0156 64.0919C41.0156 64.1431 41.0156 64.187 41.0156 64.2382C40.9609 64.2162 40.9141 64.187 40.8594 64.1651C40.6875 64.1651 40.5078 64.1651 40.3359 64.1651C39.7266 64.1724 39.125 64.1358 38.5156 64.0919C38.4922 64.1431 38.4609 64.187 38.4375 64.2382C38.4375 64.187 38.4375 64.1431 38.4375 64.0919C38.3672 64.0919 38.2891 64.0992 38.2188 64.0992C37.9453 64.1066 37.6719 64.1212 37.3984 64.1285C37.2813 64.1285 37.1641 64.1358 37.0469 64.1358C36.875 64.1431 36.7109 64.1504 36.5391 64.1577C36.3828 64.1577 36.3828 64.1577 36.2266 64.1651C35.9375 64.1651 35.6797 64.1358 35.3906 64.0919C35.3672 64.1431 35.3359 64.187 35.3125 64.2382C35.3125 64.187 35.3125 64.1431 35.3125 64.0919C35.1328 64.0919 34.9531 64.0919 34.7656 64.0919C34.7656 64.1431 34.7656 64.187 34.7656 64.2382C34.6875 64.2016 34.6875 64.2016 34.6094 64.1651C34.5 64.1577 34.3906 64.1577 34.2891 64.1577C34.2188 64.1577 34.1484 64.1651 34.0781 64.1651C33.9688 64.1651 33.9688 64.1651 33.8516 64.1651C33.0625 64.1724 32.2813 64.1504 31.4922 64.1285C31.4375 64.1285 31.3828 64.1285 31.3203 64.1212C31.0156 64.1139 30.7031 64.0992 30.3906 64.0919C30.3672 64.1431 30.3359 64.187 30.3125 64.2382C30.3125 64.187 30.3125 64.1431 30.3125 64.0919C29.7188 64.0919 29.125 64.0919 28.5156 64.0919C28.5156 64.1651 28.5156 64.2382 28.5156 64.3113C28.25 64.2747 28.1172 64.2309 27.8906 64.0919C27.8906 64.1431 27.8906 64.187 27.8906 64.2382C27.7344 64.2382 27.5781 64.2382 27.4219 64.2382C27.4219 64.2162 27.4219 64.187 27.4219 64.1651C27.0313 64.1285 27.0313 64.1285 26.6406 64.0919C26.6172 64.1431 26.5859 64.187 26.5625 64.2382C26.5625 64.187 26.5625 64.1431 26.5625 64.0919C26.1719 64.0919 25.7891 64.0919 25.3906 64.0919C25.3672 64.1431 25.3359 64.187 25.3125 64.2382C25.3125 64.187 25.3125 64.1431 25.3125 64.0919C25.2422 64.0919 25.1719 64.0992 25.1016 64.0992C24.8359 64.1066 24.5781 64.1139 24.3125 64.1212C24.2031 64.1285 24.0859 64.1285 23.9766 64.1358C21.8984 64.2016 21.8984 64.2016 20.8984 64.1285C20.8047 64.1212 20.7031 64.1139 20.6016 64.1066C20.5313 64.0992 20.4609 64.0992 20.3906 64.0919C20.3906 64.07 20.3906 64.0407 20.3906 64.0188ZM45 64.0919C45.3125 64.1651 45.3125 64.1651 45.3125 64.1651L45 64.0919Z" fill="#75D66A"/>
<path d="M15.2343 27.5276C15.2578 27.5276 15.289 27.5276 15.3125 27.5276C15.3125 37.9558 15.3125 48.3766 15.3125 59.1192C15.289 59.1192 15.2578 59.1192 15.2343 59.1192C15.2109 57.7663 15.1797 56.4134 15.1562 55.024C15.1328 55.024 15.1015 55.024 15.0781 55.024C15.0781 54.8997 15.0781 54.7827 15.0781 54.6583C15.1015 54.6364 15.1328 54.6072 15.1562 54.5852C15.1328 54.5852 15.1015 54.5852 15.0781 54.5852C15.0781 54.3951 15.0781 54.1976 15.0781 54.0002C15.1015 54.0002 15.1328 54.0002 15.1562 54.0002C15.1562 52.4352 15.1562 50.863 15.1562 49.2468C15.1328 49.2468 15.1015 49.2468 15.0781 49.2468C15.0781 49.1006 15.0781 48.9543 15.0781 48.8081C15.1328 48.8081 15.1797 48.8081 15.2343 48.8081C15.2265 47.9232 15.2187 47.0457 15.2109 46.1608C15.2031 45.7513 15.2031 45.3418 15.1953 44.9322C15.1953 44.5373 15.1875 44.1351 15.1797 43.7402C15.1797 43.594 15.1797 43.4404 15.1797 43.2868C15.1797 43.0821 15.1718 42.87 15.1718 42.6579C15.1718 42.5921 15.1718 42.5336 15.1718 42.4678C15.164 42.2192 15.164 42.0217 15.0781 41.7877C15.1328 41.7877 15.1797 41.7877 15.2343 41.7877C15.2109 40.0034 15.1797 38.219 15.1562 36.3762C15.1328 36.3762 15.1015 36.3762 15.0781 36.3762C15.0078 36.0398 14.9843 35.7034 14.9922 35.3597C14.9922 35.3085 14.9922 35.2573 14.9922 35.2061C14.9922 34.8551 15.0156 34.526 15.0781 34.1823C15.1015 34.1823 15.1328 34.1823 15.1562 34.1823C15.1797 31.9885 15.2109 29.7873 15.2343 27.5276ZM15.1562 34.8405C15.1562 35.0087 15.1562 35.1769 15.1562 35.3524C15.1797 35.3524 15.2109 35.3524 15.2343 35.3524C15.2343 35.1842 15.2343 35.016 15.2343 34.8405C15.2109 34.8405 15.1797 34.8405 15.1562 34.8405ZM15.1562 35.4255C15.1562 35.5937 15.1562 35.7619 15.1562 35.9374C15.1797 35.9374 15.2109 35.9374 15.2343 35.9374C15.2343 35.7692 15.2343 35.601 15.2343 35.4255C15.2109 35.4255 15.1797 35.4255 15.1562 35.4255Z" fill="#72CD69"/>
<path d="M42.8047 15.7466C42.9062 15.7466 42.9063 15.7466 43.0156 15.7466C43.0781 15.7393 43.1406 15.7393 43.2031 15.7393C43.3594 15.7539 43.3594 15.7539 43.5156 15.9002C43.4453 15.9002 43.3672 15.9002 43.2891 15.8929C43.0547 15.8855 43.0547 15.8855 42.8906 15.9733C42.7578 15.9806 42.6328 15.9806 42.5 15.9733C42.4219 15.9733 42.3359 15.9733 42.25 15.9733C42.1641 15.966 42.0781 15.966 41.9844 15.966C41.8984 15.966 41.8047 15.9587 41.7109 15.9587C41.4297 15.9514 41.1406 15.944 40.8516 15.944C40.6563 15.9367 40.4609 15.9367 40.2656 15.9294C39.7891 15.9221 39.3047 15.9075 38.8281 15.9002C38.8281 15.8782 38.8281 15.849 38.8281 15.827C39.3516 15.8197 39.8672 15.8051 40.3906 15.7978C40.5625 15.7905 40.7422 15.7905 40.9141 15.7832C41.1719 15.7832 41.4297 15.7759 41.6797 15.7685C41.7578 15.7685 41.8359 15.7685 41.9141 15.7685C42.0625 15.7612 42.2109 15.7612 42.3672 15.7539C42.5078 15.7539 42.6562 15.7539 42.8047 15.7466Z" fill="#7DE774"/>
<path d="M31.7188 28.6977C31.9375 28.7927 32.0938 28.8878 32.2578 29.0487C32.6406 29.3704 33.1172 29.4948 33.5938 29.6483C33.5938 29.6995 33.5938 29.7434 33.5938 29.7946C32.8125 29.7361 32.25 29.3778 31.7188 28.8439C31.7188 28.7927 31.7188 28.7489 31.7188 28.6977Z" fill="#7EE474"/>
<path d="M32.9688 13.2675C32.9922 13.2675 33.0234 13.2675 33.0469 13.2675C33.0469 13.3114 33.0469 13.348 33.0469 13.3919C33.0469 13.582 33.0469 13.7721 33.0391 13.955C33.0391 14.0208 33.0391 14.0866 33.0391 14.1524C33.0391 14.5692 33.0703 14.9714 33.125 15.3883C32.9688 15.1689 32.9688 15.1689 32.9688 14.8764C32.9141 14.8764 32.8672 14.8764 32.8125 14.8764C32.8047 14.6497 32.8047 14.423 32.8047 14.1963C32.8047 14.1305 32.7969 14.0647 32.7969 13.9988C32.7969 13.9403 32.7969 13.8745 32.7969 13.8087C32.7969 13.7575 32.7969 13.699 32.7969 13.6405C32.8125 13.4869 32.8125 13.4869 32.9688 13.2675Z" fill="#7FE474"/>
<path d="M48.75 26.6501C48.7734 26.6501 48.8047 26.6501 48.8281 26.6501C48.8672 27.3814 48.8672 28.0176 48.3438 28.5953C48.2734 28.6465 48.2734 28.6465 48.2031 28.6977C48.2578 28.4198 48.3359 28.1712 48.4453 27.9079C48.4688 27.8348 48.5 27.7616 48.5312 27.6885C48.5469 27.6373 48.5703 27.5861 48.5938 27.5276C48.6484 27.5276 48.6953 27.5276 48.75 27.5276C48.75 27.2351 48.75 26.9499 48.75 26.6501Z" fill="#7EE574"/>
<path d="M43.9062 17.8746C44.5156 17.8381 45.0391 17.9917 45.5469 18.3134C45.3281 18.3939 45.2422 18.3865 45.0156 18.3134C44.9297 18.2842 44.8516 18.2476 44.7734 18.211C44.4844 18.0867 44.2188 17.9917 43.9062 17.9478C43.9062 17.9258 43.9062 17.8966 43.9062 17.8746Z" fill="#7EE474"/>
<path d="M34.375 32.0616C35.3281 32.0616 36.2813 32.0616 37.2656 32.0616C37.2656 32.0835 37.2656 32.1128 37.2656 32.1347C36.3125 32.1347 35.3594 32.1347 34.375 32.1347C34.375 32.1128 34.375 32.0835 34.375 32.0616Z" fill="#7ADD71"/>
<path d="M34.9999 13.9988C35.0233 13.9988 35.0546 13.9988 35.078 13.9988C35.078 14.1451 35.078 14.2913 35.078 14.4376C35.1327 14.4376 35.1796 14.4376 35.2343 14.4376C35.2889 14.5546 35.3436 14.6716 35.3983 14.7886C35.4374 14.891 35.4374 14.891 35.4843 14.986C35.5468 15.1689 35.5468 15.1689 35.4686 15.3883C35.4061 15.2932 35.3436 15.2054 35.2811 15.1104C35.2421 15.0592 35.2108 15.008 35.1718 14.9495C34.9686 14.6277 34.9921 14.3645 34.9999 13.9988Z" fill="#7EE574"/>
<path d="M33.0469 41.6414C33.1484 41.6634 33.25 41.6926 33.3594 41.7146C32.9844 42.0071 32.9844 42.0071 32.8125 42.0071C32.8359 42.3215 32.8672 42.636 32.8906 42.9578C32.6641 42.7457 32.6719 42.5556 32.6406 42.2704C32.6641 41.9632 32.8125 41.8462 33.0469 41.6414Z" fill="#7FE474"/>
<path d="M52.5781 43.6159C52.6016 43.6159 52.6328 43.6159 52.6563 43.6159C52.6563 43.9523 52.6563 44.2887 52.6563 44.6397C52.6016 44.6397 52.5547 44.6397 52.5 44.6397C52.4766 44.786 52.4453 44.9322 52.4219 45.0785C52.3438 44.8591 52.3438 44.786 52.3906 44.5666C52.3984 44.5081 52.4063 44.4569 52.4219 44.3984C52.4297 44.3399 52.4453 44.2814 52.4531 44.2229C52.4688 44.1644 52.4766 44.1059 52.4922 44.0474C52.5156 43.9011 52.5469 43.7622 52.5781 43.6159Z" fill="#7FE675"/>
<path d="M52.2656 42.0071C52.2891 42.0583 52.3203 42.1021 52.3438 42.1533C52.3984 42.1533 52.4453 42.1533 52.5 42.1533C52.5781 42.3947 52.5859 42.614 52.5859 42.87C52.5859 42.9358 52.5781 43.0089 52.5781 43.0821C52.5781 43.1406 52.5781 43.1918 52.5781 43.2503C52.5547 43.2503 52.5234 43.2503 52.5 43.2503C52.4609 43.0821 52.4219 42.9212 52.3828 42.753C52.3516 42.614 52.3516 42.614 52.3203 42.4751C52.2656 42.2265 52.2656 42.2265 52.2656 42.0071Z" fill="#7DE474"/>
<path d="M30.4688 30.4528C30.5078 30.482 30.5469 30.5113 30.5938 30.5405C30.8828 30.7453 31.1641 30.9427 31.4844 31.1109C31.3516 31.1621 31.3516 31.1621 31.1719 31.184C30.9844 31.089 30.9844 31.089 30.7969 30.95C30.7422 30.8988 30.6797 30.855 30.6094 30.8111C30.4688 30.6721 30.4688 30.6721 30.4688 30.4528Z" fill="#7EE474"/>
<path d="M30.625 19.9954C30.7344 20.2806 30.6641 20.4926 30.5938 20.7852C30.5547 20.9095 30.5547 20.9095 30.5235 21.0411C30.5079 21.1069 30.4844 21.1727 30.4688 21.2385C30.4454 21.2385 30.4141 21.2385 30.3907 21.2385C30.3594 20.7632 30.4219 20.4268 30.625 19.9954Z" fill="#7EE474"/>
<path d="M44.375 32.0616C44.9688 32.0616 45.5625 32.0616 46.1719 32.0616C46.1719 32.0835 46.1719 32.1128 46.1719 32.1347C45.5781 32.1347 44.9844 32.1347 44.375 32.1347C44.375 32.1128 44.375 32.0835 44.375 32.0616Z" fill="#7ADC71"/>
<path d="M35.8594 12.6825C35.9141 12.7044 35.9609 12.7337 36.0156 12.7556C35.9297 12.8507 35.8438 12.9531 35.75 13.0481C35.7031 13.0993 35.6563 13.1578 35.6016 13.209C35.5391 13.2748 35.5391 13.2748 35.4688 13.3407C35.4141 13.3407 35.3672 13.3407 35.3125 13.3407C35.4375 13.0628 35.625 12.8873 35.8594 12.6825Z" fill="#7EE573"/>
<path d="M62.1094 58.9729C62.1328 58.9729 62.1641 58.9729 62.1875 58.9729C62.1484 59.2874 62.0938 59.5579 61.9531 59.8504C61.9297 59.8504 61.8984 59.8504 61.875 59.8504C61.8984 59.6311 61.9297 59.419 61.9531 59.1923C62.0078 59.1923 62.0547 59.1923 62.1094 59.1923C62.1094 59.1192 62.1094 59.046 62.1094 58.9729Z" fill="#7EE474"/>
<path d="M39.7656 38.57C39.9219 38.6432 39.9219 38.6432 39.9219 38.6432L39.7656 38.57ZM39.2969 38.6432C39.4531 38.6432 39.6094 38.6432 39.7656 38.6432C39.5391 38.8187 39.3281 38.9722 39.0625 39.0819C39.1406 38.9357 39.2187 38.7894 39.2969 38.6432Z" fill="#7DE574"/>
<path d="M38.9844 49.2468C39.0625 49.4735 39.0625 49.6052 38.9844 49.8319C38.9297 49.8319 38.8828 49.8319 38.8281 49.8319C38.8047 49.883 38.7734 49.9269 38.75 49.9781C38.8125 49.4955 38.8125 49.4955 38.9844 49.2468Z" fill="#7EE374"/>
<path d="M49.2188 46.3948C49.1016 46.6434 48.9375 46.8409 48.75 47.0529C48.7969 46.6507 48.7969 46.6507 48.9375 46.4752C49.0625 46.3948 49.0625 46.3948 49.2188 46.3948Z" fill="#7EE574"/>
<path d="M44.8438 13.9257C44.8672 13.9257 44.8984 13.9257 44.9219 13.9257C44.9297 14.0427 44.9297 14.1597 44.9375 14.2767C44.9375 14.3718 44.9375 14.3718 44.9453 14.4668C44.9141 14.6862 44.8438 14.7886 44.6875 14.9495C44.6875 14.8252 44.6875 14.7082 44.6875 14.5838C44.7109 14.5619 44.7422 14.5327 44.7656 14.5107C44.7813 14.4157 44.7969 14.3133 44.8125 14.2109C44.8203 14.1158 44.8359 14.0208 44.8438 13.9257Z" fill="#80E776"/>
<path d="M43.2031 10.2693C43.4375 10.2693 43.6641 10.2693 43.9062 10.2693C43.9062 10.3204 43.9062 10.3643 43.9062 10.4155C43.9609 10.4375 44.0078 10.4667 44.0625 10.4886C43.7266 10.4521 43.5078 10.4155 43.2031 10.2693Z" fill="#7FE573"/>
<path d="M31.328 18.3134C31.3515 18.3646 31.3827 18.4085 31.4062 18.4597C31.3437 18.584 31.3437 18.584 31.2577 18.7229C31.203 18.8034 31.1484 18.8911 31.0937 18.9716C31.0234 18.7888 31.0077 18.7083 31.078 18.5182C31.1718 18.3865 31.1718 18.3865 31.328 18.3134Z" fill="#7FE374"/>
<path d="M37.3438 32.0616C37.7344 32.0616 38.1172 32.0616 38.5156 32.0616C38.5156 32.0835 38.5156 32.1128 38.5156 32.1347C38.125 32.1347 37.7422 32.1347 37.3438 32.1347C37.3438 32.1128 37.3438 32.0835 37.3438 32.0616Z" fill="#7ADD72"/>
<path d="M15.0781 49.9781C15.1016 49.9781 15.1328 49.9781 15.1563 49.9781C15.1563 50.3145 15.1563 50.6509 15.1563 51.0019C15.1328 51.0019 15.1016 51.0019 15.0781 51.0019C15.0781 50.6655 15.0781 50.3291 15.0781 49.9781Z" fill="#77D26E"/>
<path d="M15.0781 45.6635C15.1016 45.6635 15.1328 45.6635 15.1563 45.6635C15.1563 45.8829 15.1563 46.095 15.1563 46.3217C15.1328 46.3217 15.1016 46.3217 15.0781 46.3217C15.0781 46.1023 15.0781 45.8902 15.0781 45.6635Z" fill="#77D26D"/>
<path d="M33.6719 64.165C33.8281 64.165 33.9844 64.165 34.1406 64.165C34.0859 64.2165 34.0391 64.2607 33.9844 64.3122C33.8828 64.2607 33.7812 64.2165 33.6719 64.165Z" fill="#76D16A"/>
<path d="M31.1719 64.165C31.3281 64.165 31.4844 64.165 31.6406 64.165C31.5859 64.2165 31.5391 64.2607 31.4844 64.3122C31.3828 64.2607 31.2812 64.2165 31.1719 64.165Z" fill="#76D16A"/>
<path d="M15 56.9985C15.0547 56.9985 15.1016 56.9985 15.1562 56.9985C15.1562 57.1447 15.1562 57.291 15.1562 57.4372C15.1328 57.4372 15.1016 57.4372 15.0781 57.4372C15.0547 57.291 15.0234 57.1447 15 56.9985Z" fill="#76CE6C"/>
<path d="M15.0781 51.7332C15.1016 51.7332 15.1328 51.7332 15.1563 51.7332C15.1563 51.9014 15.1563 52.0696 15.1563 52.2451C15.1328 52.2451 15.1016 52.2451 15.0781 52.2451C15.0781 52.0769 15.0781 51.9087 15.0781 51.7332Z" fill="#78D16D"/>
<path d="M15.0781 38.2775C15.1016 38.2775 15.1328 38.2775 15.1563 38.2775C15.1563 38.4457 15.1563 38.6139 15.1563 38.7894C15.1328 38.7894 15.1016 38.7894 15.0781 38.7894C15.0781 38.6212 15.0781 38.453 15.0781 38.2775Z" fill="#77D16E"/>
<path d="M15.0781 37.6925C15.1016 37.6925 15.1328 37.6925 15.1563 37.6925C15.1563 37.8607 15.1563 38.0289 15.1563 38.2044C15.1328 38.2044 15.1016 38.2044 15.0781 38.2044C15.0781 38.0362 15.0781 37.868 15.0781 37.6925Z" fill="#77D16F"/>
<path d="M33.75 32.0616C33.9297 32.0616 34.1094 32.0616 34.2969 32.0616C34.2969 32.0835 34.2969 32.1128 34.2969 32.1347C34.1172 32.1347 33.9375 32.1347 33.75 32.1347C33.75 32.1128 33.75 32.0835 33.75 32.0616Z" fill="#7ADD72"/>
<path d="M36.7969 64.165C36.9531 64.165 37.1094 64.165 37.2656 64.165C37.2656 64.187 37.2656 64.2162 37.2656 64.2382C37.1094 64.2382 36.9531 64.2382 36.7969 64.2382C36.7969 64.2162 36.7969 64.187 36.7969 64.165Z" fill="#75D269"/>
<path d="M33.0469 64.165C33.2031 64.165 33.3594 64.165 33.5156 64.165C33.5156 64.187 33.5156 64.2162 33.5156 64.2382C33.3594 64.2382 33.2031 64.2382 33.0469 64.2382C33.0469 64.2162 33.0469 64.187 33.0469 64.165Z" fill="#76D26A"/>
<path d="M15.0781 52.9033C15.1016 52.9033 15.1328 52.9033 15.1563 52.9033C15.1563 53.0495 15.1563 53.1958 15.1563 53.342C15.1328 53.342 15.1016 53.342 15.0781 53.342C15.0781 53.1958 15.0781 53.0495 15.0781 52.9033Z" fill="#77D16E"/>
<path d="M15.0781 52.3182C15.1016 52.3182 15.1328 52.3182 15.1563 52.3182C15.1563 52.4645 15.1563 52.6108 15.1563 52.757C15.1328 52.757 15.1016 52.757 15.0781 52.757C15.0781 52.6108 15.0781 52.4645 15.0781 52.3182Z" fill="#77D16E"/>
<path d="M15.0781 42.9578C15.1016 42.9578 15.1328 42.9578 15.1563 42.9578C15.1563 43.104 15.1563 43.2503 15.1563 43.3965C15.1328 43.3965 15.1016 43.3965 15.0781 43.3965C15.0781 43.2503 15.0781 43.104 15.0781 42.9578Z" fill="#78D26E"/>
<path d="M15.0781 36.5224C15.1016 36.5224 15.1328 36.5224 15.1563 36.5224C15.1563 36.6687 15.1563 36.8149 15.1563 36.9612C15.1328 36.9612 15.1016 36.9612 15.0781 36.9612C15.0781 36.8149 15.0781 36.6687 15.0781 36.5224Z" fill="#77D16E"/>
<path d="M15.0781 33.6704C15.1016 33.6704 15.1328 33.6704 15.1563 33.6704C15.1563 33.8167 15.1563 33.9629 15.1563 34.1092C15.1328 34.1092 15.1016 34.1092 15.0781 34.1092C15.0781 33.9629 15.0781 33.8167 15.0781 33.6704Z" fill="#76D16E"/>
<path d="M15.0781 30.6721C15.1016 30.6721 15.1328 30.6721 15.1563 30.6721C15.1563 30.8184 15.1563 30.9647 15.1563 31.1109C15.1328 31.1109 15.1016 31.1109 15.0781 31.1109C15.0781 30.9647 15.0781 30.8184 15.0781 30.6721Z" fill="#75CF6D"/>
<path d="M43.75 18.094C43.9062 18.094 44.0625 18.094 44.2188 18.094C44.2188 18.116 44.2188 18.1452 44.2188 18.1672C44.0625 18.1672 43.9062 18.1672 43.75 18.1672C43.75 18.1452 43.75 18.116 43.75 18.094Z" fill="#7AD971"/>
<path d="M29.375 64.165C29.5 64.165 29.6328 64.165 29.7656 64.165C29.7656 64.187 29.7656 64.2162 29.7656 64.2382C29.6406 64.2382 29.5078 64.2382 29.375 64.2382C29.375 64.2162 29.375 64.187 29.375 64.165Z" fill="#76D36A"/>
<path d="M23.75 64.165C23.8516 64.165 23.9531 64.165 24.0625 64.165C24.0391 64.2165 24.0078 64.2607 23.9844 64.3122C23.9063 64.2607 23.8281 64.2165 23.75 64.165Z" fill="#75D169"/>
<path d="M61.9531 51.8063C61.9766 51.8063 62.0078 51.8063 62.0312 51.8063C62.0312 51.9233 62.0312 52.0477 62.0312 52.172C62.0078 52.172 61.9766 52.172 61.9531 52.172C61.9531 52.055 61.9531 51.9307 61.9531 51.8063Z" fill="#79D670"/>
<path d="M15.0781 49.4662C15.1016 49.4662 15.1328 49.4662 15.1563 49.4662C15.1563 49.5832 15.1563 49.7075 15.1563 49.8318C15.1328 49.8318 15.1016 49.8318 15.0781 49.8318C15.0781 49.7148 15.0781 49.5905 15.0781 49.4662Z" fill="#77D16E"/>
<path d="M15.0781 48.2961C15.1016 48.2961 15.1328 48.2961 15.1563 48.2961C15.1563 48.4131 15.1563 48.5375 15.1563 48.6618C15.1328 48.6618 15.1016 48.6618 15.0781 48.6618C15.0781 48.5448 15.0781 48.4205 15.0781 48.2961Z" fill="#77D16E"/>
<path d="M41.1719 39.3745C41.1953 39.3745 41.2266 39.3745 41.25 39.3745C41.25 39.4915 41.25 39.6158 41.25 39.7401C41.2266 39.7401 41.1953 39.7401 41.1719 39.7401C41.1719 39.6231 41.1719 39.4988 41.1719 39.3745Z" fill="#78DA70"/>
<path d="M15.0781 33.0123C15.1016 33.0123 15.1328 33.0123 15.1563 33.0123C15.1563 33.1293 15.1563 33.2536 15.1563 33.3779C15.1328 33.3779 15.1016 33.3779 15.0781 33.3779C15.0781 33.2609 15.0781 33.1366 15.0781 33.0123Z" fill="#76D06E"/>
<path d="M15.0781 29.5752C15.1016 29.5752 15.1328 29.5752 15.1563 29.5752C15.1563 29.6922 15.1563 29.8165 15.1563 29.9409C15.1328 29.9409 15.1016 29.9409 15.0781 29.9409C15.0781 29.8239 15.0781 29.6995 15.0781 29.5752Z" fill="#76D06D"/>
<path d="M28.75 26.4307C28.7734 26.4307 28.8047 26.4307 28.8281 26.4307C28.8281 26.5477 28.8281 26.672 28.8281 26.7963C28.8047 26.7963 28.7734 26.7963 28.75 26.7963C28.75 26.6793 28.75 26.555 28.75 26.4307Z" fill="#7AD970"/>
<path d="M58.9844 22.3355C59.1094 22.3355 59.2422 22.3355 59.375 22.3355C59.375 22.3574 59.375 22.3867 59.375 22.4086C59.25 22.4086 59.1172 22.4086 58.9844 22.4086C58.9844 22.3867 58.9844 22.3574 58.9844 22.3355Z" fill="#75CE6B"/>
<path d="M41.5625 18.094C41.6875 18.094 41.8203 18.094 41.9531 18.094C41.9531 18.116 41.9531 18.1452 41.9531 18.1672C41.8281 18.1672 41.6953 18.1672 41.5625 18.1672C41.5625 18.1452 41.5625 18.116 41.5625 18.094Z" fill="#79D871"/>
<path d="M49.375 64.165C49.6875 64.2382 49.6875 64.2382 49.6875 64.2382L49.375 64.165Z" fill="#76D169"/>
<path d="M38.75 64.165C39.0625 64.2382 39.0625 64.2382 39.0625 64.2382L38.75 64.165Z" fill="#76D36A"/>
<path d="M38.0469 64.165C38.3594 64.2382 38.3594 64.2382 38.3594 64.2382L38.0469 64.165Z" fill="#76D26A"/>
<path d="M22.5 64.165C22.8125 64.2382 22.8125 64.2382 22.8125 64.2382L22.5 64.165Z" fill="#76D16A"/>
<path d="M20.625 64.165C20.9375 64.2382 20.9375 64.2382 20.9375 64.2382L20.625 64.165Z" fill="#72CE69"/>
<path d="M15.1562 59.3386C15.2344 59.6311 15.2344 59.6311 15.2344 59.6311L15.1562 59.3386Z" fill="#72CA68"/>
<path d="M15 58.1685C15.0547 58.1685 15.1016 58.1685 15.1562 58.1685C15.1328 58.2416 15.1016 58.3148 15.0781 58.3879C15.0547 58.3148 15.0234 58.2416 15 58.1685Z" fill="#74CD6C"/>
<path d="M40 49.1006C40.3125 49.1737 40.3125 49.1737 40.3125 49.1737L40 49.1006Z" fill="#7ADC71"/>
<path d="M15.0781 46.6142C15.1563 46.9067 15.1563 46.9067 15.1563 46.9067L15.0781 46.6142Z" fill="#77D26E"/>
<path d="M15.0781 45.2979C15.1563 45.5904 15.1563 45.5904 15.1563 45.5904L15.0781 45.2979Z" fill="#78D26F"/>
<path d="M15.0781 42.2996C15.1563 42.5921 15.1563 42.5921 15.1563 42.5921L15.0781 42.2996Z" fill="#78D26E"/>
<path d="M39.375 41.934C39.6875 42.0071 39.6875 42.0071 39.6875 42.0071L39.375 41.934Z" fill="#7BDA70"/>
<path d="M41.1719 39.8864C41.25 40.1789 41.25 40.1789 41.25 40.1789L41.1719 39.8864Z" fill="#77D970"/>
<path d="M58.3594 64.165C58.5937 64.2382 58.5938 64.2382 58.5938 64.2382L58.3594 64.165Z" fill="#74CE68"/>
<path d="M56.1719 64.165C56.4062 64.2382 56.4062 64.2382 56.4062 64.2382L56.1719 64.165Z" fill="#75D069"/>
<path d="M55.5469 64.165C55.7812 64.2382 55.7812 64.2382 55.7812 64.2382L55.5469 64.165Z" fill="#76D16A"/>
<path d="M52.4219 64.165C52.6562 64.2382 52.6562 64.2382 52.6562 64.2382L52.4219 64.165Z" fill="#75D169"/>
<path d="M50.5469 64.165C50.7812 64.2382 50.7812 64.2382 50.7812 64.2382L50.5469 64.165Z" fill="#76D169"/>
<path d="M46.1719 64.165C46.4062 64.2382 46.4062 64.2382 46.4062 64.2382L46.1719 64.165Z" fill="#75D16A"/>
<path d="M45.5469 64.165C45.7812 64.2382 45.7812 64.2382 45.7812 64.2382L45.5469 64.165Z" fill="#77D26A"/>
<path d="M43.0469 64.165C43.2812 64.2382 43.2812 64.2382 43.2812 64.2382L43.0469 64.165Z" fill="#78D26C"/>
<path d="M42.4219 64.165C42.6562 64.2382 42.6562 64.2382 42.6562 64.2382L42.4219 64.165Z" fill="#76D26A"/>
<path d="M39.2969 64.165C39.5312 64.2382 39.5312 64.2382 39.5312 64.2382L39.2969 64.165Z" fill="#76D26A"/>
<path d="M37.4219 64.165C37.6562 64.2382 37.6562 64.2382 37.6562 64.2382L37.4219 64.165Z" fill="#76D26A"/>
<path d="M34.9219 64.165C35.1562 64.2382 35.1562 64.2382 35.1562 64.2382L34.9219 64.165Z" fill="#77D36B"/>
<path d="M34.2969 64.165C34.5312 64.2382 34.5312 64.2382 34.5312 64.2382L34.2969 64.165Z" fill="#76D26A"/>
<path d="M32.4219 64.165C32.6562 64.2382 32.6562 64.2382 32.6562 64.2382L32.4219 64.165Z" fill="#77D16B"/>
<path d="M31.7969 64.165C32.0312 64.2382 32.0312 64.2382 32.0312 64.2382L31.7969 64.165Z" fill="#77D26A"/>
<path d="M30.5469 64.165C30.7812 64.2382 30.7812 64.2382 30.7812 64.2382L30.5469 64.165Z" fill="#76D26B"/>
<path d="M29.9219 64.165C30.1562 64.2382 30.1562 64.2382 30.1562 64.2382L29.9219 64.165Z" fill="#77D36B"/>
<path d="M28.6719 64.165C28.9062 64.2382 28.9062 64.2382 28.9062 64.2382L28.6719 64.165Z" fill="#76D26B"/>
<path d="M26.7969 64.165C27.0312 64.2382 27.0312 64.2382 27.0312 64.2382L26.7969 64.165Z" fill="#76D26A"/>
<path d="M25.8594 64.165C25.9141 64.165 25.9609 64.165 26.0156 64.165C25.9922 64.2165 25.9609 64.2607 25.9375 64.3122C25.9141 64.2607 25.8828 64.2165 25.8594 64.165Z" fill="#76D16A"/>
<path d="M25.5469 64.165C25.7812 64.2382 25.7812 64.2382 25.7812 64.2382L25.5469 64.165Z" fill="#76D26A"/>
<path d="M24.9219 64.165C25.1562 64.2382 25.1562 64.2382 25.1562 64.2382L24.9219 64.165Z" fill="#76D26A"/>
<path d="M24.2969 64.165C24.5312 64.2382 24.5312 64.2382 24.5312 64.2382L24.2969 64.165Z" fill="#75D06A"/>
<path d="M21.7969 64.165C22.0312 64.2382 22.0312 64.2382 22.0312 64.2382L21.7969 64.165Z" fill="#75D169"/>
<path d="M21.1719 64.165C21.4062 64.2382 21.4062 64.2382 21.4062 64.2382L21.1719 64.165Z" fill="#74CF69"/>
<path d="M15 56.5597C15.0547 56.5597 15.1016 56.5597 15.1562 56.5597C15.1328 56.6112 15.1016 56.6553 15.0781 56.7069C15.0547 56.6553 15.0234 56.6112 15 56.5597Z" fill="#75CE6C"/>
<path d="M40.7031 49.4662C40.7266 49.5177 40.7578 49.5618 40.7812 49.6134C40.7266 49.5913 40.6797 49.5618 40.625 49.5398C40.6484 49.5177 40.6797 49.4883 40.7031 49.4662Z" fill="#7ADD72"/>
<path d="M37.1094 37.3268C37.3437 37.4 37.3438 37.4 37.3438 37.4L37.1094 37.3268Z" fill="#7BDC72"/>
<path d="M44.0625 35.2061C44.2969 35.2792 44.2969 35.2792 44.2969 35.2792L44.0625 35.2061Z" fill="#7ADC73"/>
<path d="M33.4375 32.0616C33.6719 32.1347 33.6719 32.1347 33.6719 32.1347L33.4375 32.0616Z" fill="#79D970"/>
<path d="M46.25 29.5021C46.4844 29.5752 46.4844 29.5752 46.4844 29.5752L46.25 29.5021Z" fill="#7BDB71"/>
<path d="M42.5 18.094C42.7344 18.1672 42.7344 18.1672 42.7344 18.1672L42.5 18.094Z" fill="#79D970"/>
<path d="M44.7656 10.5618C45 10.6349 45 10.6349 45 10.6349L44.7656 10.5618Z" fill="#72CD6A"/>
<path d="M36.875 9.97675C37.1094 10.0499 37.1094 10.0499 37.1094 10.0499L36.875 9.97675Z" fill="#73CD6A"/>
<path d="M58.75 64.165C58.9062 64.2382 58.9062 64.2382 58.9062 64.2382L58.75 64.165Z" fill="#72CC68"/>
<path d="M58.125 64.165C58.2812 64.2382 58.2812 64.2382 58.2812 64.2382L58.125 64.165Z" fill="#74CF6A"/>
<path d="M48.75 64.165C48.9062 64.2382 48.9062 64.2382 48.9062 64.2382L48.75 64.165Z" fill="#76D26A"/>
<path d="M48.0469 64.165C48.2031 64.2382 48.2031 64.2382 48.2031 64.2382L48.0469 64.165Z" fill="#76D26A"/>
<path d="M43.75 64.165C43.9062 64.2382 43.9062 64.2382 43.9062 64.2382L43.75 64.165Z" fill="#76D26B"/>
<path d="M41.875 64.165C42.0312 64.2382 42.0312 64.2382 42.0312 64.2382L41.875 64.165Z" fill="#76D369"/>
<path d="M41.4844 64.165C41.6406 64.2382 41.6406 64.2382 41.6406 64.2382L41.4844 64.165Z" fill="#78D36B"/>
<path d="M41.25 64.165C41.4062 64.2382 41.4062 64.2382 41.4062 64.2382L41.25 64.165Z" fill="#77D16B"/>
<path d="M40 64.165C40.1562 64.2382 40.1562 64.2382 40.1562 64.2382L40 64.165Z" fill="#76D26A"/>
<path d="M36.25 64.165C36.4062 64.2382 36.4062 64.2382 36.4062 64.2382L36.25 64.165Z" fill="#75D26A"/>
<path d="M35.625 64.165C35.7812 64.2382 35.7812 64.2382 35.7812 64.2382L35.625 64.165Z" fill="#76D069"/>
<path d="M30.8594 64.165C31.0156 64.2382 31.0156 64.2382 31.0156 64.2382L30.8594 64.165Z" fill="#77D36B"/>
<path d="M27.1094 64.165C27.2656 64.2382 27.2656 64.2382 27.2656 64.2382L27.1094 64.165Z" fill="#76D36B"/>
<path d="M26.25 64.165C26.4062 64.2382 26.4062 64.2382 26.4062 64.2382L26.25 64.165Z" fill="#76D26B"/>
<path d="M23.125 64.165C23.2812 64.2382 23.2812 64.2382 23.2812 64.2382L23.125 64.165Z" fill="#76D16A"/>
<path d="M15.8594 61.313C16.0156 61.3862 16.0156 61.3862 16.0156 61.3862L15.8594 61.313Z" fill="#72CC69"/>
<path d="M60.625 60.8743C60.7812 60.9474 60.7812 60.9474 60.7812 60.9474L60.625 60.8743Z" fill="#7AD670"/>
<path d="M49.6875 48.5155C49.8438 48.5886 49.8438 48.5886 49.8438 48.5886L49.6875 48.5155Z" fill="#76D06B"/>
<path d="M50.1562 48.4424C50.3125 48.5155 50.3125 48.5155 50.3125 48.5155L50.1562 48.4424Z" fill="#75CE6B"/>
<path d="M29.8438 42.4459C30 42.519 30 42.519 30 42.519L29.8438 42.4459Z" fill="#7BDA70"/>
<path d="M30.4688 41.4221C30.625 41.4952 30.625 41.4952 30.625 41.4952L30.4688 41.4221Z" fill="#7ADA72"/>
<path d="M39.0625 38.6432C39.2188 38.7163 39.2188 38.7163 39.2188 38.7163L39.0625 38.6432Z" fill="#79D971"/>
<path d="M44.6875 37.985C44.8438 38.0581 44.8438 38.0581 44.8438 38.0581L44.6875 37.985Z" fill="#7CDA73"/>
<path d="M42.7344 37.4C42.8906 37.4731 42.8906 37.4731 42.8906 37.4731L42.7344 37.4Z" fill="#7CDC72"/>
<path d="M37.5781 37.2537C37.7344 37.3269 37.7344 37.3269 37.7344 37.3269L37.5781 37.2537Z" fill="#7BDC71"/>
<path d="M32.6562 36.303C32.8125 36.3762 32.8125 36.3762 32.8125 36.3762L32.6562 36.303Z" fill="#79D972"/>
<path d="M40.8594 34.6211C41.0156 34.6942 41.0156 34.6942 41.0156 34.6942L40.8594 34.6211Z" fill="#7CDD73"/>
<path d="M40.3125 34.6211C40.4688 34.6942 40.4688 34.6942 40.4688 34.6942L40.3125 34.6211Z" fill="#7ADC73"/>
<path d="M39.2188 34.548C39.375 34.6211 39.375 34.6211 39.375 34.6211L39.2188 34.548Z" fill="#7CDC73"/>
<path d="M31.6406 31.5497C31.7969 31.6228 31.7969 31.6228 31.7969 31.6228L31.6406 31.5497Z" fill="#79D86F"/>
<path d="M32.8125 29.2827C32.9688 29.3558 32.9688 29.3558 32.9688 29.3558L32.8125 29.2827Z" fill="#7BDA73"/>
<path d="M20.7812 24.8219C20.9375 24.895 20.9375 24.895 20.9375 24.895L20.7812 24.8219Z" fill="#7ADA71"/>
<path d="M58.4375 22.3355C58.5938 22.4086 58.5938 22.4086 58.5938 22.4086L58.4375 22.3355Z" fill="#74CF6C"/>
<path d="M43.4375 18.094C43.5938 18.1672 43.5938 18.1672 43.5938 18.1672L43.4375 18.094Z" fill="#7AD870"/>
<path d="M42.8125 18.094C42.9688 18.1672 42.9688 18.1672 42.9688 18.1672L42.8125 18.094Z" fill="#7BD870"/>
<path d="M41.1719 18.094C41.3281 18.1672 41.3281 18.1672 41.3281 18.1672L41.1719 18.094Z" fill="#7AD870"/>
<path d="M40.9375 18.094C41.0938 18.1672 41.0938 18.1672 41.0938 18.1672L40.9375 18.094Z" fill="#78D771"/>
<path d="M37.8906 18.094C38.0469 18.1672 38.0469 18.1672 38.0469 18.1672L37.8906 18.094Z" fill="#78D870"/>
<path d="M37.1875 18.094C37.3438 18.1672 37.3438 18.1672 37.3438 18.1672L37.1875 18.094Z" fill="#79D971"/>
<path d="M35.625 18.094C35.7812 18.1672 35.7812 18.1672 35.7812 18.1672L35.625 18.094Z" fill="#77D873"/>
<path d="M43.9844 15.3151C44.1406 15.3883 44.1406 15.3883 44.1406 15.3883L43.9844 15.3151Z" fill="#7CDC71"/>
<path d="M36.0938 12.8288C36.25 12.9019 36.25 12.9019 36.25 12.9019L36.0938 12.8288Z" fill="#7BDC71"/>
<path d="M43.4375 10.0499C43.5938 10.123 43.5938 10.123 43.5938 10.123L43.4375 10.0499Z" fill="#74CD6A"/>
<path d="M36.6406 9.97675C36.7969 10.0499 36.7969 10.0499 36.7969 10.0499L36.6406 9.97675Z" fill="#75CD69"/>
</svg>
